<?xml version="1.0" encoding="UTF-8"?><svg id="Layer_2" xmlns="http://www.w3.org/2000/svg" width="477.79" height="605.01" xmlns:xlink="http://www.w3.org/1999/xlink" viewBox="0 0 477.79 605.01"><defs><style>.cls-1{fill:#ffa53e;}.cls-2{fill:url(#New_Gradient_Swatch_copy_4-2);}.cls-3{fill:#9da5de;}.cls-4{fill:#5a5f80;}.cls-5{fill:#848aba;}.cls-6{fill:url(#New_Gradient_Swatch_copy_4-4);}.cls-7{fill:url(#New_Gradient_Swatch_copy_4);}.cls-8{fill:url(#New_Gradient_Swatch_copy_4-3);}</style><linearGradient id="New_Gradient_Swatch_copy_4" x1="6.37" y1="367.38" x2="19.68" y2="367.38" gradientUnits="userSpaceOnUse"><stop offset="0" stop-color="#fcb13a"/><stop offset=".78" stop-color="#fd7b0d"/><stop offset="1" stop-color="#fe6c00"/></linearGradient><linearGradient id="New_Gradient_Swatch_copy_4-2" y1="394.94" y2="394.94" xlink:href="#New_Gradient_Swatch_copy_4"/><linearGradient id="New_Gradient_Swatch_copy_4-3" y1="422.5" y2="422.5" xlink:href="#New_Gradient_Swatch_copy_4"/><linearGradient id="New_Gradient_Swatch_copy_4-4" y1="450.06" y2="450.06" xlink:href="#New_Gradient_Swatch_copy_4"/></defs><g id="COVER"><path class="cls-5" d="M47.45,67.44h-21.12v-8.4h32.6v18.99c-6.71,4.14-17.18,6.02-26.39,6.02-19.31,0-29.34-5.52-29.34-22.57s9.97-22.57,28.02-22.57c14.92,0,23.19,2.7,26.45,12.35l-11.66,3.76c-.56-3.76-3.57-6.27-14.79-6.27s-15.42,3.51-15.42,12.72,3.32,12.66,16.3,12.66c6.58,0,12.85-1.13,15.36-2.57v-4.14Z"/><path class="cls-5" d="M77.92,68.32c.88,4.95,4.7,7.02,12.35,7.02,5.7,0,9.59-1.5,11.53-3.76l11.28,3.01c-2.82,5.95-10.28,8.84-22.75,8.84-15.92,0-24.45-4.39-24.45-17.86s8.52-17.86,24.45-17.86c19.12,0,24.07,5.45,24.07,18.93v1.69h-36.48ZM102.3,61.49c-1-4.14-5.08-5.7-12.04-5.7s-10.97,1.57-12.04,5.7h24.07Z"/><path class="cls-5" d="M156.9,82.67v-19.87c0-3.82-1.88-6.52-7.46-6.52-6.58,0-11.35,1.63-14.54,4.33v22.06h-12.54v-34.22h10.91l.38,3.45c3.89-2.38,10.15-4.2,17.86-4.2,8.78,0,17.99,3.07,17.99,15.11v19.87h-12.6Z"/><path class="cls-5" d="M188.99,68.32c.88,4.95,4.7,7.02,12.35,7.02,5.7,0,9.59-1.5,11.53-3.76l11.28,3.01c-2.82,5.95-10.28,8.84-22.75,8.84-15.92,0-24.45-4.39-24.45-17.86s8.52-17.86,24.45-17.86c19.12,0,24.07,5.45,24.07,18.93v1.69h-36.48ZM213.37,61.49c-1-4.14-5.08-5.7-12.04-5.7s-10.97,1.57-12.04,5.7h24.07Z"/><path class="cls-5" d="M233.43,82.67v-34.22h10.91l.56,5.95c3.38-4.2,11.72-6.71,19.18-6.71v10.59c-6.08,0-15.17.69-18.12,4.76v19.62h-12.54Z"/><path class="cls-5" d="M321,81.8c-1.57,1.25-4.2,1.63-6.27,1.63-4.58,0-6.77-1.38-7.9-3.45-3.32,1.88-9.9,3.45-20.25,3.45-11.78,0-18.43-4.14-18.43-12.04,0-9.28,11.53-10.78,21.56-10.78,7.27,0,12.1.75,15.04,1.76-.5-3.64-1.88-6.02-13.67-6.02-7.15,0-12.29,1.19-15.92,3.32l-6.27-6.21c4.58-3.57,11.91-5.77,23.26-5.77,12.41,0,17.93,2.19,20.62,5.33,1.82,2.13,3.07,4.64,3.57,8.65.75,6.33.25,9.47.69,11.03.38,1.19.88,1.88,1.88,1.88.5,0,1.32,0,2.07-.38v7.58ZM305.39,69.32c-2.44-.69-9.59-1.63-15.11-1.63-8.59,0-9.59,1.44-9.59,3.76s1,3.82,9.59,3.82c5.52,0,12.66-.94,15.29-1.76l-.19-4.2Z"/><path class="cls-5" d="M329.4,82.67v-26.95h-5.83v-7.27h5.83v-8.21h12.04v8.21h6.08v7.27h-6.08v26.95h-12.04Z"/><path class="cls-5" d="M353.91,44.81v-7.08h12.47v7.08h-12.47ZM353.91,82.67v-34.22h12.47v34.22h-12.47Z"/><path class="cls-5" d="M390.77,82.67l-18.3-34.22h13.67l11.91,25.39,12.85-25.39h12.47l-18.68,34.22h-13.92Z"/><path class="cls-5" d="M436.46,68.32c.88,4.95,4.7,7.02,12.35,7.02,5.7,0,9.59-1.5,11.53-3.76l11.28,3.01c-2.82,5.95-10.28,8.84-22.75,8.84-15.92,0-24.45-4.39-24.45-17.86s8.53-17.86,24.45-17.86c19.12,0,24.07,5.45,24.07,18.93v1.69h-36.48ZM460.84,61.49c-1-4.14-5.08-5.7-12.04-5.7s-10.97,1.57-12.04,5.7h24.07Z"/><path class="cls-5" d="M47.2,140.49l-3.89-9.9h-24.7l-3.89,9.9H.75l18.49-42.44h23.32l18.49,42.44h-13.85ZM34.29,107.59h-6.64l-5.39,13.6h17.36l-5.33-13.6Z"/><path class="cls-5" d="M67.26,140.49v-42.44h12.54v42.44h-12.54Z"/><path class="cls-5" d="M156.64,140.49l-10.34-22.63-10.47,22.63h-12.98l-14.35-34.22h13.16l8.4,24.76,10.59-24.76h12.41l9.78,24.76,9.28-24.76h12.16l-14.73,34.22h-12.91Z"/><path class="cls-5" d="M210.49,141.25c-15.92,0-25.14-4.39-25.14-17.86s9.21-17.86,25.14-17.86,25.01,4.33,25.01,17.86-9.15,17.86-25.01,17.86ZM210.43,114.1c-9.03,0-13.35,2.7-13.35,9.28s4.32,9.28,13.35,9.28,13.23-2.7,13.23-9.28-4.33-9.28-13.23-9.28Z"/><path class="cls-5" d="M243.46,140.49v-34.22h10.91l.56,5.95c3.38-4.2,11.72-6.71,19.18-6.71v10.59c-6.08,0-15.17.69-18.12,4.76v19.62h-12.54Z"/><path class="cls-5" d="M313.29,140.49c-3.89-4.45-8.21-10.34-11.41-15.61l-9.09,7.21v8.4h-12.54v-44.94h12.54v25.01l18.49-14.29h16.55l-17.11,12.16c5.2,7.52,11.16,15.04,17.43,22.06h-14.86Z"/><path class="cls-5" d="M365.5,117.55c-.75-2.51-5.27-4.14-11.91-4.14-7.15,0-11.79,1-11.79,3.07,0,2.63,4.08,2.63,8.02,2.63,2.7,0,5.64-.06,7.9-.06,12.66,0,18.55,2.44,18.55,10.15s-6.27,12.6-23.82,12.6c-12.91,0-20.69-3.51-23.63-9.65l11.41-2.7c1.25,1.94,4.26,4.07,13.16,4.07,7.58,0,10.72-.94,10.72-3.26s-3.45-2.63-7.77-2.63c-2.26,0-4.83.06-7.52.06-8.71,0-19.18-1.82-19.18-10.84,0-6.96,6.46-11.35,23.88-11.35,14.35,0,20.62,3.45,22.75,8.71l-10.78,3.32Z"/><path class="cls-4" d="M5.05,207.99v-16.1h10.26v2.51h-7.48v4.23h6.83v2.51h-6.83v4.35h7.59v2.51H5.05Z"/><path class="cls-4" d="M16.94,207.99l4.23-5.73-4.16-5.64h3.08l2.78,3.93h.39l2.78-3.93h3.06l-4.16,5.64,4.23,5.73h-3.1l-2.81-4h-.39l-2.81,4h-3.13Z"/><path class="cls-4" d="M31.55,212.59v-15.96h2.6v1.5h.39c.26-.48.68-.9,1.25-1.27.58-.37,1.4-.55,2.47-.55.92,0,1.77.23,2.56.68.79.45,1.42,1.12,1.9,1.99s.71,1.92.71,3.15v.37c0,1.23-.24,2.28-.71,3.15-.48.87-1.1,1.54-1.89,1.99-.78.45-1.64.68-2.58.68-.72,0-1.32-.08-1.81-.25-.48-.17-.87-.39-1.17-.67s-.53-.55-.7-.83h-.39v6.03h-2.65ZM37.48,206.01c.97,0,1.76-.31,2.38-.93.62-.62.93-1.51.93-2.66v-.23c0-1.17-.31-2.05-.94-2.67-.63-.61-1.42-.92-2.37-.92s-1.74.31-2.38.92c-.64.61-.96,1.5-.96,2.67v.23c0,1.15.32,2.04.96,2.66.64.62,1.43.93,2.38.93Z"/><path class="cls-4" d="M51.44,208.31c-1.13,0-2.14-.24-3-.72-.87-.48-1.54-1.17-2.02-2.05-.48-.88-.72-1.91-.72-3.09v-.28c0-1.2.24-2.23.71-3.1.48-.87,1.14-1.55,2-2.04s1.85-.72,2.97-.72,2.07.24,2.9.72,1.47,1.16,1.93,2.04c.46.87.69,1.89.69,3.06v.94h-8.53c.03.89.34,1.6.94,2.14.6.54,1.33.8,2.21.8s1.49-.19,1.91-.56c.41-.38.73-.8.94-1.28l2.19,1.13c-.21.41-.53.85-.93,1.32-.41.47-.95.87-1.62,1.2-.68.33-1.53.49-2.55.49ZM48.38,201.07h5.82c-.06-.75-.35-1.35-.86-1.79-.51-.44-1.18-.67-1.99-.67s-1.52.22-2.02.67c-.51.44-.82,1.04-.94,1.79Z"/><path class="cls-4" d="M59.61,207.99v-11.36h2.6v1.31h.39c.17-.48.45-.82.85-1.04.4-.21.87-.32,1.43-.32h1.38v2.35h-1.43c-.77,0-1.39.2-1.86.61-.47.41-.71,1.03-.71,1.87v6.58h-2.64Z"/><path class="cls-4" d="M69.91,195.18c-.48,0-.89-.16-1.23-.47-.34-.31-.52-.73-.52-1.25s.17-.94.52-1.25c.35-.31.76-.47,1.23-.47.51,0,.92.16,1.25.47.33.31.49.73.49,1.25s-.16.94-.49,1.25c-.33.31-.75.47-1.25.47ZM68.6,207.99v-11.36h2.65v11.36h-2.65Z"/><path class="cls-4" d="M79.8,208.31c-1.13,0-2.13-.24-3-.72-.87-.48-1.54-1.17-2.02-2.05-.48-.88-.72-1.91-.72-3.09v-.28c0-1.2.24-2.23.71-3.1.47-.87,1.14-1.55,2-2.04s1.85-.72,2.97-.72,2.07.24,2.9.72,1.47,1.16,1.93,2.04c.46.87.69,1.89.69,3.06v.94h-8.53c.03.89.35,1.6.94,2.14.6.54,1.33.8,2.21.8s1.5-.19,1.91-.56c.41-.38.73-.8.94-1.28l2.18,1.13c-.21.41-.53.85-.93,1.32-.41.47-.95.87-1.62,1.2s-1.53.49-2.55.49ZM76.74,201.07h5.82c-.06-.75-.35-1.35-.86-1.79-.51-.44-1.18-.67-1.99-.67s-1.52.22-2.02.67c-.51.44-.82,1.04-.94,1.79Z"/><path class="cls-4" d="M87.96,207.99v-11.36h2.6v1.59h.39c.2-.43.56-.84,1.08-1.22.52-.38,1.31-.57,2.37-.57.87,0,1.65.2,2.32.6.67.4,1.2.95,1.58,1.66.38.71.56,1.54.56,2.51v6.81h-2.64v-6.6c0-.92-.23-1.61-.68-2.06-.45-.45-1.09-.68-1.92-.68-.94,0-1.67.31-2.21.93-.54.62-.8,1.51-.8,2.66v5.75h-2.65Z"/><path class="cls-4" d="M107.42,208.31c-1.1,0-2.1-.23-2.99-.69-.89-.46-1.59-1.13-2.1-2s-.77-1.92-.77-3.15v-.32c0-1.23.26-2.28.77-3.15.51-.87,1.21-1.54,2.1-2,.89-.46,1.89-.69,2.99-.69s2.02.19,2.79.57c.77.38,1.4.91,1.87,1.58s.78,1.41.92,2.24l-2.55.53c-.06-.48-.21-.91-.44-1.3s-.56-.7-.98-.93c-.42-.23-.94-.34-1.55-.34s-1.19.13-1.69.4c-.5.27-.89.67-1.17,1.21-.28.54-.43,1.18-.43,1.93v.23c0,.75.14,1.39.43,1.92s.67.93,1.17,1.21c.5.28,1.06.41,1.69.41.94,0,1.64-.24,2.13-.72.48-.48.79-1.11.91-1.87l2.55.6c-.18.8-.51,1.53-.99,2.19-.48.66-1.1,1.18-1.87,1.58-.78.39-1.71.59-2.79.59Z"/><path class="cls-4" d="M120.85,208.31c-1.13,0-2.13-.24-3-.72-.87-.48-1.54-1.17-2.02-2.05-.48-.88-.72-1.91-.72-3.09v-.28c0-1.2.24-2.23.71-3.1.47-.87,1.14-1.55,2-2.04s1.85-.72,2.97-.72,2.07.24,2.9.72,1.47,1.16,1.93,2.04c.46.87.69,1.89.69,3.06v.94h-8.53c.03.89.35,1.6.94,2.14.6.54,1.33.8,2.21.8s1.5-.19,1.91-.56c.41-.38.73-.8.94-1.28l2.18,1.13c-.21.41-.53.85-.93,1.32-.41.47-.95.87-1.62,1.2s-1.53.49-2.55.49ZM117.79,201.07h5.82c-.06-.75-.35-1.35-.86-1.79-.51-.44-1.18-.67-1.99-.67s-1.52.22-2.02.67c-.51.44-.82,1.04-.94,1.79Z"/><path class="cls-4" d="M139.21,207.99c-.74,0-1.32-.22-1.76-.66-.44-.44-.66-1.03-.66-1.78v-6.74h-2.97v-2.19h2.97v-3.66h2.65v3.66h3.27v2.19h-3.27v6.3c0,.46.21.69.64.69h2.28v2.19h-3.15Z"/><path class="cls-4" d="M145.39,207.99v-16.1h2.64v6.23h.39c.12-.26.32-.52.6-.78.28-.26.64-.48,1.09-.64.45-.17,1.02-.25,1.71-.25.87,0,1.65.2,2.32.59.68.39,1.2.94,1.58,1.64.38.71.56,1.54.56,2.51v6.81h-2.65v-6.6c0-.92-.23-1.61-.68-2.06-.45-.45-1.09-.68-1.92-.68-.94,0-1.67.31-2.21.93s-.8,1.51-.8,2.66v5.75h-2.64Z"/><path class="cls-4" d="M164.74,208.31c-1.13,0-2.13-.24-3-.72-.87-.48-1.54-1.17-2.02-2.05-.48-.88-.72-1.91-.72-3.09v-.28c0-1.2.24-2.23.71-3.1.47-.87,1.14-1.55,2-2.04s1.85-.72,2.97-.72,2.07.24,2.9.72,1.47,1.16,1.93,2.04c.46.87.69,1.89.69,3.06v.94h-8.53c.03.89.35,1.6.94,2.14.6.54,1.33.8,2.21.8s1.5-.19,1.91-.56c.41-.38.73-.8.94-1.28l2.18,1.13c-.21.41-.53.85-.93,1.32-.41.47-.95.87-1.62,1.2s-1.53.49-2.55.49ZM161.68,201.07h5.82c-.06-.75-.35-1.35-.86-1.79-.51-.44-1.18-.67-1.99-.67s-1.52.22-2.02.67c-.51.44-.82,1.04-.94,1.79Z"/><path class="cls-4" d="M178.77,212.59v-15.96h2.6v1.5h.39c.26-.48.68-.9,1.25-1.27.57-.37,1.4-.55,2.47-.55.92,0,1.77.23,2.56.68.79.45,1.42,1.12,1.9,1.99.48.87.71,1.92.71,3.15v.37c0,1.23-.24,2.28-.71,3.15-.47.87-1.1,1.54-1.88,1.99-.78.45-1.64.68-2.58.68-.72,0-1.32-.08-1.81-.25-.48-.17-.87-.39-1.17-.67s-.53-.55-.7-.83h-.39v6.03h-2.65ZM184.7,206.01c.97,0,1.76-.31,2.38-.93.62-.62.93-1.51.93-2.66v-.23c0-1.17-.31-2.05-.94-2.67-.63-.61-1.42-.92-2.37-.92s-1.74.31-2.38.92c-.64.61-.95,1.5-.95,2.67v.23c0,1.15.32,2.04.95,2.66.64.62,1.43.93,2.38.93Z"/><path class="cls-4" d="M198.84,208.31c-1.13,0-2.15-.23-3.05-.7-.9-.47-1.6-1.13-2.12-2-.51-.87-.77-1.91-.77-3.12v-.37c0-1.21.26-2.25.77-3.13.51-.87,1.22-1.54,2.12-2,.9-.46,1.91-.69,3.05-.69s2.15.23,3.04.69c.89.46,1.59,1.13,2.1,2,.51.87.77,1.92.77,3.13v.37c0,1.21-.26,2.25-.77,3.12-.51.87-1.22,1.53-2.1,2-.89.47-1.9.7-3.04.7ZM198.84,205.97c.97,0,1.75-.31,2.37-.93.61-.62.92-1.49.92-2.61v-.23c0-1.12-.31-1.99-.92-2.61-.61-.62-1.4-.93-2.37-.93s-1.76.31-2.37.93-.92,1.49-.92,2.61v.23c0,1.12.31,1.99.92,2.61.61.62,1.4.93,2.37.93Z"/><path class="cls-4" d="M208.55,207.99l-1.77-11.36h2.62l1.22,9.59h.39l1.72-9.59h4.23l1.72,9.59h.39l1.22-9.59h2.62l-1.77,11.36h-4.39l-1.7-9.59h-.39l-1.72,9.59h-4.39Z"/><path class="cls-4" d="M230.7,208.31c-1.13,0-2.13-.24-3-.72-.87-.48-1.54-1.17-2.02-2.05-.48-.88-.72-1.91-.72-3.09v-.28c0-1.2.24-2.23.71-3.1.47-.87,1.14-1.55,2-2.04s1.85-.72,2.97-.72,2.07.24,2.9.72,1.47,1.16,1.93,2.04c.46.87.69,1.89.69,3.06v.94h-8.53c.03.89.35,1.6.94,2.14.6.54,1.33.8,2.21.8s1.5-.19,1.91-.56c.41-.38.73-.8.94-1.28l2.18,1.13c-.21.41-.53.85-.93,1.32-.41.47-.95.87-1.62,1.2s-1.53.49-2.55.49ZM227.64,201.07h5.82c-.06-.75-.35-1.35-.86-1.79-.51-.44-1.18-.67-1.99-.67s-1.52.22-2.02.67c-.51.44-.82,1.04-.94,1.79Z"/><path class="cls-4" d="M238.86,207.99v-11.36h2.6v1.31h.39c.17-.48.45-.82.85-1.04.4-.21.87-.32,1.43-.32h1.38v2.35h-1.43c-.77,0-1.39.2-1.86.61-.48.41-.71,1.03-.71,1.87v6.58h-2.65Z"/><path class="cls-4" d="M259.1,208.31c-1.13,0-2.15-.23-3.05-.7-.9-.47-1.6-1.13-2.12-2-.51-.87-.77-1.91-.77-3.12v-.37c0-1.21.26-2.25.77-3.13.51-.87,1.22-1.54,2.12-2,.9-.46,1.91-.69,3.05-.69s2.15.23,3.04.69,1.59,1.13,2.1,2c.51.87.77,1.92.77,3.13v.37c0,1.21-.26,2.25-.77,3.12-.51.87-1.21,1.53-2.1,2s-1.9.7-3.04.7ZM259.1,205.97c.97,0,1.76-.31,2.37-.93.61-.62.92-1.49.92-2.61v-.23c0-1.12-.31-1.99-.92-2.61s-1.4-.93-2.37-.93-1.76.31-2.37.93-.92,1.49-.92,2.61v.23c0,1.12.31,1.99.92,2.61.61.62,1.4.93,2.37.93Z"/><path class="cls-4" d="M269.41,207.99v-9.18h-3.04v-2.19h3.04v-2.3c0-.75.22-1.35.65-1.78.44-.44,1.02-.66,1.74-.66h2.95v2.18h-2.07c-.43,0-.64.23-.64.69v1.86h3.13v2.19h-3.13v9.18h-2.62Z"/><path class="cls-4" d="M288.84,208.31c-1.13,0-2.15-.25-3.05-.75-.9-.5-1.61-1.23-2.14-2.18-.53-.96-.79-2.14-.79-3.53v-3.82c0-2.09.58-3.68,1.75-4.8,1.17-1.11,2.73-1.67,4.69-1.67s3.47.53,4.53,1.58c1.06,1.05,1.59,2.46,1.59,4.24v.09h-2.71v-.18c0-.61-.12-1.17-.37-1.66-.25-.49-.62-.88-1.13-1.16-.51-.28-1.14-.43-1.91-.43-1.14,0-2.03.35-2.68,1.05-.65.7-.98,1.66-.98,2.89v3.91c0,1.21.33,2.18.98,2.9.65.72,1.56,1.08,2.72,1.08s2.02-.31,2.55-.94c.54-.63.81-1.43.81-2.42v-.28h-4.07v-2.35h6.79v8.1h-2.53v-1.59h-.39c-.12.28-.31.56-.58.86-.26.3-.63.55-1.12.75s-1.14.3-1.97.3Z"/><path class="cls-4" d="M303.75,208.31c-1.13,0-2.13-.24-3-.72-.87-.48-1.54-1.17-2.02-2.05-.48-.88-.72-1.91-.72-3.09v-.28c0-1.2.24-2.23.71-3.1.47-.87,1.14-1.55,2-2.04s1.85-.72,2.97-.72,2.07.24,2.9.72,1.47,1.16,1.93,2.04c.46.87.69,1.89.69,3.06v.94h-8.53c.03.89.35,1.6.94,2.14.6.54,1.33.8,2.21.8s1.5-.19,1.91-.56c.41-.38.73-.8.94-1.28l2.18,1.13c-.21.41-.53.85-.93,1.32-.41.47-.95.87-1.62,1.2s-1.53.49-2.55.49ZM300.69,201.07h5.82c-.06-.75-.35-1.35-.86-1.79-.51-.44-1.18-.67-1.99-.67s-1.52.22-2.02.67c-.51.44-.82,1.04-.94,1.79Z"/><path class="cls-4" d="M311.91,207.99v-11.36h2.6v1.59h.39c.2-.43.56-.84,1.08-1.22.52-.38,1.31-.57,2.37-.57.87,0,1.65.2,2.32.6.67.4,1.2.95,1.58,1.66.38.71.56,1.54.56,2.51v6.81h-2.64v-6.6c0-.92-.23-1.61-.68-2.06-.45-.45-1.09-.68-1.92-.68-.94,0-1.67.31-2.21.93-.54.62-.8,1.51-.8,2.66v5.75h-2.65Z"/><path class="cls-4" d="M331.25,208.31c-1.13,0-2.14-.24-3-.72-.87-.48-1.54-1.17-2.02-2.05-.48-.88-.72-1.91-.72-3.09v-.28c0-1.2.24-2.23.71-3.1.47-.87,1.14-1.55,2-2.04.86-.48,1.85-.72,2.97-.72s2.07.24,2.9.72,1.47,1.16,1.93,2.04c.46.87.69,1.89.69,3.06v.94h-8.53c.03.89.34,1.6.94,2.14.6.54,1.33.8,2.21.8s1.5-.19,1.91-.56c.41-.38.73-.8.94-1.28l2.19,1.13c-.21.41-.53.85-.93,1.32-.41.47-.95.87-1.62,1.2-.68.33-1.53.49-2.55.49ZM328.19,201.07h5.82c-.06-.75-.35-1.35-.86-1.79-.51-.44-1.18-.67-1.99-.67s-1.52.22-2.02.67c-.51.44-.82,1.04-.94,1.79Z"/><path class="cls-4" d="M339.42,207.99v-11.36h2.6v1.31h.39c.17-.48.45-.82.85-1.04.4-.21.87-.32,1.43-.32h1.38v2.35h-1.43c-.77,0-1.39.2-1.86.61-.48.41-.71,1.03-.71,1.87v6.58h-2.65Z"/><path class="cls-4" d="M351.63,208.31c-.8,0-1.52-.14-2.16-.43-.64-.28-1.15-.69-1.53-1.23-.38-.54-.56-1.2-.56-1.98s.19-1.41.56-1.93c.38-.52.89-.92,1.55-1.18.66-.27,1.41-.4,2.25-.4h3.29v-.69c0-.6-.18-1.08-.55-1.46-.37-.38-.94-.56-1.72-.56s-1.35.18-1.74.54c-.39.36-.65.82-.77,1.39l-2.44-.8c.18-.6.48-1.14.89-1.63.41-.49.95-.89,1.62-1.18.67-.3,1.5-.45,2.48-.45,1.49,0,2.66.37,3.51,1.12.85.74,1.28,1.82,1.28,3.23v4.46c0,.46.21.69.64.69h.97v2.19h-1.86c-.55,0-1-.14-1.36-.41-.35-.28-.53-.65-.53-1.13v-.05h-.39c-.09.21-.25.48-.48.78-.23.31-.58.57-1.05.79-.47.22-1.1.33-1.9.33ZM352.07,206.15c.87,0,1.59-.25,2.14-.75.55-.5.83-1.17.83-2.01v-.23h-3.13c-.57,0-1.03.12-1.38.37-.35.25-.53.61-.53,1.08s.18.83.55,1.12c.37.28.87.43,1.52.43Z"/><path class="cls-4" d="M364.9,207.99c-.74,0-1.32-.22-1.76-.66-.44-.44-.66-1.03-.66-1.78v-6.74h-2.97v-2.19h2.97v-3.66h2.65v3.66h3.27v2.19h-3.27v6.3c0,.46.21.69.64.69h2.28v2.19h-3.15Z"/><path class="cls-4" d="M372.4,195.18c-.48,0-.89-.16-1.23-.47-.35-.31-.52-.73-.52-1.25s.17-.94.52-1.25c.34-.31.75-.47,1.23-.47.51,0,.92.16,1.25.47.33.31.49.73.49,1.25s-.17.94-.49,1.25c-.33.31-.75.47-1.25.47ZM371.09,207.99v-11.36h2.64v11.36h-2.64Z"/><path class="cls-4" d="M379.6,207.99l-3.73-11.36h2.81l2.81,9.43h.39l2.83-9.43h2.81l-3.73,11.36h-4.19Z"/><path class="cls-4" d="M394.48,208.31c-1.13,0-2.14-.24-3-.72-.87-.48-1.54-1.17-2.02-2.05-.48-.88-.72-1.91-.72-3.09v-.28c0-1.2.24-2.23.71-3.1.48-.87,1.14-1.55,2-2.04s1.85-.72,2.97-.72,2.07.24,2.9.72,1.47,1.16,1.93,2.04c.46.87.69,1.89.69,3.06v.94h-8.53c.03.89.34,1.6.94,2.14.6.54,1.33.8,2.21.8s1.49-.19,1.91-.56c.41-.38.73-.8.94-1.28l2.19,1.13c-.21.41-.53.85-.93,1.32-.41.47-.95.87-1.62,1.2-.68.33-1.53.49-2.55.49ZM391.42,201.07h5.82c-.06-.75-.35-1.35-.86-1.79-.51-.44-1.18-.67-1.99-.67s-1.52.22-2.02.67c-.51.44-.82,1.04-.94,1.79Z"/><path class="cls-4" d="M407.01,207.99l4.42-16.1h4.81l4.42,16.1h-2.85l-.97-3.68h-6l-.97,3.68h-2.85ZM411.48,201.78h4.71l-2.16-8.17h-.39l-2.16,8.17Z"/><path class="cls-4" d="M422.7,207.99v-16.1h2.78v16.1h-2.78Z"/><path class="cls-4" d="M435.92,195.18c-.48,0-.89-.16-1.23-.47-.34-.31-.52-.73-.52-1.25s.17-.94.52-1.25c.35-.31.76-.47,1.23-.47.51,0,.92.16,1.25.47.33.31.49.73.49,1.25s-.16.94-.49,1.25c-.33.31-.75.47-1.25.47ZM434.61,207.99v-11.36h2.65v11.36h-2.65Z"/><path class="cls-4" d="M440.62,207.99v-11.36h2.6v1.59h.39c.2-.43.56-.84,1.08-1.22.52-.38,1.31-.57,2.37-.57.87,0,1.65.2,2.32.6.67.4,1.2.95,1.58,1.66.38.71.56,1.54.56,2.51v6.81h-2.64v-6.6c0-.92-.23-1.61-.68-2.06-.45-.45-1.09-.68-1.92-.68-.94,0-1.67.31-2.21.93-.54.62-.8,1.51-.8,2.66v5.75h-2.65Z"/><path class="cls-4" d="M5.14,240.99v-11.36h2.6v1.27h.39c.2-.38.53-.72,1-1.02.47-.3,1.09-.45,1.87-.45.83,0,1.5.17,2,.51.51.34.89.77,1.15,1.29h.37c.26-.52.64-.95,1.13-1.29.49-.34,1.19-.51,2.09-.51.71,0,1.35.15,1.92.46.58.31,1.04.76,1.38,1.36.34.6.52,1.34.52,2.23v7.52h-2.65v-7.34c0-.66-.18-1.16-.53-1.51s-.84-.52-1.47-.52c-.69,0-1.24.23-1.64.68-.41.45-.61,1.1-.61,1.94v6.74h-2.62v-7.34c0-.66-.18-1.16-.53-1.51s-.84-.52-1.47-.52c-.71,0-1.26.23-1.66.68-.4.45-.6,1.1-.6,1.94v6.74h-2.64Z"/><path class="cls-4" d="M25.89,245.59v-2.3h6.28c.43,0,.64-.23.64-.69v-3.17h-.39c-.12.28-.32.55-.6.82-.28.27-.64.49-1.1.67-.46.18-1.04.26-1.75.26-.87,0-1.65-.2-2.32-.59-.67-.39-1.2-.94-1.56-1.66s-.55-1.54-.55-2.5v-6.81h2.62v6.6c0,.92.23,1.6.68,2.05.45.44,1.09.67,1.92.67.94,0,1.67-.31,2.22-.92.54-.61.82-1.49.82-2.65v-5.75h2.62v13.52c0,.75-.21,1.35-.64,1.78s-1.01.66-1.75.66h-7.13Z"/><path class="cls-4" d="M45.71,240.99l-1.77-11.36h2.62l1.22,9.59h.39l1.72-9.59h4.23l1.72,9.59h.39l1.22-9.59h2.62l-1.77,11.36h-4.39l-1.7-9.59h-.39l-1.73,9.59h-4.39Z"/><path class="cls-4" d="M68.05,241.31c-1.13,0-2.15-.23-3.05-.7s-1.6-1.13-2.12-2c-.51-.87-.77-1.91-.77-3.12v-.37c0-1.21.26-2.25.77-3.13.51-.87,1.22-1.54,2.12-2s1.91-.69,3.05-.69,2.15.23,3.04.69c.89.46,1.59,1.13,2.11,2,.51.87.77,1.92.77,3.13v.37c0,1.21-.26,2.25-.77,3.12-.51.87-1.22,1.53-2.11,2-.89.47-1.9.7-3.04.7ZM68.05,238.97c.96,0,1.75-.31,2.37-.93.61-.62.92-1.49.92-2.61v-.23c0-1.12-.31-1.99-.92-2.61-.61-.62-1.4-.93-2.37-.93s-1.76.31-2.37.93-.92,1.49-.92,2.61v.23c0,1.12.31,1.99.92,2.61.61.62,1.4.93,2.37.93Z"/><path class="cls-4" d="M76.76,240.99v-11.36h2.6v1.31h.39c.17-.48.45-.82.85-1.04.4-.21.88-.32,1.43-.32h1.38v2.35h-1.43c-.77,0-1.39.2-1.86.61-.48.41-.71,1.03-.71,1.87v6.58h-2.64Z"/><path class="cls-4" d="M85.76,240.99v-16.1h2.64v9.04h.39l4.09-4.3h3.47l-5.5,5.5,5.68,5.86h-3.43l-4.32-4.62h-.39v4.62h-2.64Z"/><path class="cls-4" d="M102.96,241.31c-1.47,0-2.68-.32-3.63-.97-.95-.64-1.53-1.59-1.72-2.83l2.44-.62c.11.58.3,1.04.57,1.38.28.34.62.57,1.02.71.41.14.85.21,1.32.21.72,0,1.26-.13,1.62-.39.36-.26.54-.59.54-.99s-.17-.72-.52-.92c-.34-.2-.87-.37-1.58-.51l-.71-.11c-.78-.15-1.5-.36-2.14-.63-.64-.27-1.16-.64-1.55-1.1-.39-.47-.59-1.06-.59-1.78,0-1.1.41-1.95,1.23-2.55.82-.6,1.9-.9,3.23-.9s2.32.28,3.15.85c.83.57,1.37,1.33,1.61,2.28l-2.44.74c-.12-.64-.39-1.1-.8-1.37-.41-.27-.92-.4-1.52-.4s-1.08.11-1.41.32c-.33.21-.5.52-.5.92s.17.7.51.9c.34.2.79.34,1.36.44l.71.14c.84.15,1.61.35,2.29.6.68.25,1.22.6,1.62,1.06.4.46.6,1.08.6,1.86,0,1.18-.42,2.09-1.28,2.73-.85.64-2,.95-3.44.95Z"/><path class="cls-4" d="M110.46,244.26v-1.47h.85c.66,0,.99-.33.99-.99v-.74h-.37c-.57,0-1.04-.17-1.43-.52-.38-.34-.58-.79-.58-1.32,0-.57.19-1.03.58-1.39.38-.36.86-.54,1.43-.54s1.06.18,1.43.55c.37.37.55.85.55,1.45v2.53c0,1.63-.81,2.44-2.42,2.44h-1.04Z"/><path class="cls-4" d="M126.72,241.31c-1.47,0-2.68-.32-3.63-.97-.95-.64-1.53-1.59-1.72-2.83l2.44-.62c.11.58.3,1.04.58,1.38.28.34.62.57,1.02.71.41.14.85.21,1.32.21.72,0,1.26-.13,1.62-.39.36-.26.54-.59.54-.99s-.17-.72-.52-.92c-.35-.2-.87-.37-1.58-.51l-.71-.11c-.78-.15-1.5-.36-2.14-.63-.64-.27-1.16-.64-1.55-1.1-.39-.47-.59-1.06-.59-1.78,0-1.1.41-1.95,1.23-2.55.82-.6,1.9-.9,3.23-.9s2.32.28,3.15.85c.83.57,1.36,1.33,1.61,2.28l-2.44.74c-.12-.64-.39-1.1-.8-1.37-.41-.27-.92-.4-1.52-.4s-1.08.11-1.41.32c-.33.21-.49.52-.49.92s.17.7.51.9c.34.2.79.34,1.36.44l.71.14c.84.15,1.61.35,2.29.6.68.25,1.22.6,1.62,1.06.4.46.6,1.08.6,1.86,0,1.18-.43,2.09-1.28,2.73-.85.64-2,.95-3.44.95Z"/><path class="cls-4" d="M134.1,240.99v-16.1h2.64v6.23h.39c.12-.26.32-.52.6-.78.28-.26.64-.48,1.09-.64.45-.17,1.02-.25,1.71-.25.87,0,1.65.2,2.32.59.68.39,1.2.94,1.58,1.64.38.71.56,1.54.56,2.51v6.81h-2.65v-6.6c0-.92-.23-1.61-.68-2.06-.45-.45-1.09-.68-1.92-.68-.94,0-1.67.31-2.21.93s-.8,1.51-.8,2.66v5.75h-2.64Z"/><path class="cls-4" d="M153.63,241.31c-1.13,0-2.15-.23-3.05-.7s-1.6-1.13-2.12-2c-.51-.87-.77-1.91-.77-3.12v-.37c0-1.21.26-2.25.77-3.13.51-.87,1.22-1.54,2.12-2s1.91-.69,3.05-.69,2.15.23,3.04.69c.89.46,1.59,1.13,2.1,2,.51.87.77,1.92.77,3.13v.37c0,1.21-.26,2.25-.77,3.12-.51.87-1.21,1.53-2.1,2-.89.47-1.9.7-3.04.7ZM153.63,238.97c.97,0,1.76-.31,2.37-.93.61-.62.92-1.49.92-2.61v-.23c0-1.12-.31-1.99-.92-2.61s-1.4-.93-2.37-.93-1.76.31-2.37.93-.92,1.49-.92,2.61v.23c0,1.12.31,1.99.92,2.61.61.62,1.4.93,2.37.93Z"/><path class="cls-4" d="M163.33,240.99l-1.77-11.36h2.62l1.22,9.59h.39l1.72-9.59h4.23l1.72,9.59h.39l1.22-9.59h2.62l-1.77,11.36h-4.39l-1.7-9.59h-.39l-1.72,9.59h-4.39Z"/><path class="cls-4" d="M185.6,241.31c-1.1,0-2.1-.23-2.99-.69-.89-.46-1.59-1.13-2.1-2s-.77-1.92-.77-3.15v-.32c0-1.23.26-2.28.77-3.15.51-.87,1.21-1.54,2.1-2,.89-.46,1.89-.69,2.99-.69s2.02.19,2.79.57c.77.38,1.4.91,1.87,1.58s.78,1.41.92,2.24l-2.55.53c-.06-.48-.21-.91-.44-1.3s-.56-.7-.98-.93c-.42-.23-.94-.34-1.55-.34s-1.19.13-1.69.4c-.5.27-.89.67-1.17,1.21-.28.54-.43,1.18-.43,1.93v.23c0,.75.14,1.39.43,1.92s.67.93,1.17,1.21c.5.28,1.06.41,1.69.41.94,0,1.64-.24,2.13-.72.48-.48.79-1.11.91-1.87l2.55.6c-.18.8-.51,1.53-.99,2.19-.48.66-1.1,1.18-1.87,1.58-.78.39-1.71.59-2.79.59Z"/><path class="cls-4" d="M197.35,241.31c-.8,0-1.52-.14-2.16-.43s-1.15-.69-1.53-1.23c-.38-.54-.56-1.2-.56-1.98s.19-1.41.56-1.93c.38-.52.89-.92,1.55-1.18.66-.27,1.41-.4,2.25-.4h3.29v-.69c0-.6-.18-1.08-.55-1.46-.37-.38-.94-.56-1.72-.56s-1.35.18-1.74.54c-.39.36-.65.82-.77,1.39l-2.44-.8c.18-.6.48-1.14.89-1.63.41-.49.95-.89,1.62-1.18.67-.3,1.5-.45,2.48-.45,1.49,0,2.66.37,3.51,1.12.85.74,1.28,1.82,1.28,3.23v4.46c0,.46.21.69.64.69h.97v2.19h-1.86c-.55,0-1-.14-1.36-.41-.35-.28-.53-.65-.53-1.13v-.05h-.39c-.09.21-.25.48-.48.78-.23.31-.58.57-1.05.79-.47.22-1.1.33-1.9.33ZM197.79,239.15c.87,0,1.59-.25,2.14-.75.55-.5.83-1.17.83-2.01v-.23h-3.13c-.57,0-1.03.12-1.38.37-.35.25-.53.61-.53,1.08s.18.83.55,1.12c.37.28.87.43,1.52.43Z"/><path class="cls-4" d="M211.7,241.31c-1.47,0-2.68-.32-3.63-.97-.95-.64-1.53-1.59-1.72-2.83l2.44-.62c.11.58.3,1.04.57,1.38.28.34.62.57,1.02.71.41.14.85.21,1.32.21.72,0,1.26-.13,1.62-.39.36-.26.54-.59.54-.99s-.17-.72-.52-.92c-.34-.2-.87-.37-1.58-.51l-.71-.11c-.78-.15-1.5-.36-2.14-.63-.64-.27-1.16-.64-1.55-1.1-.39-.47-.59-1.06-.59-1.78,0-1.1.41-1.95,1.23-2.55.82-.6,1.9-.9,3.23-.9s2.32.28,3.15.85c.83.57,1.37,1.33,1.61,2.28l-2.44.74c-.12-.64-.39-1.1-.8-1.37-.41-.27-.92-.4-1.52-.4s-1.08.11-1.41.32c-.33.21-.5.52-.5.92s.17.7.51.9c.34.2.79.34,1.36.44l.71.14c.84.15,1.61.35,2.29.6.68.25,1.22.6,1.62,1.06.4.46.6,1.08.6,1.86,0,1.18-.42,2.09-1.28,2.73-.85.64-2,.95-3.44.95Z"/><path class="cls-4" d="M220.4,228.18c-.48,0-.89-.16-1.23-.47-.34-.31-.52-.73-.52-1.25s.17-.94.52-1.25c.34-.31.75-.47,1.23-.47.51,0,.92.16,1.25.47.33.31.49.73.49,1.25s-.17.94-.49,1.25c-.33.31-.75.47-1.25.47ZM219.08,240.99v-11.36h2.65v11.36h-2.65Z"/><path class="cls-4" d="M225.09,240.99v-11.36h2.6v1.59h.39c.2-.43.56-.84,1.08-1.22.52-.38,1.31-.57,2.37-.57.88,0,1.65.2,2.32.6.67.4,1.2.95,1.58,1.66.38.71.56,1.54.56,2.51v6.81h-2.65v-6.6c0-.92-.23-1.61-.68-2.06-.45-.45-1.09-.68-1.92-.68-.94,0-1.67.31-2.21.93-.54.62-.8,1.51-.8,2.66v5.75h-2.64Z"/><path class="cls-4" d="M238.68,235.35v-.34c0-1.2.24-2.22.71-3.07.48-.85,1.11-1.5,1.91-1.95.8-.45,1.67-.68,2.62-.68,1.07,0,1.89.19,2.45.57.56.38.97.8,1.23,1.24h.39v-1.5h2.58v13.52c0,.75-.21,1.35-.64,1.78-.43.44-1.01.66-1.75.66h-7.64v-2.3h6.74c.44,0,.67-.23.67-.69v-3.29h-.39c-.17.26-.4.53-.69.79-.29.27-.67.49-1.15.68-.48.18-1.07.28-1.79.28-.95,0-1.82-.23-2.62-.68-.8-.45-1.43-1.1-1.91-1.95-.47-.85-.71-1.87-.71-3.07ZM244.66,238.74c.95,0,1.74-.3,2.37-.91.63-.61.94-1.45.94-2.54v-.23c0-1.1-.31-1.96-.93-2.55-.62-.6-1.41-.9-2.38-.9s-1.74.3-2.38.9c-.64.6-.95,1.45-.95,2.55v.23c0,1.09.32,1.94.95,2.54.64.61,1.43.91,2.38.91Z"/><path class="cls-4" d="M265.11,241.31c-1.1,0-2.1-.23-2.99-.69-.89-.46-1.59-1.13-2.11-2s-.77-1.92-.77-3.15v-.32c0-1.23.26-2.28.77-3.15.51-.87,1.21-1.54,2.11-2,.89-.46,1.89-.69,2.99-.69s2.02.19,2.79.57c.77.38,1.4.91,1.87,1.58.48.67.78,1.41.92,2.24l-2.55.53c-.06-.48-.21-.91-.44-1.3-.23-.39-.55-.7-.98-.93-.42-.23-.94-.34-1.55-.34s-1.19.13-1.69.4c-.5.27-.89.67-1.17,1.21-.28.54-.43,1.18-.43,1.93v.23c0,.75.14,1.39.43,1.92.28.53.67.93,1.17,1.21.5.28,1.06.41,1.69.41.94,0,1.64-.24,2.13-.72.48-.48.79-1.11.91-1.87l2.55.6c-.18.8-.51,1.53-.99,2.19-.47.66-1.1,1.18-1.87,1.58s-1.71.59-2.79.59Z"/><path class="cls-4" d="M277.69,241.17c-.87,0-1.65-.2-2.32-.59-.68-.39-1.2-.94-1.56-1.66-.37-.71-.55-1.54-.55-2.5v-6.81h2.62v6.6c0,.92.23,1.6.68,2.05.45.44,1.09.67,1.92.67.93,0,1.67-.31,2.22-.92.54-.61.82-1.49.82-2.65v-5.75h2.62v11.36h-2.58v-1.59h-.39c-.2.41-.56.81-1.09,1.2-.53.38-1.32.57-2.38.57Z"/><path class="cls-4" d="M291.81,240.99c-.74,0-1.32-.22-1.76-.66s-.66-1.03-.66-1.78v-6.74h-2.97v-2.19h2.97v-3.66h2.64v3.66h2.55v2.19h-2.55v6.3c0,.46.21.69.64.69h2.28v2.19h-3.15ZM299.28,240.99c-.74,0-1.32-.22-1.76-.66s-.66-1.03-.66-1.78v-6.74h-2.28v-2.19h2.28v-3.66h2.64v3.66h3.27v2.19h-3.27v6.3c0,.46.21.69.64.69h2.28v2.19h-3.15Z"/><path class="cls-4" d="M306.78,228.18c-.48,0-.89-.16-1.23-.47-.34-.31-.52-.73-.52-1.25s.17-.94.52-1.25c.35-.31.76-.47,1.23-.47.51,0,.92.16,1.25.47.33.31.49.73.49,1.25s-.16.94-.49,1.25c-.33.31-.75.47-1.25.47ZM305.47,240.99v-11.36h2.65v11.36h-2.65Z"/><path class="cls-4" d="M311.47,240.99v-11.36h2.6v1.59h.39c.2-.43.56-.84,1.08-1.22.52-.38,1.31-.57,2.37-.57.87,0,1.65.2,2.32.6.67.4,1.2.95,1.58,1.66.38.71.56,1.54.56,2.51v6.81h-2.64v-6.6c0-.92-.23-1.61-.68-2.06-.45-.45-1.09-.68-1.92-.68-.94,0-1.67.31-2.21.93-.54.62-.8,1.51-.8,2.66v5.75h-2.65Z"/><path class="cls-4" d="M325.07,235.35v-.34c0-1.2.24-2.22.71-3.07.47-.85,1.11-1.5,1.91-1.95.8-.45,1.67-.68,2.62-.68,1.07,0,1.89.19,2.45.57.56.38.97.8,1.23,1.24h.39v-1.5h2.58v13.52c0,.75-.21,1.35-.64,1.78s-1.01.66-1.75.66h-7.63v-2.3h6.74c.44,0,.67-.23.67-.69v-3.29h-.39c-.17.26-.4.53-.69.79-.29.27-.67.49-1.15.68-.47.18-1.07.28-1.79.28-.95,0-1.83-.23-2.62-.68-.8-.45-1.43-1.1-1.91-1.95-.48-.85-.71-1.87-.71-3.07ZM331.05,238.74c.95,0,1.74-.3,2.37-.91.63-.61.94-1.45.94-2.54v-.23c0-1.1-.31-1.96-.93-2.55-.62-.6-1.41-.9-2.38-.9s-1.74.3-2.38.9c-.64.6-.96,1.45-.96,2.55v.23c0,1.09.32,1.94.96,2.54.64.61,1.43.91,2.38.91Z"/><path class="cls-4" d="M340.27,236.3v-2.37h6.81v2.37h-6.81Z"/><path class="cls-4" d="M355.59,241.31c-1.13,0-2.13-.24-3-.72-.87-.48-1.54-1.17-2.02-2.05-.48-.88-.72-1.91-.72-3.09v-.28c0-1.2.24-2.23.71-3.1.48-.87,1.14-1.55,2-2.04.86-.48,1.85-.72,2.97-.72s2.07.24,2.9.72,1.47,1.16,1.93,2.04c.46.87.69,1.89.69,3.06v.94h-8.53c.03.89.35,1.6.94,2.14.6.54,1.33.8,2.21.8s1.5-.19,1.91-.56c.41-.38.73-.8.94-1.28l2.18,1.13c-.21.41-.53.85-.93,1.32-.41.47-.95.87-1.62,1.2s-1.53.49-2.55.49ZM352.53,234.07h5.82c-.06-.75-.35-1.35-.86-1.79-.51-.44-1.18-.67-1.99-.67s-1.52.22-2.02.67c-.51.44-.82,1.04-.94,1.79Z"/><path class="cls-4" d="M368.4,241.31c-.92,0-1.78-.23-2.58-.68-.8-.45-1.43-1.12-1.91-1.99-.47-.87-.71-1.92-.71-3.15v-.37c0-1.23.24-2.28.71-3.15s1.11-1.54,1.9-1.99c.79-.45,1.65-.68,2.59-.68.71,0,1.3.08,1.79.25.49.17.88.38,1.18.64.3.26.53.54.7.85h.39v-6.16h2.62v16.1h-2.58v-1.49h-.39c-.28.46-.7.88-1.26,1.25-.57.38-1.39.56-2.46.56ZM369.18,239.01c.95,0,1.74-.31,2.37-.93.63-.62.94-1.51.94-2.66v-.23c0-1.17-.31-2.05-.93-2.67-.62-.61-1.41-.92-2.38-.92s-1.74.31-2.38.92c-.64.61-.96,1.5-.96,2.67v.23c0,1.15.32,2.04.96,2.66.64.62,1.43.93,2.38.93Z"/><path class="cls-4" d="M377.9,235.35v-.34c0-1.2.24-2.22.71-3.07.47-.85,1.11-1.5,1.91-1.95.8-.45,1.67-.68,2.62-.68,1.07,0,1.89.19,2.45.57.56.38.97.8,1.23,1.24h.39v-1.5h2.58v13.52c0,.75-.21,1.35-.64,1.78s-1.01.66-1.75.66h-7.63v-2.3h6.74c.44,0,.67-.23.67-.69v-3.29h-.39c-.17.26-.4.53-.69.79-.29.27-.67.49-1.15.68-.47.18-1.07.28-1.79.28-.95,0-1.83-.23-2.62-.68-.8-.45-1.43-1.1-1.91-1.95-.48-.85-.71-1.87-.71-3.07ZM383.88,238.74c.95,0,1.74-.3,2.37-.91.63-.61.94-1.45.94-2.54v-.23c0-1.1-.31-1.96-.93-2.55-.62-.6-1.41-.9-2.38-.9s-1.74.3-2.38.9c-.64.6-.96,1.45-.96,2.55v.23c0,1.09.32,1.94.96,2.54.64.61,1.43.91,2.38.91Z"/><path class="cls-4" d="M398.34,241.31c-1.13,0-2.14-.24-3-.72-.87-.48-1.54-1.17-2.02-2.05-.48-.88-.72-1.91-.72-3.09v-.28c0-1.2.24-2.23.71-3.1.48-.87,1.14-1.55,2-2.04s1.85-.72,2.97-.72,2.07.24,2.9.72,1.47,1.16,1.93,2.04c.46.87.69,1.89.69,3.06v.94h-8.53c.03.89.34,1.6.94,2.14.6.54,1.33.8,2.21.8s1.49-.19,1.91-.56c.41-.38.73-.8.94-1.28l2.19,1.13c-.21.41-.53.85-.93,1.32-.41.47-.95.87-1.62,1.2-.68.33-1.53.49-2.55.49ZM395.28,234.07h5.82c-.06-.75-.35-1.35-.86-1.79-.51-.44-1.18-.67-1.99-.67s-1.52.22-2.02.67c-.51.44-.82,1.04-.94,1.79Z"/><path class="cls-4" d="M9.79,274.31c-.92,0-1.78-.23-2.58-.68-.8-.45-1.43-1.12-1.91-1.99-.47-.87-.71-1.92-.71-3.15v-.37c0-1.23.24-2.28.71-3.15s1.11-1.54,1.9-1.99c.79-.45,1.65-.68,2.59-.68.71,0,1.3.08,1.79.25.49.17.88.38,1.18.64.3.26.53.54.7.85h.39v-6.16h2.62v16.1h-2.58v-1.49h-.39c-.28.46-.7.88-1.26,1.25-.57.38-1.39.56-2.46.56ZM10.57,272.01c.95,0,1.74-.31,2.37-.93.63-.62.94-1.51.94-2.66v-.23c0-1.17-.31-2.05-.93-2.67-.62-.61-1.41-.92-2.38-.92s-1.74.31-2.38.92c-.64.61-.96,1.5-.96,2.67v.23c0,1.15.32,2.04.96,2.66.64.62,1.43.93,2.38.93Z"/><path class="cls-4" d="M25.04,274.31c-1.13,0-2.14-.24-3-.72-.87-.48-1.54-1.17-2.02-2.05-.48-.88-.72-1.91-.72-3.09v-.28c0-1.2.24-2.23.71-3.1.47-.87,1.14-1.55,2-2.04.86-.48,1.85-.72,2.97-.72s2.07.24,2.9.72,1.47,1.16,1.93,2.04c.46.87.69,1.89.69,3.06v.94h-8.53c.03.89.34,1.6.94,2.14.6.54,1.33.8,2.21.8s1.5-.19,1.91-.56c.41-.38.73-.8.94-1.28l2.19,1.13c-.21.41-.53.85-.93,1.32-.41.47-.95.87-1.62,1.2-.68.33-1.53.49-2.55.49ZM21.98,267.07h5.82c-.06-.75-.35-1.35-.86-1.79-.51-.44-1.18-.67-1.99-.67s-1.52.22-2.02.67c-.51.44-.82,1.04-.94,1.79Z"/><path class="cls-4" d="M37.89,274.31c-1.47,0-2.68-.32-3.63-.97-.95-.64-1.53-1.59-1.72-2.83l2.44-.62c.11.58.3,1.04.57,1.38.28.34.62.57,1.02.71.41.14.85.21,1.32.21.72,0,1.26-.13,1.62-.39.36-.26.54-.59.54-.99s-.17-.72-.52-.92c-.34-.2-.87-.37-1.58-.51l-.71-.11c-.78-.15-1.5-.36-2.14-.63-.64-.27-1.16-.64-1.55-1.1-.39-.47-.59-1.06-.59-1.78,0-1.1.41-1.95,1.23-2.55.82-.6,1.9-.9,3.23-.9s2.32.28,3.15.85c.83.57,1.37,1.33,1.61,2.28l-2.44.74c-.12-.64-.39-1.1-.8-1.37-.41-.27-.92-.4-1.52-.4s-1.08.11-1.41.32c-.33.21-.5.52-.5.92s.17.7.51.9c.34.2.79.34,1.36.44l.71.14c.84.15,1.61.35,2.29.6.68.25,1.22.6,1.62,1.06.4.46.6,1.08.6,1.86,0,1.18-.42,2.09-1.28,2.73-.85.64-2,.95-3.44.95Z"/><path class="cls-4" d="M46.59,261.18c-.48,0-.89-.16-1.23-.47-.34-.31-.52-.73-.52-1.25s.17-.94.52-1.25c.34-.31.75-.47,1.23-.47.51,0,.92.16,1.25.47.33.31.49.73.49,1.25s-.17.94-.49,1.25c-.33.31-.75.47-1.25.47ZM45.28,273.99v-11.36h2.65v11.36h-2.65Z"/><path class="cls-4" d="M50.73,268.35v-.34c0-1.2.24-2.22.71-3.07.47-.85,1.11-1.5,1.91-1.95.8-.45,1.67-.68,2.62-.68,1.07,0,1.89.19,2.45.57.56.38.97.8,1.23,1.24h.39v-1.5h2.58v13.52c0,.75-.21,1.35-.64,1.78-.43.44-1.01.66-1.75.66h-7.64v-2.3h6.74c.45,0,.67-.23.67-.69v-3.29h-.39c-.17.26-.4.53-.69.79-.29.27-.67.49-1.15.68-.48.18-1.07.28-1.79.28-.95,0-1.83-.23-2.62-.68-.8-.45-1.43-1.1-1.91-1.95-.47-.85-.71-1.87-.71-3.07ZM56.71,271.74c.95,0,1.74-.3,2.37-.91.63-.61.94-1.45.94-2.54v-.23c0-1.1-.31-1.96-.93-2.55-.62-.6-1.41-.9-2.38-.9s-1.74.3-2.38.9c-.64.6-.96,1.45-.96,2.55v.23c0,1.09.32,1.94.96,2.54.64.61,1.43.91,2.38.91Z"/><path class="cls-4" d="M65.98,273.99v-11.36h2.6v1.59h.39c.2-.43.56-.84,1.08-1.22.52-.38,1.31-.57,2.37-.57.87,0,1.65.2,2.32.6.67.4,1.2.95,1.58,1.66.38.71.56,1.54.56,2.51v6.81h-2.64v-6.6c0-.92-.23-1.61-.68-2.06-.45-.45-1.09-.68-1.92-.68-.94,0-1.67.31-2.21.93-.54.62-.8,1.51-.8,2.66v5.75h-2.65Z"/><path class="cls-4" d="M84.81,274.31c-1.47,0-2.68-.32-3.63-.97-.95-.64-1.53-1.59-1.72-2.83l2.44-.62c.11.58.3,1.04.58,1.38.28.34.62.57,1.02.71.41.14.85.21,1.32.21.72,0,1.26-.13,1.62-.39.36-.26.54-.59.54-.99s-.17-.72-.52-.92c-.35-.2-.87-.37-1.58-.51l-.71-.11c-.78-.15-1.49-.36-2.14-.63-.64-.27-1.16-.64-1.55-1.1-.39-.47-.59-1.06-.59-1.78,0-1.1.41-1.95,1.23-2.55s1.9-.9,3.23-.9,2.32.28,3.15.85c.83.57,1.36,1.33,1.61,2.28l-2.44.74c-.12-.64-.39-1.1-.8-1.37-.41-.27-.92-.4-1.52-.4s-1.08.11-1.42.32c-.33.21-.49.52-.49.92s.17.7.51.9c.34.2.79.34,1.36.44l.71.14c.84.15,1.61.35,2.29.6.68.25,1.22.6,1.62,1.06.4.46.6,1.08.6,1.86,0,1.18-.43,2.09-1.28,2.73-.85.64-2,.95-3.44.95Z"/><path class="cls-4" d="M102.38,273.99c-.74,0-1.32-.22-1.76-.66-.44-.44-.66-1.03-.66-1.78v-6.74h-2.97v-2.19h2.97v-3.66h2.64v3.66h3.27v2.19h-3.27v6.3c0,.46.21.69.64.69h2.28v2.19h-3.15Z"/><path class="cls-4" d="M108.57,273.99v-16.1h2.65v6.23h.39c.12-.26.32-.52.6-.78.28-.26.64-.48,1.09-.64.45-.17,1.02-.25,1.71-.25.87,0,1.65.2,2.32.59.67.39,1.2.94,1.58,1.64.38.71.56,1.54.56,2.51v6.81h-2.64v-6.6c0-.92-.23-1.61-.68-2.06-.45-.45-1.09-.68-1.92-.68-.94,0-1.67.31-2.21.93s-.8,1.51-.8,2.66v5.75h-2.65Z"/><path class="cls-4" d="M126.23,274.31c-.8,0-1.52-.14-2.16-.43s-1.15-.69-1.53-1.23c-.38-.54-.56-1.2-.56-1.98s.19-1.41.56-1.93c.38-.52.89-.92,1.55-1.18.66-.27,1.41-.4,2.25-.4h3.29v-.69c0-.6-.18-1.08-.55-1.46-.37-.38-.94-.56-1.72-.56s-1.35.18-1.74.54c-.39.36-.65.82-.77,1.39l-2.44-.8c.18-.6.48-1.14.89-1.63.41-.49.95-.89,1.62-1.18.67-.3,1.5-.45,2.48-.45,1.49,0,2.66.37,3.51,1.12.85.74,1.28,1.82,1.28,3.23v4.46c0,.46.21.69.64.69h.97v2.19h-1.86c-.55,0-1-.14-1.36-.41s-.53-.65-.53-1.13v-.05h-.39c-.09.21-.25.48-.48.78-.23.31-.58.57-1.05.79-.47.22-1.1.33-1.9.33ZM126.67,272.15c.87,0,1.59-.25,2.14-.75.55-.5.83-1.17.83-2.01v-.23h-3.13c-.57,0-1.03.12-1.38.37-.35.25-.53.61-.53,1.08s.18.83.55,1.12c.37.28.87.43,1.52.43Z"/><path class="cls-4" d="M139.51,273.99c-.74,0-1.32-.22-1.76-.66s-.66-1.03-.66-1.78v-6.74h-2.97v-2.19h2.97v-3.66h2.65v3.66h3.27v2.19h-3.27v6.3c0,.46.21.69.64.69h2.28v2.19h-3.15Z"/><path class="cls-4" d="M151.56,278.59v-15.96h2.6v1.5h.39c.26-.48.68-.9,1.25-1.27.57-.37,1.4-.55,2.47-.55.92,0,1.77.23,2.56.68.79.45,1.42,1.12,1.9,1.99.48.87.71,1.92.71,3.15v.37c0,1.23-.24,2.28-.71,3.15-.47.87-1.1,1.54-1.88,1.99-.78.45-1.64.68-2.58.68-.72,0-1.32-.08-1.81-.25-.48-.17-.87-.39-1.17-.67s-.53-.55-.7-.83h-.39v6.03h-2.65ZM157.49,272.01c.97,0,1.76-.31,2.38-.93.62-.62.93-1.51.93-2.66v-.23c0-1.17-.31-2.05-.94-2.67-.63-.61-1.42-.92-2.37-.92s-1.74.31-2.38.92c-.64.61-.95,1.5-.95,2.67v.23c0,1.15.32,2.04.95,2.66.64.62,1.43.93,2.38.93Z"/><path class="cls-4" d="M170.6,274.17c-.87,0-1.65-.2-2.32-.59-.67-.39-1.2-.94-1.56-1.66s-.55-1.54-.55-2.5v-6.81h2.62v6.6c0,.92.23,1.6.68,2.05.45.44,1.09.67,1.92.67.94,0,1.67-.31,2.22-.92.54-.61.82-1.49.82-2.65v-5.75h2.62v11.36h-2.58v-1.59h-.39c-.2.41-.56.81-1.09,1.2-.53.38-1.32.57-2.38.57Z"/><path class="cls-4" d="M185.09,274.31c-1.47,0-2.68-.32-3.63-.97-.95-.64-1.53-1.59-1.72-2.83l2.44-.62c.11.58.3,1.04.57,1.38.28.34.62.57,1.02.71.41.14.85.21,1.32.21.72,0,1.26-.13,1.62-.39.36-.26.54-.59.54-.99s-.17-.72-.52-.92c-.34-.2-.87-.37-1.58-.51l-.71-.11c-.78-.15-1.5-.36-2.14-.63-.64-.27-1.16-.64-1.55-1.1-.39-.47-.59-1.06-.59-1.78,0-1.1.41-1.95,1.23-2.55.82-.6,1.9-.9,3.23-.9s2.32.28,3.15.85c.83.57,1.37,1.33,1.61,2.28l-2.44.74c-.12-.64-.39-1.1-.8-1.37-.41-.27-.92-.4-1.52-.4s-1.08.11-1.41.32c-.33.21-.5.52-.5.92s.17.7.51.9c.34.2.79.34,1.36.44l.71.14c.84.15,1.61.35,2.29.6.68.25,1.22.6,1.62,1.06.4.46.6,1.08.6,1.86,0,1.18-.42,2.09-1.28,2.73-.85.64-2,.95-3.44.95Z"/><path class="cls-4" d="M192.47,273.99v-16.1h2.65v6.23h.39c.12-.26.32-.52.6-.78.28-.26.64-.48,1.09-.64.45-.17,1.02-.25,1.71-.25.87,0,1.65.2,2.32.59s1.2.94,1.58,1.64c.38.71.56,1.54.56,2.51v6.81h-2.64v-6.6c0-.92-.23-1.61-.68-2.06-.45-.45-1.09-.68-1.92-.68-.94,0-1.67.31-2.21.93-.54.62-.8,1.51-.8,2.66v5.75h-2.65Z"/><path class="cls-4" d="M216.81,273.99c-.74,0-1.32-.22-1.76-.66s-.66-1.03-.66-1.78v-6.74h-2.97v-2.19h2.97v-3.66h2.64v3.66h3.27v2.19h-3.27v6.3c0,.46.21.69.64.69h2.28v2.19h-3.15Z"/><path class="cls-4" d="M222.99,273.99v-16.1h2.64v6.23h.39c.12-.26.32-.52.6-.78.28-.26.64-.48,1.09-.64.45-.17,1.02-.25,1.71-.25.88,0,1.65.2,2.32.59s1.2.94,1.58,1.64c.38.71.56,1.54.56,2.51v6.81h-2.65v-6.6c0-.92-.23-1.61-.68-2.06-.45-.45-1.09-.68-1.92-.68-.94,0-1.67.31-2.21.93-.54.62-.8,1.51-.8,2.66v5.75h-2.64Z"/><path class="cls-4" d="M242.34,274.31c-1.13,0-2.14-.24-3-.72-.87-.48-1.54-1.17-2.02-2.05-.48-.88-.72-1.91-.72-3.09v-.28c0-1.2.24-2.23.71-3.1.48-.87,1.14-1.55,2-2.04s1.85-.72,2.97-.72,2.07.24,2.9.72,1.47,1.16,1.93,2.04c.46.87.69,1.89.69,3.06v.94h-8.53c.03.89.34,1.6.94,2.14.6.54,1.33.8,2.21.8s1.49-.19,1.91-.56c.41-.38.73-.8.94-1.28l2.19,1.13c-.21.41-.53.85-.93,1.32-.41.47-.95.87-1.62,1.2-.68.33-1.53.49-2.55.49ZM239.28,267.07h5.82c-.06-.75-.35-1.35-.86-1.79-.51-.44-1.18-.67-1.99-.67s-1.52.22-2.02.67c-.51.44-.82,1.04-.94,1.79Z"/><path class="cls-4" d="M263.08,274.31c-1.07,0-1.9-.19-2.47-.56-.57-.38-.99-.79-1.25-1.25h-.39v1.49h-2.6v-16.1h2.64v6.16h.39c.17-.31.4-.59.7-.85.3-.26.69-.48,1.17-.64.48-.17,1.08-.25,1.8-.25.94,0,1.79.23,2.58.68.78.45,1.41,1.12,1.89,1.99.47.87.71,1.92.71,3.15v.37c0,1.23-.24,2.28-.71,3.15-.48.87-1.11,1.54-1.9,1.99-.79.45-1.64.68-2.56.68ZM262.3,272.01c.95,0,1.74-.31,2.37-.93.63-.62.94-1.51.94-2.66v-.23c0-1.17-.31-2.05-.93-2.67-.62-.61-1.42-.92-2.38-.92s-1.74.31-2.38.92c-.64.61-.96,1.5-.96,2.67v.23c0,1.15.32,2.04.96,2.66.64.62,1.43.93,2.38.93Z"/><path class="cls-4" d="M276.45,274.31c-1.13,0-2.15-.23-3.05-.7-.9-.47-1.6-1.13-2.12-2-.51-.87-.77-1.91-.77-3.12v-.37c0-1.21.26-2.25.77-3.13.51-.87,1.22-1.54,2.12-2,.9-.46,1.91-.69,3.05-.69s2.15.23,3.04.69,1.59,1.13,2.1,2c.51.87.77,1.92.77,3.13v.37c0,1.21-.26,2.25-.77,3.12-.51.87-1.21,1.53-2.1,2s-1.9.7-3.04.7ZM276.45,271.97c.97,0,1.76-.31,2.37-.93.61-.62.92-1.49.92-2.61v-.23c0-1.12-.31-1.99-.92-2.61s-1.4-.93-2.37-.93-1.76.31-2.37.93-.92,1.49-.92,2.61v.23c0,1.12.31,1.99.92,2.61.61.62,1.4.93,2.37.93Z"/><path class="cls-4" d="M289.51,274.17c-.87,0-1.65-.2-2.32-.59-.67-.39-1.2-.94-1.56-1.66s-.55-1.54-.55-2.5v-6.81h2.62v6.6c0,.92.23,1.6.68,2.05.45.44,1.09.67,1.92.67.94,0,1.67-.31,2.22-.92.54-.61.82-1.49.82-2.65v-5.75h2.62v11.36h-2.58v-1.59h-.39c-.2.41-.56.81-1.09,1.2-.53.38-1.32.57-2.38.57Z"/><path class="cls-4" d="M299.31,273.99v-11.36h2.6v1.59h.39c.2-.43.56-.84,1.08-1.22.52-.38,1.31-.57,2.37-.57.87,0,1.65.2,2.32.6.67.4,1.2.95,1.58,1.66.38.71.56,1.54.56,2.51v6.81h-2.64v-6.6c0-.92-.23-1.61-.68-2.06-.45-.45-1.09-.68-1.92-.68-.94,0-1.67.31-2.21.93s-.8,1.51-.8,2.66v5.75h-2.65Z"/><path class="cls-4" d="M318.1,274.31c-.92,0-1.78-.23-2.58-.68-.8-.45-1.43-1.12-1.91-1.99-.48-.87-.71-1.92-.71-3.15v-.37c0-1.23.24-2.28.71-3.15s1.11-1.54,1.9-1.99c.79-.45,1.65-.68,2.59-.68.71,0,1.3.08,1.79.25.49.17.89.38,1.18.64.3.26.53.54.7.85h.39v-6.16h2.62v16.1h-2.58v-1.49h-.39c-.28.46-.7.88-1.26,1.25-.57.38-1.39.56-2.46.56ZM318.88,272.01c.95,0,1.74-.31,2.37-.93.63-.62.94-1.51.94-2.66v-.23c0-1.17-.31-2.05-.93-2.67-.62-.61-1.41-.92-2.38-.92s-1.74.31-2.38.92c-.64.61-.95,1.5-.95,2.67v.23c0,1.15.32,2.04.95,2.66.64.62,1.43.93,2.38.93Z"/><path class="cls-4" d="M331.67,274.31c-.8,0-1.52-.14-2.16-.43-.64-.28-1.15-.69-1.53-1.23-.38-.54-.56-1.2-.56-1.98s.19-1.41.56-1.93c.38-.52.89-.92,1.55-1.18.66-.27,1.41-.4,2.25-.4h3.29v-.69c0-.6-.18-1.08-.55-1.46-.37-.38-.94-.56-1.72-.56s-1.35.18-1.74.54c-.39.36-.65.82-.77,1.39l-2.44-.8c.18-.6.48-1.14.88-1.63.41-.49.95-.89,1.62-1.18.67-.3,1.5-.45,2.48-.45,1.49,0,2.66.37,3.51,1.12.85.74,1.28,1.82,1.28,3.23v4.46c0,.46.21.69.64.69h.97v2.19h-1.86c-.55,0-1-.14-1.36-.41-.35-.28-.53-.65-.53-1.13v-.05h-.39c-.09.21-.25.48-.48.78-.23.31-.58.57-1.05.79-.47.22-1.1.33-1.9.33ZM332.1,272.15c.88,0,1.59-.25,2.14-.75.55-.5.83-1.17.83-2.01v-.23h-3.13c-.57,0-1.03.12-1.38.37-.35.25-.53.61-.53,1.08s.18.83.55,1.12c.37.28.88.43,1.52.43Z"/><path class="cls-4" d="M341.42,273.99v-11.36h2.6v1.31h.39c.17-.48.45-.82.85-1.04.4-.21.88-.32,1.43-.32h1.38v2.35h-1.43c-.77,0-1.39.2-1.86.61-.48.41-.71,1.03-.71,1.87v6.58h-2.64Z"/><path class="cls-4" d="M351.72,261.18c-.47,0-.88-.16-1.23-.47-.34-.31-.52-.73-.52-1.25s.17-.94.52-1.25c.35-.31.76-.47,1.23-.47.51,0,.92.16,1.25.47.33.31.49.73.49,1.25s-.16.94-.49,1.25c-.33.31-.75.47-1.25.47ZM350.41,273.99v-11.36h2.64v11.36h-2.64Z"/><path class="cls-4" d="M361.61,274.31c-1.13,0-2.14-.24-3-.72-.87-.48-1.54-1.17-2.02-2.05-.48-.88-.72-1.91-.72-3.09v-.28c0-1.2.24-2.23.71-3.1.48-.87,1.14-1.55,2-2.04s1.85-.72,2.97-.72,2.07.24,2.9.72,1.47,1.16,1.93,2.04c.46.87.69,1.89.69,3.06v.94h-8.53c.03.89.34,1.6.94,2.14.6.54,1.33.8,2.21.8s1.49-.19,1.91-.56c.41-.38.73-.8.94-1.28l2.19,1.13c-.21.41-.53.85-.93,1.32-.41.47-.95.87-1.62,1.2-.68.33-1.53.49-2.55.49ZM358.55,267.07h5.82c-.06-.75-.35-1.35-.86-1.79-.51-.44-1.18-.67-1.99-.67s-1.52.22-2.02.67c-.51.44-.82,1.04-.94,1.79Z"/><path class="cls-4" d="M374.47,274.31c-1.47,0-2.68-.32-3.63-.97-.95-.64-1.53-1.59-1.72-2.83l2.44-.62c.11.58.3,1.04.57,1.38.28.34.62.57,1.02.71.41.14.85.21,1.32.21.72,0,1.26-.13,1.62-.39.36-.26.54-.59.54-.99s-.17-.72-.52-.92c-.34-.2-.87-.37-1.58-.51l-.71-.11c-.78-.15-1.5-.36-2.14-.63-.64-.27-1.16-.64-1.55-1.1-.39-.47-.59-1.06-.59-1.78,0-1.1.41-1.95,1.23-2.55s1.9-.9,3.23-.9,2.32.28,3.15.85c.83.57,1.37,1.33,1.61,2.28l-2.44.74c-.12-.64-.39-1.1-.8-1.37-.41-.27-.92-.4-1.52-.4s-1.09.11-1.42.32c-.33.21-.5.52-.5.92s.17.7.51.9c.34.2.79.34,1.36.44l.71.14c.84.15,1.61.35,2.29.6.68.25,1.22.6,1.62,1.06.4.46.6,1.08.6,1.86,0,1.18-.42,2.09-1.28,2.73-.85.64-2,.95-3.44.95Z"/><path class="cls-4" d="M393.1,274.31c-1.13,0-2.15-.23-3.05-.7-.9-.47-1.6-1.13-2.12-2-.51-.87-.77-1.91-.77-3.12v-.37c0-1.21.26-2.25.77-3.13.51-.87,1.22-1.54,2.12-2,.9-.46,1.91-.69,3.05-.69s2.15.23,3.04.69c.89.46,1.59,1.13,2.1,2,.51.87.77,1.92.77,3.13v.37c0,1.21-.26,2.25-.77,3.12-.51.87-1.22,1.53-2.1,2-.89.47-1.9.7-3.04.7ZM393.1,271.97c.97,0,1.75-.31,2.37-.93.61-.62.92-1.49.92-2.61v-.23c0-1.12-.31-1.99-.92-2.61-.61-.62-1.4-.93-2.37-.93s-1.76.31-2.37.93-.92,1.49-.92,2.61v.23c0,1.12.31,1.99.92,2.61.61.62,1.4.93,2.37.93Z"/><path class="cls-4" d="M403.4,273.99v-9.18h-3.04v-2.19h3.04v-2.3c0-.75.22-1.35.66-1.78s1.02-.66,1.74-.66h2.94v2.18h-2.07c-.43,0-.64.23-.64.69v1.86h3.13v2.19h-3.13v9.18h-2.62Z"/><path class="cls-4" d="M10.46,307.31c-1.1,0-2.1-.23-2.99-.69-.89-.46-1.59-1.13-2.1-2s-.77-1.92-.77-3.15v-.32c0-1.23.26-2.28.77-3.15.51-.87,1.21-1.54,2.1-2,.89-.46,1.89-.69,2.99-.69s2.02.19,2.79.57c.77.38,1.4.91,1.87,1.58s.78,1.41.92,2.24l-2.55.53c-.06-.48-.21-.91-.44-1.3s-.56-.7-.98-.93c-.42-.23-.94-.34-1.55-.34s-1.19.13-1.69.4c-.5.27-.89.67-1.17,1.21-.28.54-.43,1.18-.43,1.93v.23c0,.75.14,1.39.43,1.92s.67.93,1.17,1.21c.5.28,1.06.41,1.69.41.94,0,1.64-.24,2.13-.72.48-.48.79-1.11.91-1.87l2.55.6c-.18.8-.51,1.53-.99,2.19-.48.66-1.1,1.18-1.87,1.58-.78.39-1.71.59-2.79.59Z"/><path class="cls-4" d="M18.69,306.99v-11.36h2.6v1.31h.39c.17-.48.45-.82.85-1.04.4-.21.88-.32,1.43-.32h1.38v2.35h-1.43c-.77,0-1.39.2-1.86.61-.48.41-.71,1.03-.71,1.87v6.58h-2.64Z"/><path class="cls-4" d="M32.47,307.31c-1.13,0-2.14-.24-3-.72-.87-.48-1.54-1.17-2.02-2.05-.48-.88-.72-1.91-.72-3.09v-.28c0-1.2.24-2.23.71-3.1.48-.87,1.14-1.55,2-2.04s1.85-.72,2.97-.72,2.07.24,2.9.72,1.47,1.16,1.93,2.04c.46.87.69,1.89.69,3.06v.94h-8.53c.03.89.34,1.6.94,2.14.6.54,1.33.8,2.21.8s1.49-.19,1.91-.56c.41-.38.73-.8.94-1.28l2.19,1.13c-.21.41-.53.85-.93,1.32-.41.47-.95.87-1.62,1.2-.68.33-1.53.49-2.55.49ZM29.41,300.07h5.82c-.06-.75-.35-1.35-.86-1.79-.51-.44-1.18-.67-1.99-.67s-1.52.22-2.02.67c-.51.44-.82,1.04-.94,1.79Z"/><path class="cls-4" d="M44.15,307.31c-.8,0-1.52-.14-2.16-.43-.64-.28-1.15-.69-1.53-1.23-.38-.54-.56-1.2-.56-1.98s.19-1.41.56-1.93c.38-.52.89-.92,1.55-1.18.66-.27,1.41-.4,2.25-.4h3.29v-.69c0-.6-.18-1.08-.55-1.46-.37-.38-.94-.56-1.72-.56s-1.35.18-1.74.54c-.39.36-.65.82-.77,1.39l-2.44-.8c.18-.6.48-1.14.88-1.63.41-.49.95-.89,1.62-1.18.67-.3,1.5-.45,2.48-.45,1.49,0,2.66.37,3.51,1.12.85.74,1.28,1.82,1.28,3.23v4.46c0,.46.21.69.64.69h.97v2.19h-1.86c-.55,0-1-.14-1.36-.41-.35-.28-.53-.65-.53-1.13v-.05h-.39c-.09.21-.25.48-.48.78-.23.31-.58.57-1.05.79-.47.22-1.1.33-1.9.33ZM44.59,305.15c.88,0,1.59-.25,2.14-.75.55-.5.83-1.17.83-2.01v-.23h-3.13c-.57,0-1.03.12-1.38.37-.35.25-.53.61-.53,1.08s.18.83.55,1.12c.37.28.88.43,1.52.43Z"/><path class="cls-4" d="M57.42,306.99c-.74,0-1.32-.22-1.76-.66-.44-.44-.66-1.03-.66-1.78v-6.74h-2.97v-2.19h2.97v-3.66h2.64v3.66h3.27v2.19h-3.27v6.3c0,.46.21.69.64.69h2.28v2.19h-3.15Z"/><path class="cls-4" d="M64.92,294.18c-.48,0-.89-.16-1.23-.47-.34-.31-.52-.73-.52-1.25s.17-.94.52-1.25c.35-.31.76-.47,1.23-.47.51,0,.92.16,1.25.47.33.31.49.73.49,1.25s-.16.94-.49,1.25c-.33.31-.75.47-1.25.47ZM63.61,306.99v-11.36h2.65v11.36h-2.65Z"/><path class="cls-4" d="M72.12,306.99l-3.73-11.36h2.81l2.8,9.43h.39l2.83-9.43h2.81l-3.73,11.36h-4.19Z"/><path class="cls-4" d="M83.48,294.18c-.48,0-.89-.16-1.23-.47-.35-.31-.52-.73-.52-1.25s.17-.94.52-1.25c.34-.31.75-.47,1.23-.47.51,0,.92.16,1.25.47.33.31.49.73.49,1.25s-.17.94-.49,1.25c-.33.31-.75.47-1.25.47ZM82.17,306.99v-11.36h2.64v11.36h-2.64Z"/><path class="cls-4" d="M92.49,306.99c-.74,0-1.32-.22-1.76-.66-.44-.44-.66-1.03-.66-1.78v-6.74h-2.97v-2.19h2.97v-3.66h2.65v3.66h3.27v2.19h-3.27v6.3c0,.46.21.69.64.69h2.28v2.19h-3.15Z"/><path class="cls-4" d="M99.95,311.59v-2.3h6.28c.43,0,.64-.23.64-.69v-3.17h-.39c-.12.28-.32.55-.6.82-.28.27-.64.49-1.1.67-.46.18-1.04.26-1.75.26-.87,0-1.65-.2-2.32-.59-.67-.39-1.2-.94-1.56-1.66-.37-.71-.55-1.54-.55-2.5v-6.81h2.62v6.6c0,.92.23,1.6.68,2.05.45.44,1.09.67,1.92.67.93,0,1.67-.31,2.22-.92.54-.61.82-1.49.82-2.65v-5.75h2.62v13.52c0,.75-.21,1.35-.64,1.78-.43.44-1.01.66-1.75.66h-7.13Z"/><path class="cls-4" d="M122.51,306.99c-.94,0-1.76-.17-2.47-.52-.71-.35-1.27-.84-1.68-1.48-.41-.64-.61-1.42-.61-2.32,0-.66.12-1.24.37-1.74.25-.5.58-.91.99-1.23.41-.32.87-.56,1.36-.71v-.3c-.75-.23-1.37-.63-1.86-1.2-.49-.57-.74-1.33-.74-2.3s.21-1.7.62-2.35c.41-.64.98-1.13,1.69-1.46.71-.33,1.52-.49,2.43-.49h2.6v2.18h-2.14c-.74,0-1.35.2-1.84.59s-.74.98-.74,1.76c0,.54.12.98.36,1.32.24.34.55.6.94.77.39.17.82.25,1.28.25h2.46v-2.18h2.62v2.18h2.16v2.19h-2.16v7.04h-5.63ZM122.97,304.8h2.55v-4.85h-2.55c-.74,0-1.35.2-1.84.61-.49.41-.74,1.01-.74,1.81s.26,1.44.77,1.84c.51.4,1.12.6,1.81.6Z"/><path class="cls-4" d="M142.54,306.99c-.74,0-1.32-.22-1.76-.66-.44-.44-.66-1.03-.66-1.78v-6.74h-2.97v-2.19h2.97v-3.66h2.65v3.66h3.27v2.19h-3.27v6.3c0,.46.21.69.64.69h2.28v2.19h-3.15Z"/><path class="cls-4" d="M153.51,307.31c-1.13,0-2.13-.24-3-.72-.87-.48-1.54-1.17-2.02-2.05-.48-.88-.72-1.91-.72-3.09v-.28c0-1.2.24-2.23.71-3.1.47-.87,1.14-1.55,2-2.04s1.85-.72,2.97-.72,2.07.24,2.9.72,1.47,1.16,1.93,2.04c.46.87.69,1.89.69,3.06v.94h-8.53c.03.89.35,1.6.94,2.14.6.54,1.33.8,2.21.8s1.5-.19,1.91-.56c.41-.38.73-.8.94-1.28l2.18,1.13c-.21.41-.53.85-.93,1.32-.41.47-.95.87-1.62,1.2s-1.53.49-2.55.49ZM150.45,300.07h5.82c-.06-.75-.35-1.35-.86-1.79-.51-.44-1.18-.67-1.99-.67s-1.52.22-2.02.67c-.51.44-.82,1.04-.94,1.79Z"/><path class="cls-4" d="M166.99,307.31c-1.1,0-2.1-.23-2.99-.69-.89-.46-1.59-1.13-2.11-2s-.77-1.92-.77-3.15v-.32c0-1.23.26-2.28.77-3.15.51-.87,1.21-1.54,2.11-2,.89-.46,1.89-.69,2.99-.69s2.02.19,2.79.57c.77.38,1.4.91,1.87,1.58.48.67.78,1.41.92,2.24l-2.55.53c-.06-.48-.21-.91-.44-1.3-.23-.39-.55-.7-.98-.93-.42-.23-.94-.34-1.55-.34s-1.19.13-1.69.4c-.5.27-.89.67-1.17,1.21-.28.54-.43,1.18-.43,1.93v.23c0,.75.14,1.39.43,1.92.28.53.67.93,1.17,1.21.5.28,1.06.41,1.69.41.94,0,1.64-.24,2.13-.72.48-.48.79-1.11.91-1.87l2.55.6c-.18.8-.51,1.53-.99,2.19-.47.66-1.1,1.18-1.87,1.58s-1.71.59-2.79.59Z"/><path class="cls-4" d="M175.22,306.99v-16.1h2.65v6.23h.39c.12-.26.32-.52.6-.78.28-.26.64-.48,1.09-.64.45-.17,1.02-.25,1.71-.25.87,0,1.65.2,2.32.59s1.2.94,1.58,1.64c.38.71.56,1.54.56,2.51v6.81h-2.64v-6.6c0-.92-.23-1.61-.68-2.06-.45-.45-1.09-.68-1.92-.68-.94,0-1.67.31-2.21.93-.54.62-.8,1.51-.8,2.66v5.75h-2.65Z"/><path class="cls-4" d="M189.37,306.99v-11.36h2.6v1.59h.39c.2-.43.56-.84,1.08-1.22.52-.38,1.31-.57,2.37-.57.87,0,1.65.2,2.32.6.67.4,1.2.95,1.58,1.66.38.71.56,1.54.56,2.51v6.81h-2.64v-6.6c0-.92-.23-1.61-.68-2.06-.45-.45-1.09-.68-1.92-.68-.94,0-1.67.31-2.21.93-.54.62-.8,1.51-.8,2.66v5.75h-2.65Z"/><path class="cls-4" d="M208.89,307.31c-1.13,0-2.15-.23-3.05-.7-.9-.47-1.6-1.13-2.12-2-.51-.87-.77-1.91-.77-3.12v-.37c0-1.21.26-2.25.77-3.13.51-.87,1.22-1.54,2.12-2,.9-.46,1.91-.69,3.05-.69s2.15.23,3.04.69,1.59,1.13,2.1,2c.51.87.77,1.92.77,3.13v.37c0,1.21-.26,2.25-.77,3.12-.51.87-1.21,1.53-2.1,2s-1.9.7-3.04.7ZM208.89,304.97c.97,0,1.76-.31,2.37-.93.61-.62.92-1.49.92-2.61v-.23c0-1.12-.31-1.99-.92-2.61s-1.4-.93-2.37-.93-1.76.31-2.37.93-.92,1.49-.92,2.61v.23c0,1.12.31,1.99.92,2.61.61.62,1.4.93,2.37.93Z"/><path class="cls-4" d="M217.61,306.99v-16.1h2.64v16.1h-2.64Z"/><path class="cls-4" d="M229,307.31c-1.13,0-2.15-.23-3.05-.7-.9-.47-1.6-1.13-2.12-2-.51-.87-.77-1.91-.77-3.12v-.37c0-1.21.26-2.25.77-3.13.51-.87,1.22-1.54,2.12-2,.9-.46,1.91-.69,3.05-.69s2.15.23,3.04.69,1.59,1.13,2.1,2c.51.87.77,1.92.77,3.13v.37c0,1.21-.26,2.25-.77,3.12-.51.87-1.21,1.53-2.1,2s-1.9.7-3.04.7ZM229,304.97c.97,0,1.76-.31,2.37-.93.61-.62.92-1.49.92-2.61v-.23c0-1.12-.31-1.99-.92-2.61s-1.4-.93-2.37-.93-1.76.31-2.37.93-.92,1.49-.92,2.61v.23c0,1.12.31,1.99.92,2.61.61.62,1.4.93,2.37.93Z"/><path class="cls-4" d="M237.16,301.35v-.34c0-1.2.24-2.22.71-3.07.48-.85,1.11-1.5,1.91-1.95.8-.45,1.67-.68,2.62-.68,1.07,0,1.89.19,2.45.57.56.38.97.8,1.23,1.24h.39v-1.5h2.58v13.52c0,.75-.21,1.35-.64,1.78-.43.44-1.01.66-1.75.66h-7.64v-2.3h6.74c.44,0,.67-.23.67-.69v-3.29h-.39c-.17.26-.4.53-.69.79-.29.27-.67.49-1.15.68-.48.18-1.07.28-1.79.28-.95,0-1.82-.23-2.62-.68-.8-.45-1.43-1.1-1.91-1.95-.47-.85-.71-1.87-.71-3.07ZM243.14,304.74c.95,0,1.74-.3,2.37-.91.63-.61.94-1.45.94-2.54v-.23c0-1.1-.31-1.96-.93-2.55-.62-.6-1.41-.9-2.38-.9s-1.74.3-2.38.9c-.64.6-.95,1.45-.95,2.55v.23c0,1.09.32,1.94.95,2.54.64.61,1.43.91,2.38.91Z"/><path class="cls-4" d="M253.67,311.59v-2.3h6.28c.43,0,.64-.23.64-.69v-3.17h-.39c-.12.28-.32.55-.6.82-.28.27-.64.49-1.1.67-.46.18-1.04.26-1.75.26-.87,0-1.65-.2-2.32-.59-.67-.39-1.2-.94-1.56-1.66-.37-.71-.55-1.54-.55-2.5v-6.81h2.62v6.6c0,.92.23,1.6.68,2.05.45.44,1.09.67,1.92.67.93,0,1.67-.31,2.22-.92.54-.61.82-1.49.82-2.65v-5.75h2.62v13.52c0,.75-.21,1.35-.64,1.78-.43.44-1.01.66-1.75.66h-7.13Z"/><path class="cls-4" d="M273.73,294.18c-.48,0-.89-.16-1.23-.47-.35-.31-.52-.73-.52-1.25s.17-.94.52-1.25c.34-.31.75-.47,1.23-.47.51,0,.92.16,1.25.47.33.31.49.73.49,1.25s-.17.94-.49,1.25c-.33.31-.75.47-1.25.47ZM272.42,306.99v-11.36h2.64v11.36h-2.64Z"/><path class="cls-4" d="M278.42,306.99v-11.36h2.6v1.59h.39c.2-.43.56-.84,1.08-1.22.52-.38,1.31-.57,2.37-.57.88,0,1.65.2,2.32.6.67.4,1.2.95,1.58,1.66.38.71.56,1.54.56,2.51v6.81h-2.65v-6.6c0-.92-.23-1.61-.68-2.06-.45-.45-1.09-.68-1.92-.68-.94,0-1.67.31-2.21.93-.54.62-.8,1.51-.8,2.66v5.75h-2.64Z"/><path class="cls-4" d="M303.08,307.31c-.92,0-1.78-.23-2.58-.68-.8-.45-1.43-1.12-1.91-1.99-.47-.87-.71-1.92-.71-3.15v-.37c0-1.23.24-2.28.71-3.15s1.11-1.54,1.9-1.99c.79-.45,1.65-.68,2.59-.68.71,0,1.3.08,1.79.25.49.17.88.38,1.18.64.3.26.53.54.7.85h.39v-6.16h2.62v16.1h-2.58v-1.49h-.39c-.28.46-.7.88-1.26,1.25-.57.38-1.39.56-2.46.56ZM303.86,305.01c.95,0,1.74-.31,2.37-.93.63-.62.94-1.51.94-2.66v-.23c0-1.17-.31-2.05-.93-2.67-.62-.61-1.41-.92-2.38-.92s-1.74.31-2.38.92c-.64.61-.96,1.5-.96,2.67v.23c0,1.15.32,2.04.96,2.66.64.62,1.43.93,2.38.93Z"/><path class="cls-4" d="M314.44,294.18c-.48,0-.89-.16-1.23-.47-.34-.31-.52-.73-.52-1.25s.17-.94.52-1.25c.34-.31.75-.47,1.23-.47.51,0,.92.16,1.25.47.33.31.49.73.49,1.25s-.17.94-.49,1.25c-.33.31-.75.47-1.25.47ZM313.13,306.99v-11.36h2.65v11.36h-2.65Z"/><path class="cls-4" d="M321.11,306.99v-9.18h-3.04v-2.19h3.04v-2.3c0-.75.22-1.35.65-1.78.44-.44,1.02-.66,1.74-.66h2.95v2.18h-2.07c-.43,0-.64.23-.64.69v1.86h2.44v2.19h-2.44v9.18h-2.62ZM328.58,306.99v-9.18h-2.42v-2.19h2.42v-2.3c0-.75.22-1.35.66-1.78s1.02-.66,1.74-.66h2.94v2.18h-2.07c-.43,0-.64.23-.64.69v1.86h3.13v2.19h-3.13v9.18h-2.62Z"/><path class="cls-4" d="M341.44,307.31c-1.13,0-2.14-.24-3-.72-.87-.48-1.54-1.17-2.02-2.05-.48-.88-.72-1.91-.72-3.09v-.28c0-1.2.24-2.23.71-3.1.47-.87,1.14-1.55,2-2.04.86-.48,1.85-.72,2.97-.72s2.07.24,2.9.72,1.47,1.16,1.93,2.04c.46.87.69,1.89.69,3.06v.94h-8.53c.03.89.34,1.6.94,2.14.6.54,1.33.8,2.21.8s1.5-.19,1.91-.56c.41-.38.73-.8.94-1.28l2.19,1.13c-.21.41-.53.85-.93,1.32-.41.47-.95.87-1.62,1.2-.68.33-1.53.49-2.55.49ZM338.38,300.07h5.82c-.06-.75-.35-1.35-.86-1.79-.51-.44-1.18-.67-1.99-.67s-1.52.22-2.02.67c-.51.44-.82,1.04-.94,1.79Z"/><path class="cls-4" d="M349.61,306.99v-11.36h2.6v1.31h.39c.17-.48.45-.82.85-1.04.4-.21.87-.32,1.43-.32h1.38v2.35h-1.43c-.77,0-1.39.2-1.86.61-.48.41-.71,1.03-.71,1.87v6.58h-2.65Z"/><path class="cls-4" d="M363.38,307.31c-1.13,0-2.14-.24-3-.72-.87-.48-1.54-1.17-2.02-2.05-.48-.88-.72-1.91-.72-3.09v-.28c0-1.2.24-2.23.71-3.1.47-.87,1.14-1.55,2-2.04.86-.48,1.85-.72,2.97-.72s2.07.24,2.9.72,1.47,1.16,1.93,2.04c.46.87.69,1.89.69,3.06v.94h-8.53c.03.89.34,1.6.94,2.14.6.54,1.33.8,2.21.8s1.5-.19,1.91-.56c.41-.38.73-.8.94-1.28l2.19,1.13c-.21.41-.53.85-.93,1.32-.41.47-.95.87-1.62,1.2-.68.33-1.53.49-2.55.49ZM360.32,300.07h5.82c-.06-.75-.35-1.35-.86-1.79-.51-.44-1.18-.67-1.99-.67s-1.52.22-2.02.67c-.51.44-.82,1.04-.94,1.79Z"/><path class="cls-4" d="M371.55,306.99v-11.36h2.6v1.59h.39c.2-.43.56-.84,1.08-1.22.52-.38,1.31-.57,2.37-.57.87,0,1.65.2,2.32.6.67.4,1.2.95,1.58,1.66.38.71.56,1.54.56,2.51v6.81h-2.64v-6.6c0-.92-.23-1.61-.68-2.06-.45-.45-1.09-.68-1.92-.68-.94,0-1.67.31-2.21.93s-.8,1.51-.8,2.66v5.75h-2.65Z"/><path class="cls-4" d="M389.69,306.99c-.74,0-1.32-.22-1.76-.66s-.66-1.03-.66-1.78v-6.74h-2.97v-2.19h2.97v-3.66h2.64v3.66h3.27v2.19h-3.27v6.3c0,.46.21.69.64.69h2.28v2.19h-3.15Z"/><path class="cls-4" d="M402.83,306.99l-1.77-11.36h2.62l1.22,9.59h.39l1.72-9.59h4.23l1.72,9.59h.39l1.22-9.59h2.62l-1.77,11.36h-4.39l-1.7-9.59h-.39l-1.73,9.59h-4.39Z"/><path class="cls-4" d="M423.34,307.31c-.8,0-1.52-.14-2.16-.43s-1.15-.69-1.53-1.23c-.38-.54-.56-1.2-.56-1.98s.19-1.41.56-1.93c.38-.52.89-.92,1.55-1.18.66-.27,1.41-.4,2.25-.4h3.29v-.69c0-.6-.18-1.08-.55-1.46-.37-.38-.94-.56-1.72-.56s-1.35.18-1.74.54c-.39.36-.65.82-.77,1.39l-2.44-.8c.18-.6.48-1.14.89-1.63.41-.49.95-.89,1.62-1.18.67-.3,1.5-.45,2.48-.45,1.49,0,2.66.37,3.51,1.12.85.74,1.28,1.82,1.28,3.23v4.46c0,.46.21.69.64.69h.97v2.19h-1.86c-.55,0-1-.14-1.36-.41-.35-.28-.53-.65-.53-1.13v-.05h-.39c-.09.21-.25.48-.48.78-.23.31-.58.57-1.05.79-.47.22-1.1.33-1.9.33ZM423.78,305.15c.87,0,1.59-.25,2.14-.75.55-.5.83-1.17.83-2.01v-.23h-3.13c-.57,0-1.03.12-1.38.37-.35.25-.53.61-.53,1.08s.18.83.55,1.12c.37.28.87.43,1.52.43Z"/><path class="cls-4" d="M434.04,311.59v-2.3h6.28c.43,0,.64-.23.64-.69v-3.17h-.39c-.12.28-.32.55-.6.82-.28.27-.64.49-1.1.67-.46.18-1.04.26-1.75.26-.87,0-1.65-.2-2.32-.59-.67-.39-1.2-.94-1.56-1.66-.37-.71-.55-1.54-.55-2.5v-6.81h2.62v6.6c0,.92.23,1.6.68,2.05.45.44,1.09.67,1.92.67.93,0,1.67-.31,2.22-.92.54-.61.82-1.49.82-2.65v-5.75h2.62v13.52c0,.75-.21,1.35-.64,1.78-.43.44-1.01.66-1.75.66h-7.13Z"/><path class="cls-4" d="M451.61,307.31c-1.47,0-2.68-.32-3.63-.97-.95-.64-1.53-1.59-1.72-2.83l2.44-.62c.11.58.3,1.04.58,1.38.28.34.62.57,1.02.71.41.14.85.21,1.32.21.72,0,1.26-.13,1.62-.39.36-.26.54-.59.54-.99s-.17-.72-.52-.92c-.35-.2-.87-.37-1.58-.51l-.71-.11c-.78-.15-1.49-.36-2.14-.63-.64-.27-1.16-.64-1.55-1.1-.39-.47-.59-1.06-.59-1.78,0-1.1.41-1.95,1.23-2.55s1.9-.9,3.23-.9,2.32.28,3.15.85c.83.57,1.36,1.33,1.61,2.28l-2.44.74c-.12-.64-.39-1.1-.8-1.37-.41-.27-.92-.4-1.52-.4s-1.08.11-1.42.32c-.33.21-.49.52-.49.92s.17.7.51.9c.34.2.79.34,1.36.44l.71.14c.84.15,1.61.35,2.29.6.68.25,1.22.6,1.62,1.06.4.46.6,1.08.6,1.86,0,1.18-.43,2.09-1.28,2.73-.85.64-2,.95-3.44.95Z"/><path class="cls-4" d="M460.62,307.31c-.58,0-1.07-.19-1.46-.58-.39-.38-.59-.87-.59-1.47s.2-1.07.59-1.45c.39-.38.88-.58,1.46-.58s1.07.19,1.45.58c.38.38.57.87.57,1.47s-.19,1.08-.57,1.46c-.38.38-.87.56-1.45.56Z"/><path class="cls-3" d="M34.56,372.16l3.42-12.48h3.73l3.42,12.48h-2.21l-.75-2.85h-4.65l-.75,2.85h-2.21ZM38.02,367.35h3.66l-1.68-6.33h-.3l-1.68,6.33Z"/><path class="cls-3" d="M46.72,372.16v-12.48h2.16v12.48h-2.16Z"/><path class="cls-3" d="M60.18,372.41c-.95,0-1.79-.17-2.52-.51-.73-.34-1.31-.83-1.72-1.47s-.62-1.43-.62-2.35v-.46h2.12v.46c0,.82.25,1.43.75,1.84.5.4,1.16.61,2,.61s1.48-.17,1.91-.52c.43-.34.64-.79.64-1.34,0-.37-.1-.67-.3-.9-.2-.23-.5-.42-.88-.56-.39-.14-.85-.28-1.4-.41l-.54-.11c-.82-.19-1.53-.43-2.13-.72-.6-.29-1.06-.67-1.38-1.13s-.48-1.07-.48-1.82.18-1.39.54-1.93c.36-.54.86-.95,1.52-1.23s1.42-.43,2.3-.43,1.66.15,2.35.45c.69.3,1.23.74,1.63,1.34.4.59.6,1.34.6,2.23v.59h-2.12v-.59c0-.51-.1-.92-.3-1.23-.2-.31-.49-.54-.86-.68-.37-.14-.8-.21-1.3-.21-.74,0-1.3.14-1.68.43-.38.29-.57.69-.57,1.21,0,.33.09.62.26.85.17.23.43.42.77.57.34.15.76.28,1.27.38l.54.12c.86.19,1.61.43,2.25.72.64.29,1.14.67,1.51,1.15.36.48.54,1.09.54,1.85s-.19,1.41-.58,1.98c-.39.57-.93,1.02-1.62,1.34-.7.32-1.52.48-2.47.48Z"/><path class="cls-3" d="M70.15,372.16c-.57,0-1.03-.17-1.36-.51-.34-.34-.51-.8-.51-1.38v-5.22h-2.3v-1.69h2.3v-2.84h2.05v2.84h2.53v1.69h-2.53v4.89c0,.36.17.53.5.53h1.77v1.69h-2.44Z"/><path class="cls-3" d="M78.8,372.41c-.88,0-1.67-.18-2.36-.54-.7-.36-1.24-.88-1.64-1.55-.4-.67-.6-1.48-.6-2.42v-.29c0-.94.2-1.75.6-2.43.4-.68.95-1.19,1.64-1.55.7-.36,1.48-.53,2.36-.53s1.66.18,2.35.53c.69.36,1.23.87,1.63,1.55.4.68.6,1.49.6,2.43v.29c0,.94-.2,1.74-.6,2.42-.4.67-.94,1.19-1.63,1.55-.69.36-1.47.54-2.35.54ZM78.8,370.59c.75,0,1.36-.24,1.84-.72.48-.48.71-1.16.71-2.02v-.18c0-.87-.24-1.54-.71-2.02-.48-.48-1.09-.72-1.84-.72s-1.36.24-1.84.72c-.48.48-.71,1.16-.71,2.02v.18c0,.87.24,1.54.71,2.02.47.48,1.09.72,1.84.72Z"/><path class="cls-3" d="M89.68,372.41c-.86,0-1.63-.18-2.32-.53-.69-.36-1.23-.87-1.63-1.55-.4-.68-.6-1.49-.6-2.44v-.25c0-.95.2-1.77.6-2.44.4-.68.94-1.19,1.63-1.55.69-.36,1.46-.53,2.32-.53s1.57.15,2.17.45c.6.3,1.08.7,1.45,1.22.37.52.61,1.1.71,1.74l-1.98.41c-.05-.37-.16-.7-.34-1.01-.18-.3-.43-.54-.76-.72-.33-.18-.73-.27-1.2-.27s-.92.1-1.31.31c-.39.21-.69.52-.91.94-.22.42-.33.92-.33,1.5v.18c0,.58.11,1.08.33,1.49.22.41.52.72.91.94.39.21.82.32,1.31.32.72,0,1.28-.19,1.65-.56s.61-.86.7-1.45l1.98.46c-.14.62-.4,1.18-.77,1.69-.37.51-.85.92-1.45,1.22-.6.3-1.32.45-2.17.45Z"/><path class="cls-3" d="M96.06,372.16v-12.48h2.05v7.01h.3l3.17-3.33h2.69l-4.26,4.26,4.4,4.55h-2.66l-3.35-3.58h-.3v3.58h-2.05Z"/><path class="cls-3" d="M114.59,372.41c-.88,0-1.66-.19-2.33-.56-.67-.37-1.2-.9-1.57-1.59-.37-.68-.56-1.48-.56-2.4v-.21c0-.93.18-1.73.55-2.41.37-.68.88-1.2,1.55-1.58.67-.37,1.43-.56,2.3-.56s1.6.19,2.25.56c.64.37,1.14.9,1.5,1.58.36.68.54,1.47.54,2.37v.73h-6.62c.02.69.27,1.24.73,1.66.46.42,1.03.62,1.71.62s1.16-.15,1.48-.44c.32-.29.57-.62.73-.99l1.69.87c-.17.32-.41.66-.72,1.03-.31.36-.73.67-1.26.93-.52.26-1.18.38-1.98.38ZM112.22,366.79h4.51c-.05-.58-.27-1.05-.67-1.39-.4-.34-.91-.52-1.54-.52s-1.18.17-1.57.52c-.39.34-.64.81-.73,1.39Z"/><path class="cls-3" d="M120.92,372.16v-12.48h2.05v12.48h-2.05Z"/><path class="cls-3" d="M129.6,372.41c-.88,0-1.66-.19-2.33-.56-.67-.37-1.2-.9-1.57-1.59-.37-.68-.56-1.48-.56-2.4v-.21c0-.93.18-1.73.55-2.41.37-.68.88-1.2,1.55-1.58.67-.37,1.43-.56,2.3-.56s1.61.19,2.25.56c.64.37,1.14.9,1.5,1.58.36.68.54,1.47.54,2.37v.73h-6.62c.02.69.27,1.24.73,1.66.46.42,1.04.62,1.71.62s1.16-.15,1.48-.44c.32-.29.57-.62.73-.99l1.69.87c-.17.32-.41.66-.72,1.03-.32.36-.73.67-1.26.93s-1.18.38-1.98.38ZM127.23,366.79h4.51c-.05-.58-.27-1.05-.67-1.39-.4-.34-.91-.52-1.54-.52s-1.18.17-1.57.52c-.39.34-.64.81-.73,1.39Z"/><path class="cls-3" d="M135.93,372.16v-8.81h2.01v.98h.3c.15-.3.41-.56.78-.79.36-.23.85-.35,1.45-.35.64,0,1.16.13,1.55.39.39.26.69.59.89,1h.29c.2-.4.49-.74.87-1,.38-.26.92-.39,1.62-.39.55,0,1.04.12,1.49.36.45.24.8.59,1.07,1.05s.4,1.04.4,1.73v5.83h-2.05v-5.69c0-.51-.14-.9-.41-1.17s-.65-.4-1.14-.4c-.54,0-.96.18-1.28.53-.32.35-.47.85-.47,1.51v5.22h-2.03v-5.69c0-.51-.14-.9-.41-1.17s-.65-.4-1.14-.4c-.55,0-.98.18-1.28.53-.31.35-.46.85-.46,1.51v5.22h-2.05Z"/><path class="cls-3" d="M155.21,372.41c-.88,0-1.66-.19-2.33-.56-.67-.37-1.2-.9-1.57-1.59-.37-.68-.56-1.48-.56-2.4v-.21c0-.93.18-1.73.55-2.41.37-.68.88-1.2,1.55-1.58.67-.37,1.43-.56,2.3-.56s1.61.19,2.25.56c.64.37,1.14.9,1.5,1.58.36.68.54,1.47.54,2.37v.73h-6.62c.02.69.27,1.24.73,1.66.46.42,1.04.62,1.71.62s1.16-.15,1.48-.44c.32-.29.57-.62.73-.99l1.69.87c-.17.32-.41.66-.72,1.03-.32.36-.73.67-1.26.93s-1.18.38-1.98.38ZM152.84,366.79h4.51c-.05-.58-.27-1.05-.67-1.39-.4-.34-.91-.52-1.54-.52s-1.18.17-1.57.52c-.39.34-.64.81-.73,1.39Z"/><path class="cls-3" d="M161.54,372.16v-8.81h2.01v1.23h.3c.15-.33.43-.65.84-.95.4-.3,1.02-.45,1.84-.45.68,0,1.28.15,1.8.46.52.31.93.74,1.22,1.28.29.55.44,1.19.44,1.94v5.28h-2.05v-5.12c0-.71-.18-1.25-.53-1.6-.35-.35-.85-.53-1.49-.53-.73,0-1.3.24-1.71.72-.42.48-.62,1.17-.62,2.06v4.46h-2.05Z"/><path class="cls-3" d="M175.61,372.16c-.57,0-1.03-.17-1.36-.51-.34-.34-.51-.8-.51-1.38v-5.22h-2.3v-1.69h2.3v-2.84h2.05v2.84h2.53v1.69h-2.53v4.89c0,.36.17.53.5.53h1.77v1.69h-2.44Z"/><path class="cls-3" d="M184.04,372.41c-1.14,0-2.08-.25-2.82-.75-.74-.5-1.18-1.23-1.34-2.19l1.89-.48c.08.45.23.81.45,1.07.21.26.48.45.79.55.32.11.66.16,1.03.16.56,0,.98-.1,1.26-.3.28-.2.42-.46.42-.77s-.13-.56-.4-.71c-.27-.15-.67-.29-1.22-.39l-.55-.09c-.61-.12-1.16-.28-1.66-.49-.5-.21-.9-.49-1.2-.86-.3-.36-.45-.82-.45-1.38,0-.86.32-1.52.95-1.98.64-.46,1.47-.7,2.51-.7s1.8.22,2.44.66c.64.44,1.06,1.03,1.25,1.77l-1.89.57c-.1-.5-.3-.85-.62-1.06-.32-.21-.71-.31-1.18-.31s-.84.08-1.1.25c-.26.17-.38.4-.38.71s.13.54.39.7c.26.15.61.27,1.05.34l.55.11c.65.12,1.24.27,1.77.46.53.19.95.46,1.26.82.31.36.46.84.46,1.44,0,.92-.33,1.62-.99,2.11s-1.55.74-2.67.74Z"/><path class="cls-3" d="M40.12,399.97c-1.52,0-2.73-.43-3.64-1.29-.9-.86-1.36-2.1-1.36-3.72v-2.96c0-1.62.45-2.86,1.36-3.72.9-.86,2.12-1.29,3.64-1.29s2.7.42,3.52,1.25c.83.83,1.24,1.97,1.24,3.42v.11h-2.1v-.16c0-.78-.22-1.43-.65-1.93-.43-.51-1.1-.76-2.01-.76s-1.57.27-2.08.81c-.5.54-.76,1.29-.76,2.24v3.03c0,.94.25,1.68.76,2.23.5.55,1.2.82,2.08.82s1.57-.25,2.01-.76c.43-.51.65-1.15.65-1.93v-.3h2.1v.25c0,1.45-.41,2.59-1.24,3.42-.83.83-2,1.25-3.52,1.25Z"/><path class="cls-3" d="M51.14,399.97c-.88,0-1.67-.18-2.36-.54-.7-.36-1.24-.88-1.64-1.55-.4-.67-.6-1.48-.6-2.42v-.29c0-.94.2-1.75.6-2.43.4-.68.95-1.19,1.64-1.55.7-.36,1.48-.53,2.36-.53s1.66.18,2.35.53c.69.36,1.23.87,1.63,1.55.4.68.6,1.49.6,2.43v.29c0,.94-.2,1.74-.6,2.42-.4.67-.94,1.19-1.63,1.55-.69.36-1.47.54-2.35.54ZM51.14,398.15c.75,0,1.36-.24,1.84-.72.47-.48.71-1.16.71-2.02v-.18c0-.87-.24-1.54-.71-2.02-.48-.48-1.09-.72-1.84-.72s-1.36.24-1.84.72c-.48.48-.71,1.16-.71,2.02v.18c0,.87.24,1.54.71,2.02.48.48,1.09.72,1.84.72Z"/><path class="cls-3" d="M57.9,399.72v-8.81h2.01v1.23h.3c.15-.33.43-.65.84-.95.4-.3,1.02-.45,1.84-.45.68,0,1.28.15,1.8.46.52.31.93.74,1.22,1.28.29.55.44,1.19.44,1.94v5.28h-2.05v-5.12c0-.71-.18-1.25-.53-1.6-.35-.35-.85-.53-1.49-.53-.73,0-1.3.24-1.71.72-.42.48-.62,1.17-.62,2.06v4.46h-2.05Z"/><path class="cls-3" d="M72.99,399.97c-.86,0-1.63-.18-2.32-.53-.69-.36-1.23-.87-1.63-1.55-.4-.68-.6-1.49-.6-2.44v-.25c0-.95.2-1.77.6-2.44.4-.68.94-1.19,1.63-1.55.69-.36,1.46-.53,2.32-.53s1.57.15,2.17.45c.6.3,1.08.7,1.45,1.22.37.52.61,1.1.71,1.74l-1.98.41c-.05-.37-.16-.7-.34-1.01s-.43-.54-.76-.72c-.33-.18-.73-.27-1.2-.27s-.92.1-1.31.31c-.39.21-.69.52-.91.94-.22.42-.33.92-.33,1.5v.18c0,.58.11,1.08.33,1.49s.52.72.91.94.82.32,1.31.32c.73,0,1.28-.19,1.65-.56.37-.37.61-.86.7-1.45l1.98.46c-.14.62-.4,1.18-.77,1.69-.37.51-.85.92-1.45,1.22-.6.3-1.32.45-2.17.45Z"/><path class="cls-3" d="M83.4,399.97c-.88,0-1.66-.19-2.33-.56-.67-.37-1.19-.9-1.57-1.59-.38-.68-.56-1.48-.56-2.4v-.21c0-.93.18-1.73.55-2.41.37-.68.89-1.2,1.55-1.58.67-.37,1.43-.56,2.3-.56s1.61.19,2.25.56c.64.37,1.14.9,1.5,1.58s.54,1.47.54,2.37v.73h-6.62c.02.69.27,1.24.73,1.66.46.42,1.03.62,1.71.62s1.16-.15,1.48-.44c.32-.29.56-.62.73-.99l1.69.87c-.17.32-.41.66-.72,1.03-.32.36-.73.67-1.26.93s-1.18.38-1.98.38ZM81.03,394.35h4.51c-.05-.58-.27-1.05-.67-1.39-.4-.34-.91-.52-1.54-.52s-1.18.17-1.57.52c-.39.34-.64.81-.73,1.39Z"/><path class="cls-3" d="M89.73,403.29v-12.38h2.02v1.16h.3c.2-.37.53-.7.97-.98s1.08-.43,1.92-.43c.71,0,1.38.18,1.99.53.61.35,1.1.86,1.47,1.54.37.68.55,1.49.55,2.44v.29c0,.95-.18,1.77-.55,2.44-.37.68-.86,1.19-1.46,1.54-.61.35-1.27.53-2,.53-.56,0-1.03-.07-1.4-.2-.37-.13-.68-.3-.91-.52-.23-.21-.41-.43-.54-.64h-.3v4.67h-2.05ZM94.33,398.19c.75,0,1.36-.24,1.85-.72.48-.48.72-1.17.72-2.06v-.18c0-.9-.24-1.59-.73-2.07-.49-.48-1.1-.71-1.84-.71s-1.35.24-1.85.71c-.49.48-.74,1.17-.74,2.07v.18c0,.89.25,1.58.74,2.06.49.48,1.11.72,1.85.72Z"/><path class="cls-3" d="M104.17,399.72c-.57,0-1.03-.17-1.36-.51-.34-.34-.51-.8-.51-1.38v-5.22h-2.3v-1.69h2.3v-2.84h2.05v2.84h2.53v1.69h-2.53v4.89c0,.36.17.53.5.53h1.77v1.69h-2.44Z"/><path class="cls-3" d="M112.61,399.97c-1.14,0-2.08-.25-2.82-.75-.74-.5-1.18-1.23-1.34-2.19l1.89-.48c.08.45.23.81.45,1.07.21.26.48.45.79.55.31.11.66.16,1.03.16.56,0,.98-.1,1.26-.3.28-.2.42-.46.42-.77s-.13-.56-.4-.71c-.27-.15-.67-.29-1.22-.39l-.55-.09c-.61-.12-1.16-.28-1.66-.49-.5-.21-.9-.49-1.2-.86-.3-.36-.46-.82-.46-1.38,0-.86.32-1.52.95-1.98s1.47-.7,2.5-.7,1.8.22,2.44.66c.64.44,1.06,1.03,1.25,1.77l-1.89.57c-.09-.5-.3-.85-.62-1.06-.32-.21-.71-.31-1.18-.31s-.84.08-1.1.25c-.26.17-.38.4-.38.71s.13.54.39.7c.26.15.61.27,1.05.34l.55.11c.65.12,1.25.27,1.77.46.53.19.95.46,1.26.82.31.36.46.84.46,1.44,0,.92-.33,1.62-.99,2.11-.66.49-1.55.74-2.67.74Z"/><path class="cls-3" d="M122.81,399.72v-12.48h2.16v12.48h-2.16Z"/><path class="cls-3" d="M127.5,399.72v-8.81h2.02v1.23h.3c.15-.33.43-.65.84-.95.4-.3,1.02-.45,1.84-.45.68,0,1.28.15,1.8.46.52.31.93.74,1.22,1.28.29.55.44,1.19.44,1.94v5.28h-2.05v-5.12c0-.71-.18-1.25-.53-1.6-.35-.35-.85-.53-1.49-.53-.72,0-1.29.24-1.71.72-.42.48-.62,1.17-.62,2.06v4.46h-2.05Z"/><path class="cls-3" d="M139.48,389.79c-.37,0-.69-.12-.96-.37-.27-.24-.4-.57-.4-.97s.13-.73.4-.97c.27-.24.59-.37.96-.37.39,0,.71.12.97.37.26.24.38.57.38.97s-.13.73-.38.97c-.26.24-.58.37-.97.37ZM138.46,399.72v-8.81h2.05v8.81h-2.05Z"/><path class="cls-3" d="M146.47,399.72c-.57,0-1.03-.17-1.36-.51-.34-.34-.51-.8-.51-1.38v-5.22h-2.3v-1.69h2.3v-2.84h2.05v2.84h2.53v1.69h-2.53v4.89c0,.36.17.53.5.53h1.76v1.69h-2.44Z"/><path class="cls-3" d="M152.29,389.79c-.37,0-.69-.12-.96-.37-.27-.24-.4-.57-.4-.97s.13-.73.4-.97c.27-.24.59-.37.96-.37.39,0,.71.12.97.37.26.24.38.57.38.97s-.13.73-.38.97c-.26.24-.58.37-.97.37ZM151.27,399.72v-8.81h2.05v8.81h-2.05Z"/><path class="cls-3" d="M158.65,399.97c-.62,0-1.18-.11-1.68-.33-.5-.22-.89-.54-1.19-.95-.29-.42-.44-.93-.44-1.53s.15-1.09.44-1.5c.29-.4.69-.71,1.2-.92.51-.21,1.09-.31,1.75-.31h2.55v-.53c0-.46-.14-.84-.43-1.13-.29-.29-.73-.44-1.34-.44s-1.04.14-1.35.42c-.3.28-.5.64-.6,1.08l-1.89-.62c.14-.46.37-.89.69-1.27.31-.38.73-.69,1.26-.92.52-.23,1.16-.35,1.93-.35,1.15,0,2.06.29,2.72.86.66.58.99,1.41.99,2.51v3.46c0,.36.17.53.5.53h.75v1.69h-1.44c-.43,0-.78-.11-1.05-.32s-.41-.51-.41-.87v-.04h-.3c-.07.17-.2.37-.37.61-.18.24-.45.44-.81.62s-.85.26-1.47.26ZM158.99,398.29c.68,0,1.23-.19,1.66-.58.43-.39.64-.91.64-1.56v-.18h-2.42c-.44,0-.8.1-1.07.29-.27.19-.41.47-.41.84s.14.65.43.86c.29.22.68.33,1.18.33Z"/><path class="cls-3" d="M166.21,399.72v-12.48h2.05v12.48h-2.05Z"/><path class="cls-3" d="M171.88,389.79c-.37,0-.69-.12-.96-.37-.27-.24-.4-.57-.4-.97s.13-.73.4-.97c.27-.24.59-.37.96-.37.39,0,.71.12.97.37.26.24.38.57.38.97s-.13.73-.38.97c-.26.24-.58.37-.97.37ZM170.87,399.72v-8.81h2.05v8.81h-2.05Z"/><path class="cls-3" d="M175.18,399.72v-2.46l5.03-4.39v-.27h-4.85v-1.69h7.06v2.46l-5.03,4.39v.27h5.17v1.69h-7.38Z"/><path class="cls-3" d="M187.49,399.97c-.62,0-1.18-.11-1.68-.33-.5-.22-.89-.54-1.19-.95-.29-.42-.44-.93-.44-1.53s.15-1.09.44-1.5c.29-.4.69-.71,1.2-.92.51-.21,1.09-.31,1.75-.31h2.55v-.53c0-.46-.14-.84-.43-1.13-.29-.29-.73-.44-1.34-.44s-1.04.14-1.35.42c-.3.28-.5.64-.6,1.08l-1.89-.62c.14-.46.37-.89.69-1.27.32-.38.73-.69,1.26-.92.52-.23,1.17-.35,1.93-.35,1.15,0,2.06.29,2.72.86.66.58.99,1.41.99,2.51v3.46c0,.36.17.53.5.53h.75v1.69h-1.44c-.43,0-.78-.11-1.05-.32s-.41-.51-.41-.87v-.04h-.3c-.07.17-.2.37-.38.61-.18.24-.45.44-.81.62-.36.17-.85.26-1.47.26ZM187.82,398.29c.68,0,1.23-.19,1.66-.58.43-.39.64-.91.64-1.56v-.18h-2.43c-.44,0-.8.1-1.07.29-.27.19-.41.47-.41.84s.14.65.43.86c.29.22.68.33,1.18.33Z"/><path class="cls-3" d="M197.77,399.72c-.57,0-1.03-.17-1.36-.51-.34-.34-.51-.8-.51-1.38v-5.22h-2.3v-1.69h2.3v-2.84h2.05v2.84h2.53v1.69h-2.53v4.89c0,.36.17.53.5.53h1.76v1.69h-2.44Z"/><path class="cls-3" d="M203.59,389.79c-.37,0-.69-.12-.95-.37-.27-.24-.4-.57-.4-.97s.13-.73.4-.97c.27-.24.58-.37.95-.37.39,0,.72.12.97.37.25.24.38.57.38.97s-.13.73-.38.97c-.26.24-.58.37-.97.37ZM202.57,399.72v-8.81h2.05v8.81h-2.05Z"/><path class="cls-3" d="M211.4,399.97c-.88,0-1.67-.18-2.36-.54-.7-.36-1.24-.88-1.64-1.55-.4-.67-.6-1.48-.6-2.42v-.29c0-.94.2-1.75.6-2.43.4-.68.95-1.19,1.64-1.55.7-.36,1.48-.53,2.36-.53s1.66.18,2.35.53c.69.36,1.23.87,1.63,1.55.4.68.6,1.49.6,2.43v.29c0,.94-.2,1.74-.6,2.42-.4.67-.94,1.19-1.63,1.55-.69.36-1.47.54-2.35.54ZM211.4,398.15c.75,0,1.36-.24,1.84-.72.48-.48.71-1.16.71-2.02v-.18c0-.87-.24-1.54-.71-2.02-.48-.48-1.09-.72-1.84-.72s-1.36.24-1.84.72c-.47.48-.71,1.16-.71,2.02v.18c0,.87.24,1.54.71,2.02.48.48,1.09.72,1.84.72Z"/><path class="cls-3" d="M218.16,399.72v-8.81h2.02v1.23h.3c.15-.33.43-.65.84-.95.4-.3,1.02-.45,1.84-.45.68,0,1.28.15,1.8.46.52.31.93.74,1.22,1.28.29.55.44,1.19.44,1.94v5.28h-2.05v-5.12c0-.71-.18-1.25-.53-1.6-.35-.35-.85-.53-1.49-.53-.72,0-1.3.24-1.71.72-.42.48-.62,1.17-.62,2.06v4.46h-2.05Z"/><path class="cls-3" d="M37.88,427.28l-3.32-12.48h2.21l2.82,11.11h.25l2.84-11.11h2.21l-3.33,12.48h-3.67Z"/><path class="cls-3" d="M47.54,417.35c-.37,0-.69-.12-.95-.37-.27-.24-.4-.57-.4-.97s.13-.73.4-.97c.27-.24.59-.37.95-.37.39,0,.72.12.97.37.26.24.38.57.38.97s-.13.73-.38.97c-.26.24-.58.37-.97.37ZM46.52,427.28v-8.81h2.05v8.81h-2.05Z"/><path class="cls-3" d="M54.81,427.53c-1.14,0-2.08-.25-2.82-.75-.74-.5-1.18-1.23-1.34-2.19l1.89-.48c.08.45.23.81.45,1.07.21.26.48.45.79.55.32.11.66.16,1.03.16.56,0,.98-.1,1.26-.3.28-.2.42-.46.42-.77s-.13-.56-.4-.71c-.27-.15-.67-.29-1.22-.39l-.55-.09c-.61-.12-1.16-.28-1.66-.49-.5-.21-.9-.49-1.2-.86-.3-.36-.45-.82-.45-1.38,0-.86.32-1.52.95-1.98.64-.46,1.47-.7,2.51-.7s1.8.22,2.44.66c.64.44,1.06,1.03,1.25,1.77l-1.89.57c-.1-.5-.3-.85-.62-1.06-.32-.21-.71-.31-1.18-.31s-.84.08-1.1.25c-.26.17-.38.4-.38.71s.13.54.39.7c.26.15.61.27,1.05.34l.55.11c.65.12,1.25.27,1.77.46.53.19.95.46,1.26.82.31.36.46.84.46,1.44,0,.92-.33,1.62-.99,2.11-.66.49-1.55.74-2.67.74Z"/><path class="cls-3" d="M63.91,427.42c-.68,0-1.28-.15-1.8-.45-.52-.3-.93-.73-1.21-1.28-.29-.55-.43-1.2-.43-1.93v-5.28h2.03v5.12c0,.71.18,1.24.53,1.59.35.34.85.52,1.49.52.72,0,1.3-.24,1.72-.71.42-.48.63-1.16.63-2.05v-4.46h2.03v8.81h-2v-1.23h-.3c-.15.32-.44.63-.85.93-.41.3-1.03.45-1.85.45Z"/><path class="cls-3" d="M74.23,427.53c-.62,0-1.18-.11-1.68-.33-.5-.22-.9-.54-1.19-.95-.29-.42-.44-.93-.44-1.53s.14-1.09.44-1.5c.29-.4.69-.71,1.2-.92.51-.21,1.09-.31,1.75-.31h2.55v-.53c0-.46-.14-.84-.43-1.13-.29-.29-.73-.44-1.34-.44s-1.04.14-1.35.42c-.3.28-.5.64-.6,1.08l-1.89-.62c.14-.46.37-.89.69-1.27.31-.38.73-.69,1.26-.92.52-.23,1.17-.35,1.93-.35,1.15,0,2.06.29,2.72.86.66.58.99,1.41.99,2.51v3.46c0,.36.17.53.5.53h.75v1.69h-1.45c-.43,0-.78-.11-1.05-.32s-.41-.51-.41-.87v-.04h-.3c-.07.17-.2.37-.37.61-.18.24-.45.44-.81.62-.36.17-.85.26-1.47.26ZM74.57,425.85c.68,0,1.23-.19,1.66-.58.43-.39.64-.91.64-1.56v-.18h-2.42c-.44,0-.8.1-1.07.29-.27.19-.41.47-.41.84s.14.65.43.86c.29.22.68.33,1.18.33Z"/><path class="cls-3" d="M81.79,427.28v-12.48h2.05v12.48h-2.05Z"/><path class="cls-3" d="M86.41,423.64v-1.84h5.28v1.84h-5.28Z"/><path class="cls-3" d="M99.47,427.53c-.83,0-1.47-.15-1.92-.44-.45-.29-.77-.62-.97-.97h-.3v1.16h-2.01v-12.48h2.05v4.78h.3c.13-.24.31-.46.54-.66.23-.2.53-.37.91-.5.38-.13.84-.2,1.4-.2.72,0,1.39.18,2,.53.61.35,1.09.86,1.46,1.54.37.68.55,1.49.55,2.44v.29c0,.95-.18,1.77-.55,2.44-.37.68-.86,1.19-1.47,1.54-.61.35-1.28.53-1.99.53ZM98.86,425.75c.74,0,1.35-.24,1.84-.72.49-.48.73-1.17.73-2.06v-.18c0-.9-.24-1.59-.72-2.07-.48-.48-1.1-.71-1.85-.71s-1.35.24-1.85.71c-.49.48-.74,1.17-.74,2.07v.18c0,.89.25,1.58.74,2.06.49.48,1.11.72,1.85.72Z"/><path class="cls-3" d="M108.38,427.53c-.62,0-1.18-.11-1.68-.33-.5-.22-.9-.54-1.19-.95-.29-.42-.44-.93-.44-1.53s.14-1.09.44-1.5c.29-.4.69-.71,1.2-.92.51-.21,1.09-.31,1.75-.31h2.55v-.53c0-.46-.14-.84-.43-1.13-.29-.29-.73-.44-1.34-.44s-1.04.14-1.35.42c-.3.28-.5.64-.6,1.08l-1.89-.62c.14-.46.37-.89.69-1.27.31-.38.73-.69,1.26-.92.52-.23,1.17-.35,1.93-.35,1.15,0,2.06.29,2.72.86.66.58.99,1.41.99,2.51v3.46c0,.36.17.53.5.53h.75v1.69h-1.45c-.43,0-.78-.11-1.05-.32s-.41-.51-.41-.87v-.04h-.3c-.07.17-.2.37-.37.61-.18.24-.45.44-.81.62-.36.17-.85.26-1.47.26ZM108.72,425.85c.68,0,1.23-.19,1.66-.58.43-.39.64-.91.64-1.56v-.18h-2.42c-.44,0-.8.1-1.07.29-.27.19-.41.47-.41.84s.14.65.43.86c.29.22.68.33,1.18.33Z"/><path class="cls-3" d="M119.51,427.53c-1.14,0-2.08-.25-2.82-.75-.74-.5-1.18-1.23-1.34-2.19l1.89-.48c.08.45.23.81.45,1.07.21.26.48.45.79.55.31.11.66.16,1.03.16.56,0,.98-.1,1.26-.3.28-.2.42-.46.42-.77s-.13-.56-.4-.71c-.27-.15-.68-.29-1.22-.39l-.55-.09c-.61-.12-1.16-.28-1.66-.49-.5-.21-.9-.49-1.2-.86-.3-.36-.46-.82-.46-1.38,0-.86.32-1.52.96-1.98.63-.46,1.47-.7,2.5-.7s1.8.22,2.44.66c.64.44,1.06,1.03,1.25,1.77l-1.89.57c-.09-.5-.3-.85-.62-1.06-.32-.21-.71-.31-1.18-.31s-.84.08-1.1.25c-.26.17-.38.4-.38.71s.13.54.39.7c.26.15.61.27,1.05.34l.55.11c.65.12,1.25.27,1.78.46.53.19.95.46,1.26.82.31.36.46.84.46,1.44,0,.92-.33,1.62-.99,2.11s-1.55.74-2.67.74Z"/><path class="cls-3" d="M129.26,427.53c-.88,0-1.66-.19-2.33-.56-.67-.37-1.2-.9-1.57-1.59-.37-.68-.56-1.48-.56-2.4v-.21c0-.93.18-1.73.55-2.41.37-.68.88-1.2,1.55-1.58.67-.37,1.43-.56,2.3-.56s1.6.19,2.25.56c.64.37,1.14.9,1.5,1.58.36.68.54,1.47.54,2.37v.73h-6.62c.02.69.27,1.24.73,1.66.46.42,1.03.62,1.71.62s1.16-.15,1.48-.44c.32-.29.57-.62.73-.99l1.69.87c-.17.32-.41.66-.72,1.03-.31.36-.73.67-1.26.93-.52.26-1.18.38-1.98.38ZM126.89,421.91h4.51c-.05-.58-.27-1.05-.67-1.39-.4-.34-.91-.52-1.54-.52s-1.18.17-1.57.52c-.39.34-.64.81-.73,1.39Z"/><path class="cls-3" d="M139.2,427.53c-.71,0-1.38-.18-2-.53-.62-.35-1.11-.86-1.48-1.54-.37-.68-.55-1.49-.55-2.44v-.29c0-.95.18-1.77.55-2.44.37-.68.86-1.19,1.47-1.54.61-.35,1.28-.53,2.01-.53.55,0,1.01.07,1.39.2.38.13.69.3.92.5.23.2.41.42.54.66h.3v-4.78h2.03v12.48h-2v-1.16h-.3c-.21.36-.54.68-.98.97-.44.29-1.08.44-1.91.44ZM139.8,425.75c.74,0,1.35-.24,1.84-.72.49-.48.73-1.17.73-2.06v-.18c0-.9-.24-1.59-.72-2.07-.48-.48-1.1-.71-1.85-.71s-1.35.24-1.85.71c-.49.48-.74,1.17-.74,2.07v.18c0,.89.25,1.58.74,2.06.49.48,1.11.72,1.85.72Z"/><path class="cls-3" d="M151.11,422.91v-.27c0-.93.18-1.72.55-2.38s.86-1.16,1.48-1.52c.62-.35,1.3-.53,2.03-.53.83,0,1.46.15,1.9.45.43.3.75.62.95.96h.3v-1.16h2v10.49c0,.58-.17,1.04-.5,1.38-.33.34-.79.51-1.36.51h-5.92v-1.78h5.22c.34,0,.52-.18.52-.53v-2.55h-.3c-.13.2-.31.41-.54.62-.23.21-.52.38-.89.53-.37.14-.83.21-1.39.21-.74,0-1.41-.18-2.03-.53-.62-.35-1.11-.86-1.48-1.52s-.55-1.45-.55-2.38ZM155.74,425.53c.74,0,1.35-.23,1.84-.7.49-.47.73-1.13.73-1.97v-.18c0-.86-.24-1.52-.72-1.98-.48-.46-1.1-.7-1.85-.7s-1.35.23-1.85.7c-.49.46-.74,1.12-.74,1.98v.18c0,.84.25,1.5.74,1.97.49.47,1.11.7,1.85.7Z"/><path class="cls-3" d="M166.96,427.53c-.88,0-1.66-.19-2.33-.56-.67-.37-1.2-.9-1.57-1.59-.37-.68-.56-1.48-.56-2.4v-.21c0-.93.18-1.73.55-2.41.37-.68.88-1.2,1.55-1.58.67-.37,1.43-.56,2.3-.56s1.6.19,2.25.56c.64.37,1.14.9,1.5,1.58.36.68.54,1.47.54,2.37v.73h-6.62c.02.69.27,1.24.73,1.66.46.42,1.03.62,1.71.62s1.16-.15,1.48-.44c.32-.29.57-.62.73-.99l1.69.87c-.17.32-.41.66-.72,1.03-.31.36-.73.67-1.26.93-.52.26-1.18.38-1.98.38ZM164.59,421.91h4.51c-.05-.58-.27-1.05-.67-1.39-.4-.34-.91-.52-1.54-.52s-1.18.17-1.57.52c-.39.34-.64.81-.73,1.39Z"/><path class="cls-3" d="M173.29,427.28v-8.81h2.02v1.23h.3c.15-.33.43-.65.84-.95.4-.3,1.02-.45,1.84-.45.68,0,1.28.15,1.8.46.52.31.93.74,1.22,1.28.29.55.44,1.19.44,1.94v5.28h-2.05v-5.12c0-.71-.18-1.25-.53-1.6-.35-.35-.85-.53-1.49-.53-.72,0-1.29.24-1.71.72-.42.48-.62,1.17-.62,2.06v4.46h-2.05Z"/><path class="cls-3" d="M188.29,427.53c-.88,0-1.66-.19-2.33-.56-.67-.37-1.19-.9-1.57-1.59-.38-.68-.56-1.48-.56-2.4v-.21c0-.93.18-1.73.55-2.41.37-.68.89-1.2,1.55-1.58.67-.37,1.43-.56,2.3-.56s1.61.19,2.25.56c.64.37,1.14.9,1.5,1.58s.54,1.47.54,2.37v.73h-6.62c.02.69.27,1.24.73,1.66.46.42,1.03.62,1.71.62s1.16-.15,1.48-.44c.32-.29.56-.62.73-.99l1.69.87c-.17.32-.41.66-.72,1.03-.32.36-.73.67-1.26.93s-1.18.38-1.98.38ZM185.92,421.91h4.51c-.05-.58-.27-1.05-.67-1.39-.4-.34-.91-.52-1.54-.52s-1.18.17-1.57.52c-.39.34-.64.81-.73,1.39Z"/><path class="cls-3" d="M194.62,427.28v-8.81h2.01v1.02h.3c.13-.37.35-.64.66-.8.31-.17.68-.25,1.11-.25h1.07v1.82h-1.11c-.59,0-1.08.16-1.44.47-.37.32-.55.8-.55,1.45v5.1h-2.05Z"/><path class="cls-3" d="M204.09,427.53c-.62,0-1.18-.11-1.68-.33-.5-.22-.9-.54-1.19-.95-.29-.42-.44-.93-.44-1.53s.14-1.09.44-1.5c.29-.4.69-.71,1.2-.92.51-.21,1.09-.31,1.75-.31h2.55v-.53c0-.46-.14-.84-.43-1.13-.29-.29-.73-.44-1.34-.44s-1.04.14-1.35.42c-.3.28-.5.64-.6,1.08l-1.89-.62c.14-.46.37-.89.69-1.27.31-.38.73-.69,1.26-.92.52-.23,1.17-.35,1.93-.35,1.15,0,2.06.29,2.72.86.66.58.99,1.41.99,2.51v3.46c0,.36.17.53.5.53h.75v1.69h-1.45c-.43,0-.78-.11-1.05-.32s-.41-.51-.41-.87v-.04h-.3c-.07.17-.2.37-.37.61-.18.24-.45.44-.81.62-.36.17-.85.26-1.47.26ZM204.43,425.85c.68,0,1.23-.19,1.66-.58.43-.39.64-.91.64-1.56v-.18h-2.42c-.44,0-.8.1-1.07.29-.27.19-.41.47-.41.84s.14.65.43.86c.29.22.68.33,1.18.33Z"/><path class="cls-3" d="M214.38,427.28c-.57,0-1.03-.17-1.36-.51-.34-.34-.51-.8-.51-1.38v-5.22h-2.3v-1.69h2.3v-2.84h2.05v2.84h2.53v1.69h-2.53v4.89c0,.36.17.53.5.53h1.77v1.69h-2.44Z"/><path class="cls-3" d="M220.19,417.35c-.37,0-.69-.12-.95-.37-.27-.24-.4-.57-.4-.97s.13-.73.4-.97c.27-.24.59-.37.95-.37.39,0,.72.12.97.37.26.24.38.57.38.97s-.13.73-.38.97c-.26.24-.58.37-.97.37ZM219.17,427.28v-8.81h2.05v8.81h-2.05Z"/><path class="cls-3" d="M228,427.53c-.88,0-1.67-.18-2.36-.54-.7-.36-1.24-.88-1.64-1.55-.4-.67-.6-1.48-.6-2.42v-.29c0-.94.2-1.75.6-2.43.4-.68.95-1.19,1.64-1.55.7-.36,1.48-.53,2.36-.53s1.66.18,2.35.53c.69.36,1.23.87,1.63,1.55.4.68.6,1.49.6,2.43v.29c0,.94-.2,1.74-.6,2.42-.4.67-.94,1.19-1.63,1.55-.69.36-1.47.54-2.35.54ZM228,425.71c.75,0,1.36-.24,1.84-.72.47-.48.71-1.16.71-2.02v-.18c0-.87-.24-1.54-.71-2.02-.48-.48-1.09-.72-1.84-.72s-1.36.24-1.84.72c-.48.48-.71,1.16-.71,2.02v.18c0,.87.24,1.54.71,2.02.48.48,1.09.72,1.84.72Z"/><path class="cls-3" d="M234.76,427.28v-8.81h2.01v1.23h.3c.15-.33.43-.65.84-.95.4-.3,1.02-.45,1.84-.45.68,0,1.28.15,1.8.46.52.31.93.74,1.22,1.28.29.55.44,1.19.44,1.94v5.28h-2.05v-5.12c0-.71-.18-1.25-.53-1.6-.35-.35-.85-.53-1.49-.53-.73,0-1.3.24-1.71.72-.42.48-.62,1.17-.62,2.06v4.46h-2.05Z"/><path class="cls-3" d="M249.36,427.53c-1.14,0-2.08-.25-2.82-.75-.74-.5-1.18-1.23-1.34-2.19l1.89-.48c.08.45.23.81.45,1.07.21.26.48.45.79.55.31.11.66.16,1.03.16.56,0,.98-.1,1.26-.3.28-.2.42-.46.42-.77s-.13-.56-.4-.71c-.27-.15-.68-.29-1.22-.39l-.55-.09c-.61-.12-1.16-.28-1.66-.49-.5-.21-.9-.49-1.2-.86-.3-.36-.46-.82-.46-1.38,0-.86.32-1.52.96-1.98.63-.46,1.47-.7,2.5-.7s1.8.22,2.44.66c.64.44,1.06,1.03,1.25,1.77l-1.89.57c-.09-.5-.3-.85-.62-1.06-.32-.21-.71-.31-1.18-.31s-.84.08-1.1.25c-.26.17-.38.4-.38.71s.13.54.39.7c.26.15.61.27,1.05.34l.55.11c.65.12,1.25.27,1.78.46.53.19.95.46,1.26.82.31.36.46.84.46,1.44,0,.92-.33,1.62-.99,2.11s-1.55.74-2.67.74Z"/><path class="cls-3" d="M34.56,454.84l3.42-12.48h3.73l3.42,12.48h-2.21l-.75-2.85h-4.65l-.75,2.85h-2.21ZM38.02,450.02h3.66l-1.68-6.33h-.3l-1.68,6.33Z"/><path class="cls-3" d="M46.72,454.84v-12.48h2.16v12.48h-2.16Z"/><path class="cls-3" d="M56.97,444.91c-.37,0-.69-.12-.95-.37-.27-.24-.4-.57-.4-.97s.13-.73.4-.97c.27-.24.58-.37.95-.37.39,0,.72.12.97.37.25.24.38.57.38.97s-.13.73-.38.97c-.26.24-.58.37-.97.37ZM55.96,454.84v-8.81h2.05v8.81h-2.05Z"/><path class="cls-3" d="M60.61,454.84v-8.81h2.01v1.23h.3c.15-.33.43-.65.84-.95.4-.3,1.02-.45,1.84-.45.68,0,1.28.15,1.8.46.52.31.93.74,1.22,1.28.29.55.44,1.19.44,1.94v5.28h-2.05v-5.12c0-.71-.18-1.25-.53-1.6-.35-.35-.85-.53-1.49-.53-.73,0-1.3.24-1.71.72-.42.48-.62,1.17-.62,2.06v4.46h-2.05Z"/><path class="cls-3" d="M81.33,455.09c-.83,0-1.47-.15-1.92-.44s-.77-.62-.97-.97h-.3v1.16h-2.01v-12.48h2.05v4.78h.3c.13-.24.31-.46.54-.66.23-.2.54-.37.91-.5.37-.13.84-.2,1.4-.2.73,0,1.39.18,2,.53.61.35,1.09.86,1.46,1.54.37.68.55,1.49.55,2.44v.29c0,.95-.19,1.77-.55,2.44-.37.68-.86,1.19-1.47,1.54-.61.35-1.27.53-1.99.53ZM80.72,453.3c.74,0,1.35-.24,1.84-.72.49-.48.73-1.17.73-2.06v-.18c0-.9-.24-1.59-.72-2.07-.48-.48-1.1-.71-1.85-.71s-1.35.24-1.85.71c-.49.48-.74,1.17-.74,2.07v.18c0,.89.25,1.58.74,2.06.49.48,1.11.72,1.85.72Z"/><path class="cls-3" d="M87.52,454.84v-8.81h2.01v1.02h.3c.13-.37.35-.64.66-.8.31-.17.68-.25,1.11-.25h1.07v1.82h-1.11c-.59,0-1.08.16-1.44.47-.37.32-.55.8-.55,1.45v5.1h-2.05Z"/><path class="cls-3" d="M96.99,455.09c-.62,0-1.18-.11-1.68-.33s-.9-.54-1.19-.95c-.29-.42-.44-.93-.44-1.53s.15-1.09.44-1.5c.29-.4.69-.71,1.2-.92.51-.21,1.09-.31,1.75-.31h2.55v-.53c0-.46-.14-.84-.43-1.13-.29-.29-.73-.44-1.34-.44s-1.04.14-1.35.42c-.3.28-.5.64-.6,1.08l-1.89-.62c.14-.46.37-.89.69-1.27.32-.38.73-.69,1.26-.92.52-.23,1.17-.35,1.93-.35,1.15,0,2.06.29,2.72.86.66.58.99,1.41.99,2.51v3.46c0,.36.17.53.5.53h.75v1.69h-1.44c-.43,0-.78-.11-1.05-.32s-.41-.51-.41-.87v-.04h-.3c-.07.17-.2.37-.38.61-.18.24-.45.44-.81.62-.36.17-.85.26-1.47.26ZM97.33,453.41c.68,0,1.23-.19,1.66-.58.43-.39.64-.91.64-1.56v-.18h-2.43c-.44,0-.8.1-1.07.29-.27.19-.41.47-.41.84s.14.65.43.86c.29.22.68.33,1.18.33Z"/><path class="cls-3" d="M104.55,454.84v-8.81h2.02v1.23h.3c.15-.33.43-.65.84-.95.4-.3,1.02-.45,1.84-.45.68,0,1.28.15,1.8.46.52.31.93.74,1.22,1.28.29.55.44,1.19.44,1.94v5.28h-2.05v-5.12c0-.71-.18-1.25-.53-1.6-.35-.35-.85-.53-1.49-.53-.72,0-1.3.24-1.71.72-.42.48-.62,1.17-.62,2.06v4.46h-2.05Z"/><path class="cls-3" d="M119.12,455.09c-.71,0-1.38-.18-2-.53-.62-.35-1.11-.86-1.48-1.54-.37-.68-.55-1.49-.55-2.44v-.29c0-.95.18-1.77.55-2.44.37-.68.86-1.19,1.47-1.54.61-.35,1.28-.53,2.01-.53.55,0,1.01.07,1.39.2.38.13.69.3.92.5.23.2.41.42.54.66h.3v-4.78h2.03v12.48h-2v-1.16h-.3c-.21.36-.54.68-.98.97s-1.08.44-1.91.44ZM119.72,453.3c.74,0,1.35-.24,1.84-.72.49-.48.73-1.17.73-2.06v-.18c0-.9-.24-1.59-.72-2.07-.48-.48-1.1-.71-1.85-.71s-1.35.24-1.85.71c-.49.48-.74,1.17-.74,2.07v.18c0,.89.25,1.58.74,2.06.49.48,1.11.72,1.85.72Z"/><path class="cls-3" d="M127.93,444.91c-.37,0-.69-.12-.95-.37-.27-.24-.4-.57-.4-.97s.13-.73.4-.97c.27-.24.59-.37.95-.37.39,0,.72.12.97.37.26.24.38.57.38.97s-.13.73-.38.97c-.26.24-.58.37-.97.37ZM126.91,454.84v-8.81h2.05v8.81h-2.05Z"/><path class="cls-3" d="M131.56,454.84v-8.81h2.01v1.23h.3c.15-.33.43-.65.84-.95.4-.3,1.02-.45,1.84-.45.68,0,1.28.15,1.8.46.52.31.93.74,1.22,1.28.29.55.44,1.19.44,1.94v5.28h-2.05v-5.12c0-.71-.18-1.25-.53-1.6-.35-.35-.85-.53-1.49-.53-.73,0-1.3.24-1.71.72-.42.48-.62,1.17-.62,2.06v4.46h-2.05Z"/><path class="cls-3" d="M142.1,450.47v-.27c0-.93.18-1.72.55-2.38.37-.66.86-1.16,1.48-1.52.62-.35,1.3-.53,2.03-.53.83,0,1.47.15,1.9.45.43.3.75.62.95.96h.3v-1.16h2v10.49c0,.58-.17,1.04-.5,1.38-.33.34-.78.51-1.35.51h-5.92v-1.78h5.22c.35,0,.52-.18.52-.53v-2.55h-.3c-.13.2-.31.41-.54.62-.23.21-.52.38-.89.53-.37.14-.83.21-1.39.21-.74,0-1.41-.18-2.03-.53-.62-.35-1.11-.86-1.48-1.52-.37-.66-.55-1.45-.55-2.38ZM146.74,453.09c.74,0,1.35-.23,1.84-.7.49-.47.73-1.13.73-1.97v-.18c0-.86-.24-1.52-.72-1.98-.48-.46-1.1-.7-1.85-.7s-1.35.23-1.85.7c-.49.46-.74,1.12-.74,1.98v.18c0,.84.25,1.5.74,1.97.49.47,1.11.7,1.85.7Z"/><path class="cls-3" d="M162.07,455.09c-.71,0-1.38-.18-2-.53-.62-.35-1.11-.86-1.48-1.54-.37-.68-.55-1.49-.55-2.44v-.29c0-.95.18-1.77.55-2.44.37-.68.86-1.19,1.47-1.54.61-.35,1.28-.53,2.01-.53.55,0,1.01.07,1.39.2.38.13.69.3.92.5.23.2.41.42.54.66h.3v-4.78h2.03v12.48h-2v-1.16h-.3c-.21.36-.54.68-.98.97s-1.08.44-1.91.44ZM162.68,453.3c.74,0,1.35-.24,1.84-.72.49-.48.73-1.17.73-2.06v-.18c0-.9-.24-1.59-.72-2.07-.48-.48-1.1-.71-1.85-.71s-1.35.24-1.85.71c-.49.48-.74,1.17-.74,2.07v.18c0,.89.25,1.58.74,2.06.49.48,1.11.72,1.85.72Z"/><path class="cls-3" d="M173.9,455.09c-.88,0-1.66-.19-2.33-.56-.67-.37-1.2-.9-1.57-1.59-.37-.68-.56-1.48-.56-2.4v-.21c0-.93.18-1.73.55-2.41.37-.68.88-1.2,1.55-1.58.67-.37,1.43-.56,2.3-.56s1.61.19,2.25.56c.64.37,1.14.9,1.5,1.58.36.68.54,1.47.54,2.37v.73h-6.62c.02.69.27,1.24.73,1.66.46.42,1.04.62,1.71.62s1.16-.15,1.48-.44c.32-.29.57-.62.73-.99l1.69.87c-.17.32-.41.66-.72,1.03-.32.36-.73.67-1.26.93s-1.18.38-1.98.38ZM171.53,449.47h4.51c-.05-.58-.27-1.05-.67-1.39-.4-.34-.91-.52-1.54-.52s-1.18.17-1.57.52c-.39.34-.64.81-.73,1.39Z"/><path class="cls-3" d="M183.87,455.09c-1.14,0-2.08-.25-2.82-.75-.74-.5-1.18-1.23-1.34-2.19l1.89-.48c.08.45.23.81.45,1.07.21.26.48.45.79.55.32.11.66.16,1.03.16.56,0,.98-.1,1.26-.3.28-.2.42-.46.42-.77s-.13-.56-.4-.71c-.27-.15-.67-.29-1.22-.39l-.55-.09c-.61-.12-1.16-.28-1.66-.49-.5-.21-.9-.49-1.2-.86-.3-.36-.45-.82-.45-1.38,0-.86.32-1.52.95-1.98.64-.46,1.47-.7,2.51-.7s1.8.22,2.44.66c.64.44,1.06,1.03,1.25,1.77l-1.89.57c-.1-.5-.3-.85-.62-1.06-.32-.21-.71-.31-1.18-.31s-.84.08-1.1.25c-.26.17-.38.4-.38.71s.13.54.39.7c.26.15.61.27,1.05.34l.55.11c.65.12,1.25.27,1.77.46.53.19.95.46,1.26.82.31.36.46.84.46,1.44,0,.92-.33,1.62-.99,2.11-.66.49-1.55.74-2.67.74Z"/><path class="cls-3" d="M190.61,444.91c-.37,0-.69-.12-.95-.37-.27-.24-.4-.57-.4-.97s.13-.73.4-.97c.27-.24.59-.37.95-.37.39,0,.72.12.97.37.26.24.38.57.38.97s-.13.73-.38.97c-.26.24-.58.37-.97.37ZM189.59,454.84v-8.81h2.05v8.81h-2.05Z"/><path class="cls-3" d="M193.82,450.47v-.27c0-.93.18-1.72.55-2.38.37-.66.86-1.16,1.48-1.52.62-.35,1.3-.53,2.03-.53.83,0,1.47.15,1.9.45.43.3.75.62.95.96h.3v-1.16h2v10.49c0,.58-.17,1.04-.5,1.38-.33.34-.78.51-1.35.51h-5.92v-1.78h5.22c.35,0,.52-.18.52-.53v-2.55h-.3c-.13.2-.31.41-.54.62-.23.21-.52.38-.89.53-.37.14-.83.21-1.39.21-.74,0-1.41-.18-2.03-.53-.62-.35-1.11-.86-1.48-1.52-.37-.66-.55-1.45-.55-2.38ZM198.45,453.09c.74,0,1.35-.23,1.84-.7.49-.47.73-1.13.73-1.97v-.18c0-.86-.24-1.52-.72-1.98-.48-.46-1.1-.7-1.85-.7s-1.35.23-1.85.7c-.49.46-.74,1.12-.74,1.98v.18c0,.84.25,1.5.74,1.97.49.47,1.11.7,1.85.7Z"/><path class="cls-3" d="M205.64,454.84v-8.81h2.02v1.23h.3c.15-.33.43-.65.84-.95.4-.3,1.02-.45,1.84-.45.68,0,1.28.15,1.8.46.52.31.93.74,1.22,1.28.29.55.44,1.19.44,1.94v5.28h-2.05v-5.12c0-.71-.18-1.25-.53-1.6-.35-.35-.85-.53-1.49-.53-.72,0-1.3.24-1.71.72-.42.48-.62,1.17-.62,2.06v4.46h-2.05Z"/><path class="cls-3" d="M220.24,455.09c-1.14,0-2.08-.25-2.82-.75-.74-.5-1.18-1.23-1.34-2.19l1.89-.48c.08.45.23.81.45,1.07.21.26.48.45.79.55.32.11.66.16,1.03.16.56,0,.98-.1,1.26-.3.28-.2.42-.46.42-.77s-.13-.56-.4-.71c-.27-.15-.67-.29-1.22-.39l-.55-.09c-.61-.12-1.16-.28-1.66-.49-.5-.21-.9-.49-1.2-.86-.3-.36-.45-.82-.45-1.38,0-.86.32-1.52.95-1.98.64-.46,1.47-.7,2.51-.7s1.8.22,2.44.66c.64.44,1.06,1.03,1.25,1.77l-1.89.57c-.1-.5-.3-.85-.62-1.06-.32-.21-.71-.31-1.18-.31s-.84.08-1.1.25c-.26.17-.38.4-.38.71s.13.54.39.7c.26.15.61.27,1.05.34l.55.11c.65.12,1.24.27,1.77.46.53.19.95.46,1.26.82.31.36.46.84.46,1.44,0,.92-.33,1.62-.99,2.11s-1.55.74-2.67.74Z"/><path class="cls-7" d="M19.29,364.81l-7.02,7.02c-.52.52-1.36.52-1.88,0l-3.63-3.63c-.52-.52-.52-1.36,0-1.88.52-.52,1.36-.52,1.88,0l2.68,2.68,6.08-6.08c.52-.52,1.36-.52,1.88,0,.52.52.52,1.36,0,1.88Z"/><path class="cls-2" d="M19.29,392.37l-7.02,7.02c-.52.52-1.36.52-1.88,0l-3.63-3.63c-.52-.52-.52-1.36,0-1.88.52-.52,1.36-.52,1.88,0l2.68,2.68,6.08-6.08c.52-.52,1.36-.52,1.88,0,.52.52.52,1.36,0,1.88Z"/><path class="cls-8" d="M19.29,419.93l-7.02,7.02c-.52.52-1.36.52-1.88,0l-3.63-3.63c-.52-.52-.52-1.36,0-1.88.52-.52,1.36-.52,1.88,0l2.68,2.68,6.08-6.08c.52-.52,1.36-.52,1.88,0,.52.52.52,1.36,0,1.88Z"/><path class="cls-6" d="M19.29,447.49l-7.02,7.02c-.52.52-1.36.52-1.88,0l-3.63-3.63c-.52-.52-.52-1.36,0-1.88.52-.52,1.36-.52,1.88,0l2.68,2.68,6.08-6.08c.52-.52,1.36-.52,1.88,0,.52.52.52,1.36,0,1.88Z"/><circle class="cls-1" cx="9.31" cy="5.2" r="5.2"/><circle class="cls-1" cx="32.95" cy="5.2" r="5.2"/><circle class="cls-1" cx="56.59" cy="5.2" r="5.2"/></g></svg>