<?xml version="1.0" encoding="UTF-8"?><svg id="Layer_2" xmlns="http://www.w3.org/2000/svg" width="477.79" height="605.01" xmlns:xlink="http://www.w3.org/1999/xlink" viewBox="0 0 477.79 605.01"><defs><style>.cls-1{fill:url(#New_Gradient_Swatch_copy);}.cls-2{fill:url(#New_Gradient_Swatch_copy-4);}.cls-3{fill:#9da5de;}.cls-4{fill:#5a5f80;}.cls-5{fill:url(#New_Gradient_Swatch_copy-3);}.cls-6{fill:url(#New_Gradient_Swatch_copy-2);}.cls-7{fill:#48bee1;}.cls-8{fill:#848aba;}</style><linearGradient id="New_Gradient_Swatch_copy" x1="6.22" y1="401.83" x2="19.54" y2="401.83" gradientUnits="userSpaceOnUse"><stop offset="0" stop-color="#3a85fc"/><stop offset=".57" stop-color="#19bafd"/><stop offset="1" stop-color="#00e4fe"/></linearGradient><linearGradient id="New_Gradient_Swatch_copy-2" y1="429.02" y2="429.02" xlink:href="#New_Gradient_Swatch_copy"/><linearGradient id="New_Gradient_Swatch_copy-3" y1="456.22" y2="456.22" xlink:href="#New_Gradient_Swatch_copy"/><linearGradient id="New_Gradient_Swatch_copy-4" y1="483.42" y2="483.42" xlink:href="#New_Gradient_Swatch_copy"/></defs><g id="COVER"><path class="cls-8" d="M4.47,85.01v-39.85h31.44c9.36,0,13.83,4,13.83,10.3,0,4.06-1.71,6.48-4.24,7.48,4.42.18,11.42,3.71,11.42,10.54s-3.77,11.54-16.07,11.54H4.47ZM16.25,54.75v6.12h17.42c2.12,0,4.12-.47,4.12-3.18,0-2.41-1.83-2.94-3.53-2.94h-18.01ZM16.25,68.65v6.36h23.49c1.83,0,4.06-.35,4.06-3,0-2.94-2.24-3.36-4.71-3.36h-22.84Z"/><path class="cls-8" d="M62.99,85.01v-32.14h10.24l.53,5.59c3.18-3.94,11.01-6.3,18.01-6.3v9.95c-5.71,0-14.25.65-17.01,4.47v18.43h-11.77Z"/><path class="cls-8" d="M145.23,84.19c-1.47,1.18-3.94,1.53-5.89,1.53-4.3,0-6.36-1.3-7.42-3.24-3.12,1.77-9.3,3.24-19.01,3.24-11.07,0-17.31-3.89-17.31-11.3,0-8.71,10.83-10.13,20.25-10.13,6.83,0,11.36.71,14.13,1.65-.47-3.41-1.77-5.65-12.83-5.65-6.71,0-11.54,1.12-14.95,3.12l-5.89-5.83c4.3-3.36,11.19-5.42,21.84-5.42,11.66,0,16.84,2.06,19.37,5,1.71,2,2.88,4.36,3.36,8.12.71,5.95.24,8.89.65,10.36.35,1.12.82,1.77,1.77,1.77.47,0,1.24,0,1.94-.35v7.12ZM130.57,72.47c-2.3-.65-9.01-1.53-14.19-1.53-8.06,0-9.01,1.35-9.01,3.53s.94,3.59,9.01,3.59c5.18,0,11.89-.88,14.36-1.65l-.18-3.94Z"/><path class="cls-8" d="M183.44,85.01v-18.66c0-3.59-1.77-6.12-7-6.12-6.18,0-10.66,1.53-13.66,4.06v20.72h-11.77v-32.14h10.24l.35,3.24c3.65-2.24,9.54-3.94,16.78-3.94,8.24,0,16.9,2.88,16.9,14.19v18.66h-11.83Z"/><path class="cls-8" d="M237.07,85.01l-.29-3.24c-1.94,1.82-7.18,3.94-14.89,3.94-11.71,0-19.6-4.12-19.6-16.78s7.89-16.78,19.6-16.78c6.53,0,11.3,1.3,13.72,3.18v-12.54h11.77v42.21h-10.3ZM235.6,64.29c-2.36-2.71-5.83-4.06-10.6-4.06-7.95,0-11.71,2.53-11.71,8.71s3.77,8.71,11.71,8.71c4.77,0,9.07-1.53,10.6-4.12v-9.24Z"/><path class="cls-8" d="M44.56,125.01h-19.84v-7.89h30.61v17.84c-6.3,3.89-16.13,5.65-24.78,5.65-18.13,0-27.55-5.18-27.55-21.19s9.36-21.19,26.31-21.19c14.01,0,21.78,2.53,24.84,11.6l-10.95,3.53c-.53-3.53-3.36-5.89-13.89-5.89s-14.48,3.3-14.48,11.95,3.12,11.89,15.31,11.89c6.18,0,12.07-1.06,14.42-2.41v-3.89Z"/><path class="cls-8" d="M93.78,107.17h11.89v19.6c0,12.24-7.83,13.42-23.72,13.42-13.36,0-19.19-2.06-19.19-13.36v-19.66h11.89v19.49c0,3.94,1.88,5.06,9.07,5.06s10.07-1.12,10.07-5v-19.54Z"/><path class="cls-8" d="M114.56,103.76v-6.65h11.71v6.65h-11.71ZM114.56,139.32v-32.14h11.71v32.14h-11.71Z"/><path class="cls-8" d="M169.07,139.32l-.29-3.24c-1.94,1.82-7.18,3.94-14.89,3.94-11.71,0-19.6-4.12-19.6-16.78s7.89-16.78,19.6-16.78c6.53,0,11.3,1.3,13.72,3.18v-12.54h11.77v42.21h-10.3ZM167.6,118.59c-2.36-2.71-5.83-4.06-10.6-4.06-7.95,0-11.71,2.53-11.71,8.71s3.77,8.71,11.71,8.71c4.77,0,9.07-1.53,10.6-4.12v-9.24Z"/><path class="cls-8" d="M198.16,125.83c.82,4.65,4.42,6.59,11.6,6.59,5.36,0,9.01-1.41,10.83-3.53l10.6,2.83c-2.65,5.59-9.65,8.3-21.37,8.3-14.95,0-22.96-4.12-22.96-16.78s8.01-16.78,22.96-16.78c17.96,0,22.61,5.12,22.61,17.78v1.59h-34.26ZM221.06,119.42c-.94-3.89-4.77-5.36-11.3-5.36s-10.3,1.47-11.3,5.36h22.61Z"/><path class="cls-8" d="M240.07,139.32v-42.21h11.83v42.21h-11.83Z"/><path class="cls-8" d="M261.56,103.76v-6.65h11.71v6.65h-11.71ZM261.56,139.32v-32.14h11.71v32.14h-11.71Z"/><path class="cls-8" d="M315.19,139.32v-18.66c0-3.59-1.77-6.12-7-6.12-6.18,0-10.66,1.53-13.66,4.06v20.72h-11.77v-32.14h10.24l.35,3.24c3.65-2.24,9.54-3.94,16.78-3.94,8.24,0,16.9,2.88,16.9,14.19v18.66h-11.83Z"/><path class="cls-8" d="M345.33,125.83c.82,4.65,4.42,6.59,11.6,6.59,5.36,0,9.01-1.41,10.83-3.53l10.6,2.83c-2.65,5.59-9.65,8.3-21.37,8.3-14.95,0-22.96-4.12-22.96-16.78s8.01-16.78,22.96-16.78c17.96,0,22.61,5.12,22.61,17.78v1.59h-34.26ZM368.23,119.42c-.94-3.89-4.77-5.36-11.3-5.36s-10.3,1.47-11.3,5.36h22.61Z"/><path class="cls-8" d="M419.51,117.77c-.71-2.35-4.94-3.89-11.18-3.89-6.71,0-11.07.94-11.07,2.88,0,2.47,3.83,2.47,7.54,2.47,2.53,0,5.3-.06,7.42-.06,11.89,0,17.43,2.3,17.43,9.54s-5.89,11.83-22.37,11.83c-12.13,0-19.43-3.3-22.19-9.07l10.71-2.53c1.18,1.82,4,3.83,12.36,3.83,7.12,0,10.07-.88,10.07-3.06s-3.24-2.47-7.3-2.47c-2.12,0-4.53.06-7.06.06-8.18,0-18.01-1.71-18.01-10.18,0-6.53,6.06-10.66,22.43-10.66,13.48,0,19.37,3.24,21.37,8.18l-10.13,3.12Z"/><path class="cls-4" d="M4.52,207.99v-2.44h2.16v-11.22h-2.16v-2.44h6.55c2.15,0,3.79.54,4.92,1.63,1.13,1.09,1.7,2.72,1.7,4.9v3.04c0,2.18-.57,3.81-1.7,4.9-1.13,1.09-2.78,1.63-4.92,1.63h-6.55ZM9.44,205.48h1.66c1.3,0,2.27-.34,2.9-1.01.63-.67.94-1.65.94-2.92v-3.2c0-1.3-.31-2.29-.94-2.96-.63-.67-1.59-1-2.9-1h-1.66v11.09Z"/><path class="cls-4" d="M21.75,195.18c-.48,0-.89-.16-1.23-.47-.35-.31-.52-.73-.52-1.25s.17-.94.52-1.25c.34-.31.75-.47,1.23-.47.51,0,.92.16,1.25.47.33.31.49.73.49,1.25s-.17.94-.49,1.25c-.33.31-.75.47-1.25.47ZM20.44,207.99v-11.36h2.64v11.36h-2.64Z"/><path class="cls-4" d="M31.13,208.31c-1.47,0-2.68-.32-3.63-.97-.95-.64-1.53-1.59-1.72-2.83l2.44-.62c.11.58.3,1.04.57,1.38.28.34.62.57,1.02.71.41.14.85.21,1.32.21.72,0,1.26-.13,1.62-.39.36-.26.54-.59.54-.99s-.17-.72-.52-.92c-.34-.2-.87-.37-1.58-.51l-.71-.11c-.78-.15-1.5-.36-2.14-.63-.64-.27-1.16-.64-1.55-1.1-.39-.47-.59-1.06-.59-1.78,0-1.1.41-1.95,1.23-2.55.82-.6,1.9-.9,3.23-.9s2.32.28,3.15.85c.83.57,1.37,1.33,1.61,2.28l-2.44.74c-.12-.64-.39-1.1-.8-1.37-.41-.27-.92-.4-1.52-.4s-1.08.11-1.41.32c-.33.21-.5.52-.5.92s.17.7.51.9c.34.2.79.34,1.36.44l.71.14c.84.15,1.61.35,2.29.6.68.25,1.22.6,1.62,1.06.4.46.6,1.08.6,1.86,0,1.18-.42,2.09-1.28,2.73-.85.64-2,.95-3.44.95Z"/><path class="cls-4" d="M43.83,208.31c-1.1,0-2.1-.23-2.99-.69-.89-.46-1.59-1.13-2.11-2s-.77-1.92-.77-3.15v-.32c0-1.23.26-2.28.77-3.15.51-.87,1.21-1.54,2.11-2,.89-.46,1.89-.69,2.99-.69s2.02.19,2.79.57c.77.38,1.4.91,1.87,1.58.48.67.78,1.41.92,2.24l-2.55.53c-.06-.48-.21-.91-.44-1.3-.23-.39-.55-.7-.98-.93-.42-.23-.94-.34-1.55-.34s-1.19.13-1.69.4c-.5.27-.89.67-1.17,1.21-.28.54-.43,1.18-.43,1.93v.23c0,.75.14,1.39.43,1.92.28.53.67.93,1.17,1.21.5.28,1.06.41,1.69.41.94,0,1.64-.24,2.13-.72.48-.48.79-1.11.91-1.87l2.55.6c-.18.8-.51,1.53-.99,2.19-.47.66-1.1,1.18-1.87,1.58s-1.71.59-2.79.59Z"/><path class="cls-4" d="M57.44,208.31c-1.13,0-2.15-.23-3.05-.7-.9-.47-1.6-1.13-2.12-2-.51-.87-.77-1.91-.77-3.12v-.37c0-1.21.26-2.25.77-3.13.51-.87,1.22-1.54,2.12-2,.9-.46,1.91-.69,3.05-.69s2.15.23,3.04.69,1.59,1.13,2.1,2c.51.87.77,1.92.77,3.13v.37c0,1.21-.26,2.25-.77,3.12-.51.87-1.21,1.53-2.1,2s-1.9.7-3.04.7ZM57.44,205.97c.97,0,1.76-.31,2.37-.93.61-.62.92-1.49.92-2.61v-.23c0-1.12-.31-1.99-.92-2.61s-1.4-.93-2.37-.93-1.76.31-2.37.93-.92,1.49-.92,2.61v.23c0,1.12.31,1.99.92,2.61.61.62,1.4.93,2.37.93Z"/><path class="cls-4" d="M68.3,207.99l-3.73-11.36h2.81l2.81,9.43h.39l2.83-9.43h2.81l-3.73,11.36h-4.19Z"/><path class="cls-4" d="M83.18,208.31c-1.13,0-2.13-.24-3-.72-.87-.48-1.54-1.17-2.02-2.05-.48-.88-.72-1.91-.72-3.09v-.28c0-1.2.24-2.23.71-3.1.47-.87,1.14-1.55,2-2.04s1.85-.72,2.97-.72,2.07.24,2.9.72,1.47,1.16,1.93,2.04c.46.87.69,1.89.69,3.06v.94h-8.53c.03.89.35,1.6.94,2.14.6.54,1.33.8,2.21.8s1.5-.19,1.91-.56c.41-.38.73-.8.94-1.28l2.18,1.13c-.21.41-.53.85-.93,1.32-.41.47-.95.87-1.62,1.2s-1.53.49-2.55.49ZM80.12,201.07h5.82c-.06-.75-.35-1.35-.86-1.79-.51-.44-1.18-.67-1.99-.67s-1.52.22-2.02.67c-.51.44-.82,1.04-.94,1.79Z"/><path class="cls-4" d="M91.35,207.99v-11.36h2.6v1.31h.39c.17-.48.45-.82.85-1.04.4-.21.88-.32,1.43-.32h1.38v2.35h-1.43c-.77,0-1.39.2-1.86.61-.48.41-.71,1.03-.71,1.87v6.58h-2.64Z"/><path class="cls-4" d="M111.52,208.31c-1.1,0-2.1-.23-2.99-.69-.89-.46-1.59-1.13-2.1-2s-.77-1.92-.77-3.15v-.32c0-1.23.26-2.28.77-3.15.51-.87,1.21-1.54,2.1-2,.89-.46,1.89-.69,2.99-.69s2.02.19,2.79.57c.77.38,1.4.91,1.87,1.58s.78,1.41.92,2.24l-2.55.53c-.06-.48-.21-.91-.44-1.3s-.56-.7-.98-.93c-.42-.23-.94-.34-1.55-.34s-1.19.13-1.69.4c-.5.27-.89.67-1.17,1.21-.28.54-.43,1.18-.43,1.93v.23c0,.75.14,1.39.43,1.92s.67.93,1.17,1.21c.5.28,1.06.41,1.69.41.94,0,1.64-.24,2.13-.72.48-.48.79-1.11.91-1.87l2.55.6c-.18.8-.51,1.53-.99,2.19-.48.66-1.1,1.18-1.87,1.58-.78.39-1.71.59-2.79.59Z"/><path class="cls-4" d="M125.13,208.31c-1.13,0-2.15-.23-3.05-.7s-1.6-1.13-2.12-2c-.51-.87-.77-1.91-.77-3.12v-.37c0-1.21.26-2.25.77-3.13.51-.87,1.22-1.54,2.12-2s1.91-.69,3.05-.69,2.15.23,3.04.69c.89.46,1.59,1.13,2.1,2,.51.87.77,1.92.77,3.13v.37c0,1.21-.26,2.25-.77,3.12-.51.87-1.21,1.53-2.1,2-.89.47-1.9.7-3.04.7ZM125.13,205.97c.97,0,1.76-.31,2.37-.93.61-.62.92-1.49.92-2.61v-.23c0-1.12-.31-1.99-.92-2.61s-1.4-.93-2.37-.93-1.76.31-2.37.93-.92,1.49-.92,2.61v.23c0,1.12.31,1.99.92,2.61.61.62,1.4.93,2.37.93Z"/><path class="cls-4" d="M133.85,207.99v-11.36h2.6v1.27h.39c.2-.38.53-.72,1-1.02.47-.3,1.09-.45,1.88-.45.83,0,1.5.17,2,.51.51.34.89.77,1.15,1.29h.37c.26-.52.64-.95,1.13-1.29.49-.34,1.19-.51,2.09-.51.71,0,1.34.15,1.92.46.57.31,1.03.76,1.38,1.36.35.6.52,1.34.52,2.23v7.52h-2.64v-7.34c0-.66-.18-1.16-.53-1.51-.35-.34-.84-.52-1.47-.52-.69,0-1.24.23-1.64.68-.41.45-.61,1.1-.61,1.94v6.74h-2.62v-7.34c0-.66-.18-1.16-.53-1.51s-.84-.52-1.47-.52c-.71,0-1.26.23-1.66.68-.4.45-.6,1.1-.6,1.94v6.74h-2.65Z"/><path class="cls-4" d="M153.51,212.59v-15.96h2.6v1.5h.39c.26-.48.68-.9,1.25-1.27.58-.37,1.4-.55,2.47-.55.92,0,1.78.23,2.56.68.79.45,1.42,1.12,1.9,1.99.47.87.71,1.92.71,3.15v.37c0,1.23-.24,2.28-.71,3.15-.48.87-1.1,1.54-1.89,1.99-.78.45-1.64.68-2.58.68-.72,0-1.32-.08-1.8-.25-.48-.17-.88-.39-1.17-.67s-.53-.55-.7-.83h-.39v6.03h-2.64ZM159.45,206.01c.97,0,1.76-.31,2.38-.93.62-.62.93-1.51.93-2.66v-.23c0-1.17-.31-2.05-.94-2.67-.63-.61-1.42-.92-2.37-.92s-1.74.31-2.38.92c-.64.61-.96,1.5-.96,2.67v.23c0,1.15.32,2.04.96,2.66.64.62,1.43.93,2.38.93Z"/><path class="cls-4" d="M168.21,207.99v-11.36h2.6v1.31h.39c.17-.48.45-.82.85-1.04.4-.21.87-.32,1.43-.32h1.38v2.35h-1.43c-.77,0-1.39.2-1.86.61-.48.41-.71,1.03-.71,1.87v6.58h-2.65Z"/><path class="cls-4" d="M181.99,208.31c-1.13,0-2.13-.24-3-.72-.87-.48-1.54-1.17-2.02-2.05-.48-.88-.72-1.91-.72-3.09v-.28c0-1.2.24-2.23.71-3.1.47-.87,1.14-1.55,2-2.04s1.85-.72,2.97-.72,2.07.24,2.9.72,1.47,1.16,1.93,2.04c.46.87.69,1.89.69,3.06v.94h-8.53c.03.89.35,1.6.94,2.14.6.54,1.33.8,2.21.8s1.5-.19,1.91-.56c.41-.38.73-.8.94-1.28l2.18,1.13c-.21.41-.53.85-.93,1.32-.41.47-.95.87-1.62,1.2s-1.53.49-2.55.49ZM178.93,201.07h5.82c-.06-.75-.35-1.35-.86-1.79-.51-.44-1.18-.67-1.99-.67s-1.52.22-2.02.67c-.51.44-.82,1.04-.94,1.79Z"/><path class="cls-4" d="M190.15,207.99v-16.1h2.65v6.23h.39c.12-.26.32-.52.6-.78.28-.26.64-.48,1.09-.64.45-.17,1.02-.25,1.71-.25.87,0,1.65.2,2.32.59s1.2.94,1.58,1.64c.38.71.56,1.54.56,2.51v6.81h-2.64v-6.6c0-.92-.23-1.61-.68-2.06-.45-.45-1.09-.68-1.92-.68-.94,0-1.67.31-2.21.93-.54.62-.8,1.51-.8,2.66v5.75h-2.65Z"/><path class="cls-4" d="M209.49,208.31c-1.13,0-2.13-.24-3-.72-.87-.48-1.54-1.17-2.02-2.05-.48-.88-.72-1.91-.72-3.09v-.28c0-1.2.24-2.23.71-3.1.47-.87,1.14-1.55,2-2.04s1.85-.72,2.97-.72,2.07.24,2.9.72,1.47,1.16,1.93,2.04c.46.87.69,1.89.69,3.06v.94h-8.53c.03.89.35,1.6.94,2.14.6.54,1.33.8,2.21.8s1.5-.19,1.91-.56c.41-.38.73-.8.94-1.28l2.18,1.13c-.21.41-.53.85-.93,1.32-.41.47-.95.87-1.62,1.2s-1.53.49-2.55.49ZM206.44,201.07h5.82c-.06-.75-.35-1.35-.86-1.79-.51-.44-1.18-.67-1.99-.67s-1.52.22-2.02.67c-.51.44-.82,1.04-.94,1.79Z"/><path class="cls-4" d="M217.66,207.99v-11.36h2.6v1.59h.39c.2-.43.56-.84,1.08-1.22.52-.38,1.31-.57,2.37-.57.87,0,1.65.2,2.32.6.67.4,1.2.95,1.58,1.66.38.71.56,1.54.56,2.51v6.81h-2.64v-6.6c0-.92-.23-1.61-.68-2.06-.45-.45-1.09-.68-1.92-.68-.94,0-1.67.31-2.21.93-.54.62-.8,1.51-.8,2.66v5.75h-2.65Z"/><path class="cls-4" d="M236.5,208.31c-1.47,0-2.68-.32-3.63-.97-.95-.64-1.53-1.59-1.72-2.83l2.44-.62c.11.58.3,1.04.58,1.38.28.34.62.57,1.02.71.41.14.85.21,1.32.21.72,0,1.26-.13,1.62-.39.36-.26.54-.59.54-.99s-.17-.72-.52-.92c-.35-.2-.87-.37-1.58-.51l-.71-.11c-.78-.15-1.49-.36-2.14-.63-.64-.27-1.16-.64-1.55-1.1-.39-.47-.59-1.06-.59-1.78,0-1.1.41-1.95,1.23-2.55s1.9-.9,3.23-.9,2.32.28,3.15.85c.83.57,1.36,1.33,1.61,2.28l-2.44.74c-.12-.64-.39-1.1-.8-1.37-.41-.27-.92-.4-1.52-.4s-1.08.11-1.42.32c-.33.21-.49.52-.49.92s.17.7.51.9c.34.2.79.34,1.36.44l.71.14c.84.15,1.61.35,2.29.6.68.25,1.22.6,1.62,1.06.4.46.6,1.08.6,1.86,0,1.18-.43,2.09-1.28,2.73-.85.64-2,.95-3.44.95Z"/><path class="cls-4" d="M245.19,195.18c-.47,0-.88-.16-1.23-.47-.34-.31-.52-.73-.52-1.25s.17-.94.52-1.25c.35-.31.76-.47,1.23-.47.51,0,.92.16,1.25.47.33.31.49.73.49,1.25s-.16.94-.49,1.25c-.33.31-.75.47-1.25.47ZM243.88,207.99v-11.36h2.64v11.36h-2.64Z"/><path class="cls-4" d="M252.39,207.99l-3.73-11.36h2.81l2.8,9.43h.39l2.83-9.43h2.81l-3.73,11.36h-4.19Z"/><path class="cls-4" d="M267.27,208.31c-1.13,0-2.14-.24-3-.72-.87-.48-1.54-1.17-2.02-2.05-.48-.88-.72-1.91-.72-3.09v-.28c0-1.2.24-2.23.71-3.1.47-.87,1.14-1.55,2-2.04.86-.48,1.85-.72,2.97-.72s2.07.24,2.9.72,1.47,1.16,1.93,2.04c.46.87.69,1.89.69,3.06v.94h-8.53c.03.89.34,1.6.94,2.14.6.54,1.33.8,2.21.8s1.5-.19,1.91-.56c.41-.38.73-.8.94-1.28l2.19,1.13c-.21.41-.53.85-.93,1.32-.41.47-.95.87-1.62,1.2-.68.33-1.53.49-2.55.49ZM264.21,201.07h5.82c-.06-.75-.35-1.35-.86-1.79-.51-.44-1.18-.67-1.99-.67s-1.52.22-2.02.67c-.51.44-.82,1.04-.94,1.79Z"/><path class="cls-4" d="M288.01,208.31c-1.07,0-1.9-.19-2.47-.56-.58-.38-.99-.79-1.25-1.25h-.39v1.49h-2.6v-16.1h2.64v6.16h.39c.17-.31.4-.59.7-.85.3-.26.69-.48,1.17-.64.48-.17,1.08-.25,1.81-.25.93,0,1.79.23,2.58.68.78.45,1.41,1.12,1.89,1.99.47.87.71,1.92.71,3.15v.37c0,1.23-.24,2.28-.71,3.15-.48.87-1.11,1.54-1.9,1.99-.79.45-1.64.68-2.56.68ZM287.23,206.01c.95,0,1.74-.31,2.37-.93.63-.62.94-1.51.94-2.66v-.23c0-1.17-.31-2.05-.93-2.67-.62-.61-1.41-.92-2.38-.92s-1.74.31-2.38.92c-.64.61-.95,1.5-.95,2.67v.23c0,1.15.32,2.04.95,2.66.64.62,1.43.93,2.38.93Z"/><path class="cls-4" d="M296,207.99v-11.36h2.6v1.31h.39c.17-.48.45-.82.85-1.04.4-.21.88-.32,1.43-.32h1.38v2.35h-1.43c-.77,0-1.39.2-1.86.61-.48.41-.71,1.03-.71,1.87v6.58h-2.64Z"/><path class="cls-4" d="M308.21,208.31c-.8,0-1.52-.14-2.16-.43-.64-.28-1.15-.69-1.53-1.23-.38-.54-.56-1.2-.56-1.98s.19-1.41.56-1.93c.38-.52.89-.92,1.55-1.18.66-.27,1.41-.4,2.25-.4h3.29v-.69c0-.6-.18-1.08-.55-1.46-.37-.38-.94-.56-1.72-.56s-1.35.18-1.74.54c-.39.36-.65.82-.77,1.39l-2.44-.8c.18-.6.48-1.14.88-1.63.41-.49.95-.89,1.62-1.18.67-.3,1.5-.45,2.48-.45,1.49,0,2.66.37,3.51,1.12.85.74,1.28,1.82,1.28,3.23v4.46c0,.46.21.69.64.69h.97v2.19h-1.86c-.55,0-1-.14-1.36-.41-.35-.28-.53-.65-.53-1.13v-.05h-.39c-.09.21-.25.48-.48.78-.23.31-.58.57-1.05.79-.47.22-1.1.33-1.9.33ZM308.64,206.15c.88,0,1.59-.25,2.14-.75.55-.5.83-1.17.83-2.01v-.23h-3.13c-.57,0-1.03.12-1.38.37-.35.25-.53.61-.53,1.08s.18.83.55,1.12c.37.28.88.43,1.52.43Z"/><path class="cls-4" d="M317.96,207.99v-11.36h2.6v1.59h.39c.2-.43.56-.84,1.08-1.22.52-.38,1.31-.57,2.37-.57.87,0,1.65.2,2.32.6.68.4,1.2.95,1.58,1.66.38.71.56,1.54.56,2.51v6.81h-2.65v-6.6c0-.92-.23-1.61-.68-2.06-.45-.45-1.09-.68-1.92-.68-.94,0-1.67.31-2.21.93s-.8,1.51-.8,2.66v5.75h-2.64Z"/><path class="cls-4" d="M336.75,208.31c-.92,0-1.78-.23-2.58-.68-.8-.45-1.43-1.12-1.91-1.99-.47-.87-.71-1.92-.71-3.15v-.37c0-1.23.24-2.28.71-3.15.48-.87,1.11-1.54,1.9-1.99.79-.45,1.65-.68,2.59-.68.71,0,1.3.08,1.79.25.49.17.89.38,1.19.64.3.26.53.54.7.85h.39v-6.16h2.62v16.1h-2.58v-1.49h-.39c-.28.46-.7.88-1.26,1.25-.57.38-1.39.56-2.46.56ZM337.53,206.01c.95,0,1.74-.31,2.37-.93.63-.62.94-1.51.94-2.66v-.23c0-1.17-.31-2.05-.93-2.67-.62-.61-1.41-.92-2.38-.92s-1.74.31-2.38.92c-.64.61-.95,1.5-.95,2.67v.23c0,1.15.32,2.04.95,2.66.64.62,1.43.93,2.38.93Z"/><path class="cls-4" d="M352.12,202.35v-.34c0-1.2.24-2.22.71-3.07.47-.85,1.11-1.5,1.91-1.95.8-.45,1.67-.68,2.62-.68,1.07,0,1.89.19,2.45.57.56.38.97.8,1.23,1.24h.39v-1.5h2.58v13.52c0,.75-.21,1.35-.64,1.78s-1.01.66-1.75.66h-7.63v-2.3h6.74c.44,0,.67-.23.67-.69v-3.29h-.39c-.17.26-.4.53-.69.79-.29.27-.67.49-1.15.68-.47.18-1.07.28-1.79.28-.95,0-1.83-.23-2.62-.68-.8-.45-1.43-1.1-1.91-1.95-.48-.85-.71-1.87-.71-3.07ZM358.09,205.74c.95,0,1.74-.3,2.37-.91.63-.61.94-1.45.94-2.54v-.23c0-1.1-.31-1.96-.93-2.55-.62-.6-1.41-.9-2.38-.9s-1.74.3-2.38.9c-.64.6-.96,1.45-.96,2.55v.23c0,1.09.32,1.94.96,2.54.64.61,1.43.91,2.38.91Z"/><path class="cls-4" d="M371.71,208.17c-.88,0-1.65-.2-2.32-.59s-1.2-.94-1.56-1.66c-.37-.71-.55-1.54-.55-2.5v-6.81h2.62v6.6c0,.92.23,1.6.68,2.05.45.44,1.09.67,1.92.67.94,0,1.68-.31,2.22-.92.54-.61.82-1.49.82-2.65v-5.75h2.62v11.36h-2.58v-1.59h-.39c-.2.41-.56.81-1.09,1.2-.53.38-1.32.57-2.38.57Z"/><path class="cls-4" d="M382.82,195.18c-.48,0-.89-.16-1.23-.47-.34-.31-.52-.73-.52-1.25s.17-.94.52-1.25c.34-.31.75-.47,1.23-.47.51,0,.92.16,1.25.47.33.31.49.73.49,1.25s-.17.94-.49,1.25c-.33.31-.75.47-1.25.47ZM381.51,207.99v-11.36h2.65v11.36h-2.65Z"/><path class="cls-4" d="M392.16,208.31c-.92,0-1.78-.23-2.58-.68-.8-.45-1.43-1.12-1.91-1.99-.47-.87-.71-1.92-.71-3.15v-.37c0-1.23.24-2.28.71-3.15.48-.87,1.11-1.54,1.9-1.99.79-.45,1.65-.68,2.59-.68.71,0,1.3.08,1.79.25.49.17.89.38,1.19.64.3.26.53.54.7.85h.39v-6.16h2.62v16.1h-2.58v-1.49h-.39c-.28.46-.7.88-1.26,1.25-.57.38-1.39.56-2.46.56ZM392.94,206.01c.95,0,1.74-.31,2.37-.93.63-.62.94-1.51.94-2.66v-.23c0-1.17-.31-2.05-.93-2.67-.62-.61-1.41-.92-2.38-.92s-1.74.31-2.38.92c-.64.61-.95,1.5-.95,2.67v.23c0,1.15.32,2.04.95,2.66.64.62,1.43.93,2.38.93Z"/><path class="cls-4" d="M407.41,208.31c-1.13,0-2.13-.24-3-.72-.87-.48-1.54-1.17-2.02-2.05-.48-.88-.72-1.91-.72-3.09v-.28c0-1.2.24-2.23.71-3.1.47-.87,1.14-1.55,2-2.04s1.85-.72,2.97-.72,2.07.24,2.9.72,1.47,1.16,1.93,2.04c.46.87.69,1.89.69,3.06v.94h-8.53c.03.89.35,1.6.94,2.14.6.54,1.33.8,2.21.8s1.5-.19,1.91-.56c.41-.38.73-.8.94-1.28l2.18,1.13c-.21.41-.53.85-.93,1.32-.41.47-.95.87-1.62,1.2s-1.53.49-2.55.49ZM404.35,201.07h5.82c-.06-.75-.35-1.35-.86-1.79-.51-.44-1.18-.67-1.99-.67s-1.52.22-2.02.67c-.51.44-.82,1.04-.94,1.79Z"/><path class="cls-4" d="M415.57,207.99v-16.1h2.65v16.1h-2.65Z"/><path class="cls-4" d="M422.88,195.18c-.47,0-.88-.16-1.23-.47-.34-.31-.52-.73-.52-1.25s.17-.94.52-1.25c.35-.31.76-.47,1.23-.47.51,0,.92.16,1.25.47.33.31.49.73.49,1.25s-.16.94-.49,1.25c-.33.31-.75.47-1.25.47ZM421.57,207.99v-11.36h2.64v11.36h-2.64Z"/><path class="cls-4" d="M427.58,207.99v-11.36h2.6v1.59h.39c.2-.43.56-.84,1.08-1.22.52-.38,1.31-.57,2.37-.57.87,0,1.65.2,2.32.6.67.4,1.2.95,1.58,1.66.38.71.56,1.54.56,2.51v6.81h-2.64v-6.6c0-.92-.23-1.61-.68-2.06-.45-.45-1.09-.68-1.92-.68-.94,0-1.67.31-2.21.93-.54.62-.8,1.51-.8,2.66v5.75h-2.65Z"/><path class="cls-4" d="M446.92,208.31c-1.13,0-2.14-.24-3-.72-.87-.48-1.54-1.17-2.02-2.05-.48-.88-.72-1.91-.72-3.09v-.28c0-1.2.24-2.23.71-3.1.47-.87,1.14-1.55,2-2.04.86-.48,1.85-.72,2.97-.72s2.07.24,2.9.72,1.47,1.16,1.93,2.04c.46.87.69,1.89.69,3.06v.94h-8.53c.03.89.34,1.6.94,2.14.6.54,1.33.8,2.21.8s1.5-.19,1.91-.56c.41-.38.73-.8.94-1.28l2.19,1.13c-.21.41-.53.85-.93,1.32-.41.47-.95.87-1.62,1.2-.68.33-1.53.49-2.55.49ZM443.86,201.07h5.82c-.06-.75-.35-1.35-.86-1.79-.51-.44-1.18-.67-1.99-.67s-1.52.22-2.02.67c-.51.44-.82,1.04-.94,1.79Z"/><path class="cls-4" d="M459.78,208.31c-1.47,0-2.68-.32-3.63-.97-.95-.64-1.53-1.59-1.72-2.83l2.44-.62c.11.58.3,1.04.57,1.38.28.34.62.57,1.02.71.41.14.85.21,1.32.21.72,0,1.26-.13,1.62-.39.36-.26.54-.59.54-.99s-.17-.72-.52-.92c-.34-.2-.87-.37-1.58-.51l-.71-.11c-.78-.15-1.5-.36-2.14-.63-.64-.27-1.16-.64-1.55-1.1-.39-.47-.59-1.06-.59-1.78,0-1.1.41-1.95,1.23-2.55.82-.6,1.9-.9,3.23-.9s2.32.28,3.15.85c.83.57,1.37,1.33,1.61,2.28l-2.44.74c-.12-.64-.39-1.1-.8-1.37-.41-.27-.92-.4-1.52-.4s-1.08.11-1.41.32c-.33.21-.5.52-.5.92s.17.7.51.9c.34.2.79.34,1.36.44l.71.14c.84.15,1.61.35,2.29.6.68.25,1.22.6,1.62,1.06.4.46.6,1.08.6,1.86,0,1.18-.42,2.09-1.28,2.73-.85.64-2,.95-3.44.95Z"/><path class="cls-4" d="M9.47,240.99c-.74,0-1.32-.22-1.76-.66-.44-.44-.66-1.03-.66-1.78v-6.74h-2.97v-2.19h2.97v-3.66h2.64v3.66h3.27v2.19h-3.27v6.3c0,.46.21.69.64.69h2.28v2.19h-3.15Z"/><path class="cls-4" d="M15.65,240.99v-16.1h2.65v6.23h.39c.12-.26.32-.52.6-.78.28-.26.64-.48,1.09-.64.45-.17,1.02-.25,1.71-.25.87,0,1.65.2,2.32.59.67.39,1.2.94,1.58,1.64.38.71.56,1.54.56,2.51v6.81h-2.64v-6.6c0-.92-.23-1.61-.68-2.06-.45-.45-1.09-.68-1.92-.68-.94,0-1.67.31-2.21.93s-.8,1.51-.8,2.66v5.75h-2.65Z"/><path class="cls-4" d="M33.32,241.31c-.8,0-1.52-.14-2.16-.43s-1.15-.69-1.53-1.23c-.38-.54-.56-1.2-.56-1.98s.19-1.41.56-1.93c.38-.52.89-.92,1.55-1.18.66-.27,1.41-.4,2.25-.4h3.29v-.69c0-.6-.18-1.08-.55-1.46-.37-.38-.94-.56-1.72-.56s-1.35.18-1.74.54c-.39.36-.65.82-.77,1.39l-2.44-.8c.18-.6.48-1.14.89-1.63.41-.49.95-.89,1.62-1.18.67-.3,1.5-.45,2.48-.45,1.49,0,2.66.37,3.51,1.12.85.74,1.28,1.82,1.28,3.23v4.46c0,.46.21.69.64.69h.97v2.19h-1.86c-.55,0-1-.14-1.36-.41s-.53-.65-.53-1.13v-.05h-.39c-.09.21-.25.48-.48.78-.23.31-.58.57-1.05.79-.47.22-1.1.33-1.9.33ZM33.75,239.15c.87,0,1.59-.25,2.14-.75.55-.5.83-1.17.83-2.01v-.23h-3.13c-.57,0-1.03.12-1.38.37-.35.25-.53.61-.53,1.08s.18.83.55,1.12c.37.28.87.43,1.52.43Z"/><path class="cls-4" d="M46.59,240.99c-.74,0-1.32-.22-1.76-.66s-.66-1.03-.66-1.78v-6.74h-2.97v-2.19h2.97v-3.66h2.65v3.66h3.27v2.19h-3.27v6.3c0,.46.21.69.64.69h2.28v2.19h-3.15Z"/><path class="cls-4" d="M63.84,241.31c-1.13,0-2.14-.24-3-.72-.87-.48-1.54-1.17-2.02-2.05-.48-.88-.72-1.91-.72-3.09v-.28c0-1.2.24-2.23.71-3.1.48-.87,1.14-1.55,2-2.04s1.85-.72,2.97-.72,2.07.24,2.9.72,1.47,1.16,1.93,2.04c.46.87.69,1.89.69,3.06v.94h-8.53c.03.89.34,1.6.94,2.14.6.54,1.33.8,2.21.8s1.49-.19,1.91-.56c.41-.38.73-.8.94-1.28l2.19,1.13c-.21.41-.53.85-.93,1.32-.41.47-.95.87-1.62,1.2-.68.33-1.53.49-2.55.49ZM60.78,234.07h5.82c-.06-.75-.35-1.35-.86-1.79-.51-.44-1.18-.67-1.99-.67s-1.52.22-2.02.67c-.51.44-.82,1.04-.94,1.79Z"/><path class="cls-4" d="M72,240.99v-11.36h2.6v1.59h.39c.2-.43.56-.84,1.08-1.22.52-.38,1.31-.57,2.37-.57.88,0,1.65.2,2.32.6.67.4,1.2.95,1.58,1.66.38.71.56,1.54.56,2.51v6.81h-2.65v-6.6c0-.92-.23-1.61-.68-2.06-.45-.45-1.09-.68-1.92-.68-.94,0-1.67.31-2.21.93-.54.62-.8,1.51-.8,2.66v5.75h-2.64Z"/><path class="cls-4" d="M90.84,241.31c-1.47,0-2.68-.32-3.63-.97-.95-.64-1.53-1.59-1.72-2.83l2.44-.62c.11.58.3,1.04.57,1.38.28.34.62.57,1.02.71.41.14.85.21,1.32.21.72,0,1.26-.13,1.62-.39.36-.26.54-.59.54-.99s-.17-.72-.52-.92c-.34-.2-.87-.37-1.58-.51l-.71-.11c-.78-.15-1.5-.36-2.14-.63-.64-.27-1.16-.64-1.55-1.1-.39-.47-.59-1.06-.59-1.78,0-1.1.41-1.95,1.23-2.55.82-.6,1.9-.9,3.23-.9s2.32.28,3.15.85c.83.57,1.37,1.33,1.61,2.28l-2.44.74c-.12-.64-.39-1.1-.8-1.37-.41-.27-.92-.4-1.52-.4s-1.08.11-1.41.32c-.33.21-.5.52-.5.92s.17.7.51.9c.34.2.79.34,1.36.44l.71.14c.84.15,1.61.35,2.29.6.68.25,1.22.6,1.62,1.06.4.46.6,1.08.6,1.86,0,1.18-.42,2.09-1.28,2.73-.85.64-2,.95-3.44.95Z"/><path class="cls-4" d="M102.57,241.17c-.87,0-1.65-.2-2.32-.59-.68-.39-1.2-.94-1.56-1.66-.37-.71-.55-1.54-.55-2.5v-6.81h2.62v6.6c0,.92.23,1.6.68,2.05.45.44,1.09.67,1.92.67.93,0,1.67-.31,2.22-.92.54-.61.82-1.49.82-2.65v-5.75h2.62v11.36h-2.58v-1.59h-.39c-.2.41-.56.81-1.09,1.2-.53.38-1.32.57-2.38.57Z"/><path class="cls-4" d="M112.37,240.99v-11.36h2.6v1.31h.39c.17-.48.45-.82.85-1.04.4-.21.88-.32,1.43-.32h1.38v2.35h-1.43c-.77,0-1.39.2-1.86.61-.48.41-.71,1.03-.71,1.87v6.58h-2.64Z"/><path class="cls-4" d="M126.14,241.31c-1.13,0-2.14-.24-3-.72-.87-.48-1.54-1.17-2.02-2.05-.48-.88-.72-1.91-.72-3.09v-.28c0-1.2.24-2.23.71-3.1.48-.87,1.14-1.55,2-2.04s1.85-.72,2.97-.72,2.07.24,2.9.72,1.47,1.16,1.93,2.04c.46.87.69,1.89.69,3.06v.94h-8.53c.03.89.34,1.6.94,2.14.6.54,1.33.8,2.21.8s1.49-.19,1.91-.56c.41-.38.73-.8.94-1.28l2.19,1.13c-.21.41-.53.85-.93,1.32-.41.47-.95.87-1.62,1.2-.68.33-1.53.49-2.55.49ZM123.08,234.07h5.82c-.06-.75-.35-1.35-.86-1.79-.51-.44-1.18-.67-1.99-.67s-1.52.22-2.02.67c-.51.44-.82,1.04-.94,1.79Z"/><path class="cls-4" d="M145.49,241.31c-1.1,0-2.1-.23-2.99-.69-.89-.46-1.59-1.13-2.1-2s-.77-1.92-.77-3.15v-.32c0-1.23.26-2.28.77-3.15.51-.87,1.21-1.54,2.1-2,.89-.46,1.89-.69,2.99-.69s2.02.19,2.79.57c.77.38,1.4.91,1.87,1.58s.78,1.41.92,2.24l-2.55.53c-.06-.48-.21-.91-.44-1.3s-.56-.7-.98-.93c-.42-.23-.94-.34-1.55-.34s-1.19.13-1.69.4c-.5.27-.89.67-1.17,1.21-.28.54-.43,1.18-.43,1.93v.23c0,.75.14,1.39.43,1.92s.67.93,1.17,1.21c.5.28,1.06.41,1.69.41.94,0,1.64-.24,2.13-.72.48-.48.79-1.11.91-1.87l2.55.6c-.18.8-.51,1.53-.99,2.19-.48.66-1.1,1.18-1.87,1.58-.78.39-1.71.59-2.79.59Z"/><path class="cls-4" d="M159.1,241.31c-1.13,0-2.15-.23-3.05-.7s-1.6-1.13-2.12-2c-.51-.87-.77-1.91-.77-3.12v-.37c0-1.21.26-2.25.77-3.13.51-.87,1.22-1.54,2.12-2s1.91-.69,3.05-.69,2.15.23,3.04.69c.89.46,1.59,1.13,2.1,2,.51.87.77,1.92.77,3.13v.37c0,1.21-.26,2.25-.77,3.12-.51.87-1.21,1.53-2.1,2-.89.47-1.9.7-3.04.7ZM159.1,238.97c.97,0,1.76-.31,2.37-.93.61-.62.92-1.49.92-2.61v-.23c0-1.12-.31-1.99-.92-2.61s-1.4-.93-2.37-.93-1.76.31-2.37.93-.92,1.49-.92,2.61v.23c0,1.12.31,1.99.92,2.61.61.62,1.4.93,2.37.93Z"/><path class="cls-4" d="M167.82,240.99v-11.36h2.6v1.59h.39c.2-.43.56-.84,1.08-1.22.52-.38,1.31-.57,2.37-.57.87,0,1.65.2,2.32.6.67.4,1.2.95,1.58,1.66.38.71.56,1.54.56,2.51v6.81h-2.64v-6.6c0-.92-.23-1.61-.68-2.06-.45-.45-1.09-.68-1.92-.68-.94,0-1.67.31-2.21.93s-.8,1.51-.8,2.66v5.75h-2.65Z"/><path class="cls-4" d="M186.66,241.31c-1.47,0-2.68-.32-3.63-.97-.95-.64-1.53-1.59-1.72-2.83l2.44-.62c.11.58.3,1.04.57,1.38.28.34.62.57,1.02.71.41.14.85.21,1.32.21.72,0,1.26-.13,1.62-.39.36-.26.54-.59.54-.99s-.17-.72-.52-.92c-.34-.2-.87-.37-1.58-.51l-.71-.11c-.78-.15-1.5-.36-2.14-.63-.64-.27-1.16-.64-1.55-1.1-.39-.47-.59-1.06-.59-1.78,0-1.1.41-1.95,1.23-2.55.82-.6,1.9-.9,3.23-.9s2.32.28,3.15.85c.83.57,1.37,1.33,1.61,2.28l-2.44.74c-.12-.64-.39-1.1-.8-1.37-.41-.27-.92-.4-1.52-.4s-1.08.11-1.41.32c-.33.21-.5.52-.5.92s.17.7.51.9c.34.2.79.34,1.36.44l.71.14c.84.15,1.61.35,2.29.6.68.25,1.22.6,1.62,1.06.4.46.6,1.08.6,1.86,0,1.18-.42,2.09-1.28,2.73-.85.64-2,.95-3.44.95Z"/><path class="cls-4" d="M195.35,228.18c-.48,0-.89-.16-1.23-.47-.35-.31-.52-.73-.52-1.25s.17-.94.52-1.25c.34-.31.75-.47,1.23-.47.51,0,.92.16,1.25.47.33.31.49.73.49,1.25s-.17.94-.49,1.25c-.33.31-.75.47-1.25.47ZM194.04,240.99v-11.36h2.64v11.36h-2.64Z"/><path class="cls-4" d="M204.73,241.31c-1.47,0-2.68-.32-3.63-.97-.95-.64-1.53-1.59-1.72-2.83l2.44-.62c.11.58.3,1.04.58,1.38.28.34.62.57,1.02.71.41.14.85.21,1.32.21.72,0,1.26-.13,1.62-.39.36-.26.54-.59.54-.99s-.17-.72-.52-.92c-.35-.2-.87-.37-1.58-.51l-.71-.11c-.78-.15-1.49-.36-2.14-.63-.64-.27-1.16-.64-1.55-1.1-.39-.47-.59-1.06-.59-1.78,0-1.1.41-1.95,1.23-2.55s1.9-.9,3.23-.9,2.32.28,3.15.85c.83.57,1.36,1.33,1.61,2.28l-2.44.74c-.12-.64-.39-1.1-.8-1.37-.41-.27-.92-.4-1.52-.4s-1.08.11-1.42.32c-.33.21-.49.52-.49.92s.17.7.51.9c.34.2.79.34,1.36.44l.71.14c.84.15,1.61.35,2.29.6.68.25,1.22.6,1.62,1.06.4.46.6,1.08.6,1.86,0,1.18-.43,2.09-1.28,2.73-.85.64-2,.95-3.44.95Z"/><path class="cls-4" d="M216.21,240.99c-.74,0-1.32-.22-1.76-.66s-.66-1.03-.66-1.78v-6.74h-2.97v-2.19h2.97v-3.66h2.64v3.66h3.27v2.19h-3.27v6.3c0,.46.21.69.64.69h2.28v2.19h-3.15Z"/><path class="cls-4" d="M227.18,241.31c-1.13,0-2.13-.24-3-.72-.87-.48-1.54-1.17-2.02-2.05-.48-.88-.72-1.91-.72-3.09v-.28c0-1.2.24-2.23.71-3.1.48-.87,1.14-1.55,2-2.04.86-.48,1.85-.72,2.97-.72s2.07.24,2.9.72,1.47,1.16,1.93,2.04c.46.87.69,1.89.69,3.06v.94h-8.53c.03.89.35,1.6.94,2.14.6.54,1.33.8,2.21.8s1.5-.19,1.91-.56c.41-.38.73-.8.94-1.28l2.18,1.13c-.21.41-.53.85-.93,1.32-.41.47-.95.87-1.62,1.2s-1.53.49-2.55.49ZM224.12,234.07h5.82c-.06-.75-.35-1.35-.86-1.79-.51-.44-1.18-.67-1.99-.67s-1.52.22-2.02.67c-.51.44-.82,1.04-.94,1.79Z"/><path class="cls-4" d="M235.35,240.99v-11.36h2.6v1.59h.39c.2-.43.56-.84,1.08-1.22.52-.38,1.31-.57,2.37-.57.87,0,1.65.2,2.32.6.68.4,1.2.95,1.58,1.66.38.71.56,1.54.56,2.51v6.81h-2.65v-6.6c0-.92-.23-1.61-.68-2.06-.45-.45-1.09-.68-1.92-.68-.94,0-1.67.31-2.21.93s-.8,1.51-.8,2.66v5.75h-2.64Z"/><path class="cls-4" d="M254.8,241.31c-1.1,0-2.1-.23-2.99-.69-.89-.46-1.59-1.13-2.1-2s-.77-1.92-.77-3.15v-.32c0-1.23.26-2.28.77-3.15.51-.87,1.21-1.54,2.1-2,.89-.46,1.89-.69,2.99-.69s2.02.19,2.79.57c.77.38,1.4.91,1.87,1.58s.78,1.41.92,2.24l-2.55.53c-.06-.48-.21-.91-.44-1.3s-.56-.7-.98-.93c-.42-.23-.94-.34-1.55-.34s-1.19.13-1.69.4c-.5.27-.89.67-1.17,1.21-.28.54-.43,1.18-.43,1.93v.23c0,.75.14,1.39.43,1.92s.67.93,1.17,1.21c.5.28,1.06.41,1.69.41.94,0,1.64-.24,2.13-.72.48-.48.79-1.11.91-1.87l2.55.6c-.18.8-.51,1.53-.99,2.19-.48.66-1.1,1.18-1.87,1.58-.78.39-1.71.59-2.79.59Z"/><path class="cls-4" d="M264.3,245.59v-2.3h6.28c.43,0,.64-.23.64-.69v-3.17h-.39c-.12.28-.32.55-.6.82-.28.27-.64.49-1.1.67-.46.18-1.04.26-1.75.26-.87,0-1.65-.2-2.32-.59-.67-.39-1.2-.94-1.56-1.66-.37-.71-.55-1.54-.55-2.5v-6.81h2.62v6.6c0,.92.23,1.6.68,2.05.45.44,1.09.67,1.92.67.93,0,1.67-.31,2.22-.92.54-.61.82-1.49.82-2.65v-5.75h2.62v13.52c0,.75-.21,1.35-.64,1.78-.43.44-1.01.66-1.75.66h-7.13Z"/><path class="cls-4" d="M286.56,241.31c-.8,0-1.52-.14-2.16-.43-.64-.28-1.15-.69-1.53-1.23-.38-.54-.56-1.2-.56-1.98s.19-1.41.56-1.93c.38-.52.89-.92,1.55-1.18.66-.27,1.41-.4,2.25-.4h3.29v-.69c0-.6-.18-1.08-.55-1.46-.37-.38-.94-.56-1.72-.56s-1.35.18-1.74.54c-.39.36-.65.82-.77,1.39l-2.44-.8c.18-.6.48-1.14.89-1.63.41-.49.95-.89,1.62-1.18.67-.3,1.5-.45,2.48-.45,1.49,0,2.66.37,3.51,1.12.85.74,1.28,1.82,1.28,3.23v4.46c0,.46.21.69.64.69h.97v2.19h-1.86c-.55,0-1-.14-1.36-.41-.35-.28-.53-.65-.53-1.13v-.05h-.39c-.09.21-.25.48-.48.78-.23.31-.58.57-1.05.79-.47.22-1.1.33-1.9.33ZM287,239.15c.87,0,1.59-.25,2.14-.75.55-.5.83-1.17.83-2.01v-.23h-3.13c-.57,0-1.03.12-1.38.37-.35.25-.53.61-.53,1.08s.18.83.55,1.12c.37.28.87.43,1.52.43Z"/><path class="cls-4" d="M296.32,240.99v-11.36h2.6v1.59h.39c.2-.43.56-.84,1.08-1.22.52-.38,1.31-.57,2.37-.57.87,0,1.65.2,2.32.6.67.4,1.2.95,1.58,1.66.38.71.56,1.54.56,2.51v6.81h-2.64v-6.6c0-.92-.23-1.61-.68-2.06-.45-.45-1.09-.68-1.92-.68-.94,0-1.67.31-2.21.93s-.8,1.51-.8,2.66v5.75h-2.65Z"/><path class="cls-4" d="M315.11,241.31c-.92,0-1.78-.23-2.58-.68-.8-.45-1.43-1.12-1.91-1.99-.48-.87-.71-1.92-.71-3.15v-.37c0-1.23.24-2.28.71-3.15s1.11-1.54,1.9-1.99c.79-.45,1.65-.68,2.59-.68.71,0,1.3.08,1.79.25.49.17.89.38,1.18.64.3.26.53.54.7.85h.39v-6.16h2.62v16.1h-2.58v-1.49h-.39c-.28.46-.7.88-1.26,1.25-.57.38-1.39.56-2.46.56ZM315.89,239.01c.95,0,1.74-.31,2.37-.93.63-.62.94-1.51.94-2.66v-.23c0-1.17-.31-2.05-.93-2.67-.62-.61-1.41-.92-2.38-.92s-1.74.31-2.38.92c-.64.61-.95,1.5-.95,2.67v.23c0,1.15.32,2.04.95,2.66.64.62,1.43.93,2.38.93Z"/><path class="cls-4" d="M336.34,241.31c-1.1,0-2.1-.23-2.99-.69-.89-.46-1.59-1.13-2.1-2s-.77-1.92-.77-3.15v-.32c0-1.23.26-2.28.77-3.15.51-.87,1.21-1.54,2.1-2,.89-.46,1.89-.69,2.99-.69s2.02.19,2.79.57c.77.38,1.4.91,1.87,1.58s.78,1.41.92,2.24l-2.55.53c-.06-.48-.21-.91-.44-1.3s-.56-.7-.98-.93c-.42-.23-.94-.34-1.55-.34s-1.19.13-1.69.4c-.5.27-.89.67-1.17,1.21-.28.54-.43,1.18-.43,1.93v.23c0,.75.14,1.39.43,1.92s.67.93,1.17,1.21c.5.28,1.06.41,1.69.41.94,0,1.64-.24,2.13-.72.48-.48.79-1.11.91-1.87l2.55.6c-.18.8-.51,1.53-.99,2.19-.48.66-1.1,1.18-1.87,1.58-.78.39-1.71.59-2.79.59Z"/><path class="cls-4" d="M344.57,240.99v-16.1h2.64v16.1h-2.64Z"/><path class="cls-4" d="M354.09,241.31c-.8,0-1.52-.14-2.16-.43s-1.15-.69-1.53-1.23c-.38-.54-.56-1.2-.56-1.98s.19-1.41.56-1.93c.38-.52.89-.92,1.55-1.18.66-.27,1.41-.4,2.25-.4h3.29v-.69c0-.6-.18-1.08-.55-1.46-.37-.38-.94-.56-1.72-.56s-1.35.18-1.74.54c-.39.36-.65.82-.77,1.39l-2.44-.8c.18-.6.48-1.14.89-1.63.41-.49.95-.89,1.62-1.18.67-.3,1.5-.45,2.48-.45,1.49,0,2.66.37,3.51,1.12.85.74,1.28,1.82,1.28,3.23v4.46c0,.46.21.69.64.69h.97v2.19h-1.86c-.55,0-1-.14-1.36-.41s-.53-.65-.53-1.13v-.05h-.39c-.09.21-.25.48-.48.78-.23.31-.58.57-1.05.79-.47.22-1.1.33-1.9.33ZM354.53,239.15c.87,0,1.59-.25,2.14-.75.55-.5.83-1.17.83-2.01v-.23h-3.13c-.57,0-1.03.12-1.38.37-.35.25-.53.61-.53,1.08s.18.83.55,1.12c.37.28.87.43,1.52.43Z"/><path class="cls-4" d="M363.84,240.99v-11.36h2.6v1.31h.39c.17-.48.45-.82.85-1.04.4-.21.87-.32,1.43-.32h1.38v2.35h-1.43c-.77,0-1.39.2-1.86.61-.47.41-.71,1.03-.71,1.87v6.58h-2.64Z"/><path class="cls-4" d="M374.15,228.18c-.48,0-.89-.16-1.23-.47-.34-.31-.52-.73-.52-1.25s.17-.94.52-1.25c.35-.31.76-.47,1.23-.47.51,0,.92.16,1.25.47.33.31.49.73.49,1.25s-.16.94-.49,1.25c-.33.31-.75.47-1.25.47ZM372.84,240.99v-11.36h2.65v11.36h-2.65Z"/><path class="cls-4" d="M383.16,240.99c-.74,0-1.32-.22-1.76-.66-.44-.44-.66-1.03-.66-1.78v-6.74h-2.97v-2.19h2.97v-3.66h2.64v3.66h3.27v2.19h-3.27v6.3c0,.46.21.69.64.69h2.28v2.19h-3.15Z"/><path class="cls-4" d="M390.62,245.59v-2.3h6.28c.43,0,.64-.23.64-.69v-3.17h-.39c-.12.28-.32.55-.6.82-.28.27-.64.49-1.1.67-.46.18-1.04.26-1.75.26-.88,0-1.65-.2-2.32-.59s-1.2-.94-1.56-1.66c-.37-.71-.55-1.54-.55-2.5v-6.81h2.62v6.6c0,.92.23,1.6.68,2.05.45.44,1.09.67,1.92.67.94,0,1.68-.31,2.22-.92.54-.61.82-1.49.82-2.65v-5.75h2.62v13.52c0,.75-.21,1.35-.64,1.78-.43.44-1.01.66-1.75.66h-7.13Z"/><path class="cls-4" d="M403.61,244.26v-1.47h.85c.66,0,.99-.33.99-.99v-.74h-.37c-.57,0-1.04-.17-1.43-.52s-.58-.79-.58-1.32c0-.57.19-1.03.58-1.39.38-.36.86-.54,1.43-.54s1.06.18,1.43.55c.37.37.55.85.55,1.45v2.53c0,1.63-.81,2.44-2.42,2.44h-1.04Z"/><path class="cls-4" d="M5.14,273.99v-11.36h2.6v1.31h.39c.17-.48.45-.82.85-1.04.4-.21.88-.32,1.43-.32h1.38v2.35h-1.43c-.77,0-1.39.2-1.86.61-.48.41-.71,1.03-.71,1.87v6.58h-2.64Z"/><path class="cls-4" d="M18.92,274.31c-1.13,0-2.14-.24-3-.72-.87-.48-1.54-1.17-2.02-2.05-.48-.88-.72-1.91-.72-3.09v-.28c0-1.2.24-2.23.71-3.1.48-.87,1.14-1.55,2-2.04s1.85-.72,2.97-.72,2.07.24,2.9.72,1.47,1.16,1.93,2.04c.46.87.69,1.89.69,3.06v.94h-8.53c.03.89.34,1.6.94,2.14.6.54,1.33.8,2.21.8s1.49-.19,1.91-.56c.41-.38.73-.8.94-1.28l2.19,1.13c-.21.41-.53.85-.93,1.32-.41.47-.95.87-1.62,1.2-.68.33-1.53.49-2.55.49ZM15.86,267.07h5.82c-.06-.75-.35-1.35-.86-1.79-.51-.44-1.18-.67-1.99-.67s-1.52.22-2.02.67c-.51.44-.82,1.04-.94,1.79Z"/><path class="cls-4" d="M28.67,273.99v-9.18h-3.04v-2.19h3.04v-2.3c0-.75.22-1.35.66-1.78s1.02-.66,1.74-.66h2.94v2.18h-2.07c-.43,0-.64.23-.64.69v1.86h3.13v2.19h-3.13v9.18h-2.62ZM36.15,273.99v-16.1h2.62v16.1h-2.62Z"/><path class="cls-4" d="M47.32,274.31c-1.13,0-2.14-.24-3-.72-.87-.48-1.54-1.17-2.02-2.05-.48-.88-.72-1.91-.72-3.09v-.28c0-1.2.24-2.23.71-3.1.48-.87,1.14-1.55,2-2.04s1.85-.72,2.97-.72,2.07.24,2.9.72,1.47,1.16,1.93,2.04c.46.87.69,1.89.69,3.06v.94h-8.53c.03.89.34,1.6.94,2.14.6.54,1.33.8,2.21.8s1.49-.19,1.91-.56c.41-.38.73-.8.94-1.28l2.19,1.13c-.21.41-.53.85-.93,1.32-.41.47-.95.87-1.62,1.2-.68.33-1.53.49-2.55.49ZM44.26,267.07h5.82c-.06-.75-.35-1.35-.86-1.79-.51-.44-1.18-.67-1.99-.67s-1.52.22-2.02.67c-.51.44-.82,1.04-.94,1.79Z"/><path class="cls-4" d="M60.8,274.31c-1.1,0-2.1-.23-2.99-.69-.89-.46-1.59-1.13-2.1-2s-.77-1.92-.77-3.15v-.32c0-1.23.26-2.28.77-3.15.51-.87,1.21-1.54,2.1-2,.89-.46,1.89-.69,2.99-.69s2.02.19,2.79.57c.77.38,1.4.91,1.88,1.58.47.67.78,1.41.92,2.24l-2.55.53c-.06-.48-.21-.91-.44-1.3-.23-.39-.56-.7-.98-.93-.42-.23-.94-.34-1.55-.34s-1.19.13-1.69.4c-.5.27-.89.67-1.17,1.21-.28.54-.42,1.18-.42,1.93v.23c0,.75.14,1.39.42,1.92.28.53.68.93,1.17,1.21s1.06.41,1.69.41c.93,0,1.64-.24,2.13-.72.48-.48.79-1.11.91-1.87l2.55.6c-.18.8-.51,1.53-.99,2.19-.48.66-1.1,1.18-1.88,1.58-.77.39-1.71.59-2.79.59Z"/><path class="cls-4" d="M72.97,273.99c-.74,0-1.32-.22-1.76-.66-.44-.44-.66-1.03-.66-1.78v-6.74h-2.97v-2.19h2.97v-3.66h2.64v3.66h3.27v2.19h-3.27v6.3c0,.46.21.69.64.69h2.28v2.19h-3.15Z"/><path class="cls-4" d="M80.47,261.18c-.48,0-.89-.16-1.23-.47-.34-.31-.52-.73-.52-1.25s.17-.94.52-1.25c.35-.31.76-.47,1.23-.47.51,0,.92.16,1.25.47.33.31.49.73.49,1.25s-.16.94-.49,1.25c-.33.31-.75.47-1.25.47ZM79.15,273.99v-11.36h2.65v11.36h-2.65Z"/><path class="cls-4" d="M85.16,273.99v-11.36h2.6v1.59h.39c.2-.43.56-.84,1.08-1.22.52-.38,1.31-.57,2.37-.57.87,0,1.65.2,2.32.6.67.4,1.2.95,1.58,1.66.38.71.56,1.54.56,2.51v6.81h-2.64v-6.6c0-.92-.23-1.61-.68-2.06-.45-.45-1.09-.68-1.92-.68-.94,0-1.67.31-2.21.93-.54.62-.8,1.51-.8,2.66v5.75h-2.65Z"/><path class="cls-4" d="M98.75,268.35v-.34c0-1.2.24-2.22.71-3.07.47-.85,1.11-1.5,1.91-1.95.8-.45,1.67-.68,2.62-.68,1.07,0,1.89.19,2.45.57.56.38.97.8,1.23,1.24h.39v-1.5h2.58v13.52c0,.75-.21,1.35-.64,1.78s-1.01.66-1.75.66h-7.63v-2.3h6.74c.44,0,.67-.23.67-.69v-3.29h-.39c-.17.26-.4.53-.69.79-.29.27-.67.49-1.15.68-.47.18-1.07.28-1.79.28-.95,0-1.83-.23-2.62-.68-.8-.45-1.43-1.1-1.91-1.95-.48-.85-.71-1.87-.71-3.07ZM104.73,271.74c.95,0,1.74-.3,2.37-.91.63-.61.94-1.45.94-2.54v-.23c0-1.1-.31-1.96-.93-2.55-.62-.6-1.41-.9-2.38-.9s-1.74.3-2.38.9c-.64.6-.96,1.45-.96,2.55v.23c0,1.09.32,1.94.96,2.54.64.61,1.43.91,2.38.91Z"/><path class="cls-4" d="M123.38,274.31c-.8,0-1.52-.14-2.16-.43-.64-.28-1.15-.69-1.53-1.23-.38-.54-.56-1.2-.56-1.98s.19-1.41.56-1.93c.38-.52.89-.92,1.55-1.18.66-.27,1.41-.4,2.25-.4h3.29v-.69c0-.6-.18-1.08-.55-1.46-.37-.38-.94-.56-1.72-.56s-1.35.18-1.74.54c-.39.36-.65.82-.77,1.39l-2.44-.8c.18-.6.48-1.14.88-1.63.41-.49.95-.89,1.62-1.18.67-.3,1.5-.45,2.48-.45,1.49,0,2.66.37,3.51,1.12.85.74,1.28,1.82,1.28,3.23v4.46c0,.46.21.69.64.69h.97v2.19h-1.86c-.55,0-1-.14-1.36-.41-.35-.28-.53-.65-.53-1.13v-.05h-.39c-.09.21-.25.48-.48.78-.23.31-.58.57-1.05.79-.47.22-1.1.33-1.9.33ZM123.82,272.15c.88,0,1.59-.25,2.14-.75.55-.5.83-1.17.83-2.01v-.23h-3.13c-.57,0-1.03.12-1.38.37-.35.25-.53.61-.53,1.08s.18.83.55,1.12c.37.28.88.43,1.52.43Z"/><path class="cls-4" d="M144.31,274.31c-1.1,0-2.1-.23-2.99-.69-.89-.46-1.59-1.13-2.11-2s-.77-1.92-.77-3.15v-.32c0-1.23.26-2.28.77-3.15.51-.87,1.21-1.54,2.11-2,.89-.46,1.89-.69,2.99-.69s2.02.19,2.79.57c.77.38,1.4.91,1.87,1.58.48.67.78,1.41.92,2.24l-2.55.53c-.06-.48-.21-.91-.44-1.3-.23-.39-.55-.7-.98-.93-.42-.23-.94-.34-1.55-.34s-1.19.13-1.69.4c-.5.27-.89.67-1.17,1.21-.28.54-.43,1.18-.43,1.93v.23c0,.75.14,1.39.43,1.92.28.53.67.93,1.17,1.21.5.28,1.06.41,1.69.41.94,0,1.64-.24,2.13-.72.48-.48.79-1.11.91-1.87l2.55.6c-.18.8-.51,1.53-.99,2.19-.47.66-1.1,1.18-1.87,1.58s-1.71.59-2.79.59Z"/><path class="cls-4" d="M157.93,274.31c-1.13,0-2.15-.23-3.05-.7-.9-.47-1.6-1.13-2.12-2-.51-.87-.77-1.91-.77-3.12v-.37c0-1.21.26-2.25.77-3.13.51-.87,1.22-1.54,2.12-2,.9-.46,1.91-.69,3.05-.69s2.15.23,3.04.69,1.59,1.13,2.1,2c.51.87.77,1.92.77,3.13v.37c0,1.21-.26,2.25-.77,3.12-.51.87-1.21,1.53-2.1,2s-1.9.7-3.04.7ZM157.93,271.97c.97,0,1.76-.31,2.37-.93.61-.62.92-1.49.92-2.61v-.23c0-1.12-.31-1.99-.92-2.61s-1.4-.93-2.37-.93-1.76.31-2.37.93-.92,1.49-.92,2.61v.23c0,1.12.31,1.99.92,2.61.61.62,1.4.93,2.37.93Z"/><path class="cls-4" d="M166.64,273.99v-16.1h2.64v6.23h.39c.12-.26.32-.52.6-.78.28-.26.64-.48,1.09-.64.45-.17,1.02-.25,1.71-.25.88,0,1.65.2,2.32.59s1.2.94,1.58,1.64c.38.71.56,1.54.56,2.51v6.81h-2.65v-6.6c0-.92-.23-1.61-.68-2.06-.45-.45-1.09-.68-1.92-.68-.94,0-1.67.31-2.21.93-.54.62-.8,1.51-.8,2.66v5.75h-2.64Z"/><path class="cls-4" d="M185.99,274.31c-1.13,0-2.13-.24-3-.72-.87-.48-1.54-1.17-2.02-2.05-.48-.88-.72-1.91-.72-3.09v-.28c0-1.2.24-2.23.71-3.1.48-.87,1.14-1.55,2-2.04.86-.48,1.85-.72,2.97-.72s2.07.24,2.9.72,1.47,1.16,1.93,2.04c.46.87.69,1.89.69,3.06v.94h-8.53c.03.89.35,1.6.94,2.14.6.54,1.33.8,2.21.8s1.5-.19,1.91-.56c.41-.38.73-.8.94-1.28l2.18,1.13c-.21.41-.53.85-.93,1.32-.41.47-.95.87-1.62,1.2s-1.53.49-2.55.49ZM182.93,267.07h5.82c-.06-.75-.35-1.35-.86-1.79-.51-.44-1.18-.67-1.99-.67s-1.52.22-2.02.67c-.51.44-.82,1.04-.94,1.79Z"/><path class="cls-4" d="M198.84,274.31c-1.47,0-2.68-.32-3.63-.97-.95-.64-1.53-1.59-1.72-2.83l2.44-.62c.11.58.3,1.04.58,1.38.28.34.62.57,1.02.71.41.14.85.21,1.32.21.72,0,1.26-.13,1.62-.39.36-.26.54-.59.54-.99s-.17-.72-.52-.92c-.35-.2-.87-.37-1.58-.51l-.71-.11c-.78-.15-1.49-.36-2.14-.63-.64-.27-1.16-.64-1.55-1.1-.39-.47-.59-1.06-.59-1.78,0-1.1.41-1.95,1.23-2.55s1.9-.9,3.23-.9,2.32.28,3.15.85c.83.57,1.36,1.33,1.61,2.28l-2.44.74c-.12-.64-.39-1.1-.8-1.37-.41-.27-.92-.4-1.52-.4s-1.08.11-1.42.32c-.33.21-.49.52-.49.92s.17.7.51.9c.34.2.79.34,1.36.44l.71.14c.84.15,1.61.35,2.29.6.68.25,1.22.6,1.62,1.06.4.46.6,1.08.6,1.86,0,1.18-.43,2.09-1.28,2.73-.85.64-2,.95-3.44.95Z"/><path class="cls-4" d="M207.54,261.18c-.47,0-.88-.16-1.23-.47-.34-.31-.52-.73-.52-1.25s.17-.94.52-1.25c.35-.31.76-.47,1.23-.47.51,0,.92.16,1.25.47.33.31.49.73.49,1.25s-.16.94-.49,1.25c-.33.31-.75.47-1.25.47ZM206.23,273.99v-11.36h2.64v11.36h-2.64Z"/><path class="cls-4" d="M214.74,273.99l-3.73-11.36h2.81l2.81,9.43h.39l2.83-9.43h2.81l-3.73,11.36h-4.19Z"/><path class="cls-4" d="M229.62,274.31c-1.13,0-2.13-.24-3-.72-.87-.48-1.54-1.17-2.02-2.05-.48-.88-.72-1.91-.72-3.09v-.28c0-1.2.24-2.23.71-3.1.47-.87,1.14-1.55,2-2.04s1.85-.72,2.97-.72,2.07.24,2.9.72,1.47,1.16,1.93,2.04c.46.87.69,1.89.69,3.06v.94h-8.53c.03.89.35,1.6.94,2.14.6.54,1.33.8,2.21.8s1.5-.19,1.91-.56c.41-.38.73-.8.94-1.28l2.18,1.13c-.21.41-.53.85-.93,1.32-.41.47-.95.87-1.62,1.2s-1.53.49-2.55.49ZM226.56,267.07h5.82c-.06-.75-.35-1.35-.86-1.79-.51-.44-1.18-.67-1.99-.67s-1.52.22-2.02.67c-.51.44-.82,1.04-.94,1.79Z"/><path class="cls-4" d="M247.17,274.31c-.8,0-1.52-.14-2.16-.43s-1.15-.69-1.53-1.23c-.38-.54-.56-1.2-.56-1.98s.19-1.41.56-1.93c.38-.52.89-.92,1.55-1.18.66-.27,1.41-.4,2.25-.4h3.29v-.69c0-.6-.18-1.08-.55-1.46-.37-.38-.94-.56-1.72-.56s-1.35.18-1.74.54c-.39.36-.65.82-.77,1.39l-2.44-.8c.18-.6.48-1.14.89-1.63.41-.49.95-.89,1.62-1.18.67-.3,1.5-.45,2.48-.45,1.49,0,2.66.37,3.51,1.12.85.74,1.28,1.82,1.28,3.23v4.46c0,.46.21.69.64.69h.97v2.19h-1.86c-.55,0-1-.14-1.36-.41s-.53-.65-.53-1.13v-.05h-.39c-.09.21-.25.48-.48.78-.23.31-.58.57-1.05.79-.47.22-1.1.33-1.9.33ZM247.6,272.15c.87,0,1.59-.25,2.14-.75.55-.5.83-1.17.83-2.01v-.23h-3.13c-.57,0-1.03.12-1.38.37-.35.25-.53.61-.53,1.08s.18.83.55,1.12c.37.28.87.43,1.52.43Z"/><path class="cls-4" d="M256.92,273.99v-11.36h2.6v1.59h.39c.2-.43.56-.84,1.08-1.22.52-.38,1.31-.57,2.37-.57.88,0,1.65.2,2.32.6.67.4,1.2.95,1.58,1.66.38.71.56,1.54.56,2.51v6.81h-2.65v-6.6c0-.92-.23-1.61-.68-2.06-.45-.45-1.09-.68-1.92-.68-.94,0-1.67.31-2.21.93-.54.62-.8,1.51-.8,2.66v5.75h-2.64Z"/><path class="cls-4" d="M275.71,274.31c-.92,0-1.78-.23-2.58-.68-.8-.45-1.43-1.12-1.91-1.99-.48-.87-.71-1.92-.71-3.15v-.37c0-1.23.24-2.28.71-3.15s1.11-1.54,1.9-1.99c.79-.45,1.65-.68,2.59-.68.71,0,1.3.08,1.79.25.49.17.89.38,1.18.64.3.26.53.54.7.85h.39v-6.16h2.62v16.1h-2.58v-1.49h-.39c-.28.46-.7.88-1.26,1.25-.57.38-1.39.56-2.46.56ZM276.49,272.01c.95,0,1.74-.31,2.37-.93.63-.62.94-1.51.94-2.66v-.23c0-1.17-.31-2.05-.93-2.67-.62-.61-1.41-.92-2.38-.92s-1.74.31-2.38.92c-.64.61-.95,1.5-.95,2.67v.23c0,1.15.32,2.04.95,2.66.64.62,1.43.93,2.38.93Z"/><path class="cls-4" d="M296.27,274.31c-.92,0-1.78-.23-2.58-.68-.8-.45-1.43-1.12-1.91-1.99-.47-.87-.71-1.92-.71-3.15v-.37c0-1.23.24-2.28.71-3.15s1.11-1.54,1.9-1.99c.79-.45,1.65-.68,2.59-.68.71,0,1.3.08,1.79.25.49.17.88.38,1.18.64.3.26.53.54.7.85h.39v-6.16h2.62v16.1h-2.58v-1.49h-.39c-.28.46-.7.88-1.26,1.25-.57.38-1.39.56-2.46.56ZM297.05,272.01c.95,0,1.74-.31,2.37-.93.63-.62.94-1.51.94-2.66v-.23c0-1.17-.31-2.05-.93-2.67-.62-.61-1.41-.92-2.38-.92s-1.74.31-2.38.92c-.64.61-.96,1.5-.96,2.67v.23c0,1.15.32,2.04.96,2.66.64.62,1.43.93,2.38.93Z"/><path class="cls-4" d="M307.63,261.18c-.48,0-.89-.16-1.23-.47-.34-.31-.52-.73-.52-1.25s.17-.94.52-1.25c.34-.31.75-.47,1.23-.47.51,0,.92.16,1.25.47.33.31.49.73.49,1.25s-.17.94-.49,1.25c-.33.31-.75.47-1.25.47ZM306.32,273.99v-11.36h2.65v11.36h-2.65Z"/><path class="cls-4" d="M317.02,274.31c-1.47,0-2.68-.32-3.63-.97-.95-.64-1.53-1.59-1.72-2.83l2.44-.62c.11.58.3,1.04.58,1.38.28.34.62.57,1.02.71.41.14.85.21,1.32.21.72,0,1.26-.13,1.62-.39.36-.26.54-.59.54-.99s-.17-.72-.52-.92c-.35-.2-.87-.37-1.58-.51l-.71-.11c-.78-.15-1.49-.36-2.14-.63-.64-.27-1.16-.64-1.55-1.1-.39-.47-.59-1.06-.59-1.78,0-1.1.41-1.95,1.23-2.55s1.9-.9,3.23-.9,2.32.28,3.15.85c.83.57,1.36,1.33,1.61,2.28l-2.44.74c-.12-.64-.39-1.1-.8-1.37-.41-.27-.92-.4-1.52-.4s-1.08.11-1.42.32c-.33.21-.49.52-.49.92s.17.7.51.9c.34.2.79.34,1.36.44l.71.14c.84.15,1.61.35,2.29.6.68.25,1.22.6,1.62,1.06.4.46.6,1.08.6,1.86,0,1.18-.43,2.09-1.28,2.73-.85.64-2,.95-3.44.95Z"/><path class="cls-4" d="M328.49,273.99c-.74,0-1.32-.22-1.76-.66-.44-.44-.66-1.03-.66-1.78v-6.74h-2.97v-2.19h2.97v-3.66h2.65v3.66h3.27v2.19h-3.27v6.3c0,.46.21.69.64.69h2.28v2.19h-3.15Z"/><path class="cls-4" d="M335.99,261.18c-.48,0-.89-.16-1.23-.47-.35-.31-.52-.73-.52-1.25s.17-.94.52-1.25c.34-.31.75-.47,1.23-.47.51,0,.92.16,1.25.47.33.31.49.73.49,1.25s-.17.94-.49,1.25c-.33.31-.75.47-1.25.47ZM334.68,273.99v-11.36h2.64v11.36h-2.64Z"/><path class="cls-4" d="M340.68,273.99v-11.36h2.6v1.59h.39c.2-.43.56-.84,1.08-1.22.52-.38,1.31-.57,2.37-.57.88,0,1.65.2,2.32.6.67.4,1.2.95,1.58,1.66.38.71.56,1.54.56,2.51v6.81h-2.65v-6.6c0-.92-.23-1.61-.68-2.06-.45-.45-1.09-.68-1.92-.68-.94,0-1.67.31-2.21.93-.54.62-.8,1.51-.8,2.66v5.75h-2.64Z"/><path class="cls-4" d="M360.14,274.31c-1.1,0-2.1-.23-2.99-.69-.89-.46-1.59-1.13-2.1-2s-.77-1.92-.77-3.15v-.32c0-1.23.26-2.28.77-3.15.51-.87,1.21-1.54,2.1-2,.89-.46,1.89-.69,2.99-.69s2.02.19,2.79.57c.77.38,1.4.91,1.88,1.58.47.67.78,1.41.92,2.24l-2.55.53c-.06-.48-.21-.91-.44-1.3-.23-.39-.56-.7-.98-.93-.42-.23-.94-.34-1.55-.34s-1.19.13-1.69.4c-.5.27-.89.67-1.17,1.21-.28.54-.42,1.18-.42,1.93v.23c0,.75.14,1.39.42,1.92.28.53.68.93,1.17,1.21s1.06.41,1.69.41c.93,0,1.64-.24,2.13-.72.48-.48.79-1.11.91-1.87l2.55.6c-.18.8-.51,1.53-.99,2.19-.48.66-1.1,1.18-1.88,1.58-.77.39-1.71.59-2.79.59Z"/><path class="cls-4" d="M372.31,273.99c-.74,0-1.32-.22-1.76-.66-.44-.44-.66-1.03-.66-1.78v-6.74h-2.97v-2.19h2.97v-3.66h2.64v3.66h3.27v2.19h-3.27v6.3c0,.46.21.69.64.69h2.28v2.19h-3.15Z"/><path class="cls-4" d="M379.8,261.18c-.48,0-.89-.16-1.23-.47-.34-.31-.52-.73-.52-1.25s.17-.94.52-1.25c.35-.31.76-.47,1.23-.47.51,0,.92.16,1.25.47.33.31.49.73.49,1.25s-.16.94-.49,1.25c-.33.31-.75.47-1.25.47ZM378.49,273.99v-11.36h2.65v11.36h-2.65Z"/><path class="cls-4" d="M387,273.99l-3.73-11.36h2.81l2.81,9.43h.39l2.83-9.43h2.81l-3.73,11.36h-4.19Z"/><path class="cls-4" d="M401.88,274.31c-1.13,0-2.13-.24-3-.72-.87-.48-1.54-1.17-2.02-2.05-.48-.88-.72-1.91-.72-3.09v-.28c0-1.2.24-2.23.71-3.1.48-.87,1.14-1.55,2-2.04.86-.48,1.85-.72,2.97-.72s2.07.24,2.9.72,1.47,1.16,1.93,2.04c.46.87.69,1.89.69,3.06v.94h-8.53c.03.89.35,1.6.94,2.14.6.54,1.33.8,2.21.8s1.5-.19,1.91-.56c.41-.38.73-.8.94-1.28l2.18,1.13c-.21.41-.53.85-.93,1.32-.41.47-.95.87-1.62,1.2s-1.53.49-2.55.49ZM398.82,267.07h5.82c-.06-.75-.35-1.35-.86-1.79-.51-.44-1.18-.67-1.99-.67s-1.52.22-2.02.67c-.51.44-.82,1.04-.94,1.79Z"/><path class="cls-4" d="M6.45,294.18c-.48,0-.89-.16-1.23-.47-.35-.31-.52-.73-.52-1.25s.17-.94.52-1.25c.34-.31.75-.47,1.23-.47.51,0,.92.16,1.25.47.33.31.49.73.49,1.25s-.17.94-.49,1.25c-.33.31-.75.47-1.25.47ZM5.14,306.99v-11.36h2.64v11.36h-2.64Z"/><path class="cls-4" d="M15.79,307.31c-.92,0-1.78-.23-2.58-.68-.8-.45-1.43-1.12-1.91-1.99-.48-.87-.71-1.92-.71-3.15v-.37c0-1.23.24-2.28.71-3.15s1.11-1.54,1.9-1.99c.79-.45,1.65-.68,2.59-.68.71,0,1.3.08,1.79.25.49.17.89.38,1.18.64.3.26.53.54.7.85h.39v-6.16h2.62v16.1h-2.58v-1.49h-.39c-.28.46-.7.88-1.26,1.25-.57.38-1.39.56-2.46.56ZM16.57,305.01c.95,0,1.74-.31,2.37-.93.63-.62.94-1.51.94-2.66v-.23c0-1.17-.31-2.05-.93-2.67-.62-.61-1.41-.92-2.38-.92s-1.74.31-2.38.92c-.64.61-.95,1.5-.95,2.67v.23c0,1.15.32,2.04.95,2.66.64.62,1.43.93,2.38.93Z"/><path class="cls-4" d="M31.04,307.31c-1.13,0-2.13-.24-3-.72-.87-.48-1.54-1.17-2.02-2.05-.48-.88-.72-1.91-.72-3.09v-.28c0-1.2.24-2.23.71-3.1.48-.87,1.14-1.55,2-2.04.86-.48,1.85-.72,2.97-.72s2.07.24,2.9.72,1.47,1.16,1.93,2.04c.46.87.69,1.89.69,3.06v.94h-8.53c.03.89.35,1.6.94,2.14.6.54,1.33.8,2.21.8s1.5-.19,1.91-.56c.41-.38.73-.8.94-1.28l2.18,1.13c-.21.41-.53.85-.93,1.32-.41.47-.95.87-1.62,1.2s-1.53.49-2.55.49ZM27.98,300.07h5.82c-.06-.75-.35-1.35-.86-1.79-.51-.44-1.18-.67-1.99-.67s-1.52.22-2.02.67c-.51.44-.82,1.04-.94,1.79Z"/><path class="cls-4" d="M39.21,306.99v-11.36h2.6v1.59h.39c.2-.43.56-.84,1.08-1.22.52-.38,1.31-.57,2.37-.57.87,0,1.65.2,2.32.6.68.4,1.2.95,1.58,1.66.38.71.56,1.54.56,2.51v6.81h-2.65v-6.6c0-.92-.23-1.61-.68-2.06-.45-.45-1.09-.68-1.92-.68-.94,0-1.67.31-2.21.93s-.8,1.51-.8,2.66v5.75h-2.64Z"/><path class="cls-4" d="M57.35,306.99c-.74,0-1.32-.22-1.76-.66s-.66-1.03-.66-1.78v-6.74h-2.97v-2.19h2.97v-3.66h2.65v3.66h3.27v2.19h-3.27v6.3c0,.46.21.69.64.69h2.28v2.19h-3.15Z"/><path class="cls-4" d="M64.85,294.18c-.48,0-.89-.16-1.23-.47-.34-.31-.52-.73-.52-1.25s.17-.94.52-1.25c.34-.31.75-.47,1.23-.47.51,0,.92.16,1.25.47.33.31.49.73.49,1.25s-.17.94-.49,1.25c-.33.31-.75.47-1.25.47ZM63.54,306.99v-11.36h2.65v11.36h-2.65Z"/><path class="cls-4" d="M73.87,306.99c-.74,0-1.32-.22-1.76-.66s-.66-1.03-.66-1.78v-6.74h-2.97v-2.19h2.97v-3.66h2.65v3.66h3.27v2.19h-3.27v6.3c0,.46.21.69.64.69h2.28v2.19h-3.15Z"/><path class="cls-4" d="M81.32,311.59v-2.3h6.28c.43,0,.64-.23.64-.69v-3.17h-.39c-.12.28-.32.55-.6.82-.28.27-.64.49-1.1.67-.46.18-1.04.26-1.75.26-.87,0-1.65-.2-2.32-.59-.68-.39-1.2-.94-1.56-1.66-.37-.71-.55-1.54-.55-2.5v-6.81h2.62v6.6c0,.92.23,1.6.68,2.05.45.44,1.09.67,1.92.67.93,0,1.67-.31,2.22-.92.54-.61.82-1.49.82-2.65v-5.75h2.62v13.52c0,.75-.21,1.35-.64,1.78s-1.01.66-1.75.66h-7.13Z"/><path class="cls-4" d="M103.58,307.31c-.8,0-1.52-.14-2.16-.43s-1.15-.69-1.53-1.23c-.38-.54-.56-1.2-.56-1.98s.19-1.41.56-1.93c.38-.52.89-.92,1.55-1.18.66-.27,1.41-.4,2.25-.4h3.29v-.69c0-.6-.18-1.08-.55-1.46-.37-.38-.94-.56-1.72-.56s-1.35.18-1.74.54c-.39.36-.65.82-.77,1.39l-2.44-.8c.18-.6.48-1.14.89-1.63.41-.49.95-.89,1.62-1.18.67-.3,1.5-.45,2.48-.45,1.49,0,2.66.37,3.51,1.12.85.74,1.28,1.82,1.28,3.23v4.46c0,.46.21.69.64.69h.97v2.19h-1.86c-.55,0-1-.14-1.36-.41s-.53-.65-.53-1.13v-.05h-.39c-.09.21-.25.48-.48.78-.23.31-.58.57-1.05.79-.47.22-1.1.33-1.9.33ZM104.02,305.15c.87,0,1.59-.25,2.14-.75.55-.5.83-1.17.83-2.01v-.23h-3.13c-.57,0-1.03.12-1.38.37-.35.25-.53.61-.53,1.08s.18.83.55,1.12c.37.28.87.43,1.52.43Z"/><path class="cls-4" d="M118.39,307.31c-1.1,0-2.1-.23-2.99-.69-.89-.46-1.59-1.13-2.11-2s-.77-1.92-.77-3.15v-.32c0-1.23.26-2.28.77-3.15.51-.87,1.21-1.54,2.11-2,.89-.46,1.89-.69,2.99-.69s2.02.19,2.79.57c.77.38,1.4.91,1.87,1.58.48.67.78,1.41.92,2.24l-2.55.53c-.06-.48-.21-.91-.44-1.3-.23-.39-.55-.7-.98-.93-.42-.23-.94-.34-1.55-.34s-1.19.13-1.69.4c-.5.27-.89.67-1.17,1.21-.28.54-.43,1.18-.43,1.93v.23c0,.75.14,1.39.43,1.92.28.53.67.93,1.17,1.21.5.28,1.06.41,1.69.41.94,0,1.64-.24,2.13-.72.48-.48.79-1.11.91-1.87l2.55.6c-.18.8-.51,1.53-.99,2.19-.47.66-1.1,1.18-1.87,1.58s-1.71.59-2.79.59Z"/><path class="cls-4" d="M126.63,306.99v-11.36h2.6v1.31h.39c.17-.48.45-.82.85-1.04.4-.21.87-.32,1.43-.32h1.38v2.35h-1.43c-.77,0-1.39.2-1.86.61-.48.41-.71,1.03-.71,1.87v6.58h-2.65Z"/><path class="cls-4" d="M140.59,307.31c-1.13,0-2.15-.23-3.05-.7-.9-.47-1.6-1.13-2.12-2-.51-.87-.77-1.91-.77-3.12v-.37c0-1.21.26-2.25.77-3.13.51-.87,1.22-1.54,2.12-2,.9-.46,1.91-.69,3.05-.69s2.15.23,3.04.69c.89.46,1.59,1.13,2.1,2,.51.87.77,1.92.77,3.13v.37c0,1.21-.26,2.25-.77,3.12-.51.87-1.22,1.53-2.1,2-.89.47-1.9.7-3.04.7ZM140.59,304.97c.97,0,1.75-.31,2.37-.93.61-.62.92-1.49.92-2.61v-.23c0-1.12-.31-1.99-.92-2.61-.61-.62-1.4-.93-2.37-.93s-1.76.31-2.37.93-.92,1.49-.92,2.61v.23c0,1.12.31,1.99.92,2.61.61.62,1.4.93,2.37.93Z"/><path class="cls-4" d="M154,307.31c-1.47,0-2.68-.32-3.63-.97-.95-.64-1.53-1.59-1.72-2.83l2.44-.62c.11.58.3,1.04.58,1.38.28.34.62.57,1.02.71.41.14.85.21,1.32.21.72,0,1.26-.13,1.62-.39.36-.26.54-.59.54-.99s-.17-.72-.52-.92c-.35-.2-.87-.37-1.58-.51l-.71-.11c-.78-.15-1.5-.36-2.14-.63-.64-.27-1.16-.64-1.55-1.1-.39-.47-.59-1.06-.59-1.78,0-1.1.41-1.95,1.23-2.55.82-.6,1.9-.9,3.23-.9s2.32.28,3.15.85c.83.57,1.36,1.33,1.61,2.28l-2.44.74c-.12-.64-.39-1.1-.8-1.37-.41-.27-.92-.4-1.52-.4s-1.08.11-1.41.32c-.33.21-.49.52-.49.92s.17.7.51.9c.34.2.79.34,1.36.44l.71.14c.84.15,1.61.35,2.29.6.68.25,1.22.6,1.62,1.06.4.46.6,1.08.6,1.86,0,1.18-.43,2.09-1.28,2.73-.85.64-2,.95-3.44.95Z"/><path class="cls-4" d="M166.07,307.31c-1.47,0-2.68-.32-3.63-.97-.95-.64-1.53-1.59-1.72-2.83l2.44-.62c.11.58.3,1.04.58,1.38.28.34.62.57,1.02.71.41.14.85.21,1.32.21.72,0,1.26-.13,1.62-.39.36-.26.54-.59.54-.99s-.17-.72-.52-.92c-.35-.2-.87-.37-1.58-.51l-.71-.11c-.78-.15-1.49-.36-2.14-.63-.64-.27-1.16-.64-1.55-1.1-.39-.47-.59-1.06-.59-1.78,0-1.1.41-1.95,1.23-2.55s1.9-.9,3.23-.9,2.32.28,3.15.85c.83.57,1.36,1.33,1.61,2.28l-2.44.74c-.12-.64-.39-1.1-.8-1.37-.41-.27-.92-.4-1.52-.4s-1.08.11-1.42.32c-.33.21-.49.52-.49.92s.17.7.51.9c.34.2.79.34,1.36.44l.71.14c.84.15,1.61.35,2.29.6.68.25,1.22.6,1.62,1.06.4.46.6,1.08.6,1.86,0,1.18-.43,2.09-1.28,2.73-.85.64-2,.95-3.44.95Z"/><path class="cls-4" d="M182.84,307.31c-.8,0-1.52-.14-2.16-.43s-1.15-.69-1.53-1.23c-.38-.54-.56-1.2-.56-1.98s.19-1.41.56-1.93c.38-.52.89-.92,1.55-1.18.66-.27,1.41-.4,2.25-.4h3.29v-.69c0-.6-.18-1.08-.55-1.46-.37-.38-.94-.56-1.72-.56s-1.35.18-1.74.54c-.39.36-.65.82-.77,1.39l-2.44-.8c.18-.6.48-1.14.89-1.63.41-.49.95-.89,1.62-1.18.67-.3,1.5-.45,2.48-.45,1.49,0,2.66.37,3.51,1.12.85.74,1.28,1.82,1.28,3.23v4.46c0,.46.21.69.64.69h.97v2.19h-1.86c-.55,0-1-.14-1.36-.41-.35-.28-.53-.65-.53-1.13v-.05h-.39c-.09.21-.25.48-.48.78-.23.31-.58.57-1.05.79-.47.22-1.1.33-1.9.33ZM183.27,305.15c.87,0,1.59-.25,2.14-.75.55-.5.83-1.17.83-2.01v-.23h-3.13c-.57,0-1.03.12-1.38.37-.35.25-.53.61-.53,1.08s.18.83.55,1.12c.37.28.87.43,1.52.43Z"/><path class="cls-4" d="M192.59,306.99v-16.1h2.65v16.1h-2.65Z"/><path class="cls-4" d="M198.59,306.99v-16.1h2.64v16.1h-2.64Z"/><path class="cls-4" d="M212.97,306.99l-3.73-11.36h2.81l2.81,9.43h.39l2.83-9.43h2.81l-3.73,11.36h-4.19Z"/><path class="cls-4" d="M224.33,294.18c-.48,0-.89-.16-1.23-.47-.34-.31-.52-.73-.52-1.25s.17-.94.52-1.25c.34-.31.75-.47,1.23-.47.51,0,.92.16,1.25.47.33.31.49.73.49,1.25s-.17.94-.49,1.25c-.33.31-.75.47-1.25.47ZM223.02,306.99v-11.36h2.65v11.36h-2.65Z"/><path class="cls-4" d="M233.71,307.31c-1.47,0-2.68-.32-3.63-.97-.95-.64-1.53-1.59-1.72-2.83l2.44-.62c.11.58.3,1.04.58,1.38.28.34.62.57,1.02.71.41.14.85.21,1.32.21.72,0,1.26-.13,1.62-.39.36-.26.54-.59.54-.99s-.17-.72-.52-.92c-.35-.2-.87-.37-1.58-.51l-.71-.11c-.78-.15-1.49-.36-2.14-.63-.64-.27-1.16-.64-1.55-1.1-.39-.47-.59-1.06-.59-1.78,0-1.1.41-1.95,1.23-2.55s1.9-.9,3.23-.9,2.32.28,3.15.85c.83.57,1.36,1.33,1.61,2.28l-2.44.74c-.12-.64-.39-1.1-.8-1.37-.41-.27-.92-.4-1.52-.4s-1.08.11-1.42.32c-.33.21-.49.52-.49.92s.17.7.51.9c.34.2.79.34,1.36.44l.71.14c.84.15,1.61.35,2.29.6.68.25,1.22.6,1.62,1.06.4.46.6,1.08.6,1.86,0,1.18-.43,2.09-1.28,2.73-.85.64-2,.95-3.44.95Z"/><path class="cls-4" d="M245.44,307.17c-.87,0-1.65-.2-2.32-.59-.67-.39-1.2-.94-1.56-1.66s-.55-1.54-.55-2.5v-6.81h2.62v6.6c0,.92.23,1.6.68,2.05.45.44,1.09.67,1.92.67.94,0,1.67-.31,2.22-.92.54-.61.82-1.49.82-2.65v-5.75h2.62v11.36h-2.58v-1.59h-.39c-.2.41-.56.81-1.09,1.2-.53.38-1.32.57-2.38.57Z"/><path class="cls-4" d="M258.76,307.31c-.8,0-1.52-.14-2.16-.43s-1.15-.69-1.53-1.23c-.38-.54-.56-1.2-.56-1.98s.19-1.41.56-1.93c.38-.52.89-.92,1.55-1.18.66-.27,1.41-.4,2.25-.4h3.29v-.69c0-.6-.18-1.08-.55-1.46-.37-.38-.94-.56-1.72-.56s-1.35.18-1.74.54c-.39.36-.65.82-.77,1.39l-2.44-.8c.18-.6.48-1.14.89-1.63.41-.49.95-.89,1.62-1.18.67-.3,1.5-.45,2.48-.45,1.49,0,2.66.37,3.51,1.12.85.74,1.28,1.82,1.28,3.23v4.46c0,.46.21.69.64.69h.97v2.19h-1.86c-.55,0-1-.14-1.36-.41s-.53-.65-.53-1.13v-.05h-.39c-.09.21-.25.48-.48.78-.23.31-.58.57-1.05.79-.47.22-1.1.33-1.9.33ZM259.19,305.15c.87,0,1.59-.25,2.14-.75.55-.5.83-1.17.83-2.01v-.23h-3.13c-.57,0-1.03.12-1.38.37-.35.25-.53.61-.53,1.08s.18.83.55,1.12c.37.28.87.43,1.52.43Z"/><path class="cls-4" d="M268.51,306.99v-16.1h2.64v16.1h-2.64Z"/><path class="cls-4" d="M283.9,307.31c-.8,0-1.52-.14-2.16-.43-.64-.28-1.15-.69-1.53-1.23-.38-.54-.56-1.2-.56-1.98s.19-1.41.56-1.93c.38-.52.89-.92,1.55-1.18.66-.27,1.41-.4,2.25-.4h3.29v-.69c0-.6-.18-1.08-.55-1.46-.37-.38-.94-.56-1.72-.56s-1.35.18-1.74.54c-.39.36-.65.82-.77,1.39l-2.44-.8c.18-.6.48-1.14.88-1.63.41-.49.95-.89,1.62-1.18.67-.3,1.5-.45,2.48-.45,1.49,0,2.66.37,3.51,1.12.85.74,1.28,1.82,1.28,3.23v4.46c0,.46.21.69.64.69h.97v2.19h-1.86c-.55,0-1-.14-1.36-.41-.35-.28-.53-.65-.53-1.13v-.05h-.39c-.09.21-.25.48-.48.78-.23.31-.58.57-1.05.79-.47.22-1.1.33-1.9.33ZM284.33,305.15c.88,0,1.59-.25,2.14-.75.55-.5.83-1.17.83-2.01v-.23h-3.13c-.57,0-1.03.12-1.38.37-.35.25-.53.61-.53,1.08s.18.83.55,1.12c.37.28.88.43,1.52.43Z"/><path class="cls-4" d="M293.65,306.99v-11.36h2.6v1.59h.39c.2-.43.56-.84,1.08-1.22.52-.38,1.31-.57,2.37-.57.87,0,1.65.2,2.32.6.68.4,1.2.95,1.58,1.66.38.71.56,1.54.56,2.51v6.81h-2.65v-6.6c0-.92-.23-1.61-.68-2.06-.45-.45-1.09-.68-1.92-.68-.94,0-1.67.31-2.21.93s-.8,1.51-.8,2.66v5.75h-2.64Z"/><path class="cls-4" d="M312.44,307.31c-.92,0-1.78-.23-2.58-.68-.8-.45-1.43-1.12-1.91-1.99-.47-.87-.71-1.92-.71-3.15v-.37c0-1.23.24-2.28.71-3.15s1.11-1.54,1.9-1.99c.79-.45,1.65-.68,2.59-.68.71,0,1.3.08,1.79.25.49.17.88.38,1.18.64.3.26.53.54.7.85h.39v-6.16h2.62v16.1h-2.58v-1.49h-.39c-.28.46-.7.88-1.26,1.25-.57.38-1.39.56-2.46.56ZM313.22,305.01c.95,0,1.74-.31,2.37-.93.63-.62.94-1.51.94-2.66v-.23c0-1.17-.31-2.05-.93-2.67-.62-.61-1.41-.92-2.38-.92s-1.74.31-2.38.92c-.64.61-.96,1.5-.96,2.67v.23c0,1.15.32,2.04.96,2.66.64.62,1.43.93,2.38.93Z"/><path class="cls-4" d="M330.86,306.99l-3.73-11.36h2.81l2.8,9.43h.39l2.83-9.43h2.81l-3.73,11.36h-4.19Z"/><path class="cls-4" d="M345.74,307.31c-1.13,0-2.14-.24-3-.72-.87-.48-1.54-1.17-2.02-2.05-.48-.88-.72-1.91-.72-3.09v-.28c0-1.2.24-2.23.71-3.1.47-.87,1.14-1.55,2-2.04.86-.48,1.85-.72,2.97-.72s2.07.24,2.9.72,1.47,1.16,1.93,2.04c.46.87.69,1.89.69,3.06v.94h-8.53c.03.89.34,1.6.94,2.14.6.54,1.33.8,2.21.8s1.5-.19,1.91-.56c.41-.38.73-.8.94-1.28l2.19,1.13c-.21.41-.53.85-.93,1.32-.41.47-.95.87-1.62,1.2-.68.33-1.53.49-2.55.49ZM342.68,300.07h5.82c-.06-.75-.35-1.35-.86-1.79-.51-.44-1.18-.67-1.99-.67s-1.52.22-2.02.67c-.51.44-.82,1.04-.94,1.79Z"/><path class="cls-4" d="M353.91,306.99v-11.36h2.6v1.31h.39c.17-.48.45-.82.85-1.04.4-.21.87-.32,1.43-.32h1.38v2.35h-1.43c-.77,0-1.39.2-1.86.61-.48.41-.71,1.03-.71,1.87v6.58h-2.65Z"/><path class="cls-4" d="M369.62,307.31c-1.07,0-1.9-.19-2.47-.56-.57-.38-.99-.79-1.25-1.25h-.39v1.49h-2.6v-16.1h2.65v6.16h.39c.17-.31.4-.59.7-.85.3-.26.69-.48,1.17-.64.48-.17,1.08-.25,1.81-.25.94,0,1.79.23,2.58.68.78.45,1.41,1.12,1.89,1.99s.71,1.92.71,3.15v.37c0,1.23-.24,2.28-.71,3.15-.48.87-1.11,1.54-1.9,1.99-.79.45-1.64.68-2.56.68ZM368.83,305.01c.95,0,1.74-.31,2.37-.93.63-.62.94-1.51.94-2.66v-.23c0-1.17-.31-2.05-.93-2.67-.62-.61-1.42-.92-2.38-.92s-1.74.31-2.38.92c-.64.61-.96,1.5-.96,2.67v.23c0,1.15.32,2.04.96,2.66.64.62,1.43.93,2.38.93Z"/><path class="cls-4" d="M381.12,307.31c-.8,0-1.52-.14-2.16-.43s-1.15-.69-1.53-1.23c-.38-.54-.56-1.2-.56-1.98s.19-1.41.56-1.93c.38-.52.89-.92,1.55-1.18.66-.27,1.41-.4,2.25-.4h3.29v-.69c0-.6-.18-1.08-.55-1.46-.37-.38-.94-.56-1.72-.56s-1.35.18-1.74.54c-.39.36-.65.82-.77,1.39l-2.44-.8c.18-.6.48-1.14.89-1.63.41-.49.95-.89,1.62-1.18.67-.3,1.5-.45,2.48-.45,1.49,0,2.66.37,3.51,1.12.85.74,1.28,1.82,1.28,3.23v4.46c0,.46.21.69.64.69h.97v2.19h-1.86c-.55,0-1-.14-1.36-.41s-.53-.65-.53-1.13v-.05h-.39c-.09.21-.25.48-.48.78-.23.31-.58.57-1.05.79-.47.22-1.1.33-1.9.33ZM381.55,305.15c.87,0,1.59-.25,2.14-.75.55-.5.83-1.17.83-2.01v-.23h-3.13c-.57,0-1.03.12-1.38.37-.35.25-.53.61-.53,1.08s.18.83.55,1.12c.37.28.87.43,1.52.43Z"/><path class="cls-4" d="M390.87,306.99v-16.1h2.64v16.1h-2.64Z"/><path class="cls-4" d="M10.34,340.31c-1.13,0-2.13-.24-3-.72-.87-.48-1.54-1.17-2.02-2.05-.48-.88-.72-1.91-.72-3.09v-.28c0-1.2.24-2.23.71-3.1.47-.87,1.14-1.55,2-2.04s1.85-.72,2.97-.72,2.07.24,2.9.72,1.47,1.16,1.93,2.04c.46.87.69,1.89.69,3.06v.94H7.26c.03.89.35,1.6.94,2.14.6.54,1.33.8,2.21.8s1.5-.19,1.91-.56c.41-.38.73-.8.94-1.28l2.18,1.13c-.21.41-.53.85-.93,1.32-.41.47-.95.87-1.62,1.2s-1.53.49-2.55.49ZM7.28,333.07h5.82c-.06-.75-.35-1.35-.86-1.79-.51-.44-1.18-.67-1.99-.67s-1.52.22-2.02.67c-.51.44-.82,1.04-.94,1.79Z"/><path class="cls-4" d="M18.5,339.99v-16.1h2.65v16.1h-2.65Z"/><path class="cls-4" d="M29.71,340.31c-1.13,0-2.13-.24-3-.72-.87-.48-1.54-1.17-2.02-2.05-.48-.88-.72-1.91-.72-3.09v-.28c0-1.2.24-2.23.71-3.1.47-.87,1.14-1.55,2-2.04s1.85-.72,2.97-.72,2.07.24,2.9.72,1.47,1.16,1.93,2.04c.46.87.69,1.89.69,3.06v.94h-8.53c.03.89.35,1.6.94,2.14.6.54,1.33.8,2.21.8s1.5-.19,1.91-.56c.41-.38.73-.8.94-1.28l2.18,1.13c-.21.41-.53.85-.93,1.32-.41.47-.95.87-1.62,1.2s-1.53.49-2.55.49ZM26.65,333.07h5.82c-.06-.75-.35-1.35-.86-1.79-.51-.44-1.18-.67-1.99-.67s-1.52.22-2.02.67c-.51.44-.82,1.04-.94,1.79Z"/><path class="cls-4" d="M37.87,339.99v-11.36h2.6v1.27h.39c.2-.38.53-.72,1-1.02.47-.3,1.09-.45,1.87-.45.83,0,1.5.17,2,.51.51.34.89.77,1.15,1.29h.37c.26-.52.64-.95,1.13-1.29.49-.34,1.19-.51,2.09-.51.71,0,1.34.15,1.92.46.57.31,1.04.76,1.38,1.36.34.6.52,1.34.52,2.23v7.52h-2.65v-7.34c0-.66-.18-1.16-.53-1.51-.35-.34-.84-.52-1.47-.52-.69,0-1.24.23-1.64.68-.41.45-.61,1.1-.61,1.94v6.74h-2.62v-7.34c0-.66-.18-1.16-.53-1.51-.35-.34-.84-.52-1.47-.52-.71,0-1.26.23-1.66.68-.4.45-.6,1.1-.6,1.94v6.74h-2.65Z"/><path class="cls-4" d="M62.73,340.31c-1.13,0-2.13-.24-3-.72-.87-.48-1.54-1.17-2.02-2.05-.48-.88-.72-1.91-.72-3.09v-.28c0-1.2.24-2.23.71-3.1.48-.87,1.14-1.55,2-2.04.86-.48,1.85-.72,2.97-.72s2.07.24,2.9.72,1.47,1.16,1.93,2.04c.46.87.69,1.89.69,3.06v.94h-8.53c.03.89.35,1.6.94,2.14.6.54,1.33.8,2.21.8s1.5-.19,1.91-.56c.41-.38.73-.8.94-1.28l2.18,1.13c-.21.41-.53.85-.93,1.32-.41.47-.95.87-1.62,1.2s-1.53.49-2.55.49ZM59.67,333.07h5.82c-.06-.75-.35-1.35-.86-1.79-.51-.44-1.18-.67-1.99-.67s-1.52.22-2.02.67c-.51.44-.82,1.04-.94,1.79Z"/><path class="cls-4" d="M70.9,339.99v-11.36h2.6v1.59h.39c.2-.43.56-.84,1.08-1.22.52-.38,1.31-.57,2.37-.57.87,0,1.65.2,2.32.6.68.4,1.2.95,1.58,1.66.38.71.56,1.54.56,2.51v6.81h-2.65v-6.6c0-.92-.23-1.61-.68-2.06-.45-.45-1.09-.68-1.92-.68-.94,0-1.67.31-2.21.93s-.8,1.51-.8,2.66v5.75h-2.64Z"/><path class="cls-4" d="M89.04,339.99c-.74,0-1.32-.22-1.76-.66s-.66-1.03-.66-1.78v-6.74h-2.97v-2.19h2.97v-3.66h2.65v3.66h3.27v2.19h-3.27v6.3c0,.46.21.69.64.69h2.28v2.19h-3.15Z"/><path class="cls-4" d="M99.92,340.31c-1.47,0-2.68-.32-3.63-.97-.95-.64-1.53-1.59-1.72-2.83l2.44-.62c.11.58.3,1.04.58,1.38.28.34.62.57,1.02.71.41.14.85.21,1.32.21.72,0,1.26-.13,1.62-.39.36-.26.54-.59.54-.99s-.17-.72-.52-.92c-.35-.2-.87-.37-1.58-.51l-.71-.11c-.78-.15-1.5-.36-2.14-.63-.64-.27-1.16-.64-1.55-1.1-.39-.47-.59-1.06-.59-1.78,0-1.1.41-1.95,1.23-2.55.82-.6,1.9-.9,3.23-.9s2.32.28,3.15.85c.83.57,1.36,1.33,1.61,2.28l-2.44.74c-.12-.64-.39-1.1-.8-1.37-.41-.27-.92-.4-1.52-.4s-1.08.11-1.41.32c-.33.21-.49.52-.49.92s.17.7.51.9c.34.2.79.34,1.36.44l.71.14c.84.15,1.61.35,2.29.6.68.25,1.22.6,1.62,1.06.4.46.6,1.08.6,1.86,0,1.18-.43,2.09-1.28,2.73-.85.64-2,.95-3.44.95Z"/><path class="cls-4" d="M108.94,340.31c-.58,0-1.07-.19-1.46-.58-.39-.38-.59-.87-.59-1.47s.2-1.07.59-1.45c.39-.38.88-.58,1.46-.58s1.06.19,1.45.58c.38.38.57.87.57,1.47s-.19,1.08-.57,1.46c-.38.38-.87.56-1.45.56Z"/><path class="cls-3" d="M35.02,406.16v-1.89h1.68v-8.7h-1.68v-1.89h6.38c.75,0,1.41.13,1.97.38.56.26,1,.62,1.32,1.09.31.47.47,1.03.47,1.69v.16c0,.57-.11,1.04-.32,1.41-.21.37-.47.65-.77.86-.3.2-.58.34-.86.43v.3c.27.07.57.21.88.4.31.2.58.48.8.86.22.37.33.86.33,1.45v.18c0,.68-.16,1.26-.49,1.76-.33.49-.77.87-1.34,1.13-.57.26-1.22.39-1.95.39h-6.44ZM38.84,398.9h2.35c.55,0,.99-.14,1.33-.41.34-.27.51-.65.51-1.14v-.18c0-.49-.17-.87-.51-1.14-.34-.27-.78-.41-1.33-.41h-2.35v3.28ZM38.84,404.22h2.37c.57,0,1.03-.14,1.36-.42.34-.28.51-.67.51-1.19v-.16c0-.51-.17-.91-.5-1.19-.33-.28-.79-.42-1.37-.42h-2.37v3.37Z"/><path class="cls-3" d="M47.33,406.16v-8.81h2.01v1.02h.3c.13-.37.35-.64.66-.8.31-.17.68-.25,1.11-.25h1.07v1.82h-1.11c-.59,0-1.08.16-1.44.47-.37.32-.55.8-.55,1.45v5.1h-2.05Z"/><path class="cls-3" d="M56.79,406.41c-.62,0-1.18-.11-1.68-.33-.5-.22-.9-.54-1.19-.95-.29-.42-.44-.93-.44-1.53s.14-1.09.44-1.5c.29-.4.69-.71,1.2-.92.51-.21,1.09-.31,1.75-.31h2.55v-.53c0-.46-.14-.84-.43-1.13-.29-.29-.73-.44-1.34-.44s-1.04.14-1.35.42c-.3.28-.5.64-.6,1.08l-1.89-.62c.14-.46.37-.89.69-1.27.31-.38.73-.69,1.26-.92.52-.23,1.17-.35,1.93-.35,1.15,0,2.06.29,2.72.86.66.58.99,1.41.99,2.51v3.46c0,.36.17.53.5.53h.75v1.69h-1.45c-.43,0-.78-.11-1.05-.32s-.41-.51-.41-.87v-.04h-.3c-.07.17-.2.37-.37.61-.18.24-.45.44-.81.62-.36.17-.85.26-1.47.26ZM57.13,404.73c.68,0,1.23-.19,1.66-.58.43-.39.64-.91.64-1.56v-.18h-2.42c-.44,0-.8.1-1.07.29-.27.19-.41.47-.41.84s.14.65.43.86c.29.22.68.33,1.18.33Z"/><path class="cls-3" d="M64.36,406.16v-8.81h2.02v1.23h.3c.15-.33.43-.65.84-.95.4-.3,1.02-.45,1.84-.45.68,0,1.28.15,1.8.46.52.31.93.74,1.22,1.28.29.55.44,1.19.44,1.94v5.28h-2.05v-5.12c0-.71-.18-1.25-.53-1.6-.35-.35-.85-.53-1.49-.53-.72,0-1.3.24-1.71.72-.42.48-.62,1.17-.62,2.06v4.46h-2.05Z"/><path class="cls-3" d="M78.92,406.41c-.71,0-1.38-.18-2-.53-.62-.35-1.11-.86-1.48-1.54-.37-.68-.55-1.49-.55-2.44v-.29c0-.95.18-1.77.55-2.44.37-.68.86-1.19,1.47-1.54.61-.35,1.28-.53,2.01-.53.55,0,1.01.07,1.39.2.38.13.69.3.92.5.23.2.41.42.54.66h.3v-4.78h2.03v12.48h-2v-1.16h-.3c-.21.36-.54.68-.98.97s-1.08.44-1.91.44ZM79.53,404.63c.74,0,1.35-.24,1.84-.72.49-.48.73-1.17.73-2.06v-.18c0-.9-.24-1.59-.72-2.07-.48-.48-1.1-.71-1.85-.71s-1.35.24-1.85.71c-.49.48-.74,1.17-.74,2.07v.18c0,.89.25,1.58.74,2.06.49.48,1.11.72,1.85.72Z"/><path class="cls-3" d="M91.26,406.16v-12.48h2.05v7.01h.3l3.17-3.33h2.69l-4.26,4.26,4.4,4.55h-2.66l-3.35-3.58h-.3v3.58h-2.05Z"/><path class="cls-3" d="M102.23,396.23c-.37,0-.69-.12-.95-.37-.27-.24-.4-.57-.4-.97s.13-.73.4-.97c.27-.24.59-.37.95-.37.39,0,.72.12.97.37.26.24.38.57.38.97s-.13.73-.38.97c-.26.24-.58.37-.97.37ZM101.21,406.16v-8.81h2.05v8.81h-2.05Z"/><path class="cls-3" d="M109.22,406.16c-.57,0-1.03-.17-1.36-.51-.34-.34-.51-.8-.51-1.38v-5.22h-2.3v-1.69h2.3v-2.84h2.05v2.84h2.53v1.69h-2.53v4.89c0,.36.17.53.5.53h1.77v1.69h-2.44Z"/><path class="cls-3" d="M117.66,406.41c-1.14,0-2.08-.25-2.82-.75-.74-.5-1.18-1.23-1.34-2.19l1.89-.48c.08.45.23.81.45,1.07.21.26.48.45.79.55.32.11.66.16,1.03.16.56,0,.98-.1,1.26-.3.28-.2.42-.46.42-.77s-.13-.56-.4-.71c-.27-.15-.67-.29-1.22-.39l-.55-.09c-.61-.12-1.16-.28-1.66-.49-.5-.21-.9-.49-1.2-.86-.3-.36-.45-.82-.45-1.38,0-.86.32-1.52.95-1.98.64-.46,1.47-.7,2.51-.7s1.8.22,2.44.66c.64.44,1.06,1.03,1.25,1.77l-1.89.57c-.1-.5-.3-.85-.62-1.06-.32-.21-.71-.31-1.18-.31s-.84.08-1.1.25c-.26.17-.38.4-.38.71s.13.54.39.7c.26.15.61.27,1.05.34l.55.11c.65.12,1.24.27,1.77.46.53.19.95.46,1.26.82.31.36.46.84.46,1.44,0,.92-.33,1.62-.99,2.11s-1.55.74-2.67.74Z"/><path class="cls-3" d="M40.17,433.97c-1,0-1.86-.18-2.58-.54-.72-.36-1.27-.89-1.66-1.58-.39-.69-.58-1.51-.58-2.46v-8.15h2.14v8.2c0,.83.23,1.47.7,1.93.46.45,1.12.68,1.98.68s1.53-.23,1.99-.68c.46-.45.69-1.09.69-1.93v-8.2h2.14v8.15c0,.95-.19,1.77-.57,2.46-.38.69-.93,1.22-1.66,1.58-.73.36-1.59.54-2.59.54Z"/><path class="cls-3" d="M51.11,433.97c-1.14,0-2.08-.25-2.82-.75-.74-.5-1.18-1.23-1.34-2.19l1.89-.48c.08.45.23.81.45,1.07.21.26.48.45.79.55.32.11.66.16,1.03.16.56,0,.98-.1,1.26-.3.28-.2.42-.46.42-.77s-.13-.56-.4-.71c-.27-.15-.67-.29-1.22-.39l-.55-.09c-.61-.12-1.16-.28-1.66-.49-.5-.21-.9-.49-1.2-.86-.3-.36-.45-.82-.45-1.38,0-.86.32-1.52.95-1.98.64-.46,1.47-.7,2.51-.7s1.8.22,2.44.66c.64.44,1.06,1.03,1.25,1.77l-1.89.57c-.1-.5-.3-.85-.62-1.06-.32-.21-.71-.31-1.18-.31s-.84.08-1.1.25c-.26.17-.38.4-.38.71s.13.54.39.7c.26.15.61.27,1.05.34l.55.11c.65.12,1.25.27,1.77.46.53.19.95.46,1.26.82.31.36.46.84.46,1.44,0,.92-.33,1.62-.99,2.11-.66.49-1.55.74-2.67.74Z"/><path class="cls-3" d="M59.49,433.97c-.62,0-1.18-.11-1.68-.33-.5-.22-.89-.54-1.19-.95-.29-.42-.44-.93-.44-1.53s.15-1.09.44-1.5c.29-.4.69-.71,1.2-.92.51-.21,1.09-.31,1.75-.31h2.55v-.53c0-.46-.14-.84-.43-1.13-.29-.29-.73-.44-1.34-.44s-1.04.14-1.35.42c-.3.28-.5.64-.6,1.08l-1.89-.62c.14-.46.37-.89.69-1.27.32-.38.73-.69,1.26-.92.52-.23,1.17-.35,1.93-.35,1.15,0,2.06.29,2.72.86.66.58.99,1.41.99,2.51v3.46c0,.36.17.53.5.53h.75v1.69h-1.44c-.43,0-.78-.11-1.05-.32s-.41-.51-.41-.87v-.04h-.3c-.07.17-.2.37-.38.61-.18.24-.45.44-.81.62-.36.17-.85.26-1.47.26ZM59.83,432.29c.68,0,1.23-.19,1.66-.58.43-.39.64-.91.64-1.56v-.18h-2.43c-.44,0-.8.1-1.07.29-.27.19-.41.47-.41.84s.14.65.43.86c.29.22.68.33,1.18.33Z"/><path class="cls-3" d="M66.42,429.35v-.27c0-.93.18-1.72.55-2.38.37-.66.86-1.16,1.48-1.52.62-.35,1.29-.53,2.03-.53.83,0,1.46.15,1.9.45.43.3.75.62.96.96h.3v-1.16h2v10.49c0,.58-.17,1.04-.5,1.38-.33.34-.79.51-1.36.51h-5.92v-1.78h5.22c.34,0,.52-.18.52-.53v-2.55h-.3c-.13.2-.31.41-.54.62-.23.21-.52.38-.89.53-.37.14-.83.21-1.39.21-.74,0-1.42-.18-2.03-.53-.62-.35-1.11-.86-1.48-1.52-.37-.66-.55-1.45-.55-2.38ZM71.06,431.97c.74,0,1.35-.23,1.84-.7.49-.47.73-1.13.73-1.97v-.18c0-.86-.24-1.52-.72-1.98-.48-.46-1.1-.7-1.85-.7s-1.35.23-1.85.7c-.49.46-.74,1.12-.74,1.98v.18c0,.84.25,1.5.74,1.97.49.47,1.11.7,1.85.7Z"/><path class="cls-3" d="M82.28,433.97c-.88,0-1.66-.19-2.33-.56-.67-.37-1.19-.9-1.57-1.59-.38-.68-.56-1.48-.56-2.4v-.21c0-.93.18-1.73.55-2.41s.89-1.2,1.55-1.58c.67-.37,1.43-.56,2.3-.56s1.6.19,2.25.56c.64.37,1.14.9,1.5,1.58.36.68.54,1.47.54,2.37v.73h-6.62c.02.69.27,1.24.73,1.66.46.42,1.03.62,1.71.62s1.16-.15,1.48-.44c.32-.29.56-.62.73-.99l1.69.87c-.17.32-.41.66-.72,1.03-.31.36-.73.67-1.26.93-.52.26-1.18.38-1.98.38ZM79.91,428.35h4.51c-.05-.58-.27-1.05-.67-1.39-.4-.34-.91-.52-1.54-.52s-1.18.17-1.57.52c-.39.34-.64.81-.73,1.39Z"/><path class="cls-3" d="M92.73,429.35v-.27c0-.93.18-1.72.55-2.38.37-.66.86-1.16,1.48-1.52.62-.35,1.29-.53,2.03-.53.83,0,1.47.15,1.9.45.43.3.75.62.95.96h.3v-1.16h2v10.49c0,.58-.17,1.04-.5,1.38-.33.34-.78.51-1.35.51h-5.92v-1.78h5.22c.34,0,.52-.18.52-.53v-2.55h-.3c-.13.2-.31.41-.54.62-.23.21-.52.38-.89.53-.37.14-.83.21-1.39.21-.74,0-1.42-.18-2.03-.53-.62-.35-1.11-.86-1.48-1.52-.37-.66-.55-1.45-.55-2.38ZM97.36,431.97c.74,0,1.35-.23,1.84-.7.49-.47.73-1.13.73-1.97v-.18c0-.86-.24-1.52-.72-1.98-.48-.46-1.1-.7-1.85-.7s-1.35.23-1.85.7c-.49.46-.74,1.12-.74,1.98v.18c0,.84.25,1.5.74,1.97.49.47,1.11.7,1.85.7Z"/><path class="cls-3" d="M107.92,433.86c-.68,0-1.28-.15-1.8-.45-.52-.3-.93-.73-1.21-1.28-.29-.55-.43-1.2-.43-1.93v-5.28h2.03v5.12c0,.71.17,1.24.53,1.59.35.34.85.52,1.49.52.73,0,1.3-.24,1.72-.71.42-.48.63-1.16.63-2.05v-4.46h2.03v8.81h-2v-1.23h-.3c-.16.32-.44.63-.85.93-.41.3-1.03.45-1.85.45Z"/><path class="cls-3" d="M116.53,423.79c-.37,0-.69-.12-.96-.37-.27-.24-.4-.57-.4-.97s.13-.73.4-.97c.27-.24.59-.37.96-.37.39,0,.71.12.97.37.26.24.38.57.38.97s-.13.73-.38.97c-.26.24-.58.37-.97.37ZM115.52,433.72v-8.81h2.05v8.81h-2.05Z"/><path class="cls-3" d="M123.77,433.97c-.71,0-1.38-.18-2-.53-.62-.35-1.11-.86-1.48-1.54-.37-.68-.55-1.49-.55-2.44v-.29c0-.95.18-1.77.55-2.44.37-.68.86-1.19,1.47-1.54.61-.35,1.28-.53,2.01-.53.55,0,1.01.07,1.39.2.38.13.69.3.92.5.23.2.41.42.54.66h.3v-4.78h2.03v12.48h-2v-1.16h-.3c-.21.36-.54.68-.98.97s-1.08.44-1.91.44ZM124.38,432.19c.74,0,1.35-.24,1.84-.72.49-.48.73-1.17.73-2.06v-.18c0-.9-.24-1.59-.72-2.07-.48-.48-1.1-.71-1.85-.71s-1.35.24-1.85.71c-.49.48-.74,1.17-.74,2.07v.18c0,.89.25,1.58.74,2.06.49.48,1.11.72,1.85.72Z"/><path class="cls-3" d="M135.59,433.97c-.88,0-1.66-.19-2.33-.56-.67-.37-1.2-.9-1.57-1.59-.37-.68-.56-1.48-.56-2.4v-.21c0-.93.18-1.73.55-2.41.37-.68.88-1.2,1.55-1.58.67-.37,1.43-.56,2.3-.56s1.61.19,2.25.56c.64.37,1.14.9,1.5,1.58.36.68.54,1.47.54,2.37v.73h-6.62c.02.69.27,1.24.73,1.66.46.42,1.04.62,1.71.62s1.16-.15,1.48-.44c.32-.29.57-.62.73-.99l1.69.87c-.17.32-.41.66-.72,1.03-.32.36-.73.67-1.26.93s-1.18.38-1.98.38ZM133.22,428.35h4.51c-.05-.58-.27-1.05-.67-1.39-.4-.34-.91-.52-1.54-.52s-1.18.17-1.57.52c-.39.34-.64.81-.73,1.39Z"/><path class="cls-3" d="M141.93,433.72v-12.48h2.05v12.48h-2.05Z"/><path class="cls-3" d="M147.6,423.79c-.37,0-.69-.12-.95-.37-.27-.24-.4-.57-.4-.97s.13-.73.4-.97c.27-.24.58-.37.95-.37.39,0,.72.12.97.37.25.24.38.57.38.97s-.13.73-.38.97c-.26.24-.58.37-.97.37ZM146.58,433.72v-8.81h2.05v8.81h-2.05Z"/><path class="cls-3" d="M151.23,433.72v-8.81h2.01v1.23h.3c.15-.33.43-.65.84-.95.4-.3,1.02-.45,1.84-.45.68,0,1.28.15,1.8.46.52.31.93.74,1.22,1.28.29.55.44,1.19.44,1.94v5.28h-2.05v-5.12c0-.71-.18-1.25-.53-1.6-.35-.35-.85-.53-1.49-.53-.73,0-1.3.24-1.71.72-.42.48-.62,1.17-.62,2.06v4.46h-2.05Z"/><path class="cls-3" d="M166.23,433.97c-.88,0-1.66-.19-2.33-.56-.67-.37-1.19-.9-1.57-1.59-.38-.68-.56-1.48-.56-2.4v-.21c0-.93.18-1.73.55-2.41.37-.68.89-1.2,1.55-1.58.67-.37,1.43-.56,2.3-.56s1.61.19,2.25.56c.64.37,1.14.9,1.5,1.58s.54,1.47.54,2.37v.73h-6.62c.02.69.27,1.24.73,1.66.46.42,1.03.62,1.71.62s1.16-.15,1.48-.44c.32-.29.56-.62.73-.99l1.69.87c-.17.32-.41.66-.72,1.03-.32.36-.73.67-1.26.93s-1.18.38-1.98.38ZM163.86,428.35h4.51c-.05-.58-.27-1.05-.67-1.39-.4-.34-.91-.52-1.54-.52s-1.18.17-1.57.52c-.39.34-.64.81-.73,1.39Z"/><path class="cls-3" d="M176.2,433.97c-1.14,0-2.08-.25-2.82-.75-.74-.5-1.18-1.23-1.34-2.19l1.89-.48c.08.45.23.81.45,1.07.21.26.48.45.79.55.32.11.66.16,1.03.16.56,0,.98-.1,1.26-.3.28-.2.42-.46.42-.77s-.13-.56-.4-.71c-.27-.15-.67-.29-1.22-.39l-.55-.09c-.61-.12-1.16-.28-1.66-.49-.5-.21-.9-.49-1.2-.86-.3-.36-.45-.82-.45-1.38,0-.86.32-1.52.95-1.98.64-.46,1.47-.7,2.51-.7s1.8.22,2.44.66c.64.44,1.06,1.03,1.25,1.77l-1.89.57c-.1-.5-.3-.85-.62-1.06-.32-.21-.71-.31-1.18-.31s-.84.08-1.1.25c-.26.17-.38.4-.38.71s.13.54.39.7c.26.15.61.27,1.05.34l.55.11c.65.12,1.24.27,1.77.46.53.19.95.46,1.26.82.31.36.46.84.46,1.44,0,.92-.33,1.62-.99,2.11s-1.55.74-2.67.74Z"/><path class="cls-3" d="M38.37,461.28v-10.54h-3.73v-1.94h9.59v1.94h-3.73v10.54h-2.14Z"/><path class="cls-3" d="M48.45,461.53c-.88,0-1.67-.18-2.36-.54-.7-.36-1.24-.88-1.64-1.55-.4-.67-.6-1.48-.6-2.42v-.29c0-.94.2-1.75.6-2.43.4-.68.95-1.19,1.64-1.55.7-.36,1.48-.53,2.36-.53s1.66.18,2.35.53c.69.36,1.23.87,1.63,1.55.4.68.6,1.49.6,2.43v.29c0,.94-.2,1.74-.6,2.42-.4.67-.94,1.19-1.63,1.55-.69.36-1.47.54-2.35.54ZM48.45,459.71c.75,0,1.36-.24,1.84-.72.48-.48.71-1.16.71-2.02v-.18c0-.87-.24-1.54-.71-2.02-.47-.48-1.09-.72-1.84-.72s-1.36.24-1.84.72c-.48.48-.71,1.16-.71,2.02v.18c0,.87.24,1.54.71,2.02.48.48,1.09.72,1.84.72Z"/><path class="cls-3" d="M55.21,461.28v-8.81h2.02v1.23h.3c.15-.33.43-.65.84-.95.4-.3,1.02-.45,1.84-.45.68,0,1.28.15,1.8.46.52.31.93.74,1.22,1.28.29.55.44,1.19.44,1.94v5.28h-2.05v-5.12c0-.71-.18-1.25-.53-1.6-.35-.35-.85-.53-1.49-.53-.72,0-1.29.24-1.71.72-.42.48-.62,1.17-.62,2.06v4.46h-2.05Z"/><path class="cls-3" d="M70.21,461.53c-.88,0-1.66-.19-2.33-.56-.67-.37-1.19-.9-1.57-1.59-.38-.68-.56-1.48-.56-2.4v-.21c0-.93.18-1.73.55-2.41.37-.68.89-1.2,1.55-1.58.67-.37,1.43-.56,2.3-.56s1.61.19,2.25.56c.64.37,1.14.9,1.5,1.58s.54,1.47.54,2.37v.73h-6.62c.02.69.27,1.24.73,1.66.46.42,1.03.62,1.71.62s1.16-.15,1.48-.44c.32-.29.56-.62.73-.99l1.69.87c-.17.32-.41.66-.72,1.03-.32.36-.73.67-1.26.93s-1.18.38-1.98.38ZM67.83,455.91h4.51c-.05-.58-.27-1.05-.67-1.39-.4-.34-.91-.52-1.54-.52s-1.18.17-1.57.52c-.39.34-.64.81-.73,1.39Z"/><path class="cls-3" d="M83.81,461.53c-.62,0-1.18-.11-1.68-.33-.5-.22-.9-.54-1.19-.95-.29-.42-.44-.93-.44-1.53s.14-1.09.44-1.5c.29-.4.69-.71,1.2-.92.51-.21,1.09-.31,1.75-.31h2.55v-.53c0-.46-.14-.84-.43-1.13-.29-.29-.73-.44-1.34-.44s-1.04.14-1.35.42c-.3.28-.5.64-.6,1.08l-1.89-.62c.14-.46.37-.89.69-1.27.31-.38.73-.69,1.26-.92.52-.23,1.17-.35,1.93-.35,1.15,0,2.06.29,2.72.86.66.58.99,1.41.99,2.51v3.46c0,.36.17.53.5.53h.75v1.69h-1.45c-.43,0-.78-.11-1.05-.32s-.41-.51-.41-.87v-.04h-.3c-.07.17-.2.37-.37.61-.18.24-.45.44-.81.62-.36.17-.85.26-1.47.26ZM84.15,459.85c.68,0,1.23-.19,1.66-.58.43-.39.64-.91.64-1.56v-.18h-2.42c-.44,0-.8.1-1.07.29-.27.19-.41.47-.41.84s.14.65.43.86c.29.22.68.33,1.18.33Z"/><path class="cls-3" d="M91.37,461.28v-8.81h2.02v1.23h.3c.15-.33.43-.65.84-.95.4-.3,1.02-.45,1.84-.45.68,0,1.28.15,1.8.46.52.31.93.74,1.22,1.28.29.55.44,1.19.44,1.94v5.28h-2.05v-5.12c0-.71-.18-1.25-.53-1.6-.35-.35-.85-.53-1.49-.53-.72,0-1.3.24-1.71.72-.42.48-.62,1.17-.62,2.06v4.46h-2.05Z"/><path class="cls-3" d="M105.94,461.53c-.71,0-1.38-.18-2-.53-.62-.35-1.11-.86-1.48-1.54-.37-.68-.55-1.49-.55-2.44v-.29c0-.95.18-1.77.55-2.44.37-.68.86-1.19,1.47-1.54.61-.35,1.28-.53,2.01-.53.55,0,1.01.07,1.39.2.38.13.69.3.92.5.23.2.41.42.54.66h.3v-4.78h2.03v12.48h-2v-1.16h-.3c-.21.36-.54.68-.98.97s-1.08.44-1.91.44ZM106.55,459.75c.74,0,1.35-.24,1.84-.72.49-.48.73-1.17.73-2.06v-.18c0-.9-.24-1.59-.72-2.07-.48-.48-1.1-.71-1.85-.71s-1.35.24-1.85.71c-.49.48-.74,1.17-.74,2.07v.18c0,.89.25,1.58.74,2.06.49.48,1.11.72,1.85.72Z"/><path class="cls-3" d="M120.22,461.28l-2.89-8.81h2.18l2.18,7.31h.3l2.19-7.31h2.18l-2.89,8.81h-3.25Z"/><path class="cls-3" d="M131.9,461.53c-.88,0-1.67-.18-2.36-.54-.7-.36-1.24-.88-1.64-1.55-.4-.67-.6-1.48-.6-2.42v-.29c0-.94.2-1.75.6-2.43.4-.68.95-1.19,1.64-1.55.7-.36,1.48-.53,2.36-.53s1.66.18,2.35.53c.69.36,1.23.87,1.63,1.55.4.68.6,1.49.6,2.43v.29c0,.94-.2,1.74-.6,2.42-.4.67-.94,1.19-1.63,1.55-.69.36-1.47.54-2.35.54ZM131.9,459.71c.75,0,1.36-.24,1.84-.72.48-.48.71-1.16.71-2.02v-.18c0-.87-.24-1.54-.71-2.02-.48-.48-1.09-.72-1.84-.72s-1.36.24-1.84.72c-.47.48-.71,1.16-.71,2.02v.18c0,.87.24,1.54.71,2.02.48.48,1.09.72,1.84.72Z"/><path class="cls-3" d="M139.68,451.35c-.37,0-.69-.12-.95-.37-.27-.24-.4-.57-.4-.97s.13-.73.4-.97c.27-.24.59-.37.95-.37.39,0,.72.12.97.37.26.24.38.57.38.97s-.13.73-.38.97c-.26.24-.58.37-.97.37ZM138.66,461.28v-8.81h2.05v8.81h-2.05Z"/><path class="cls-3" d="M147.44,461.53c-.86,0-1.63-.18-2.32-.53-.69-.36-1.23-.87-1.63-1.55-.4-.68-.6-1.49-.6-2.44v-.25c0-.95.2-1.77.6-2.44.4-.68.94-1.19,1.63-1.55.69-.36,1.46-.53,2.32-.53s1.57.15,2.17.45c.6.3,1.08.7,1.45,1.22.37.52.61,1.1.71,1.74l-1.98.41c-.05-.37-.16-.7-.34-1.01s-.43-.54-.76-.72c-.33-.18-.73-.27-1.2-.27s-.92.1-1.31.31c-.39.21-.69.52-.91.94-.22.42-.33.92-.33,1.5v.18c0,.58.11,1.08.33,1.49s.52.72.91.94.82.32,1.31.32c.73,0,1.28-.19,1.65-.56.37-.37.61-.86.7-1.45l1.98.46c-.14.62-.4,1.18-.77,1.69-.37.51-.85.92-1.45,1.22-.6.3-1.32.45-2.17.45Z"/><path class="cls-3" d="M157.85,461.53c-.88,0-1.66-.19-2.33-.56-.67-.37-1.19-.9-1.57-1.59-.38-.68-.56-1.48-.56-2.4v-.21c0-.93.18-1.73.55-2.41.37-.68.89-1.2,1.55-1.58.67-.37,1.43-.56,2.3-.56s1.61.19,2.25.56c.64.37,1.14.9,1.5,1.58s.54,1.47.54,2.37v.73h-6.62c.02.69.27,1.24.73,1.66.46.42,1.03.62,1.71.62s1.16-.15,1.48-.44c.32-.29.56-.62.73-.99l1.69.87c-.17.32-.41.66-.72,1.03-.32.36-.73.67-1.26.93s-1.18.38-1.98.38ZM155.48,455.91h4.51c-.05-.58-.27-1.05-.67-1.39-.4-.34-.91-.52-1.54-.52s-1.18.17-1.57.52c-.39.34-.64.81-.73,1.39Z"/><path class="cls-3" d="M35.02,488.84v-1.89h1.68v-8.7h-1.68v-1.89h6.38c.75,0,1.41.13,1.97.38.56.26,1,.62,1.32,1.09.31.47.47,1.03.47,1.69v.16c0,.57-.11,1.04-.32,1.41-.21.37-.47.65-.77.86-.3.2-.58.34-.86.43v.3c.27.07.57.21.88.4.31.2.58.48.8.86.22.37.33.86.33,1.45v.18c0,.68-.16,1.26-.49,1.76-.33.49-.77.87-1.34,1.13-.57.26-1.22.39-1.95.39h-6.44ZM38.84,481.58h2.35c.55,0,.99-.14,1.33-.41.34-.27.51-.65.51-1.14v-.18c0-.49-.17-.87-.51-1.14-.34-.27-.78-.41-1.33-.41h-2.35v3.28ZM38.84,486.89h2.37c.57,0,1.03-.14,1.36-.42.34-.28.51-.67.51-1.19v-.16c0-.51-.17-.91-.5-1.19-.33-.28-.79-.42-1.37-.42h-2.37v3.37Z"/><path class="cls-3" d="M47.33,488.84v-8.81h2.01v1.02h.3c.13-.37.35-.64.66-.8.31-.17.68-.25,1.11-.25h1.07v1.82h-1.11c-.59,0-1.08.16-1.44.47-.37.32-.55.8-.55,1.45v5.1h-2.05Z"/><path class="cls-3" d="M56.79,489.09c-.62,0-1.18-.11-1.68-.33-.5-.22-.9-.54-1.19-.95-.29-.42-.44-.93-.44-1.53s.14-1.09.44-1.5c.29-.4.69-.71,1.2-.92.51-.21,1.09-.31,1.75-.31h2.55v-.53c0-.46-.14-.84-.43-1.13-.29-.29-.73-.44-1.34-.44s-1.04.14-1.35.42c-.3.28-.5.64-.6,1.08l-1.89-.62c.14-.46.37-.89.69-1.27.31-.38.73-.69,1.26-.92.52-.23,1.17-.35,1.93-.35,1.15,0,2.06.29,2.72.86.66.58.99,1.41.99,2.51v3.46c0,.36.17.53.5.53h.75v1.69h-1.45c-.43,0-.78-.11-1.05-.32s-.41-.51-.41-.87v-.04h-.3c-.07.17-.2.37-.37.61-.18.24-.45.44-.81.62-.36.17-.85.26-1.47.26ZM57.13,487.41c.68,0,1.23-.19,1.66-.58.43-.39.64-.91.64-1.56v-.18h-2.42c-.44,0-.8.1-1.07.29-.27.19-.41.47-.41.84s.14.65.43.86c.29.22.68.33,1.18.33Z"/><path class="cls-3" d="M64.36,488.84v-8.81h2.02v1.23h.3c.15-.33.43-.65.84-.95.4-.3,1.02-.45,1.84-.45.68,0,1.28.15,1.8.46.52.31.93.74,1.22,1.28.29.55.44,1.19.44,1.94v5.28h-2.05v-5.12c0-.71-.18-1.25-.53-1.6-.35-.35-.85-.53-1.49-.53-.72,0-1.3.24-1.71.72-.42.48-.62,1.17-.62,2.06v4.46h-2.05Z"/><path class="cls-3" d="M78.92,489.09c-.71,0-1.38-.18-2-.53-.62-.35-1.11-.86-1.48-1.54-.37-.68-.55-1.49-.55-2.44v-.29c0-.95.18-1.77.55-2.44.37-.68.86-1.19,1.47-1.54.61-.35,1.28-.53,2.01-.53.55,0,1.01.07,1.39.2.38.13.69.3.92.5.23.2.41.42.54.66h.3v-4.78h2.03v12.48h-2v-1.16h-.3c-.21.36-.54.68-.98.97s-1.08.44-1.91.44ZM79.53,487.3c.74,0,1.35-.24,1.84-.72.49-.48.73-1.17.73-2.06v-.18c0-.9-.24-1.59-.72-2.07-.48-.48-1.1-.71-1.85-.71s-1.35.24-1.85.71c-.49.48-.74,1.17-.74,2.07v.18c0,.89.25,1.58.74,2.06.49.48,1.11.72,1.85.72Z"/><path class="cls-3" d="M93.99,489.09c-.62,0-1.18-.11-1.68-.33-.5-.22-.89-.54-1.19-.95-.29-.42-.44-.93-.44-1.53s.15-1.09.44-1.5c.29-.4.69-.71,1.2-.92.51-.21,1.09-.31,1.75-.31h2.55v-.53c0-.46-.14-.84-.43-1.13-.29-.29-.73-.44-1.34-.44s-1.04.14-1.35.42c-.3.28-.5.64-.6,1.08l-1.89-.62c.14-.46.37-.89.69-1.27.31-.38.73-.69,1.26-.92.52-.23,1.16-.35,1.93-.35,1.15,0,2.06.29,2.72.86.66.58.99,1.41.99,2.51v3.46c0,.36.17.53.5.53h.75v1.69h-1.44c-.43,0-.78-.11-1.05-.32s-.41-.51-.41-.87v-.04h-.3c-.07.17-.2.37-.37.61-.18.24-.45.44-.81.62s-.85.26-1.47.26ZM94.33,487.41c.68,0,1.23-.19,1.66-.58.43-.39.64-.91.64-1.56v-.18h-2.42c-.44,0-.8.1-1.07.29-.27.19-.41.47-.41.84s.14.65.43.86c.29.22.68.33,1.18.33Z"/><path class="cls-3" d="M101.55,492.4v-12.38h2.02v1.16h.3c.2-.37.53-.7.97-.98.45-.29,1.08-.43,1.92-.43.71,0,1.38.18,1.99.53.61.35,1.1.86,1.47,1.54.37.68.55,1.49.55,2.44v.29c0,.95-.18,1.77-.55,2.44-.37.68-.86,1.19-1.46,1.54-.61.35-1.27.53-2,.53-.56,0-1.03-.07-1.4-.2-.37-.13-.68-.3-.91-.52-.23-.21-.41-.43-.54-.64h-.3v4.67h-2.05ZM106.15,487.3c.75,0,1.36-.24,1.85-.72.48-.48.72-1.17.72-2.06v-.18c0-.9-.24-1.59-.73-2.07-.49-.48-1.1-.71-1.84-.71s-1.35.24-1.85.71c-.49.48-.74,1.17-.74,2.07v.18c0,.89.25,1.58.74,2.06.49.48,1.11.72,1.85.72Z"/><path class="cls-3" d="M112.95,492.4v-12.38h2.01v1.16h.3c.2-.37.53-.7.97-.98s1.08-.43,1.92-.43c.71,0,1.38.18,1.99.53.61.35,1.1.86,1.47,1.54.37.68.55,1.49.55,2.44v.29c0,.95-.19,1.77-.55,2.44-.37.68-.86,1.19-1.46,1.54-.61.35-1.27.53-2,.53-.56,0-1.03-.07-1.4-.2-.38-.13-.68-.3-.91-.52-.23-.21-.41-.43-.54-.64h-.3v4.67h-2.05ZM117.55,487.3c.75,0,1.36-.24,1.85-.72.48-.48.72-1.17.72-2.06v-.18c0-.9-.24-1.59-.73-2.07-.49-.48-1.1-.71-1.84-.71s-1.35.24-1.85.71c-.49.48-.74,1.17-.74,2.07v.18c0,.89.25,1.58.74,2.06.49.48,1.11.72,1.85.72Z"/><path class="cls-3" d="M124.34,488.84v-12.48h2.05v12.48h-2.05Z"/><path class="cls-3" d="M130.01,478.91c-.37,0-.69-.12-.95-.37-.27-.24-.4-.57-.4-.97s.13-.73.4-.97c.27-.24.58-.37.95-.37.39,0,.72.12.97.37.25.24.38.57.38.97s-.13.73-.38.97c-.26.24-.58.37-.97.37ZM129,488.84v-8.81h2.05v8.81h-2.05Z"/><path class="cls-3" d="M137.77,489.09c-.86,0-1.63-.18-2.32-.53-.69-.36-1.23-.87-1.63-1.55-.4-.68-.6-1.49-.6-2.44v-.25c0-.95.2-1.77.6-2.44.4-.68.94-1.19,1.63-1.55.69-.36,1.46-.53,2.32-.53s1.57.15,2.17.45c.6.3,1.08.7,1.45,1.22.37.52.61,1.1.71,1.74l-1.98.41c-.05-.37-.16-.7-.34-1.01s-.43-.54-.76-.72c-.33-.18-.73-.27-1.2-.27s-.93.1-1.31.31c-.39.21-.69.52-.91.94-.22.42-.33.92-.33,1.5v.18c0,.58.11,1.08.33,1.49.22.41.52.72.91.94.38.21.82.32,1.31.32.72,0,1.27-.19,1.65-.56.38-.37.61-.86.71-1.45l1.98.46c-.14.62-.4,1.18-.77,1.69-.37.51-.85.92-1.45,1.22-.6.3-1.32.45-2.17.45Z"/><path class="cls-3" d="M146.88,489.09c-.62,0-1.18-.11-1.68-.33s-.9-.54-1.19-.95c-.29-.42-.44-.93-.44-1.53s.15-1.09.44-1.5c.29-.4.69-.71,1.2-.92.51-.21,1.09-.31,1.75-.31h2.55v-.53c0-.46-.14-.84-.43-1.13-.29-.29-.73-.44-1.34-.44s-1.04.14-1.35.42c-.3.28-.5.64-.6,1.08l-1.89-.62c.14-.46.37-.89.69-1.27.32-.38.73-.69,1.26-.92.52-.23,1.17-.35,1.93-.35,1.15,0,2.06.29,2.72.86.66.58.99,1.41.99,2.51v3.46c0,.36.17.53.5.53h.75v1.69h-1.44c-.43,0-.78-.11-1.05-.32s-.41-.51-.41-.87v-.04h-.3c-.07.17-.2.37-.38.61-.18.24-.45.44-.81.62-.36.17-.85.26-1.47.26ZM147.22,487.41c.68,0,1.23-.19,1.66-.58.43-.39.64-.91.64-1.56v-.18h-2.43c-.44,0-.8.1-1.07.29-.27.19-.41.47-.41.84s.14.65.43.86c.29.22.68.33,1.18.33Z"/><path class="cls-3" d="M157.17,488.84c-.57,0-1.03-.17-1.36-.51-.34-.34-.51-.8-.51-1.38v-5.22h-2.3v-1.69h2.3v-2.84h2.05v2.84h2.53v1.69h-2.53v4.89c0,.36.17.53.5.53h1.77v1.69h-2.44Z"/><path class="cls-3" d="M162.98,478.91c-.37,0-.69-.12-.95-.37-.27-.24-.4-.57-.4-.97s.13-.73.4-.97c.27-.24.58-.37.95-.37.39,0,.72.12.97.37.25.24.38.57.38.97s-.13.73-.38.97c-.26.24-.58.37-.97.37ZM161.97,488.84v-8.81h2.05v8.81h-2.05Z"/><path class="cls-3" d="M170.79,489.09c-.88,0-1.67-.18-2.36-.54-.7-.36-1.24-.88-1.64-1.55-.4-.67-.6-1.48-.6-2.42v-.29c0-.94.2-1.75.6-2.43.4-.68.95-1.19,1.64-1.55.7-.36,1.48-.53,2.36-.53s1.66.18,2.35.53c.69.36,1.23.87,1.63,1.55.4.68.6,1.49.6,2.43v.29c0,.94-.2,1.74-.6,2.42-.4.67-.94,1.19-1.63,1.55-.69.36-1.47.54-2.35.54ZM170.79,487.27c.75,0,1.36-.24,1.84-.72.48-.48.71-1.16.71-2.02v-.18c0-.87-.24-1.54-.71-2.02-.48-.48-1.09-.72-1.84-.72s-1.36.24-1.84.72c-.48.48-.71,1.16-.71,2.02v.18c0,.87.24,1.54.71,2.02.47.48,1.09.72,1.84.72Z"/><path class="cls-3" d="M177.55,488.84v-8.81h2.01v1.23h.3c.15-.33.43-.65.84-.95.4-.3,1.02-.45,1.84-.45.68,0,1.28.15,1.8.46.52.31.93.74,1.22,1.28.29.55.44,1.19.44,1.94v5.28h-2.05v-5.12c0-.71-.18-1.25-.53-1.6-.35-.35-.85-.53-1.49-.53-.73,0-1.3.24-1.71.72-.42.48-.62,1.17-.62,2.06v4.46h-2.05Z"/><path class="cls-3" d="M197.1,489.09c-.88,0-1.66-.19-2.33-.56-.67-.37-1.19-.9-1.57-1.59-.38-.68-.56-1.48-.56-2.4v-.21c0-.93.18-1.73.55-2.41s.89-1.2,1.55-1.58c.67-.37,1.43-.56,2.3-.56s1.6.19,2.25.56c.64.37,1.14.9,1.5,1.58.36.68.54,1.47.54,2.37v.73h-6.62c.02.69.27,1.24.73,1.66.46.42,1.03.62,1.71.62s1.16-.15,1.48-.44c.32-.29.56-.62.73-.99l1.69.87c-.17.32-.41.66-.72,1.03-.31.36-.73.67-1.26.93-.52.26-1.18.38-1.98.38ZM194.73,483.47h4.51c-.05-.58-.27-1.05-.67-1.39-.4-.34-.91-.52-1.54-.52s-1.18.17-1.57.52c-.39.34-.64.81-.73,1.39Z"/><path class="cls-3" d="M202.09,488.84l3.28-4.44-3.23-4.37h2.39l2.16,3.05h.3l2.16-3.05h2.37l-3.23,4.37,3.28,4.44h-2.41l-2.18-3.1h-.3l-2.18,3.1h-2.43Z"/><path class="cls-3" d="M215.98,489.09c-.62,0-1.18-.11-1.68-.33s-.9-.54-1.19-.95c-.29-.42-.44-.93-.44-1.53s.15-1.09.44-1.5c.29-.4.69-.71,1.2-.92.51-.21,1.09-.31,1.75-.31h2.55v-.53c0-.46-.14-.84-.43-1.13-.29-.29-.73-.44-1.34-.44s-1.04.14-1.35.42c-.3.28-.5.64-.6,1.08l-1.89-.62c.14-.46.37-.89.69-1.27.32-.38.73-.69,1.26-.92.52-.23,1.17-.35,1.93-.35,1.15,0,2.06.29,2.72.86.66.58.99,1.41.99,2.51v3.46c0,.36.17.53.5.53h.75v1.69h-1.44c-.43,0-.78-.11-1.05-.32s-.41-.51-.41-.87v-.04h-.3c-.07.17-.2.37-.38.61-.18.24-.45.44-.81.62-.36.17-.85.26-1.47.26ZM216.32,487.41c.68,0,1.23-.19,1.66-.58.43-.39.64-.91.64-1.56v-.18h-2.43c-.44,0-.8.1-1.07.29-.27.19-.41.47-.41.84s.14.65.43.86c.29.22.68.33,1.18.33Z"/><path class="cls-3" d="M223.54,488.84v-8.81h2.02v.98h.3c.15-.3.41-.56.78-.79s.85-.35,1.45-.35c.64,0,1.16.13,1.55.39.39.26.69.59.89,1h.29c.2-.4.49-.74.87-1,.38-.26.92-.39,1.62-.39.55,0,1.04.12,1.49.36.45.24.8.59,1.07,1.05s.4,1.04.4,1.73v5.83h-2.05v-5.69c0-.51-.14-.9-.41-1.17s-.65-.4-1.14-.4c-.54,0-.96.18-1.28.53-.32.35-.47.85-.47,1.51v5.22h-2.03v-5.69c0-.51-.14-.9-.41-1.17s-.65-.4-1.14-.4c-.55,0-.98.18-1.29.53-.31.35-.46.85-.46,1.51v5.22h-2.05Z"/><path class="cls-3" d="M238.79,492.4v-12.38h2.02v1.16h.3c.2-.37.53-.7.97-.98.45-.29,1.08-.43,1.92-.43.71,0,1.38.18,1.99.53.61.35,1.1.86,1.47,1.54.37.68.55,1.49.55,2.44v.29c0,.95-.18,1.77-.55,2.44-.37.68-.86,1.19-1.46,1.54-.61.35-1.27.53-2,.53-.56,0-1.03-.07-1.4-.2-.37-.13-.68-.3-.91-.52-.23-.21-.41-.43-.54-.64h-.3v4.67h-2.05ZM243.39,487.3c.75,0,1.36-.24,1.85-.72.48-.48.72-1.17.72-2.06v-.18c0-.9-.24-1.59-.73-2.07-.49-.48-1.1-.71-1.84-.71s-1.35.24-1.85.71c-.49.48-.74,1.17-.74,2.07v.18c0,.89.25,1.58.74,2.06.49.48,1.11.72,1.85.72Z"/><path class="cls-3" d="M250.18,488.84v-12.48h2.05v12.48h-2.05Z"/><path class="cls-3" d="M258.87,489.09c-.88,0-1.66-.19-2.33-.56-.67-.37-1.2-.9-1.57-1.59-.37-.68-.56-1.48-.56-2.4v-.21c0-.93.18-1.73.55-2.41.37-.68.88-1.2,1.55-1.58.67-.37,1.43-.56,2.3-.56s1.61.19,2.25.56c.64.37,1.14.9,1.5,1.58.36.68.54,1.47.54,2.37v.73h-6.62c.02.69.27,1.24.73,1.66.46.42,1.04.62,1.71.62s1.16-.15,1.48-.44c.32-.29.57-.62.73-.99l1.69.87c-.17.32-.41.66-.72,1.03-.32.36-.73.67-1.26.93s-1.18.38-1.98.38ZM256.5,483.47h4.51c-.05-.58-.27-1.05-.67-1.39-.4-.34-.91-.52-1.54-.52s-1.18.17-1.57.52c-.39.34-.64.81-.73,1.39Z"/><path class="cls-3" d="M268.84,489.09c-1.14,0-2.08-.25-2.82-.75-.74-.5-1.18-1.23-1.34-2.19l1.89-.48c.08.45.23.81.45,1.07.21.26.48.45.79.55.32.11.66.16,1.03.16.56,0,.98-.1,1.26-.3.28-.2.42-.46.42-.77s-.13-.56-.4-.71c-.27-.15-.67-.29-1.22-.39l-.55-.09c-.61-.12-1.16-.28-1.66-.49-.5-.21-.9-.49-1.2-.86-.3-.36-.45-.82-.45-1.38,0-.86.32-1.52.95-1.98.64-.46,1.47-.7,2.51-.7s1.8.22,2.44.66c.64.44,1.06,1.03,1.25,1.77l-1.89.57c-.1-.5-.3-.85-.62-1.06-.32-.21-.71-.31-1.18-.31s-.84.08-1.1.25c-.26.17-.38.4-.38.71s.13.54.39.7c.26.15.61.27,1.05.34l.55.11c.65.12,1.25.27,1.77.46.53.19.95.46,1.26.82.31.36.46.84.46,1.44,0,.92-.33,1.62-.99,2.11-.66.49-1.55.74-2.67.74Z"/><path class="cls-1" d="M19.15,399.26l-7.02,7.02c-.52.52-1.36.52-1.88,0l-3.63-3.63c-.52-.52-.52-1.36,0-1.88.52-.52,1.36-.52,1.88,0l2.68,2.68,6.08-6.08c.52-.52,1.36-.52,1.88,0,.52.52.52,1.36,0,1.88Z"/><path class="cls-6" d="M19.15,426.45l-7.02,7.02c-.52.52-1.36.52-1.88,0l-3.63-3.63c-.52-.52-.52-1.36,0-1.88.52-.52,1.36-.52,1.88,0l2.68,2.68,6.08-6.08c.52-.52,1.36-.52,1.88,0,.52.52.52,1.36,0,1.88Z"/><path class="cls-5" d="M19.15,453.65l-7.02,7.02c-.52.52-1.36.52-1.88,0l-3.63-3.63c-.52-.52-.52-1.36,0-1.88.52-.52,1.36-.52,1.88,0l2.68,2.68,6.08-6.08c.52-.52,1.36-.52,1.88,0,.52.52.52,1.36,0,1.88Z"/><path class="cls-2" d="M19.15,480.85l-7.02,7.02c-.52.52-1.36.52-1.88,0l-3.63-3.63c-.52-.52-.52-1.36,0-1.88.52-.52,1.36-.52,1.88,0l2.68,2.68,6.08-6.08c.52-.52,1.36-.52,1.88,0,.52.52.52,1.36,0,1.88Z"/><circle class="cls-7" cx="9.31" cy="5.2" r="5.2"/><circle class="cls-7" cx="32.95" cy="5.2" r="5.2"/><circle class="cls-7" cx="56.59" cy="5.2" r="5.2"/></g></svg>