<?xml version="1.0" encoding="UTF-8"?><svg id="Layer_2" xmlns="http://www.w3.org/2000/svg" width="477.79" height="605.01" xmlns:xlink="http://www.w3.org/1999/xlink" viewBox="0 0 477.79 605.01"><defs><style>.cls-1{fill:url(#New_Gradient_Swatch_copy_7-3);}.cls-2{fill:#9da5de;}.cls-3{fill:#5a5f80;}.cls-4{fill:url(#New_Gradient_Swatch_copy_7-4);}.cls-5{fill:url(#New_Gradient_Swatch_copy_7-2);}.cls-6{fill:#848aba;}.cls-7{fill:url(#New_Gradient_Swatch_copy_7);}.cls-8{fill:#9074e1;}</style><linearGradient id="New_Gradient_Swatch_copy_7" x1="6.22" y1="379.83" x2="19.54" y2="379.83" gradientUnits="userSpaceOnUse"><stop offset="0" stop-color="#9b3afc"/><stop offset=".55" stop-color="#651afd"/><stop offset="1" stop-color="#3800fe"/></linearGradient><linearGradient id="New_Gradient_Swatch_copy_7-2" y1="407.02" y2="407.02" xlink:href="#New_Gradient_Swatch_copy_7"/><linearGradient id="New_Gradient_Swatch_copy_7-3" y1="434.22" y2="434.22" xlink:href="#New_Gradient_Swatch_copy_7"/><linearGradient id="New_Gradient_Swatch_copy_7-4" y1="461.42" y2="461.42" xlink:href="#New_Gradient_Swatch_copy_7"/></defs><g id="COVER"><path class="cls-6" d="M31.14,86.31c-18.13,0-28.14-5.18-28.14-21.19s10.01-21.19,28.14-21.19,28.14,5.18,28.14,21.19-9.95,21.19-28.14,21.19ZM31.14,53.4c-12.48,0-15.72,3.06-15.72,11.71s3.24,11.66,15.72,11.66,15.83-3.06,15.83-11.66-3.24-11.71-15.83-11.71Z"/><path class="cls-6" d="M68.88,85.01v-25.31h-5.48v-6.83h5.48v-7.71h11.3v7.71h5.71v6.83h-5.71v25.31h-11.3Z"/><path class="cls-6" d="M123.8,85.01v-18.66c0-3.59-1.77-6.12-7-6.12-6.18,0-10.66,1.53-13.66,4.06v20.72h-11.77v-42.21h11.77v12.66c3.65-1.88,9.07-3.3,15.6-3.3,8.24,0,16.9,2.88,16.9,14.19v18.66h-11.83Z"/><path class="cls-6" d="M153.95,71.53c.82,4.65,4.42,6.59,11.6,6.59,5.36,0,9.01-1.41,10.83-3.53l10.6,2.83c-2.65,5.59-9.65,8.3-21.37,8.3-14.95,0-22.96-4.12-22.96-16.78s8.01-16.78,22.96-16.78c17.96,0,22.61,5.12,22.61,17.78v1.59h-34.26ZM176.85,65.11c-.94-3.89-4.77-5.36-11.3-5.36s-10.3,1.47-11.3,5.36h22.61Z"/><path class="cls-6" d="M195.68,85.01v-32.14h10.24l.53,5.59c3.18-3.94,11.01-6.3,18.01-6.3v9.95c-5.71,0-14.25.65-17.01,4.47v18.43h-11.77Z"/><path class="cls-6" d="M16.25,129.72v9.6H4.47v-39.85h32.91c11.6,0,17.48,5.71,17.48,14.6s-5.89,15.66-17.96,15.66h-20.66ZM16.25,108.88v11.07h21.07c2.71,0,4.95-.35,4.95-5.89,0-3.89-2.24-5.18-5-5.18h-21.02Z"/><path class="cls-6" d="M60.93,139.32v-32.14h10.24l.53,5.59c3.18-3.94,11.01-6.3,18.01-6.3v9.95c-5.71,0-14.25.65-17.01,4.47v18.43h-11.77Z"/><path class="cls-6" d="M117.62,140.02c-14.95,0-23.61-4.12-23.61-16.78s8.65-16.78,23.61-16.78,23.49,4.06,23.49,16.78-8.59,16.78-23.49,16.78ZM117.56,114.53c-8.48,0-12.54,2.53-12.54,8.71s4.06,8.71,12.54,8.71,12.42-2.53,12.42-8.71-4.06-8.71-12.42-8.71Z"/><path class="cls-6" d="M144.11,148.26v-6.83h3c1.53,0,1.65-1.47,1.65-3.24v-31.02h11.89v31.02c0,7.48-2.65,10.07-9.89,10.07h-6.65ZM148.88,103.76v-6.65h11.77v6.65h-11.77Z"/><path class="cls-6" d="M179.38,125.83c.82,4.65,4.42,6.59,11.6,6.59,5.36,0,9.01-1.41,10.83-3.53l10.6,2.83c-2.65,5.59-9.65,8.3-21.37,8.3-14.95,0-22.96-4.12-22.96-16.78s8.01-16.78,22.96-16.78c17.96,0,22.61,5.12,22.61,17.78v1.59h-34.26ZM202.28,119.42c-.94-3.89-4.77-5.36-11.3-5.36s-10.3,1.47-11.3,5.36h22.61Z"/><path class="cls-6" d="M264.68,129.6c-1.77,7.01-9.01,10.42-22.08,10.42-14.95,0-22.96-4.12-22.96-16.78s8.01-16.78,22.96-16.78c12.83,0,20.19,2.65,21.78,10.07l-10.01,3.12c-1.29-3.83-4.89-5.12-11.83-5.12-8.42,0-11.89,2.53-11.89,8.71s3.47,8.71,11.89,8.71c6.95,0,11.01-1.53,11.95-5.18l10.18,2.83Z"/><path class="cls-6" d="M274.16,139.32v-25.31h-5.48v-6.83h5.48v-7.71h11.3v7.71h5.71v6.83h-5.71v25.31h-11.3Z"/><path class="cls-6" d="M329.08,117.77c-.71-2.35-4.94-3.89-11.18-3.89-6.71,0-11.07.94-11.07,2.88,0,2.47,3.83,2.47,7.54,2.47,2.53,0,5.3-.06,7.42-.06,11.89,0,17.43,2.3,17.43,9.54s-5.89,11.83-22.37,11.83c-12.13,0-19.43-3.3-22.19-9.07l10.71-2.53c1.18,1.82,4,3.83,12.36,3.83,7.12,0,10.07-.88,10.07-3.06s-3.24-2.47-7.3-2.47c-2.12,0-4.53.06-7.06.06-8.18,0-18.01-1.71-18.01-10.18,0-6.53,6.06-10.66,22.43-10.66,13.48,0,19.37,3.24,21.37,8.18l-10.13,3.12Z"/><path class="cls-3" d="M4.52,207.99v-2.44h2.16v-11.22h-2.16v-2.44h8.23c.97,0,1.81.16,2.54.49.73.33,1.29.8,1.7,1.4.41.61.61,1.33.61,2.17v.21c0,.74-.14,1.34-.41,1.82-.28.48-.61.84-.99,1.1-.38.26-.75.44-1.1.55v.39c.35.09.73.26,1.14.52.41.25.75.62,1.04,1.1.28.48.42,1.11.42,1.87v.23c0,.87-.21,1.63-.63,2.27-.42.64-1,1.12-1.73,1.46-.73.34-1.57.51-2.52.51H4.52ZM9.44,198.63h3.04c.71,0,1.28-.18,1.71-.53.44-.35.66-.84.66-1.47v-.23c0-.63-.22-1.12-.66-1.47-.44-.35-1.01-.53-1.71-.53h-3.04v4.23ZM9.44,205.48h3.06c.74,0,1.32-.18,1.76-.54.44-.36.66-.87.66-1.53v-.21c0-.66-.21-1.17-.64-1.53-.43-.36-1.02-.54-1.77-.54h-3.06v4.35Z"/><path class="cls-3" d="M20.39,207.99v-11.36h2.6v1.31h.39c.17-.48.45-.82.85-1.04.4-.21.87-.32,1.43-.32h1.38v2.35h-1.43c-.77,0-1.39.2-1.86.61-.48.41-.71,1.03-.71,1.87v6.58h-2.65Z"/><path class="cls-3" d="M34.35,208.31c-1.13,0-2.15-.23-3.05-.7s-1.6-1.13-2.12-2c-.51-.87-.77-1.91-.77-3.12v-.37c0-1.21.26-2.25.77-3.13.51-.87,1.22-1.54,2.12-2s1.91-.69,3.05-.69,2.15.23,3.04.69c.89.46,1.59,1.13,2.1,2,.51.87.77,1.92.77,3.13v.37c0,1.21-.26,2.25-.77,3.12-.51.87-1.21,1.53-2.1,2-.89.47-1.9.7-3.04.7ZM34.35,205.97c.97,0,1.76-.31,2.37-.93.61-.62.92-1.49.92-2.61v-.23c0-1.12-.31-1.99-.92-2.61s-1.4-.93-2.37-.93-1.76.31-2.37.93-.92,1.49-.92,2.61v.23c0,1.12.31,1.99.92,2.61.61.62,1.4.93,2.37.93Z"/><path class="cls-3" d="M44.06,207.99l-1.77-11.36h2.62l1.22,9.59h.39l1.72-9.59h4.23l1.72,9.59h.39l1.22-9.59h2.62l-1.77,11.36h-4.39l-1.7-9.59h-.39l-1.73,9.59h-4.39Z"/><path class="cls-3" d="M65.77,208.31c-1.47,0-2.68-.32-3.63-.97-.95-.64-1.53-1.59-1.72-2.83l2.44-.62c.11.58.3,1.04.57,1.38.28.34.62.57,1.02.71.41.14.85.21,1.32.21.72,0,1.26-.13,1.62-.39.36-.26.54-.59.54-.99s-.17-.72-.52-.92c-.34-.2-.87-.37-1.58-.51l-.71-.11c-.78-.15-1.5-.36-2.14-.63-.64-.27-1.16-.64-1.55-1.1-.39-.47-.59-1.06-.59-1.78,0-1.1.41-1.95,1.23-2.55s1.9-.9,3.23-.9,2.32.28,3.15.85c.83.57,1.37,1.33,1.61,2.28l-2.44.74c-.12-.64-.39-1.1-.8-1.37-.41-.27-.92-.4-1.52-.4s-1.09.11-1.42.32c-.33.21-.5.52-.5.92s.17.7.51.9c.34.2.79.34,1.36.44l.71.14c.84.15,1.61.35,2.29.6.68.25,1.22.6,1.62,1.06.4.46.6,1.08.6,1.86,0,1.18-.42,2.09-1.28,2.73-.85.64-2,.95-3.44.95Z"/><path class="cls-3" d="M78.35,208.31c-1.13,0-2.14-.24-3-.72-.87-.48-1.54-1.17-2.02-2.05-.48-.88-.72-1.91-.72-3.09v-.28c0-1.2.24-2.23.71-3.1.48-.87,1.14-1.55,2-2.04s1.85-.72,2.97-.72,2.07.24,2.9.72,1.47,1.16,1.93,2.04c.46.87.69,1.89.69,3.06v.94h-8.53c.03.89.34,1.6.94,2.14.6.54,1.33.8,2.21.8s1.49-.19,1.91-.56c.41-.38.73-.8.94-1.28l2.19,1.13c-.21.41-.53.85-.93,1.32-.41.47-.95.87-1.62,1.2-.68.33-1.53.49-2.55.49ZM75.29,201.07h5.82c-.06-.75-.35-1.35-.86-1.79-.51-.44-1.18-.67-1.99-.67s-1.52.22-2.02.67c-.51.44-.82,1.04-.94,1.79Z"/><path class="cls-3" d="M96.7,207.99c-.74,0-1.32-.22-1.76-.66-.44-.44-.66-1.03-.66-1.78v-6.74h-2.97v-2.19h2.97v-3.66h2.64v3.66h3.27v2.19h-3.27v6.3c0,.46.21.69.64.69h2.28v2.19h-3.15Z"/><path class="cls-3" d="M102.89,207.99v-16.1h2.65v6.23h.39c.12-.26.32-.52.6-.78.28-.26.64-.48,1.09-.64.45-.17,1.02-.25,1.71-.25.87,0,1.65.2,2.32.59.67.39,1.2.94,1.58,1.64.38.71.56,1.54.56,2.51v6.81h-2.64v-6.6c0-.92-.23-1.61-.68-2.06-.45-.45-1.09-.68-1.92-.68-.94,0-1.67.31-2.21.93s-.8,1.51-.8,2.66v5.75h-2.65Z"/><path class="cls-3" d="M117.04,207.99v-11.36h2.6v1.31h.39c.17-.48.45-.82.85-1.04.4-.21.87-.32,1.43-.32h1.38v2.35h-1.43c-.77,0-1.39.2-1.86.61-.48.41-.71,1.03-.71,1.87v6.58h-2.65Z"/><path class="cls-3" d="M131,208.31c-1.13,0-2.15-.23-3.05-.7-.9-.47-1.6-1.13-2.12-2-.51-.87-.77-1.91-.77-3.12v-.37c0-1.21.26-2.25.77-3.13.51-.87,1.22-1.54,2.12-2,.9-.46,1.91-.69,3.05-.69s2.15.23,3.04.69,1.59,1.13,2.1,2c.51.87.77,1.92.77,3.13v.37c0,1.21-.26,2.25-.77,3.12-.51.87-1.21,1.53-2.1,2s-1.9.7-3.04.7ZM131,205.97c.97,0,1.76-.31,2.37-.93.61-.62.92-1.49.92-2.61v-.23c0-1.12-.31-1.99-.92-2.61s-1.4-.93-2.37-.93-1.76.31-2.37.93-.92,1.49-.92,2.61v.23c0,1.12.31,1.99.92,2.61.61.62,1.4.93,2.37.93Z"/><path class="cls-3" d="M144.06,208.17c-.87,0-1.65-.2-2.32-.59-.67-.39-1.2-.94-1.56-1.66s-.55-1.54-.55-2.5v-6.81h2.62v6.6c0,.92.23,1.6.68,2.05.45.44,1.09.67,1.92.67.94,0,1.67-.31,2.22-.92.54-.61.82-1.49.82-2.65v-5.75h2.62v11.36h-2.58v-1.59h-.39c-.2.41-.56.81-1.09,1.2-.53.38-1.32.57-2.38.57Z"/><path class="cls-3" d="M153.31,202.35v-.34c0-1.2.24-2.22.71-3.07.48-.85,1.11-1.5,1.91-1.95.8-.45,1.67-.68,2.62-.68,1.07,0,1.89.19,2.45.57.56.38.97.8,1.23,1.24h.39v-1.5h2.58v13.52c0,.75-.21,1.35-.64,1.78s-1.01.66-1.75.66h-7.64v-2.3h6.74c.44,0,.67-.23.67-.69v-3.29h-.39c-.17.26-.4.53-.69.79-.29.27-.68.49-1.15.68-.48.18-1.07.28-1.79.28-.95,0-1.83-.23-2.62-.68-.8-.45-1.43-1.1-1.91-1.95-.48-.85-.71-1.87-.71-3.07ZM159.29,205.74c.95,0,1.74-.3,2.37-.91.63-.61.94-1.45.94-2.54v-.23c0-1.1-.31-1.96-.93-2.55-.62-.6-1.41-.9-2.38-.9s-1.74.3-2.38.9c-.64.6-.95,1.45-.95,2.55v.23c0,1.09.32,1.94.95,2.54.64.61,1.43.91,2.38.91Z"/><path class="cls-3" d="M168.55,207.99v-16.1h2.64v6.23h.39c.12-.26.32-.52.6-.78.28-.26.64-.48,1.09-.64.45-.17,1.02-.25,1.71-.25.88,0,1.65.2,2.32.59s1.2.94,1.58,1.64c.38.71.56,1.54.56,2.51v6.81h-2.65v-6.6c0-.92-.23-1.61-.68-2.06-.45-.45-1.09-.68-1.92-.68-.94,0-1.67.31-2.21.93-.54.62-.8,1.51-.8,2.66v5.75h-2.64Z"/><path class="cls-3" d="M193.21,208.31c-.92,0-1.78-.23-2.58-.68-.8-.45-1.43-1.12-1.91-1.99-.47-.87-.71-1.92-.71-3.15v-.37c0-1.23.24-2.28.71-3.15.48-.87,1.11-1.54,1.9-1.99.79-.45,1.65-.68,2.59-.68.71,0,1.3.08,1.79.25.49.17.89.38,1.19.64.3.26.53.54.7.85h.39v-6.16h2.62v16.1h-2.58v-1.49h-.39c-.28.46-.7.88-1.26,1.25-.57.38-1.39.56-2.46.56ZM193.99,206.01c.95,0,1.74-.31,2.37-.93.63-.62.94-1.51.94-2.66v-.23c0-1.17-.31-2.05-.93-2.67-.62-.61-1.41-.92-2.38-.92s-1.74.31-2.38.92c-.64.61-.95,1.5-.95,2.67v.23c0,1.15.32,2.04.95,2.66.64.62,1.43.93,2.38.93Z"/><path class="cls-3" d="M204.57,195.18c-.48,0-.89-.16-1.23-.47-.35-.31-.52-.73-.52-1.25s.17-.94.52-1.25c.34-.31.75-.47,1.23-.47.51,0,.92.16,1.25.47.33.31.49.73.49,1.25s-.17.94-.49,1.25c-.33.31-.75.47-1.25.47ZM203.26,207.99v-11.36h2.64v11.36h-2.64Z"/><path class="cls-3" d="M211.77,207.99l-3.73-11.36h2.81l2.8,9.43h.39l2.83-9.43h2.81l-3.73,11.36h-4.19Z"/><path class="cls-3" d="M226.65,208.31c-1.13,0-2.14-.24-3-.72-.87-.48-1.54-1.17-2.02-2.05-.48-.88-.72-1.91-.72-3.09v-.28c0-1.2.24-2.23.71-3.1.47-.87,1.14-1.55,2-2.04.86-.48,1.85-.72,2.97-.72s2.07.24,2.9.72,1.47,1.16,1.93,2.04c.46.87.69,1.89.69,3.06v.94h-8.53c.03.89.34,1.6.94,2.14.6.54,1.33.8,2.21.8s1.5-.19,1.91-.56c.41-.38.73-.8.94-1.28l2.19,1.13c-.21.41-.53.85-.93,1.32-.41.47-.95.87-1.62,1.2-.68.33-1.53.49-2.55.49ZM223.59,201.07h5.82c-.06-.75-.35-1.35-.86-1.79-.51-.44-1.18-.67-1.99-.67s-1.52.22-2.02.67c-.51.44-.82,1.04-.94,1.79Z"/><path class="cls-3" d="M234.82,207.99v-11.36h2.6v1.31h.39c.17-.48.45-.82.85-1.04.4-.21.87-.32,1.43-.32h1.38v2.35h-1.43c-.77,0-1.39.2-1.86.61-.48.41-.71,1.03-.71,1.87v6.58h-2.65Z"/><path class="cls-3" d="M248.25,208.31c-1.47,0-2.68-.32-3.63-.97-.95-.64-1.53-1.59-1.72-2.83l2.44-.62c.11.58.3,1.04.57,1.38.28.34.62.57,1.02.71.41.14.85.21,1.32.21.72,0,1.26-.13,1.62-.39.36-.26.54-.59.54-.99s-.17-.72-.52-.92c-.34-.2-.87-.37-1.58-.51l-.71-.11c-.78-.15-1.5-.36-2.14-.63-.64-.27-1.16-.64-1.55-1.1-.39-.47-.59-1.06-.59-1.78,0-1.1.41-1.95,1.23-2.55s1.9-.9,3.23-.9,2.32.28,3.15.85c.83.57,1.37,1.33,1.61,2.28l-2.44.74c-.12-.64-.39-1.1-.8-1.37-.41-.27-.92-.4-1.52-.4s-1.09.11-1.42.32c-.33.21-.5.52-.5.92s.17.7.51.9c.34.2.79.34,1.36.44l.71.14c.84.15,1.61.35,2.29.6.68.25,1.22.6,1.62,1.06.4.46.6,1.08.6,1.86,0,1.18-.42,2.09-1.28,2.73-.85.64-2,.95-3.44.95Z"/><path class="cls-3" d="M260.83,208.31c-1.13,0-2.14-.24-3-.72-.87-.48-1.54-1.17-2.02-2.05-.48-.88-.72-1.91-.72-3.09v-.28c0-1.2.24-2.23.71-3.1.48-.87,1.14-1.55,2-2.04s1.85-.72,2.97-.72,2.07.24,2.9.72,1.47,1.16,1.93,2.04c.46.87.69,1.89.69,3.06v.94h-8.53c.03.89.34,1.6.94,2.14.6.54,1.33.8,2.21.8s1.49-.19,1.91-.56c.41-.38.73-.8.94-1.28l2.19,1.13c-.21.41-.53.85-.93,1.32-.41.47-.95.87-1.62,1.2-.68.33-1.53.49-2.55.49ZM257.77,201.07h5.82c-.06-.75-.35-1.35-.86-1.79-.51-.44-1.18-.67-1.99-.67s-1.52.22-2.02.67c-.51.44-.82,1.04-.94,1.79Z"/><path class="cls-3" d="M274.86,212.59v-15.96h2.6v1.5h.39c.26-.48.68-.9,1.25-1.27.58-.37,1.4-.55,2.47-.55.92,0,1.78.23,2.56.68.79.45,1.42,1.12,1.9,1.99.47.87.71,1.92.71,3.15v.37c0,1.23-.24,2.28-.71,3.15-.48.87-1.1,1.54-1.89,1.99-.78.45-1.64.68-2.58.68-.72,0-1.32-.08-1.8-.25-.48-.17-.88-.39-1.17-.67s-.53-.55-.7-.83h-.39v6.03h-2.64ZM280.79,206.01c.97,0,1.76-.31,2.38-.93.62-.62.93-1.51.93-2.66v-.23c0-1.17-.31-2.05-.94-2.67-.63-.61-1.42-.92-2.37-.92s-1.74.31-2.38.92c-.64.61-.96,1.5-.96,2.67v.23c0,1.15.32,2.04.96,2.66.64.62,1.43.93,2.38.93Z"/><path class="cls-3" d="M289.56,207.99v-11.36h2.6v1.31h.39c.17-.48.45-.82.85-1.04.4-.21.87-.32,1.43-.32h1.38v2.35h-1.43c-.77,0-1.39.2-1.86.61-.48.41-.71,1.03-.71,1.87v6.58h-2.65Z"/><path class="cls-3" d="M303.52,208.31c-1.13,0-2.15-.23-3.05-.7-.9-.47-1.6-1.13-2.12-2-.51-.87-.77-1.91-.77-3.12v-.37c0-1.21.26-2.25.77-3.13.51-.87,1.22-1.54,2.12-2,.9-.46,1.91-.69,3.05-.69s2.15.23,3.04.69c.89.46,1.59,1.13,2.1,2,.51.87.77,1.92.77,3.13v.37c0,1.21-.26,2.25-.77,3.12-.51.87-1.22,1.53-2.1,2-.89.47-1.9.7-3.04.7ZM303.52,205.97c.97,0,1.75-.31,2.37-.93.61-.62.92-1.49.92-2.61v-.23c0-1.12-.31-1.99-.92-2.61-.61-.62-1.4-.93-2.37-.93s-1.76.31-2.37.93-.92,1.49-.92,2.61v.23c0,1.12.31,1.99.92,2.61.61.62,1.4.93,2.37.93Z"/><path class="cls-3" d="M310.09,212.59v-2.28h1.54c.43,0,.64-.23.64-.69v-13h2.64v13.52c0,.75-.22,1.35-.66,1.78s-1.02.66-1.76.66h-2.42ZM313.59,195.18c-.47,0-.88-.16-1.23-.47-.34-.31-.52-.73-.52-1.25s.17-.94.52-1.25c.35-.31.76-.47,1.23-.47.51,0,.92.16,1.25.47.33.31.49.73.49,1.25s-.16.94-.49,1.25c-.33.31-.75.47-1.25.47Z"/><path class="cls-3" d="M323.48,208.31c-1.13,0-2.14-.24-3-.72-.87-.48-1.54-1.17-2.02-2.05-.48-.88-.72-1.91-.72-3.09v-.28c0-1.2.24-2.23.71-3.1.47-.87,1.14-1.55,2-2.04.86-.48,1.85-.72,2.97-.72s2.07.24,2.9.72,1.47,1.16,1.93,2.04c.46.87.69,1.89.69,3.06v.94h-8.53c.03.89.34,1.6.94,2.14.6.54,1.33.8,2.21.8s1.5-.19,1.91-.56c.41-.38.73-.8.94-1.28l2.19,1.13c-.21.41-.53.85-.93,1.32-.41.47-.95.87-1.62,1.2-.68.33-1.53.49-2.55.49ZM320.42,201.07h5.82c-.06-.75-.35-1.35-.86-1.79-.51-.44-1.18-.67-1.99-.67s-1.52.22-2.02.67c-.51.44-.82,1.04-.94,1.79Z"/><path class="cls-3" d="M336.96,208.31c-1.1,0-2.1-.23-2.99-.69-.89-.46-1.59-1.13-2.1-2s-.77-1.92-.77-3.15v-.32c0-1.23.26-2.28.77-3.15.51-.87,1.21-1.54,2.1-2s1.89-.69,2.99-.69,2.02.19,2.79.57c.77.38,1.4.91,1.88,1.58.47.67.78,1.41.92,2.24l-2.55.53c-.06-.48-.21-.91-.44-1.3s-.56-.7-.98-.93c-.42-.23-.94-.34-1.55-.34s-1.19.13-1.69.4c-.5.27-.89.67-1.17,1.21-.28.54-.42,1.18-.42,1.93v.23c0,.75.14,1.39.42,1.92s.67.93,1.17,1.21,1.06.41,1.69.41c.93,0,1.64-.24,2.13-.72.48-.48.79-1.11.91-1.87l2.55.6c-.18.8-.51,1.53-.99,2.19-.48.66-1.1,1.18-1.88,1.58-.77.39-1.71.59-2.79.59Z"/><path class="cls-3" d="M349.12,207.99c-.74,0-1.32-.22-1.76-.66s-.66-1.03-.66-1.78v-6.74h-2.97v-2.19h2.97v-3.66h2.65v3.66h3.27v2.19h-3.27v6.3c0,.46.21.69.64.69h2.28v2.19h-3.15Z"/><path class="cls-3" d="M360,208.31c-1.47,0-2.68-.32-3.63-.97-.95-.64-1.53-1.59-1.72-2.83l2.44-.62c.11.58.3,1.04.58,1.38.28.34.62.57,1.02.71.41.14.85.21,1.32.21.72,0,1.26-.13,1.62-.39.36-.26.54-.59.54-.99s-.17-.72-.52-.92c-.35-.2-.87-.37-1.58-.51l-.71-.11c-.78-.15-1.5-.36-2.14-.63-.64-.27-1.16-.64-1.55-1.1-.39-.47-.59-1.06-.59-1.78,0-1.1.41-1.95,1.23-2.55.82-.6,1.9-.9,3.23-.9s2.32.28,3.15.85c.83.57,1.36,1.33,1.61,2.28l-2.44.74c-.12-.64-.39-1.1-.8-1.37-.41-.27-.92-.4-1.52-.4s-1.08.11-1.41.32c-.33.21-.49.52-.49.92s.17.7.51.9c.34.2.79.34,1.36.44l.71.14c.84.15,1.61.35,2.29.6.68.25,1.22.6,1.62,1.06.4.46.6,1.08.6,1.86,0,1.18-.43,2.09-1.28,2.73-.85.64-2,.95-3.44.95Z"/><path class="cls-3" d="M377.57,207.99c-.74,0-1.32-.22-1.76-.66s-.66-1.03-.66-1.78v-6.74h-2.97v-2.19h2.97v-3.66h2.64v3.66h3.27v2.19h-3.27v6.3c0,.46.21.69.64.69h2.28v2.19h-3.15Z"/><path class="cls-3" d="M383.76,207.99v-16.1h2.64v6.23h.39c.12-.26.32-.52.6-.78.28-.26.64-.48,1.09-.64.45-.17,1.02-.25,1.71-.25.88,0,1.65.2,2.32.59s1.2.94,1.58,1.64c.38.71.56,1.54.56,2.51v6.81h-2.65v-6.6c0-.92-.23-1.61-.68-2.06-.45-.45-1.09-.68-1.92-.68-.94,0-1.67.31-2.21.93-.54.62-.8,1.51-.8,2.66v5.75h-2.64Z"/><path class="cls-3" d="M401.43,208.31c-.8,0-1.52-.14-2.16-.43-.64-.28-1.15-.69-1.53-1.23-.38-.54-.56-1.2-.56-1.98s.19-1.41.56-1.93c.38-.52.89-.92,1.55-1.18.66-.27,1.41-.4,2.25-.4h3.29v-.69c0-.6-.18-1.08-.55-1.46-.37-.38-.94-.56-1.72-.56s-1.35.18-1.74.54c-.39.36-.65.82-.77,1.39l-2.44-.8c.18-.6.48-1.14.88-1.63.41-.49.95-.89,1.62-1.18.67-.3,1.5-.45,2.48-.45,1.49,0,2.66.37,3.51,1.12.85.74,1.28,1.82,1.28,3.23v4.46c0,.46.21.69.64.69h.97v2.19h-1.86c-.55,0-1-.14-1.36-.41-.35-.28-.53-.65-.53-1.13v-.05h-.39c-.09.21-.25.48-.48.78-.23.31-.58.57-1.05.79-.47.22-1.1.33-1.9.33ZM401.86,206.15c.88,0,1.59-.25,2.14-.75.55-.5.83-1.17.83-2.01v-.23h-3.13c-.57,0-1.03.12-1.38.37-.35.25-.53.61-.53,1.08s.18.83.55,1.12c.37.28.88.43,1.52.43Z"/><path class="cls-3" d="M414.7,207.99c-.74,0-1.32-.22-1.76-.66-.44-.44-.66-1.03-.66-1.78v-6.74h-2.97v-2.19h2.97v-3.66h2.64v3.66h3.27v2.19h-3.27v6.3c0,.46.21.69.64.69h2.28v2.19h-3.15Z"/><path class="cls-3" d="M5.14,240.99v-16.1h2.64v6.23h.39c.12-.26.32-.52.6-.78.28-.26.64-.48,1.09-.64.45-.17,1.02-.25,1.71-.25.87,0,1.65.2,2.32.59.68.39,1.2.94,1.58,1.64.38.71.56,1.54.56,2.51v6.81h-2.65v-6.6c0-.92-.23-1.61-.68-2.06-.45-.45-1.09-.68-1.92-.68-.94,0-1.67.31-2.21.93s-.8,1.51-.8,2.66v5.75h-2.64Z"/><path class="cls-3" d="M20.6,228.18c-.48,0-.89-.16-1.23-.47-.35-.31-.52-.73-.52-1.25s.17-.94.52-1.25c.34-.31.75-.47,1.23-.47.51,0,.92.16,1.25.47.33.31.49.73.49,1.25s-.17.94-.49,1.25c-.33.31-.75.47-1.25.47ZM19.29,240.99v-11.36h2.64v11.36h-2.64Z"/><path class="cls-3" d="M24.74,235.35v-.34c0-1.2.24-2.22.71-3.07.48-.85,1.11-1.5,1.91-1.95.8-.45,1.67-.68,2.62-.68,1.07,0,1.89.19,2.45.57.56.38.97.8,1.23,1.24h.39v-1.5h2.58v13.52c0,.75-.21,1.35-.64,1.78s-1.01.66-1.75.66h-7.64v-2.3h6.74c.44,0,.67-.23.67-.69v-3.29h-.39c-.17.26-.4.53-.69.79-.29.27-.68.49-1.15.68-.48.18-1.07.28-1.79.28-.95,0-1.83-.23-2.62-.68-.8-.45-1.43-1.1-1.91-1.95-.48-.85-.71-1.87-.71-3.07ZM30.72,238.74c.95,0,1.74-.3,2.37-.91.63-.61.94-1.45.94-2.54v-.23c0-1.1-.31-1.96-.93-2.55-.62-.6-1.41-.9-2.38-.9s-1.74.3-2.38.9c-.64.6-.95,1.45-.95,2.55v.23c0,1.09.32,1.94.95,2.54.64.61,1.43.91,2.38.91Z"/><path class="cls-3" d="M39.99,240.99v-16.1h2.64v6.23h.39c.12-.26.32-.52.6-.78.28-.26.64-.48,1.09-.64.45-.17,1.02-.25,1.71-.25.88,0,1.65.2,2.32.59s1.2.94,1.58,1.64c.38.71.56,1.54.56,2.51v6.81h-2.65v-6.6c0-.92-.23-1.61-.68-2.06-.45-.45-1.09-.68-1.92-.68-.94,0-1.67.31-2.21.93-.54.62-.8,1.51-.8,2.66v5.75h-2.64Z"/><path class="cls-3" d="M54.13,240.99v-16.1h2.65v16.1h-2.65Z"/><path class="cls-3" d="M61.45,228.18c-.48,0-.89-.16-1.23-.47-.35-.31-.52-.73-.52-1.25s.17-.94.52-1.25c.34-.31.75-.47,1.23-.47.51,0,.92.16,1.25.47.33.31.49.73.49,1.25s-.17.94-.49,1.25c-.33.31-.75.47-1.25.47ZM60.13,240.99v-11.36h2.64v11.36h-2.64Z"/><path class="cls-3" d="M65.58,235.35v-.34c0-1.2.24-2.22.71-3.07.48-.85,1.11-1.5,1.91-1.95.8-.45,1.67-.68,2.62-.68,1.07,0,1.89.19,2.45.57.56.38.97.8,1.23,1.24h.39v-1.5h2.58v13.52c0,.75-.21,1.35-.64,1.78s-1.01.66-1.75.66h-7.64v-2.3h6.74c.44,0,.67-.23.67-.69v-3.29h-.39c-.17.26-.4.53-.69.79-.29.27-.68.49-1.15.68-.48.18-1.07.28-1.79.28-.95,0-1.83-.23-2.62-.68-.8-.45-1.43-1.1-1.91-1.95-.48-.85-.71-1.87-.71-3.07ZM71.56,238.74c.95,0,1.74-.3,2.37-.91.63-.61.94-1.45.94-2.54v-.23c0-1.1-.31-1.96-.93-2.55-.62-.6-1.41-.9-2.38-.9s-1.74.3-2.38.9c-.64.6-.95,1.45-.95,2.55v.23c0,1.09.32,1.94.95,2.54.64.61,1.43.91,2.38.91Z"/><path class="cls-3" d="M80.83,240.99v-16.1h2.64v6.23h.39c.12-.26.32-.52.6-.78.28-.26.64-.48,1.09-.64.45-.17,1.02-.25,1.71-.25.88,0,1.65.2,2.32.59s1.2.94,1.58,1.64c.38.71.56,1.54.56,2.51v6.81h-2.65v-6.6c0-.92-.23-1.61-.68-2.06-.45-.45-1.09-.68-1.92-.68-.94,0-1.67.31-2.21.93-.54.62-.8,1.51-.8,2.66v5.75h-2.64Z"/><path class="cls-3" d="M98.98,240.99c-.74,0-1.32-.22-1.76-.66s-.66-1.03-.66-1.78v-6.74h-2.97v-2.19h2.97v-3.66h2.64v3.66h3.27v2.19h-3.27v6.3c0,.46.21.69.64.69h2.28v2.19h-3.15Z"/><path class="cls-3" d="M115.38,241.17c-.87,0-1.65-.2-2.32-.59-.67-.39-1.2-.94-1.56-1.66-.37-.71-.55-1.54-.55-2.5v-6.81h2.62v6.6c0,.92.23,1.6.68,2.05.45.44,1.09.67,1.92.67.93,0,1.67-.31,2.22-.92.54-.61.82-1.49.82-2.65v-5.75h2.62v11.36h-2.58v-1.59h-.39c-.2.41-.56.81-1.09,1.2-.53.38-1.32.57-2.38.57Z"/><path class="cls-3" d="M125.18,240.99v-11.36h2.6v1.59h.39c.2-.43.56-.84,1.08-1.22.52-.38,1.31-.57,2.37-.57.88,0,1.65.2,2.32.6.67.4,1.2.95,1.58,1.66.38.71.56,1.54.56,2.51v6.81h-2.65v-6.6c0-.92-.23-1.61-.68-2.06-.45-.45-1.09-.68-1.92-.68-.94,0-1.67.31-2.21.93-.54.62-.8,1.51-.8,2.66v5.75h-2.64Z"/><path class="cls-3" d="M140.63,228.18c-.47,0-.88-.16-1.23-.47-.34-.31-.52-.73-.52-1.25s.17-.94.52-1.25c.35-.31.76-.47,1.23-.47.51,0,.92.16,1.25.47.33.31.49.73.49,1.25s-.16.94-.49,1.25c-.33.31-.75.47-1.25.47ZM139.32,240.99v-11.36h2.64v11.36h-2.64Z"/><path class="cls-3" d="M154.04,245.59v-6.03h-.39c-.17.28-.4.55-.7.83s-.69.5-1.18.67c-.49.17-1.09.25-1.79.25-.94,0-1.8-.23-2.59-.68-.79-.45-1.42-1.12-1.9-1.99-.48-.87-.71-1.92-.71-3.15v-.37c0-1.23.24-2.28.71-3.15.47-.87,1.11-1.54,1.91-1.99.8-.45,1.66-.68,2.58-.68,1.07,0,1.89.18,2.46.55.57.37.99.79,1.27,1.27h.39v-1.5h2.58v15.96h-2.62ZM150.75,239.01c.97,0,1.76-.31,2.38-.93.62-.62.93-1.51.93-2.66v-.23c0-1.17-.31-2.05-.94-2.67-.63-.61-1.42-.92-2.37-.92s-1.74.31-2.38.92c-.64.61-.96,1.5-.96,2.67v.23c0,1.15.32,2.04.96,2.66.64.62,1.43.93,2.38.93Z"/><path class="cls-3" d="M164.37,241.17c-.88,0-1.65-.2-2.32-.59s-1.2-.94-1.56-1.66c-.37-.71-.55-1.54-.55-2.5v-6.81h2.62v6.6c0,.92.23,1.6.68,2.05.45.44,1.09.67,1.92.67.94,0,1.68-.31,2.22-.92.54-.61.82-1.49.82-2.65v-5.75h2.62v11.36h-2.58v-1.59h-.39c-.2.41-.56.81-1.09,1.2-.53.38-1.32.57-2.38.57Z"/><path class="cls-3" d="M179.37,241.31c-1.13,0-2.14-.24-3-.72-.87-.48-1.54-1.17-2.02-2.05-.48-.88-.72-1.91-.72-3.09v-.28c0-1.2.24-2.23.71-3.1.47-.87,1.14-1.55,2-2.04.86-.48,1.85-.72,2.97-.72s2.07.24,2.9.72,1.47,1.16,1.93,2.04c.46.87.69,1.89.69,3.06v.94h-8.53c.03.89.34,1.6.94,2.14.6.54,1.33.8,2.21.8s1.5-.19,1.91-.56c.41-.38.73-.8.94-1.28l2.19,1.13c-.21.41-.53.85-.93,1.32-.41.47-.95.87-1.62,1.2-.68.33-1.53.49-2.55.49ZM176.31,234.07h5.82c-.06-.75-.35-1.35-.86-1.79-.51-.44-1.18-.67-1.99-.67s-1.52.22-2.02.67c-.51.44-.82,1.04-.94,1.79Z"/><path class="cls-3" d="M198.71,241.31c-1.1,0-2.1-.23-2.99-.69-.89-.46-1.59-1.13-2.1-2s-.77-1.92-.77-3.15v-.32c0-1.23.26-2.28.77-3.15.51-.87,1.21-1.54,2.1-2,.89-.46,1.89-.69,2.99-.69s2.02.19,2.79.57c.77.38,1.4.91,1.88,1.58.47.67.78,1.41.92,2.24l-2.55.53c-.06-.48-.21-.91-.44-1.3-.23-.39-.56-.7-.98-.93-.42-.23-.94-.34-1.55-.34s-1.19.13-1.69.4c-.5.27-.89.67-1.17,1.21-.28.54-.42,1.18-.42,1.93v.23c0,.75.14,1.39.42,1.92.28.53.68.93,1.17,1.21s1.06.41,1.69.41c.93,0,1.64-.24,2.13-.72.48-.48.79-1.11.91-1.87l2.55.6c-.18.8-.51,1.53-.99,2.19-.48.66-1.1,1.18-1.88,1.58-.77.39-1.71.59-2.79.59Z"/><path class="cls-3" d="M206.94,240.99v-11.36h2.6v1.31h.39c.17-.48.45-.82.85-1.04.4-.21.87-.32,1.43-.32h1.38v2.35h-1.43c-.77,0-1.39.2-1.86.61-.47.41-.71,1.03-.71,1.87v6.58h-2.64Z"/><path class="cls-3" d="M220.72,241.31c-1.13,0-2.14-.24-3-.72-.87-.48-1.54-1.17-2.02-2.05-.48-.88-.72-1.91-.72-3.09v-.28c0-1.2.24-2.23.71-3.1.48-.87,1.14-1.55,2-2.04s1.85-.72,2.97-.72,2.07.24,2.9.72,1.47,1.16,1.93,2.04c.46.87.69,1.89.69,3.06v.94h-8.53c.03.89.34,1.6.94,2.14.6.54,1.33.8,2.21.8s1.49-.19,1.91-.56c.41-.38.73-.8.94-1.28l2.19,1.13c-.21.41-.53.85-.93,1.32-.41.47-.95.87-1.62,1.2-.68.33-1.53.49-2.55.49ZM217.66,234.07h5.82c-.06-.75-.35-1.35-.86-1.79-.51-.44-1.18-.67-1.99-.67s-1.52.22-2.02.67c-.51.44-.82,1.04-.94,1.79Z"/><path class="cls-3" d="M232.4,241.31c-.8,0-1.52-.14-2.16-.43s-1.15-.69-1.53-1.23c-.38-.54-.56-1.2-.56-1.98s.19-1.41.56-1.93c.38-.52.89-.92,1.55-1.18.66-.27,1.41-.4,2.25-.4h3.29v-.69c0-.6-.18-1.08-.55-1.46-.37-.38-.94-.56-1.72-.56s-1.35.18-1.74.54c-.39.36-.65.82-.77,1.39l-2.44-.8c.18-.6.48-1.14.89-1.63.41-.49.95-.89,1.62-1.18.67-.3,1.5-.45,2.48-.45,1.49,0,2.66.37,3.51,1.12.85.74,1.28,1.82,1.28,3.23v4.46c0,.46.21.69.64.69h.97v2.19h-1.86c-.55,0-1-.14-1.36-.41s-.53-.65-.53-1.13v-.05h-.39c-.09.21-.25.48-.48.78-.23.31-.58.57-1.05.79-.47.22-1.1.33-1.9.33ZM232.84,239.15c.87,0,1.59-.25,2.14-.75.55-.5.83-1.17.83-2.01v-.23h-3.13c-.57,0-1.03.12-1.38.37-.35.25-.53.61-.53,1.08s.18.83.55,1.12c.37.28.87.43,1.52.43Z"/><path class="cls-3" d="M245.67,240.99c-.74,0-1.32-.22-1.76-.66-.44-.44-.66-1.03-.66-1.78v-6.74h-2.97v-2.19h2.97v-3.66h2.64v3.66h3.27v2.19h-3.27v6.3c0,.46.21.69.64.69h2.28v2.19h-3.15Z"/><path class="cls-3" d="M253.17,228.18c-.48,0-.89-.16-1.23-.47-.34-.31-.52-.73-.52-1.25s.17-.94.52-1.25c.35-.31.76-.47,1.23-.47.51,0,.92.16,1.25.47.33.31.49.73.49,1.25s-.16.94-.49,1.25c-.33.31-.75.47-1.25.47ZM251.86,240.99v-11.36h2.65v11.36h-2.65Z"/><path class="cls-3" d="M260.37,240.99l-3.73-11.36h2.81l2.81,9.43h.39l2.83-9.43h2.81l-3.73,11.36h-4.19Z"/><path class="cls-3" d="M275.25,241.31c-1.13,0-2.13-.24-3-.72-.87-.48-1.54-1.17-2.02-2.05-.48-.88-.72-1.91-.72-3.09v-.28c0-1.2.24-2.23.71-3.1.47-.87,1.14-1.55,2-2.04s1.85-.72,2.97-.72,2.07.24,2.9.72,1.47,1.16,1.93,2.04c.46.87.69,1.89.69,3.06v.94h-8.53c.03.89.35,1.6.94,2.14.6.54,1.33.8,2.21.8s1.5-.19,1.91-.56c.41-.38.73-.8.94-1.28l2.18,1.13c-.21.41-.53.85-.93,1.32-.41.47-.95.87-1.62,1.2s-1.53.49-2.55.49ZM272.19,234.07h5.82c-.06-.75-.35-1.35-.86-1.79-.51-.44-1.18-.67-1.99-.67s-1.52.22-2.02.67c-.51.44-.82,1.04-.94,1.79Z"/><path class="cls-3" d="M293.97,241.31c-1.47,0-2.68-.32-3.63-.97-.95-.64-1.53-1.59-1.72-2.83l2.44-.62c.11.58.3,1.04.57,1.38.28.34.62.57,1.02.71.41.14.85.21,1.32.21.72,0,1.26-.13,1.62-.39.36-.26.54-.59.54-.99s-.17-.72-.52-.92c-.34-.2-.87-.37-1.58-.51l-.71-.11c-.78-.15-1.5-.36-2.14-.63-.64-.27-1.16-.64-1.55-1.1-.39-.47-.59-1.06-.59-1.78,0-1.1.41-1.95,1.23-2.55.82-.6,1.9-.9,3.23-.9s2.32.28,3.15.85c.83.57,1.37,1.33,1.61,2.28l-2.44.74c-.12-.64-.39-1.1-.8-1.37-.41-.27-.92-.4-1.52-.4s-1.08.11-1.41.32c-.33.21-.5.52-.5.92s.17.7.51.9c.34.2.79.34,1.36.44l.71.14c.84.15,1.61.35,2.29.6.68.25,1.22.6,1.62,1.06.4.46.6,1.08.6,1.86,0,1.18-.42,2.09-1.28,2.73-.85.64-2,.95-3.44.95Z"/><path class="cls-3" d="M306.74,241.31c-1.13,0-2.15-.23-3.05-.7-.9-.47-1.6-1.13-2.12-2-.51-.87-.77-1.91-.77-3.12v-.37c0-1.21.26-2.25.77-3.13.51-.87,1.22-1.54,2.12-2,.9-.46,1.91-.69,3.05-.69s2.15.23,3.04.69,1.59,1.13,2.1,2c.51.87.77,1.92.77,3.13v.37c0,1.21-.26,2.25-.77,3.12-.51.87-1.21,1.53-2.1,2s-1.9.7-3.04.7ZM306.74,238.97c.97,0,1.76-.31,2.37-.93.61-.62.92-1.49.92-2.61v-.23c0-1.12-.31-1.99-.92-2.61s-1.4-.93-2.37-.93-1.76.31-2.37.93-.92,1.49-.92,2.61v.23c0,1.12.31,1.99.92,2.61.61.62,1.4.93,2.37.93Z"/><path class="cls-3" d="M315.45,240.99v-16.1h2.64v16.1h-2.64Z"/><path class="cls-3" d="M325.8,241.17c-.88,0-1.65-.2-2.32-.59s-1.2-.94-1.56-1.66c-.37-.71-.55-1.54-.55-2.5v-6.81h2.62v6.6c0,.92.23,1.6.68,2.05.45.44,1.09.67,1.92.67.94,0,1.68-.31,2.22-.92.54-.61.82-1.49.82-2.65v-5.75h2.62v11.36h-2.58v-1.59h-.39c-.2.41-.56.81-1.09,1.2-.53.38-1.32.57-2.38.57Z"/><path class="cls-3" d="M339.92,240.99c-.74,0-1.32-.22-1.76-.66-.44-.44-.66-1.03-.66-1.78v-6.74h-2.97v-2.19h2.97v-3.66h2.65v3.66h3.27v2.19h-3.27v6.3c0,.46.21.69.64.69h2.28v2.19h-3.15Z"/><path class="cls-3" d="M347.42,228.18c-.48,0-.89-.16-1.23-.47-.35-.31-.52-.73-.52-1.25s.17-.94.52-1.25c.34-.31.75-.47,1.23-.47.51,0,.92.16,1.25.47.33.31.49.73.49,1.25s-.17.94-.49,1.25c-.33.31-.75.47-1.25.47ZM346.11,240.99v-11.36h2.64v11.36h-2.64Z"/><path class="cls-3" d="M357.5,241.31c-1.13,0-2.15-.23-3.05-.7s-1.6-1.13-2.12-2c-.51-.87-.77-1.91-.77-3.12v-.37c0-1.21.26-2.25.77-3.13.51-.87,1.22-1.54,2.12-2s1.91-.69,3.05-.69,2.15.23,3.04.69c.89.46,1.59,1.13,2.11,2,.51.87.77,1.92.77,3.13v.37c0,1.21-.26,2.25-.77,3.12-.51.87-1.22,1.53-2.11,2-.89.47-1.9.7-3.04.7ZM357.5,238.97c.96,0,1.75-.31,2.37-.93.61-.62.92-1.49.92-2.61v-.23c0-1.12-.31-1.99-.92-2.61-.61-.62-1.4-.93-2.37-.93s-1.76.31-2.37.93-.92,1.49-.92,2.61v.23c0,1.12.31,1.99.92,2.61.61.62,1.4.93,2.37.93Z"/><path class="cls-3" d="M366.21,240.99v-11.36h2.6v1.59h.39c.2-.43.56-.84,1.08-1.22.52-.38,1.31-.57,2.37-.57.87,0,1.65.2,2.32.6.68.4,1.2.95,1.58,1.66.38.71.56,1.54.56,2.51v6.81h-2.65v-6.6c0-.92-.23-1.61-.68-2.06-.45-.45-1.09-.68-1.92-.68-.94,0-1.67.31-2.21.93s-.8,1.51-.8,2.66v5.75h-2.64Z"/><path class="cls-3" d="M385.05,241.31c-1.47,0-2.68-.32-3.63-.97-.95-.64-1.53-1.59-1.72-2.83l2.44-.62c.11.58.3,1.04.58,1.38.28.34.62.57,1.02.71.41.14.85.21,1.32.21.72,0,1.26-.13,1.62-.39.36-.26.54-.59.54-.99s-.17-.72-.52-.92c-.35-.2-.87-.37-1.58-.51l-.71-.11c-.78-.15-1.49-.36-2.14-.63-.64-.27-1.16-.64-1.55-1.1-.39-.47-.59-1.06-.59-1.78,0-1.1.41-1.95,1.23-2.55s1.9-.9,3.23-.9,2.32.28,3.15.85c.83.57,1.36,1.33,1.61,2.28l-2.44.74c-.12-.64-.39-1.1-.8-1.37-.41-.27-.92-.4-1.52-.4s-1.08.11-1.42.32c-.33.21-.49.52-.49.92s.17.7.51.9c.34.2.79.34,1.36.44l.71.14c.84.15,1.61.35,2.29.6.68.25,1.22.6,1.62,1.06.4.46.6,1.08.6,1.86,0,1.18-.43,2.09-1.28,2.73-.85.64-2,.95-3.44.95Z"/><path class="cls-3" d="M401.82,241.31c-.8,0-1.52-.14-2.16-.43s-1.15-.69-1.53-1.23c-.38-.54-.56-1.2-.56-1.98s.19-1.41.56-1.93c.38-.52.89-.92,1.55-1.18.66-.27,1.41-.4,2.25-.4h3.29v-.69c0-.6-.18-1.08-.55-1.46-.37-.38-.94-.56-1.72-.56s-1.35.18-1.74.54c-.39.36-.65.82-.77,1.39l-2.44-.8c.18-.6.48-1.14.89-1.63.41-.49.95-.89,1.62-1.18.67-.3,1.5-.45,2.48-.45,1.49,0,2.66.37,3.51,1.12.85.74,1.28,1.82,1.28,3.23v4.46c0,.46.21.69.64.69h.97v2.19h-1.86c-.55,0-1-.14-1.36-.41-.35-.28-.53-.65-.53-1.13v-.05h-.39c-.09.21-.25.48-.48.78-.23.31-.58.57-1.05.79-.47.22-1.1.33-1.9.33ZM402.25,239.15c.87,0,1.59-.25,2.14-.75.55-.5.83-1.17.83-2.01v-.23h-3.13c-.57,0-1.03.12-1.38.37-.35.25-.53.61-.53,1.08s.18.83.55,1.12c.37.28.87.43,1.52.43Z"/><path class="cls-3" d="M411.57,240.99v-11.36h2.6v1.59h.39c.2-.43.56-.84,1.08-1.22.52-.38,1.31-.57,2.37-.57.87,0,1.65.2,2.32.6.67.4,1.2.95,1.58,1.66.38.71.56,1.54.56,2.51v6.81h-2.64v-6.6c0-.92-.23-1.61-.68-2.06-.45-.45-1.09-.68-1.92-.68-.94,0-1.67.31-2.21.93-.54.62-.8,1.51-.8,2.66v5.75h-2.65Z"/><path class="cls-3" d="M430.36,241.31c-.92,0-1.78-.23-2.58-.68-.8-.45-1.43-1.12-1.91-1.99-.47-.87-.71-1.92-.71-3.15v-.37c0-1.23.24-2.28.71-3.15s1.11-1.54,1.9-1.99c.79-.45,1.65-.68,2.59-.68.71,0,1.3.08,1.79.25.49.17.88.38,1.18.64.3.26.53.54.7.85h.39v-6.16h2.62v16.1h-2.58v-1.49h-.39c-.28.46-.7.88-1.26,1.25-.57.38-1.39.56-2.46.56ZM431.14,239.01c.95,0,1.74-.31,2.37-.93.63-.62.94-1.51.94-2.66v-.23c0-1.17-.31-2.05-.93-2.67-.62-.61-1.41-.92-2.38-.92s-1.74.31-2.38.92c-.64.61-.96,1.5-.96,2.67v.23c0,1.15.32,2.04.96,2.66.64.62,1.43.93,2.38.93Z"/><path class="cls-3" d="M9.79,274.31c-.92,0-1.78-.23-2.58-.68-.8-.45-1.43-1.12-1.91-1.99-.47-.87-.71-1.92-.71-3.15v-.37c0-1.23.24-2.28.71-3.15s1.11-1.54,1.9-1.99c.79-.45,1.65-.68,2.59-.68.71,0,1.3.08,1.79.25.49.17.88.38,1.18.64.3.26.53.54.7.85h.39v-6.16h2.62v16.1h-2.58v-1.49h-.39c-.28.46-.7.88-1.26,1.25-.57.38-1.39.56-2.46.56ZM10.57,272.01c.95,0,1.74-.31,2.37-.93.63-.62.94-1.51.94-2.66v-.23c0-1.17-.31-2.05-.93-2.67-.62-.61-1.41-.92-2.38-.92s-1.74.31-2.38.92c-.64.61-.96,1.5-.96,2.67v.23c0,1.15.32,2.04.96,2.66.64.62,1.43.93,2.38.93Z"/><path class="cls-3" d="M25.04,274.31c-1.13,0-2.14-.24-3-.72-.87-.48-1.54-1.17-2.02-2.05-.48-.88-.72-1.91-.72-3.09v-.28c0-1.2.24-2.23.71-3.1.47-.87,1.14-1.55,2-2.04.86-.48,1.85-.72,2.97-.72s2.07.24,2.9.72,1.47,1.16,1.93,2.04c.46.87.69,1.89.69,3.06v.94h-8.53c.03.89.34,1.6.94,2.14.6.54,1.33.8,2.21.8s1.5-.19,1.91-.56c.41-.38.73-.8.94-1.28l2.19,1.13c-.21.41-.53.85-.93,1.32-.41.47-.95.87-1.62,1.2-.68.33-1.53.49-2.55.49ZM21.98,267.07h5.82c-.06-.75-.35-1.35-.86-1.79-.51-.44-1.18-.67-1.99-.67s-1.52.22-2.02.67c-.51.44-.82,1.04-.94,1.79Z"/><path class="cls-3" d="M33.2,273.99v-11.36h2.6v1.27h.39c.2-.38.53-.72,1-1.02.47-.3,1.09-.45,1.88-.45.83,0,1.5.17,2,.51.51.34.89.77,1.15,1.29h.37c.26-.52.64-.95,1.13-1.29.49-.34,1.19-.51,2.09-.51.71,0,1.34.15,1.92.46.57.31,1.03.76,1.38,1.36.35.6.52,1.34.52,2.23v7.52h-2.64v-7.34c0-.66-.18-1.16-.53-1.51-.35-.34-.84-.52-1.47-.52-.69,0-1.24.23-1.64.68-.41.45-.61,1.1-.61,1.94v6.74h-2.62v-7.34c0-.66-.18-1.16-.53-1.51s-.84-.52-1.47-.52c-.71,0-1.26.23-1.66.68-.4.45-.6,1.1-.6,1.94v6.74h-2.65Z"/><path class="cls-3" d="M58.25,274.31c-1.13,0-2.15-.23-3.05-.7s-1.6-1.13-2.12-2c-.51-.87-.77-1.91-.77-3.12v-.37c0-1.21.26-2.25.77-3.13.51-.87,1.22-1.54,2.12-2s1.91-.69,3.05-.69,2.15.23,3.04.69c.89.46,1.59,1.13,2.1,2,.51.87.77,1.92.77,3.13v.37c0,1.21-.26,2.25-.77,3.12-.51.87-1.21,1.53-2.1,2-.89.47-1.9.7-3.04.7ZM58.25,271.97c.97,0,1.76-.31,2.37-.93.61-.62.92-1.49.92-2.61v-.23c0-1.12-.31-1.99-.92-2.61s-1.4-.93-2.37-.93-1.76.31-2.37.93-.92,1.49-.92,2.61v.23c0,1.12.31,1.99.92,2.61.61.62,1.4.93,2.37.93Z"/><path class="cls-3" d="M66.96,273.99v-11.36h2.6v1.59h.39c.2-.43.56-.84,1.08-1.22.52-.38,1.31-.57,2.37-.57.87,0,1.65.2,2.32.6.67.4,1.2.95,1.58,1.66.38.71.56,1.54.56,2.51v6.81h-2.64v-6.6c0-.92-.23-1.61-.68-2.06-.45-.45-1.09-.68-1.92-.68-.94,0-1.67.31-2.21.93s-.8,1.51-.8,2.66v5.75h-2.65Z"/><path class="cls-3" d="M85.8,274.31c-1.47,0-2.68-.32-3.63-.97-.95-.64-1.53-1.59-1.72-2.83l2.44-.62c.11.58.3,1.04.57,1.38.28.34.62.57,1.02.71.41.14.85.21,1.32.21.72,0,1.26-.13,1.62-.39.36-.26.54-.59.54-.99s-.17-.72-.52-.92c-.34-.2-.87-.37-1.58-.51l-.71-.11c-.78-.15-1.5-.36-2.14-.63-.64-.27-1.16-.64-1.55-1.1-.39-.47-.59-1.06-.59-1.78,0-1.1.41-1.95,1.23-2.55.82-.6,1.9-.9,3.23-.9s2.32.28,3.15.85c.83.57,1.37,1.33,1.61,2.28l-2.44.74c-.12-.64-.39-1.1-.8-1.37-.41-.27-.92-.4-1.52-.4s-1.08.11-1.41.32c-.33.21-.5.52-.5.92s.17.7.51.9c.34.2.79.34,1.36.44l.71.14c.84.15,1.61.35,2.29.6.68.25,1.22.6,1.62,1.06.4.46.6,1.08.6,1.86,0,1.18-.42,2.09-1.28,2.73-.85.64-2,.95-3.44.95Z"/><path class="cls-3" d="M97.28,273.99c-.74,0-1.32-.22-1.76-.66-.44-.44-.66-1.03-.66-1.78v-6.74h-2.97v-2.19h2.97v-3.66h2.64v3.66h3.27v2.19h-3.27v6.3c0,.46.21.69.64.69h2.28v2.19h-3.15Z"/><path class="cls-3" d="M103.46,273.99v-11.36h2.6v1.31h.39c.17-.48.45-.82.85-1.04.4-.21.87-.32,1.43-.32h1.38v2.35h-1.43c-.77,0-1.39.2-1.86.61-.48.41-.71,1.03-.71,1.87v6.58h-2.65Z"/><path class="cls-3" d="M115.68,274.31c-.8,0-1.52-.14-2.16-.43s-1.15-.69-1.53-1.23c-.38-.54-.56-1.2-.56-1.98s.19-1.41.56-1.93c.38-.52.89-.92,1.55-1.18.66-.27,1.41-.4,2.25-.4h3.29v-.69c0-.6-.18-1.08-.55-1.46-.37-.38-.94-.56-1.72-.56s-1.35.18-1.74.54c-.39.36-.65.82-.77,1.39l-2.44-.8c.18-.6.48-1.14.89-1.63.41-.49.95-.89,1.62-1.18.67-.3,1.5-.45,2.48-.45,1.49,0,2.66.37,3.51,1.12.85.74,1.28,1.82,1.28,3.23v4.46c0,.46.21.69.64.69h.97v2.19h-1.86c-.55,0-1-.14-1.36-.41-.35-.28-.53-.65-.53-1.13v-.05h-.39c-.09.21-.25.48-.48.78-.23.31-.58.57-1.05.79-.47.22-1.1.33-1.9.33ZM116.12,272.15c.87,0,1.59-.25,2.14-.75.55-.5.83-1.17.83-2.01v-.23h-3.13c-.57,0-1.03.12-1.38.37-.35.25-.53.61-.53,1.08s.18.83.55,1.12c.37.28.87.43,1.52.43Z"/><path class="cls-3" d="M128.95,273.99c-.74,0-1.32-.22-1.76-.66-.44-.44-.66-1.03-.66-1.78v-6.74h-2.97v-2.19h2.97v-3.66h2.65v3.66h3.27v2.19h-3.27v6.3c0,.46.21.69.64.69h2.28v2.19h-3.15Z"/><path class="cls-3" d="M139.92,274.31c-1.13,0-2.13-.24-3-.72-.87-.48-1.54-1.17-2.02-2.05-.48-.88-.72-1.91-.72-3.09v-.28c0-1.2.24-2.23.71-3.1.48-.87,1.14-1.55,2-2.04.86-.48,1.85-.72,2.97-.72s2.07.24,2.9.72,1.47,1.16,1.93,2.04c.46.87.69,1.89.69,3.06v.94h-8.53c.03.89.35,1.6.94,2.14.6.54,1.33.8,2.21.8s1.5-.19,1.91-.56c.41-.38.73-.8.94-1.28l2.18,1.13c-.21.41-.53.85-.93,1.32-.41.47-.95.87-1.62,1.2s-1.53.49-2.55.49ZM136.86,267.07h5.82c-.06-.75-.35-1.35-.86-1.79-.51-.44-1.18-.67-1.99-.67s-1.52.22-2.02.67c-.51.44-.82,1.04-.94,1.79Z"/><path class="cls-3" d="M156.46,273.99l-3.73-11.36h2.81l2.81,9.43h.39l2.83-9.43h2.81l-3.73,11.36h-4.19Z"/><path class="cls-3" d="M171.34,274.31c-1.13,0-2.13-.24-3-.72-.87-.48-1.54-1.17-2.02-2.05-.48-.88-.72-1.91-.72-3.09v-.28c0-1.2.24-2.23.71-3.1.47-.87,1.14-1.55,2-2.04s1.85-.72,2.97-.72,2.07.24,2.9.72,1.47,1.16,1.93,2.04c.46.87.69,1.89.69,3.06v.94h-8.53c.03.89.35,1.6.94,2.14.6.54,1.33.8,2.21.8s1.5-.19,1.91-.56c.41-.38.73-.8.94-1.28l2.18,1.13c-.21.41-.53.85-.93,1.32-.41.47-.95.87-1.62,1.2s-1.53.49-2.55.49ZM168.28,267.07h5.82c-.06-.75-.35-1.35-.86-1.79-.51-.44-1.18-.67-1.99-.67s-1.52.22-2.02.67c-.51.44-.82,1.04-.94,1.79Z"/><path class="cls-3" d="M179.5,273.99v-11.36h2.6v1.31h.39c.17-.48.45-.82.85-1.04.4-.21.87-.32,1.43-.32h1.38v2.35h-1.43c-.77,0-1.39.2-1.86.61-.48.41-.71,1.03-.71,1.87v6.58h-2.65Z"/><path class="cls-3" d="M192.93,274.31c-1.47,0-2.68-.32-3.63-.97-.95-.64-1.53-1.59-1.72-2.83l2.44-.62c.11.58.3,1.04.57,1.38.28.34.62.57,1.02.71.41.14.85.21,1.32.21.72,0,1.26-.13,1.62-.39.36-.26.54-.59.54-.99s-.17-.72-.52-.92c-.34-.2-.87-.37-1.58-.51l-.71-.11c-.78-.15-1.5-.36-2.14-.63-.64-.27-1.16-.64-1.55-1.1-.39-.47-.59-1.06-.59-1.78,0-1.1.41-1.95,1.23-2.55.82-.6,1.9-.9,3.23-.9s2.32.28,3.15.85c.83.57,1.37,1.33,1.61,2.28l-2.44.74c-.12-.64-.39-1.1-.8-1.37-.41-.27-.92-.4-1.52-.4s-1.08.11-1.41.32c-.33.21-.5.52-.5.92s.17.7.51.9c.34.2.79.34,1.36.44l.71.14c.84.15,1.61.35,2.29.6.68.25,1.22.6,1.62,1.06.4.46.6,1.08.6,1.86,0,1.18-.42,2.09-1.28,2.73-.85.64-2,.95-3.44.95Z"/><path class="cls-3" d="M203.74,274.31c-.8,0-1.52-.14-2.16-.43-.64-.28-1.15-.69-1.53-1.23-.38-.54-.56-1.2-.56-1.98s.19-1.41.56-1.93c.38-.52.89-.92,1.55-1.18.66-.27,1.41-.4,2.25-.4h3.29v-.69c0-.6-.18-1.08-.55-1.46-.37-.38-.94-.56-1.72-.56s-1.35.18-1.74.54c-.39.36-.65.82-.77,1.39l-2.44-.8c.18-.6.48-1.14.89-1.63.41-.49.95-.89,1.62-1.18.67-.3,1.5-.45,2.48-.45,1.49,0,2.66.37,3.51,1.12.85.74,1.28,1.82,1.28,3.23v4.46c0,.46.21.69.64.69h.97v2.19h-1.86c-.55,0-1-.14-1.36-.41-.35-.28-.53-.65-.53-1.13v-.05h-.39c-.09.21-.25.48-.48.78-.23.31-.58.57-1.05.79-.47.22-1.1.33-1.9.33ZM204.18,272.15c.87,0,1.59-.25,2.14-.75.55-.5.83-1.17.83-2.01v-.23h-3.13c-.57,0-1.03.12-1.38.37-.35.25-.53.61-.53,1.08s.18.83.55,1.12c.37.28.87.43,1.52.43Z"/><path class="cls-3" d="M217.02,273.99c-.74,0-1.32-.22-1.76-.66-.44-.44-.66-1.03-.66-1.78v-6.74h-2.97v-2.19h2.97v-3.66h2.65v3.66h3.27v2.19h-3.27v6.3c0,.46.21.69.64.69h2.28v2.19h-3.15Z"/><path class="cls-3" d="M224.51,261.18c-.48,0-.89-.16-1.23-.47-.35-.31-.52-.73-.52-1.25s.17-.94.52-1.25c.34-.31.75-.47,1.23-.47.51,0,.92.16,1.25.47.33.31.49.73.49,1.25s-.17.94-.49,1.25c-.33.31-.75.47-1.25.47ZM223.2,273.99v-11.36h2.64v11.36h-2.64Z"/><path class="cls-3" d="M229.21,273.99v-16.1h2.64v16.1h-2.64Z"/><path class="cls-3" d="M236.52,261.18c-.48,0-.89-.16-1.23-.47-.34-.31-.52-.73-.52-1.25s.17-.94.52-1.25c.34-.31.75-.47,1.23-.47.51,0,.92.16,1.25.47.33.31.49.73.49,1.25s-.17.94-.49,1.25c-.33.31-.75.47-1.25.47ZM235.21,273.99v-11.36h2.65v11.36h-2.65Z"/><path class="cls-3" d="M245.54,273.99c-.74,0-1.32-.22-1.76-.66s-.66-1.03-.66-1.78v-6.74h-2.97v-2.19h2.97v-3.66h2.65v3.66h3.27v2.19h-3.27v6.3c0,.46.21.69.64.69h2.28v2.19h-3.15Z"/><path class="cls-3" d="M252.99,278.59v-2.3h6.28c.43,0,.64-.23.64-.69v-3.17h-.39c-.12.28-.32.55-.6.82-.28.27-.64.49-1.1.67-.46.18-1.04.26-1.75.26-.87,0-1.65-.2-2.32-.59-.68-.39-1.2-.94-1.56-1.66-.37-.71-.55-1.54-.55-2.5v-6.81h2.62v6.6c0,.92.23,1.6.68,2.05.45.44,1.09.67,1.92.67.93,0,1.67-.31,2.22-.92.54-.61.82-1.49.82-2.65v-5.75h2.62v13.52c0,.75-.21,1.35-.64,1.78s-1.01.66-1.75.66h-7.13Z"/><path class="cls-3" d="M275.25,274.31c-.8,0-1.52-.14-2.16-.43s-1.15-.69-1.53-1.23c-.38-.54-.56-1.2-.56-1.98s.19-1.41.56-1.93c.38-.52.89-.92,1.55-1.18.66-.27,1.41-.4,2.25-.4h3.29v-.69c0-.6-.18-1.08-.55-1.46-.37-.38-.94-.56-1.72-.56s-1.35.18-1.74.54c-.39.36-.65.82-.77,1.39l-2.44-.8c.18-.6.48-1.14.89-1.63.41-.49.95-.89,1.62-1.18.67-.3,1.5-.45,2.48-.45,1.49,0,2.66.37,3.51,1.12.85.74,1.28,1.82,1.28,3.23v4.46c0,.46.21.69.64.69h.97v2.19h-1.86c-.55,0-1-.14-1.36-.41s-.53-.65-.53-1.13v-.05h-.39c-.09.21-.25.48-.48.78-.23.31-.58.57-1.05.79-.47.22-1.1.33-1.9.33ZM275.69,272.15c.87,0,1.59-.25,2.14-.75.55-.5.83-1.17.83-2.01v-.23h-3.13c-.57,0-1.03.12-1.38.37-.35.25-.53.61-.53,1.08s.18.83.55,1.12c.37.28.87.43,1.52.43Z"/><path class="cls-3" d="M290.06,274.31c-1.1,0-2.1-.23-2.99-.69-.89-.46-1.59-1.13-2.11-2s-.77-1.92-.77-3.15v-.32c0-1.23.26-2.28.77-3.15.51-.87,1.21-1.54,2.11-2,.89-.46,1.89-.69,2.99-.69s2.02.19,2.79.57c.77.38,1.4.91,1.87,1.58.48.67.78,1.41.92,2.24l-2.55.53c-.06-.48-.21-.91-.44-1.3-.23-.39-.55-.7-.98-.93-.42-.23-.94-.34-1.55-.34s-1.19.13-1.69.4c-.5.27-.89.67-1.17,1.21-.28.54-.43,1.18-.43,1.93v.23c0,.75.14,1.39.43,1.92.28.53.67.93,1.17,1.21.5.28,1.06.41,1.69.41.94,0,1.64-.24,2.13-.72.48-.48.79-1.11.91-1.87l2.55.6c-.18.8-.51,1.53-.99,2.19-.47.66-1.1,1.18-1.87,1.58s-1.71.59-2.79.59Z"/><path class="cls-3" d="M298.3,273.99v-11.36h2.6v1.31h.39c.17-.48.45-.82.85-1.04.4-.21.87-.32,1.43-.32h1.38v2.35h-1.43c-.77,0-1.39.2-1.86.61-.48.41-.71,1.03-.71,1.87v6.58h-2.65Z"/><path class="cls-3" d="M312.26,274.31c-1.13,0-2.15-.23-3.05-.7-.9-.47-1.6-1.13-2.12-2-.51-.87-.77-1.91-.77-3.12v-.37c0-1.21.26-2.25.77-3.13.51-.87,1.22-1.54,2.12-2,.9-.46,1.91-.69,3.05-.69s2.15.23,3.04.69c.89.46,1.59,1.13,2.1,2,.51.87.77,1.92.77,3.13v.37c0,1.21-.26,2.25-.77,3.12-.51.87-1.22,1.53-2.1,2-.89.47-1.9.7-3.04.7ZM312.26,271.97c.97,0,1.75-.31,2.37-.93.61-.62.92-1.49.92-2.61v-.23c0-1.12-.31-1.99-.92-2.61-.61-.62-1.4-.93-2.37-.93s-1.76.31-2.37.93-.92,1.49-.92,2.61v.23c0,1.12.31,1.99.92,2.61.61.62,1.4.93,2.37.93Z"/><path class="cls-3" d="M325.67,274.31c-1.47,0-2.68-.32-3.63-.97-.95-.64-1.53-1.59-1.72-2.83l2.44-.62c.11.58.3,1.04.58,1.38.28.34.62.57,1.02.71.41.14.85.21,1.32.21.72,0,1.26-.13,1.62-.39.36-.26.54-.59.54-.99s-.17-.72-.52-.92c-.35-.2-.87-.37-1.58-.51l-.71-.11c-.78-.15-1.5-.36-2.14-.63-.64-.27-1.16-.64-1.55-1.1-.39-.47-.59-1.06-.59-1.78,0-1.1.41-1.95,1.23-2.55.82-.6,1.9-.9,3.23-.9s2.32.28,3.15.85c.83.57,1.36,1.33,1.61,2.28l-2.44.74c-.12-.64-.39-1.1-.8-1.37-.41-.27-.92-.4-1.52-.4s-1.08.11-1.41.32c-.33.21-.49.52-.49.92s.17.7.51.9c.34.2.79.34,1.36.44l.71.14c.84.15,1.61.35,2.29.6.68.25,1.22.6,1.62,1.06.4.46.6,1.08.6,1.86,0,1.18-.43,2.09-1.28,2.73-.85.64-2,.95-3.44.95Z"/><path class="cls-3" d="M337.74,274.31c-1.47,0-2.68-.32-3.63-.97-.95-.64-1.53-1.59-1.72-2.83l2.44-.62c.11.58.3,1.04.58,1.38.28.34.62.57,1.02.71.41.14.85.21,1.32.21.72,0,1.26-.13,1.62-.39.36-.26.54-.59.54-.99s-.17-.72-.52-.92c-.35-.2-.87-.37-1.58-.51l-.71-.11c-.78-.15-1.49-.36-2.14-.63-.64-.27-1.16-.64-1.55-1.1-.39-.47-.59-1.06-.59-1.78,0-1.1.41-1.95,1.23-2.55s1.9-.9,3.23-.9,2.32.28,3.15.85c.83.57,1.36,1.33,1.61,2.28l-2.44.74c-.12-.64-.39-1.1-.8-1.37-.41-.27-.92-.4-1.52-.4s-1.08.11-1.42.32c-.33.21-.49.52-.49.92s.17.7.51.9c.34.2.79.34,1.36.44l.71.14c.84.15,1.61.35,2.29.6.68.25,1.22.6,1.62,1.06.4.46.6,1.08.6,1.86,0,1.18-.43,2.09-1.28,2.73-.85.64-2,.95-3.44.95Z"/><path class="cls-3" d="M353.49,273.99l-3.73-11.36h2.81l2.81,9.43h.39l2.83-9.43h2.81l-3.73,11.36h-4.19Z"/><path class="cls-3" d="M366.77,274.31c-.8,0-1.52-.14-2.16-.43s-1.15-.69-1.53-1.23c-.38-.54-.56-1.2-.56-1.98s.19-1.41.56-1.93c.38-.52.89-.92,1.55-1.18.66-.27,1.41-.4,2.25-.4h3.29v-.69c0-.6-.18-1.08-.55-1.46-.37-.38-.94-.56-1.72-.56s-1.35.18-1.74.54c-.39.36-.65.82-.77,1.39l-2.44-.8c.18-.6.48-1.14.89-1.63.41-.49.95-.89,1.62-1.18.67-.3,1.5-.45,2.48-.45,1.49,0,2.66.37,3.51,1.12.85.74,1.28,1.82,1.28,3.23v4.46c0,.46.21.69.64.69h.97v2.19h-1.86c-.55,0-1-.14-1.36-.41s-.53-.65-.53-1.13v-.05h-.39c-.09.21-.25.48-.48.78-.23.31-.58.57-1.05.79-.47.22-1.1.33-1.9.33ZM367.2,272.15c.87,0,1.59-.25,2.14-.75.55-.5.83-1.17.83-2.01v-.23h-3.13c-.57,0-1.03.12-1.38.37-.35.25-.53.61-.53,1.08s.18.83.55,1.12c.37.28.87.43,1.52.43Z"/><path class="cls-3" d="M376.52,273.99v-11.36h2.6v1.31h.39c.17-.48.45-.82.85-1.04.4-.21.87-.32,1.43-.32h1.38v2.35h-1.43c-.77,0-1.39.2-1.86.61-.47.41-.71,1.03-.71,1.87v6.58h-2.64Z"/><path class="cls-3" d="M386.82,261.18c-.48,0-.89-.16-1.23-.47-.34-.31-.52-.73-.52-1.25s.17-.94.52-1.25c.35-.31.76-.47,1.23-.47.51,0,.92.16,1.25.47.33.31.49.73.49,1.25s-.16.94-.49,1.25c-.33.31-.75.47-1.25.47ZM385.51,273.99v-11.36h2.65v11.36h-2.65Z"/><path class="cls-3" d="M396.89,274.31c-1.13,0-2.15-.23-3.05-.7s-1.6-1.13-2.12-2c-.51-.87-.77-1.91-.77-3.12v-.37c0-1.21.26-2.25.77-3.13.51-.87,1.22-1.54,2.12-2s1.91-.69,3.05-.69,2.15.23,3.04.69c.89.46,1.59,1.13,2.1,2,.51.87.77,1.92.77,3.13v.37c0,1.21-.26,2.25-.77,3.12-.51.87-1.21,1.53-2.1,2-.89.47-1.9.7-3.04.7ZM396.89,271.97c.97,0,1.76-.31,2.37-.93.61-.62.92-1.49.92-2.61v-.23c0-1.12-.31-1.99-.92-2.61s-1.4-.93-2.37-.93-1.76.31-2.37.93-.92,1.49-.92,2.61v.23c0,1.12.31,1.99.92,2.61.61.62,1.4.93,2.37.93Z"/><path class="cls-3" d="M409.96,274.17c-.88,0-1.65-.2-2.32-.59s-1.2-.94-1.56-1.66c-.37-.71-.55-1.54-.55-2.5v-6.81h2.62v6.6c0,.92.23,1.6.68,2.05.45.44,1.09.67,1.92.67.94,0,1.68-.31,2.22-.92.54-.61.82-1.49.82-2.65v-5.75h2.62v11.36h-2.58v-1.59h-.39c-.2.41-.56.81-1.09,1.2-.53.38-1.32.57-2.38.57Z"/><path class="cls-3" d="M424.45,274.31c-1.47,0-2.68-.32-3.63-.97-.95-.64-1.53-1.59-1.72-2.83l2.44-.62c.11.58.3,1.04.57,1.38.28.34.62.57,1.02.71.41.14.85.21,1.32.21.72,0,1.26-.13,1.62-.39.36-.26.54-.59.54-.99s-.17-.72-.52-.92c-.34-.2-.87-.37-1.58-.51l-.71-.11c-.78-.15-1.5-.36-2.14-.63-.64-.27-1.16-.64-1.55-1.1-.39-.47-.59-1.06-.59-1.78,0-1.1.41-1.95,1.23-2.55.82-.6,1.9-.9,3.23-.9s2.32.28,3.15.85c.83.57,1.37,1.33,1.61,2.28l-2.44.74c-.12-.64-.39-1.1-.8-1.37-.41-.27-.92-.4-1.52-.4s-1.08.11-1.41.32c-.33.21-.5.52-.5.92s.17.7.51.9c.34.2.79.34,1.36.44l.71.14c.84.15,1.61.35,2.29.6.68.25,1.22.6,1.62,1.06.4.46.6,1.08.6,1.86,0,1.18-.42,2.09-1.28,2.73-.85.64-2,.95-3.44.95Z"/><path class="cls-3" d="M9.79,307.31c-.92,0-1.78-.23-2.58-.68-.8-.45-1.43-1.12-1.91-1.99-.47-.87-.71-1.92-.71-3.15v-.37c0-1.23.24-2.28.71-3.15s1.11-1.54,1.9-1.99c.79-.45,1.65-.68,2.59-.68.71,0,1.3.08,1.79.25.49.17.88.38,1.18.64.3.26.53.54.7.85h.39v-6.16h2.62v16.1h-2.58v-1.49h-.39c-.28.46-.7.88-1.26,1.25-.57.38-1.39.56-2.46.56ZM10.57,305.01c.95,0,1.74-.31,2.37-.93.63-.62.94-1.51.94-2.66v-.23c0-1.17-.31-2.05-.93-2.67-.62-.61-1.41-.92-2.38-.92s-1.74.31-2.38.92c-.64.61-.96,1.5-.96,2.67v.23c0,1.15.32,2.04.96,2.66.64.62,1.43.93,2.38.93Z"/><path class="cls-3" d="M25.04,307.31c-1.13,0-2.14-.24-3-.72-.87-.48-1.54-1.17-2.02-2.05-.48-.88-.72-1.91-.72-3.09v-.28c0-1.2.24-2.23.71-3.1.47-.87,1.14-1.55,2-2.04.86-.48,1.85-.72,2.97-.72s2.07.24,2.9.72,1.47,1.16,1.93,2.04c.46.87.69,1.89.69,3.06v.94h-8.53c.03.89.34,1.6.94,2.14.6.54,1.33.8,2.21.8s1.5-.19,1.91-.56c.41-.38.73-.8.94-1.28l2.19,1.13c-.21.41-.53.85-.93,1.32-.41.47-.95.87-1.62,1.2-.68.33-1.53.49-2.55.49ZM21.98,300.07h5.82c-.06-.75-.35-1.35-.86-1.79-.51-.44-1.18-.67-1.99-.67s-1.52.22-2.02.67c-.51.44-.82,1.04-.94,1.79Z"/><path class="cls-3" d="M37.89,307.31c-1.47,0-2.68-.32-3.63-.97-.95-.64-1.53-1.59-1.72-2.83l2.44-.62c.11.58.3,1.04.57,1.38.28.34.62.57,1.02.71.41.14.85.21,1.32.21.72,0,1.26-.13,1.62-.39.36-.26.54-.59.54-.99s-.17-.72-.52-.92c-.34-.2-.87-.37-1.58-.51l-.71-.11c-.78-.15-1.5-.36-2.14-.63-.64-.27-1.16-.64-1.55-1.1-.39-.47-.59-1.06-.59-1.78,0-1.1.41-1.95,1.23-2.55.82-.6,1.9-.9,3.23-.9s2.32.28,3.15.85c.83.57,1.37,1.33,1.61,2.28l-2.44.74c-.12-.64-.39-1.1-.8-1.37-.41-.27-.92-.4-1.52-.4s-1.08.11-1.41.32c-.33.21-.5.52-.5.92s.17.7.51.9c.34.2.79.34,1.36.44l.71.14c.84.15,1.61.35,2.29.6.68.25,1.22.6,1.62,1.06.4.46.6,1.08.6,1.86,0,1.18-.42,2.09-1.28,2.73-.85.64-2,.95-3.44.95Z"/><path class="cls-3" d="M46.59,294.18c-.48,0-.89-.16-1.23-.47-.34-.31-.52-.73-.52-1.25s.17-.94.52-1.25c.34-.31.75-.47,1.23-.47.51,0,.92.16,1.25.47.33.31.49.73.49,1.25s-.17.94-.49,1.25c-.33.31-.75.47-1.25.47ZM45.28,306.99v-11.36h2.65v11.36h-2.65Z"/><path class="cls-3" d="M50.73,301.35v-.34c0-1.2.24-2.22.71-3.07.47-.85,1.11-1.5,1.91-1.95.8-.45,1.67-.68,2.62-.68,1.07,0,1.89.19,2.45.57.56.38.97.8,1.23,1.24h.39v-1.5h2.58v13.52c0,.75-.21,1.35-.64,1.78-.43.44-1.01.66-1.75.66h-7.64v-2.3h6.74c.45,0,.67-.23.67-.69v-3.29h-.39c-.17.26-.4.53-.69.79-.29.27-.67.49-1.15.68-.48.18-1.07.28-1.79.28-.95,0-1.83-.23-2.62-.68-.8-.45-1.43-1.1-1.91-1.95-.47-.85-.71-1.87-.71-3.07ZM56.71,304.74c.95,0,1.74-.3,2.37-.91.63-.61.94-1.45.94-2.54v-.23c0-1.1-.31-1.96-.93-2.55-.62-.6-1.41-.9-2.38-.9s-1.74.3-2.38.9c-.64.6-.96,1.45-.96,2.55v.23c0,1.09.32,1.94.96,2.54.64.61,1.43.91,2.38.91Z"/><path class="cls-3" d="M65.98,306.99v-11.36h2.6v1.59h.39c.2-.43.56-.84,1.08-1.22.52-.38,1.31-.57,2.37-.57.87,0,1.65.2,2.32.6.67.4,1.2.95,1.58,1.66.38.71.56,1.54.56,2.51v6.81h-2.64v-6.6c0-.92-.23-1.61-.68-2.06-.45-.45-1.09-.68-1.92-.68-.94,0-1.67.31-2.21.93-.54.62-.8,1.51-.8,2.66v5.75h-2.65Z"/><path class="cls-3" d="M90.63,307.31c-.92,0-1.78-.23-2.58-.68-.8-.45-1.43-1.12-1.91-1.99-.48-.87-.71-1.92-.71-3.15v-.37c0-1.23.24-2.28.71-3.15.47-.87,1.11-1.54,1.9-1.99.79-.45,1.65-.68,2.59-.68.71,0,1.3.08,1.79.25.49.17.88.38,1.18.64.3.26.53.54.7.85h.39v-6.16h2.62v16.1h-2.58v-1.49h-.39c-.28.46-.7.88-1.27,1.25-.57.38-1.39.56-2.46.56ZM91.41,305.01c.95,0,1.74-.31,2.37-.93.63-.62.94-1.51.94-2.66v-.23c0-1.17-.31-2.05-.93-2.67-.62-.61-1.41-.92-2.38-.92s-1.74.31-2.38.92c-.64.61-.96,1.5-.96,2.67v.23c0,1.15.32,2.04.96,2.66.64.62,1.43.93,2.38.93Z"/><path class="cls-3" d="M101.99,294.18c-.48,0-.89-.16-1.23-.47-.34-.31-.52-.73-.52-1.25s.17-.94.52-1.25c.35-.31.76-.47,1.23-.47.51,0,.92.16,1.25.47.33.31.49.73.49,1.25s-.16.94-.49,1.25c-.33.31-.75.47-1.25.47ZM100.68,306.99v-11.36h2.65v11.36h-2.65Z"/><path class="cls-3" d="M111.38,307.31c-1.47,0-2.68-.32-3.63-.97-.95-.64-1.53-1.59-1.72-2.83l2.44-.62c.11.58.3,1.04.58,1.38.28.34.62.57,1.02.71.41.14.85.21,1.32.21.72,0,1.26-.13,1.62-.39.36-.26.54-.59.54-.99s-.17-.72-.52-.92c-.35-.2-.87-.37-1.58-.51l-.71-.11c-.78-.15-1.49-.36-2.14-.63-.64-.27-1.16-.64-1.55-1.1-.39-.47-.59-1.06-.59-1.78,0-1.1.41-1.95,1.23-2.55s1.9-.9,3.23-.9,2.32.28,3.15.85c.83.57,1.36,1.33,1.61,2.28l-2.44.74c-.12-.64-.39-1.1-.8-1.37-.41-.27-.92-.4-1.52-.4s-1.08.11-1.42.32c-.33.21-.49.52-.49.92s.17.7.51.9c.34.2.79.34,1.36.44l.71.14c.84.15,1.61.35,2.29.6.68.25,1.22.6,1.62,1.06.4.46.6,1.08.6,1.86,0,1.18-.43,2.09-1.28,2.73-.85.64-2,.95-3.44.95Z"/><path class="cls-3" d="M124.07,307.31c-1.1,0-2.1-.23-2.99-.69-.89-.46-1.59-1.13-2.1-2s-.77-1.92-.77-3.15v-.32c0-1.23.26-2.28.77-3.15.51-.87,1.21-1.54,2.1-2,.89-.46,1.89-.69,2.99-.69s2.02.19,2.79.57c.77.38,1.4.91,1.88,1.58.47.67.78,1.41.92,2.24l-2.55.53c-.06-.48-.21-.91-.44-1.3-.23-.39-.56-.7-.98-.93-.42-.23-.94-.34-1.55-.34s-1.19.13-1.69.4c-.5.27-.89.67-1.17,1.21-.28.54-.42,1.18-.42,1.93v.23c0,.75.14,1.39.42,1.92.28.53.68.93,1.17,1.21s1.06.41,1.69.41c.93,0,1.64-.24,2.13-.72.48-.48.79-1.11.91-1.87l2.55.6c-.18.8-.51,1.53-.99,2.19-.48.66-1.1,1.18-1.88,1.58-.77.39-1.71.59-2.79.59Z"/><path class="cls-3" d="M133.62,294.18c-.47,0-.88-.16-1.23-.47-.34-.31-.52-.73-.52-1.25s.17-.94.52-1.25c.35-.31.76-.47,1.23-.47.51,0,.92.16,1.25.47.33.31.49.73.49,1.25s-.16.94-.49,1.25c-.33.31-.75.47-1.25.47ZM132.31,306.99v-11.36h2.64v11.36h-2.64Z"/><path class="cls-3" d="M138.31,311.59v-15.96h2.6v1.5h.39c.26-.48.68-.9,1.25-1.27.57-.37,1.4-.55,2.47-.55.92,0,1.77.23,2.56.68.79.45,1.42,1.12,1.9,1.99.48.87.71,1.92.71,3.15v.37c0,1.23-.24,2.28-.71,3.15-.47.87-1.1,1.54-1.88,1.99-.78.45-1.64.68-2.58.68-.72,0-1.32-.08-1.81-.25-.48-.17-.87-.39-1.17-.67s-.53-.55-.7-.83h-.39v6.03h-2.65ZM144.24,305.01c.97,0,1.76-.31,2.38-.93.62-.62.93-1.51.93-2.66v-.23c0-1.17-.31-2.05-.94-2.67-.63-.61-1.42-.92-2.37-.92s-1.74.31-2.38.92c-.64.61-.95,1.5-.95,2.67v.23c0,1.15.32,2.04.95,2.66.64.62,1.43.93,2.38.93Z"/><path class="cls-3" d="M153.01,306.99v-16.1h2.64v16.1h-2.64Z"/><path class="cls-3" d="M160.32,294.18c-.48,0-.89-.16-1.23-.47-.34-.31-.52-.73-.52-1.25s.17-.94.52-1.25c.35-.31.76-.47,1.23-.47.51,0,.92.16,1.25.47.33.31.49.73.49,1.25s-.16.94-.49,1.25c-.33.31-.75.47-1.25.47ZM159.01,306.99v-11.36h2.65v11.36h-2.65Z"/><path class="cls-3" d="M165.01,306.99v-11.36h2.6v1.59h.39c.2-.43.56-.84,1.08-1.22.52-.38,1.31-.57,2.37-.57.87,0,1.65.2,2.32.6.68.4,1.2.95,1.58,1.66.38.71.56,1.54.56,2.51v6.81h-2.65v-6.6c0-.92-.23-1.61-.68-2.06-.45-.45-1.09-.68-1.92-.68-.94,0-1.67.31-2.21.93s-.8,1.51-.8,2.66v5.75h-2.64Z"/><path class="cls-3" d="M184.35,307.31c-1.13,0-2.13-.24-3-.72-.87-.48-1.54-1.17-2.02-2.05-.48-.88-.72-1.91-.72-3.09v-.28c0-1.2.24-2.23.71-3.1.47-.87,1.14-1.55,2-2.04s1.85-.72,2.97-.72,2.07.24,2.9.72,1.47,1.16,1.93,2.04c.46.87.69,1.89.69,3.06v.94h-8.53c.03.89.35,1.6.94,2.14.6.54,1.33.8,2.21.8s1.5-.19,1.91-.56c.41-.38.73-.8.94-1.28l2.18,1.13c-.21.41-.53.85-.93,1.32-.41.47-.95.87-1.62,1.2s-1.53.49-2.55.49ZM181.29,300.07h5.82c-.06-.75-.35-1.35-.86-1.79-.51-.44-1.18-.67-1.99-.67s-1.52.22-2.02.67c-.51.44-.82,1.04-.94,1.79Z"/><path class="cls-3" d="M197.21,307.31c-1.47,0-2.68-.32-3.63-.97-.95-.64-1.53-1.59-1.72-2.83l2.44-.62c.11.58.3,1.04.58,1.38.28.34.62.57,1.02.71.41.14.85.21,1.32.21.72,0,1.26-.13,1.62-.39.36-.26.54-.59.54-.99s-.17-.72-.52-.92c-.35-.2-.87-.37-1.58-.51l-.71-.11c-.78-.15-1.5-.36-2.14-.63-.64-.27-1.16-.64-1.55-1.1-.39-.47-.59-1.06-.59-1.78,0-1.1.41-1.95,1.23-2.55.82-.6,1.9-.9,3.23-.9s2.32.28,3.15.85c.83.57,1.36,1.33,1.61,2.28l-2.44.74c-.12-.64-.39-1.1-.8-1.37-.41-.27-.92-.4-1.52-.4s-1.08.11-1.41.32c-.33.21-.49.52-.49.92s.17.7.51.9c.34.2.79.34,1.36.44l.71.14c.84.15,1.61.35,2.29.6.68.25,1.22.6,1.62,1.06.4.46.6,1.08.6,1.86,0,1.18-.43,2.09-1.28,2.73-.85.64-2,.95-3.44.95Z"/><path class="cls-3" d="M213.98,307.31c-.8,0-1.52-.14-2.16-.43-.64-.28-1.15-.69-1.53-1.23-.38-.54-.56-1.2-.56-1.98s.19-1.41.56-1.93c.38-.52.89-.92,1.55-1.18.66-.27,1.41-.4,2.25-.4h3.29v-.69c0-.6-.18-1.08-.55-1.46-.37-.38-.94-.56-1.72-.56s-1.35.18-1.74.54c-.39.36-.65.82-.77,1.39l-2.44-.8c.18-.6.48-1.14.89-1.63.41-.49.95-.89,1.62-1.18.67-.3,1.5-.45,2.48-.45,1.49,0,2.66.37,3.51,1.12.85.74,1.28,1.82,1.28,3.23v4.46c0,.46.21.69.64.69h.97v2.19h-1.86c-.55,0-1-.14-1.36-.41-.35-.28-.53-.65-.53-1.13v-.05h-.39c-.09.21-.25.48-.48.78-.23.31-.58.57-1.05.79-.47.22-1.1.33-1.9.33ZM214.41,305.15c.87,0,1.59-.25,2.14-.75.55-.5.83-1.17.83-2.01v-.23h-3.13c-.57,0-1.03.12-1.38.37-.35.25-.53.61-.53,1.08s.18.83.55,1.12c.37.28.87.43,1.52.43Z"/><path class="cls-3" d="M223.73,306.99v-11.36h2.6v1.59h.39c.2-.43.56-.84,1.08-1.22.52-.38,1.31-.57,2.37-.57.87,0,1.65.2,2.32.6.67.4,1.2.95,1.58,1.66.38.71.56,1.54.56,2.51v6.81h-2.64v-6.6c0-.92-.23-1.61-.68-2.06-.45-.45-1.09-.68-1.92-.68-.94,0-1.67.31-2.21.93s-.8,1.51-.8,2.66v5.75h-2.65Z"/><path class="cls-3" d="M242.52,307.31c-.92,0-1.78-.23-2.58-.68-.8-.45-1.43-1.12-1.91-1.99-.48-.87-.71-1.92-.71-3.15v-.37c0-1.23.24-2.28.71-3.15s1.11-1.54,1.9-1.99c.79-.45,1.65-.68,2.59-.68.71,0,1.3.08,1.79.25.49.17.89.38,1.18.64.3.26.53.54.7.85h.39v-6.16h2.62v16.1h-2.58v-1.49h-.39c-.28.46-.7.88-1.26,1.25-.57.38-1.39.56-2.46.56ZM243.3,305.01c.95,0,1.74-.31,2.37-.93.63-.62.94-1.51.94-2.66v-.23c0-1.17-.31-2.05-.93-2.67-.62-.61-1.41-.92-2.38-.92s-1.74.31-2.38.92c-.64.61-.95,1.5-.95,2.67v.23c0,1.15.32,2.04.95,2.66.64.62,1.43.93,2.38.93Z"/><path class="cls-3" d="M258.44,306.99v-11.36h2.6v1.27h.39c.2-.38.53-.72,1-1.02.47-.3,1.09-.45,1.87-.45.83,0,1.5.17,2,.51.51.34.89.77,1.15,1.29h.37c.26-.52.64-.95,1.13-1.29.49-.34,1.19-.51,2.09-.51.71,0,1.35.15,1.92.46.58.31,1.04.76,1.38,1.36.34.6.52,1.34.52,2.23v7.52h-2.65v-7.34c0-.66-.18-1.16-.53-1.51s-.84-.52-1.47-.52c-.69,0-1.24.23-1.64.68-.41.45-.61,1.1-.61,1.94v6.74h-2.62v-7.34c0-.66-.18-1.16-.53-1.51s-.84-.52-1.47-.52c-.71,0-1.26.23-1.66.68-.4.45-.6,1.1-.6,1.94v6.74h-2.64Z"/><path class="cls-3" d="M283.3,307.31c-1.13,0-2.14-.24-3-.72-.87-.48-1.54-1.17-2.02-2.05-.48-.88-.72-1.91-.72-3.09v-.28c0-1.2.24-2.23.71-3.1.48-.87,1.14-1.55,2-2.04s1.85-.72,2.97-.72,2.07.24,2.9.72,1.47,1.16,1.93,2.04c.46.87.69,1.89.69,3.06v.94h-8.53c.03.89.34,1.6.94,2.14.6.54,1.33.8,2.21.8s1.49-.19,1.91-.56c.41-.38.73-.8.94-1.28l2.19,1.13c-.21.41-.53.85-.93,1.32-.41.47-.95.87-1.62,1.2-.68.33-1.53.49-2.55.49ZM280.24,300.07h5.82c-.06-.75-.35-1.35-.86-1.79-.51-.44-1.18-.67-1.99-.67s-1.52.22-2.02.67c-.51.44-.82,1.04-.94,1.79Z"/><path class="cls-3" d="M296.11,307.31c-.92,0-1.78-.23-2.58-.68-.8-.45-1.43-1.12-1.91-1.99-.47-.87-.71-1.92-.71-3.15v-.37c0-1.23.24-2.28.71-3.15.48-.87,1.11-1.54,1.9-1.99.79-.45,1.65-.68,2.59-.68.71,0,1.3.08,1.79.25.49.17.89.38,1.19.64.3.26.53.54.7.85h.39v-6.16h2.62v16.1h-2.58v-1.49h-.39c-.28.46-.7.88-1.26,1.25-.57.38-1.39.56-2.46.56ZM296.89,305.01c.95,0,1.74-.31,2.37-.93.63-.62.94-1.51.94-2.66v-.23c0-1.17-.31-2.05-.93-2.67-.62-.61-1.41-.92-2.38-.92s-1.74.31-2.38.92c-.64.61-.95,1.5-.95,2.67v.23c0,1.15.32,2.04.95,2.66.64.62,1.43.93,2.38.93Z"/><path class="cls-3" d="M307.47,294.18c-.48,0-.89-.16-1.23-.47-.35-.31-.52-.73-.52-1.25s.17-.94.52-1.25c.34-.31.75-.47,1.23-.47.51,0,.92.16,1.25.47.33.31.49.73.49,1.25s-.17.94-.49,1.25c-.33.31-.75.47-1.25.47ZM306.16,306.99v-11.36h2.64v11.36h-2.64Z"/><path class="cls-3" d="M316.51,307.17c-.88,0-1.65-.2-2.32-.59s-1.2-.94-1.56-1.66c-.37-.71-.55-1.54-.55-2.5v-6.81h2.62v6.6c0,.92.23,1.6.68,2.05.45.44,1.09.67,1.92.67.94,0,1.68-.31,2.22-.92.54-.61.82-1.49.82-2.65v-5.75h2.62v11.36h-2.58v-1.59h-.39c-.2.41-.56.81-1.09,1.2-.53.38-1.32.57-2.38.57Z"/><path class="cls-3" d="M326.31,306.99v-11.36h2.6v1.27h.39c.2-.38.53-.72,1-1.02.47-.3,1.09-.45,1.88-.45.83,0,1.5.17,2,.51.51.34.89.77,1.15,1.29h.37c.26-.52.64-.95,1.13-1.29.49-.34,1.19-.51,2.09-.51.71,0,1.34.15,1.92.46.57.31,1.03.76,1.38,1.36.35.6.52,1.34.52,2.23v7.52h-2.64v-7.34c0-.66-.18-1.16-.53-1.51-.35-.34-.84-.52-1.47-.52-.69,0-1.24.23-1.64.68-.41.45-.61,1.1-.61,1.94v6.74h-2.62v-7.34c0-.66-.18-1.16-.53-1.51s-.84-.52-1.47-.52c-.71,0-1.26.23-1.66.68-.4.45-.6,1.1-.6,1.94v6.74h-2.65Z"/><path class="cls-3" d="M350.66,307.31c-1.47,0-2.68-.32-3.63-.97-.95-.64-1.53-1.59-1.72-2.83l2.44-.62c.11.58.3,1.04.58,1.38.28.34.62.57,1.02.71.41.14.85.21,1.32.21.72,0,1.26-.13,1.62-.39.36-.26.54-.59.54-.99s-.17-.72-.52-.92c-.35-.2-.87-.37-1.58-.51l-.71-.11c-.78-.15-1.49-.36-2.14-.63-.64-.27-1.16-.64-1.55-1.1-.39-.47-.59-1.06-.59-1.78,0-1.1.41-1.95,1.23-2.55s1.9-.9,3.23-.9,2.32.28,3.15.85c.83.57,1.36,1.33,1.61,2.28l-2.44.74c-.12-.64-.39-1.1-.8-1.37-.41-.27-.92-.4-1.52-.4s-1.08.11-1.42.32c-.33.21-.49.52-.49.92s.17.7.51.9c.34.2.79.34,1.36.44l.71.14c.84.15,1.61.35,2.29.6.68.25,1.22.6,1.62,1.06.4.46.6,1.08.6,1.86,0,1.18-.43,2.09-1.28,2.73-.85.64-2,.95-3.44.95Z"/><path class="cls-3" d="M359.68,307.31c-.58,0-1.07-.19-1.46-.58-.39-.38-.59-.87-.59-1.47s.2-1.07.59-1.45c.39-.38.88-.58,1.46-.58s1.07.19,1.45.58c.38.38.57.87.57,1.47s-.19,1.08-.57,1.46c-.38.38-.87.56-1.45.56Z"/><path class="cls-2" d="M39.73,384.41c-.95,0-1.79-.17-2.52-.51-.73-.34-1.31-.83-1.72-1.47s-.62-1.43-.62-2.35v-.46h2.12v.46c0,.82.25,1.43.75,1.84.5.4,1.16.61,2,.61s1.48-.17,1.91-.52c.43-.34.64-.79.64-1.34,0-.37-.1-.67-.3-.9-.2-.23-.5-.42-.88-.56-.39-.14-.85-.28-1.4-.41l-.54-.11c-.82-.19-1.53-.43-2.13-.72-.6-.29-1.06-.67-1.38-1.13s-.48-1.07-.48-1.82.18-1.39.54-1.93c.36-.54.86-.95,1.52-1.23s1.42-.43,2.3-.43,1.66.15,2.35.45c.69.3,1.23.74,1.63,1.34.4.59.6,1.34.6,2.23v.59h-2.12v-.59c0-.51-.1-.92-.3-1.23-.2-.31-.49-.54-.86-.68-.37-.14-.8-.21-1.3-.21-.74,0-1.3.14-1.68.43-.38.29-.57.69-.57,1.21,0,.33.09.62.26.85.17.23.43.42.77.57.34.15.76.28,1.27.38l.54.12c.86.19,1.61.43,2.25.72.64.29,1.14.67,1.51,1.15.36.48.54,1.09.54,1.85s-.19,1.41-.58,1.98c-.39.57-.93,1.02-1.62,1.34-.7.32-1.52.48-2.47.48Z"/><path class="cls-2" d="M46.34,384.16v-8.81h2.01v.98h.3c.15-.3.41-.56.78-.79s.85-.35,1.45-.35c.64,0,1.16.13,1.55.39.39.26.69.59.89,1h.29c.2-.4.49-.74.87-1,.38-.26.92-.39,1.62-.39.55,0,1.04.12,1.49.36.45.24.8.59,1.07,1.05s.4,1.04.4,1.73v5.83h-2.05v-5.69c0-.51-.14-.9-.41-1.17s-.65-.4-1.14-.4c-.54,0-.96.18-1.28.53-.31.35-.47.85-.47,1.51v5.22h-2.03v-5.69c0-.51-.14-.9-.41-1.17s-.65-.4-1.14-.4c-.55,0-.97.18-1.28.53-.31.35-.46.85-.46,1.51v5.22h-2.05Z"/><path class="cls-2" d="M64.32,384.41c-.62,0-1.18-.11-1.68-.33s-.9-.54-1.19-.95c-.29-.42-.44-.93-.44-1.53s.15-1.09.44-1.5c.29-.4.69-.71,1.2-.92.51-.21,1.09-.31,1.75-.31h2.55v-.53c0-.46-.14-.84-.43-1.13-.29-.29-.73-.44-1.34-.44s-1.04.14-1.35.42c-.3.28-.5.64-.6,1.08l-1.89-.62c.14-.46.37-.89.69-1.27.32-.38.73-.69,1.26-.92.52-.23,1.17-.35,1.93-.35,1.15,0,2.06.29,2.72.86.66.58.99,1.41.99,2.51v3.46c0,.36.17.53.5.53h.75v1.69h-1.44c-.43,0-.78-.11-1.05-.32s-.41-.51-.41-.87v-.04h-.3c-.07.17-.2.37-.38.61-.18.24-.45.44-.81.62-.36.17-.85.26-1.47.26ZM64.66,382.73c.68,0,1.23-.19,1.66-.58.43-.39.64-.91.64-1.56v-.18h-2.43c-.44,0-.8.1-1.07.29-.27.19-.41.47-.41.84s.14.65.43.86c.29.22.68.33,1.18.33Z"/><path class="cls-2" d="M71.88,384.16v-12.48h2.05v12.48h-2.05Z"/><path class="cls-2" d="M76.54,384.16v-12.48h2.05v12.48h-2.05Z"/><path class="cls-2" d="M85.74,387.73v-12.38h2.01v1.16h.3c.2-.37.53-.7.97-.98.45-.29,1.09-.43,1.92-.43.71,0,1.38.18,1.99.53.61.35,1.1.86,1.47,1.54.37.68.55,1.49.55,2.44v.29c0,.95-.18,1.77-.55,2.44-.37.68-.86,1.19-1.46,1.54-.61.35-1.27.53-2,.53-.56,0-1.03-.07-1.4-.2-.38-.13-.68-.3-.91-.52s-.41-.43-.54-.64h-.3v4.67h-2.05ZM90.34,382.63c.75,0,1.37-.24,1.85-.72.48-.48.72-1.17.72-2.06v-.18c0-.9-.24-1.59-.73-2.07-.49-.48-1.1-.71-1.84-.71s-1.35.24-1.85.71c-.49.48-.74,1.17-.74,2.07v.18c0,.89.25,1.58.74,2.06.49.48,1.11.72,1.85.72Z"/><path class="cls-2" d="M97.13,384.16v-8.81h2.01v1.02h.3c.13-.37.35-.64.66-.8.31-.17.68-.25,1.11-.25h1.07v1.82h-1.11c-.59,0-1.08.16-1.44.47-.37.32-.55.8-.55,1.45v5.1h-2.05Z"/><path class="cls-2" d="M107.96,384.41c-.88,0-1.67-.18-2.36-.54-.7-.36-1.24-.88-1.64-1.55-.4-.67-.6-1.48-.6-2.42v-.29c0-.94.2-1.75.6-2.43.4-.68.95-1.19,1.64-1.55.7-.36,1.48-.53,2.36-.53s1.66.18,2.35.53c.69.36,1.23.87,1.63,1.55.4.68.6,1.49.6,2.43v.29c0,.94-.2,1.74-.6,2.42-.4.67-.94,1.19-1.63,1.55-.69.36-1.47.54-2.35.54ZM107.96,382.59c.75,0,1.36-.24,1.84-.72.48-.48.71-1.16.71-2.02v-.18c0-.87-.24-1.54-.71-2.02-.48-.48-1.09-.72-1.84-.72s-1.36.24-1.84.72c-.47.48-.71,1.16-.71,2.02v.18c0,.87.24,1.54.71,2.02.48.48,1.09.72,1.84.72Z"/><path class="cls-2" d="M113.05,387.73v-1.77h1.19c.33,0,.5-.18.5-.53v-10.08h2.05v10.49c0,.58-.17,1.04-.51,1.38-.34.34-.79.51-1.36.51h-1.87ZM115.77,374.23c-.37,0-.69-.12-.96-.37-.27-.24-.4-.57-.4-.97s.13-.73.4-.97c.27-.24.59-.37.96-.37.39,0,.71.12.97.37.26.24.38.57.38.97s-.13.73-.38.97c-.26.24-.58.37-.97.37Z"/><path class="cls-2" d="M123.43,384.41c-.88,0-1.66-.19-2.33-.56-.67-.37-1.19-.9-1.57-1.59-.38-.68-.56-1.48-.56-2.4v-.21c0-.93.18-1.73.55-2.41.37-.68.89-1.2,1.55-1.58.67-.37,1.43-.56,2.3-.56s1.61.19,2.25.56c.64.37,1.14.9,1.5,1.58s.54,1.47.54,2.37v.73h-6.62c.02.69.27,1.24.73,1.66.46.42,1.03.62,1.71.62s1.16-.15,1.48-.44c.32-.29.56-.62.73-.99l1.69.87c-.17.32-.41.66-.72,1.03-.32.36-.73.67-1.26.93s-1.18.38-1.98.38ZM121.06,378.79h4.51c-.05-.58-.27-1.05-.67-1.39-.4-.34-.91-.52-1.54-.52s-1.18.17-1.57.52c-.39.34-.64.81-.73,1.39Z"/><path class="cls-2" d="M133.88,384.41c-.86,0-1.63-.18-2.32-.53-.69-.36-1.23-.87-1.63-1.55-.4-.68-.6-1.49-.6-2.44v-.25c0-.95.2-1.77.6-2.44.4-.68.94-1.19,1.63-1.55.69-.36,1.46-.53,2.32-.53s1.57.15,2.17.45c.6.3,1.08.7,1.45,1.22.37.52.61,1.1.71,1.74l-1.98.41c-.05-.37-.16-.7-.34-1.01s-.43-.54-.76-.72c-.33-.18-.73-.27-1.2-.27s-.92.1-1.31.31c-.39.21-.69.52-.91.94-.22.42-.33.92-.33,1.5v.18c0,.58.11,1.08.33,1.49s.52.72.91.94.82.32,1.31.32c.73,0,1.28-.19,1.65-.56.37-.37.61-.86.7-1.45l1.98.46c-.14.62-.4,1.18-.77,1.69-.37.51-.85.92-1.45,1.22-.6.3-1.32.45-2.17.45Z"/><path class="cls-2" d="M143.32,384.16c-.57,0-1.03-.17-1.36-.51-.34-.34-.51-.8-.51-1.38v-5.22h-2.3v-1.69h2.3v-2.84h2.05v2.84h2.53v1.69h-2.53v4.89c0,.36.17.53.5.53h1.76v1.69h-2.44Z"/><path class="cls-2" d="M151.75,384.41c-1.14,0-2.08-.25-2.82-.75-.74-.5-1.18-1.23-1.34-2.19l1.89-.48c.08.45.23.81.45,1.07.21.26.48.45.79.55.31.11.66.16,1.03.16.56,0,.98-.1,1.26-.3.28-.2.42-.46.42-.77s-.13-.56-.4-.71c-.27-.15-.68-.29-1.22-.39l-.55-.09c-.61-.12-1.16-.28-1.66-.49-.5-.21-.9-.49-1.2-.86-.3-.36-.46-.82-.46-1.38,0-.86.32-1.52.96-1.98.63-.46,1.47-.7,2.5-.7s1.8.22,2.44.66c.64.44,1.06,1.03,1.25,1.77l-1.89.57c-.09-.5-.3-.85-.62-1.06-.32-.21-.71-.31-1.18-.31s-.84.08-1.1.25c-.26.17-.38.4-.38.71s.13.54.39.7c.26.15.61.27,1.05.34l.55.11c.65.12,1.25.27,1.78.46.53.19.95.46,1.26.82.31.36.46.84.46,1.44,0,.92-.33,1.62-.99,2.11s-1.55.74-2.67.74Z"/><path class="cls-2" d="M35.43,411.72v-12.48h5.05c.78,0,1.47.15,2.07.46.59.31,1.06.75,1.41,1.31.35.56.52,1.23.52,2.01v.25c0,.76-.18,1.43-.53,2-.35.57-.83,1.01-1.43,1.32-.6.31-1.28.46-2.04.46h-2.89v4.67h-2.16ZM37.59,405.1h2.67c.62,0,1.12-.17,1.49-.5.37-.33.56-.79.56-1.37v-.18c0-.58-.18-1.04-.55-1.37-.37-.33-.87-.5-1.5-.5h-2.67v3.92Z"/><path class="cls-2" d="M50.05,411.97c-.88,0-1.66-.19-2.33-.56-.67-.37-1.19-.9-1.57-1.59-.38-.68-.56-1.48-.56-2.4v-.21c0-.93.18-1.73.55-2.41s.89-1.2,1.55-1.58c.67-.37,1.43-.56,2.3-.56s1.6.19,2.25.56c.64.37,1.14.9,1.5,1.58.36.68.54,1.47.54,2.37v.73h-6.62c.02.69.27,1.24.73,1.66.46.42,1.03.62,1.71.62s1.16-.15,1.48-.44c.32-.29.56-.62.73-.99l1.69.87c-.17.32-.41.66-.72,1.03-.31.36-.73.67-1.26.93-.52.26-1.18.38-1.98.38ZM47.68,406.35h4.51c-.05-.58-.27-1.05-.67-1.39-.4-.34-.91-.52-1.54-.52s-1.18.17-1.57.52c-.39.34-.64.81-.73,1.39Z"/><path class="cls-2" d="M56.38,411.72v-8.81h2.02v1.02h.3c.13-.37.35-.64.66-.8.31-.17.68-.25,1.11-.25h1.07v1.82h-1.11c-.59,0-1.08.16-1.44.47-.37.32-.55.8-.55,1.45v5.1h-2.05Z"/><path class="cls-2" d="M66.8,411.97c-1.14,0-2.08-.25-2.82-.75-.74-.5-1.18-1.23-1.34-2.19l1.89-.48c.08.45.23.81.45,1.07.21.26.48.45.79.55.31.11.66.16,1.03.16.56,0,.98-.1,1.26-.3.28-.2.42-.46.42-.77s-.13-.56-.4-.71c-.27-.15-.68-.29-1.22-.39l-.55-.09c-.61-.12-1.16-.28-1.66-.49-.5-.21-.9-.49-1.2-.86-.3-.36-.46-.82-.46-1.38,0-.86.32-1.52.96-1.98.63-.46,1.47-.7,2.5-.7s1.8.22,2.44.66c.64.44,1.06,1.03,1.25,1.77l-1.89.57c-.09-.5-.3-.85-.62-1.06-.32-.21-.71-.31-1.18-.31s-.84.08-1.1.25c-.26.17-.38.4-.38.71s.13.54.39.7c.26.15.61.27,1.05.34l.55.11c.65.12,1.25.27,1.78.46.53.19.95.46,1.26.82.31.36.46.84.46,1.44,0,.92-.33,1.62-.99,2.11s-1.55.74-2.67.74Z"/><path class="cls-2" d="M76.7,411.97c-.88,0-1.67-.18-2.36-.54-.7-.36-1.24-.88-1.64-1.55-.4-.67-.6-1.48-.6-2.42v-.29c0-.94.2-1.75.6-2.43.4-.68.95-1.19,1.64-1.55.7-.36,1.48-.53,2.36-.53s1.66.18,2.35.53c.69.36,1.23.87,1.63,1.55.4.68.6,1.49.6,2.43v.29c0,.94-.2,1.74-.6,2.42-.4.67-.94,1.19-1.63,1.55-.69.36-1.47.54-2.35.54ZM76.7,410.15c.75,0,1.36-.24,1.84-.72.48-.48.71-1.16.71-2.02v-.18c0-.87-.24-1.54-.71-2.02-.48-.48-1.09-.72-1.84-.72s-1.36.24-1.84.72c-.48.48-.71,1.16-.71,2.02v.18c0,.87.24,1.54.71,2.02.47.48,1.09.72,1.84.72Z"/><path class="cls-2" d="M83.45,411.72v-8.81h2.01v1.23h.3c.15-.33.43-.65.84-.95.4-.3,1.02-.45,1.84-.45.68,0,1.28.15,1.8.46.52.31.93.74,1.22,1.28.29.55.44,1.19.44,1.94v5.28h-2.05v-5.12c0-.71-.18-1.25-.53-1.6-.35-.35-.85-.53-1.49-.53-.73,0-1.3.24-1.71.72-.42.48-.62,1.17-.62,2.06v4.46h-2.05Z"/><path class="cls-2" d="M97.15,411.97c-.62,0-1.18-.11-1.68-.33-.5-.22-.89-.54-1.19-.95-.29-.42-.44-.93-.44-1.53s.15-1.09.44-1.5c.29-.4.69-.71,1.2-.92.51-.21,1.09-.31,1.75-.31h2.55v-.53c0-.46-.14-.84-.43-1.13-.29-.29-.73-.44-1.34-.44s-1.04.14-1.35.42c-.3.28-.5.64-.6,1.08l-1.89-.62c.14-.46.37-.89.69-1.27.32-.38.73-.69,1.26-.92.52-.23,1.17-.35,1.93-.35,1.15,0,2.06.29,2.72.86.66.58.99,1.41.99,2.51v3.46c0,.36.17.53.5.53h.75v1.69h-1.44c-.43,0-.78-.11-1.05-.32s-.41-.51-.41-.87v-.04h-.3c-.07.17-.2.37-.38.61-.18.24-.45.44-.81.62-.36.17-.85.26-1.47.26ZM97.49,410.29c.68,0,1.23-.19,1.66-.58.43-.39.64-.91.64-1.56v-.18h-2.43c-.44,0-.8.1-1.07.29-.27.19-.41.47-.41.84s.14.65.43.86c.29.22.68.33,1.18.33Z"/><path class="cls-2" d="M104.71,411.72v-12.48h2.05v12.48h-2.05Z"/><path class="cls-2" d="M113.91,415.29v-12.38h2.01v1.16h.3c.2-.37.53-.7.97-.98s1.08-.43,1.92-.43c.71,0,1.38.18,1.99.53.61.35,1.1.86,1.47,1.54.37.68.55,1.49.55,2.44v.29c0,.95-.19,1.77-.55,2.44-.37.68-.86,1.19-1.46,1.54-.61.35-1.27.53-2,.53-.56,0-1.03-.07-1.4-.2-.38-.13-.68-.3-.91-.52-.23-.21-.41-.43-.54-.64h-.3v4.67h-2.05ZM118.51,410.19c.75,0,1.36-.24,1.85-.72.48-.48.72-1.17.72-2.06v-.18c0-.9-.24-1.59-.73-2.07-.49-.48-1.1-.71-1.84-.71s-1.35.24-1.85.71c-.49.48-.74,1.17-.74,2.07v.18c0,.89.25,1.58.74,2.06.49.48,1.11.72,1.85.72Z"/><path class="cls-2" d="M128.03,411.97c-.62,0-1.18-.11-1.68-.33-.5-.22-.89-.54-1.19-.95-.29-.42-.44-.93-.44-1.53s.15-1.09.44-1.5c.29-.4.69-.71,1.2-.92.51-.21,1.09-.31,1.75-.31h2.55v-.53c0-.46-.14-.84-.43-1.13-.29-.29-.73-.44-1.34-.44s-1.04.14-1.35.42c-.3.28-.5.64-.6,1.08l-1.89-.62c.14-.46.37-.89.69-1.27.32-.38.73-.69,1.26-.92.52-.23,1.17-.35,1.93-.35,1.15,0,2.06.29,2.72.86.66.58.99,1.41.99,2.51v3.46c0,.36.17.53.5.53h.75v1.69h-1.44c-.43,0-.78-.11-1.05-.32s-.41-.51-.41-.87v-.04h-.3c-.07.17-.2.37-.38.61-.18.24-.45.44-.81.62-.36.17-.85.26-1.47.26ZM128.37,410.29c.68,0,1.23-.19,1.66-.58.43-.39.64-.91.64-1.56v-.18h-2.43c-.44,0-.8.1-1.07.29-.27.19-.41.47-.41.84s.14.65.43.86c.29.22.68.33,1.18.33Z"/><path class="cls-2" d="M139.16,411.97c-1.14,0-2.08-.25-2.82-.75-.74-.5-1.18-1.23-1.34-2.19l1.89-.48c.08.45.23.81.45,1.07.21.26.48.45.79.55.31.11.66.16,1.03.16.56,0,.98-.1,1.26-.3.28-.2.42-.46.42-.77s-.13-.56-.4-.71c-.27-.15-.67-.29-1.22-.39l-.55-.09c-.61-.12-1.16-.28-1.66-.49-.5-.21-.9-.49-1.2-.86-.3-.36-.46-.82-.46-1.38,0-.86.32-1.52.95-1.98s1.47-.7,2.5-.7,1.8.22,2.44.66c.64.44,1.06,1.03,1.25,1.77l-1.89.57c-.09-.5-.3-.85-.62-1.06-.32-.21-.71-.31-1.18-.31s-.84.08-1.1.25c-.26.17-.38.4-.38.71s.13.54.39.7c.26.15.61.27,1.05.34l.55.11c.65.12,1.25.27,1.77.46.53.19.95.46,1.26.82.31.36.46.84.46,1.44,0,.92-.33,1.62-.99,2.11-.66.49-1.55.74-2.67.74Z"/><path class="cls-2" d="M148.52,411.97c-1.14,0-2.08-.25-2.82-.75-.74-.5-1.18-1.23-1.34-2.19l1.89-.48c.08.45.23.81.45,1.07.21.26.48.45.79.55.31.11.66.16,1.03.16.56,0,.98-.1,1.26-.3.28-.2.42-.46.42-.77s-.13-.56-.4-.71c-.27-.15-.68-.29-1.22-.39l-.55-.09c-.61-.12-1.16-.28-1.66-.49-.5-.21-.9-.49-1.2-.86-.3-.36-.46-.82-.46-1.38,0-.86.32-1.52.96-1.98.63-.46,1.47-.7,2.5-.7s1.8.22,2.44.66c.64.44,1.06,1.03,1.25,1.77l-1.89.57c-.09-.5-.3-.85-.62-1.06-.32-.21-.71-.31-1.18-.31s-.84.08-1.1.25c-.26.17-.38.4-.38.71s.13.54.39.7c.26.15.61.27,1.05.34l.55.11c.65.12,1.25.27,1.78.46.53.19.95.46,1.26.82.31.36.46.84.46,1.44,0,.92-.33,1.62-.99,2.11s-1.55.74-2.67.74Z"/><path class="cls-2" d="M155.26,401.79c-.37,0-.69-.12-.95-.37-.27-.24-.4-.57-.4-.97s.13-.73.4-.97c.27-.24.58-.37.95-.37.39,0,.72.12.97.37.25.24.38.57.38.97s-.13.73-.38.97c-.26.24-.58.37-.97.37ZM154.25,411.72v-8.81h2.05v8.81h-2.05Z"/><path class="cls-2" d="M163.07,411.97c-.88,0-1.67-.18-2.36-.54-.7-.36-1.24-.88-1.64-1.55-.4-.67-.6-1.48-.6-2.42v-.29c0-.94.2-1.75.6-2.43.4-.68.95-1.19,1.64-1.55.7-.36,1.48-.53,2.36-.53s1.66.18,2.35.53c.69.36,1.23.87,1.63,1.55.4.68.6,1.49.6,2.43v.29c0,.94-.2,1.74-.6,2.42-.4.67-.94,1.19-1.63,1.55-.69.36-1.47.54-2.35.54ZM163.07,410.15c.75,0,1.36-.24,1.84-.72.48-.48.71-1.16.71-2.02v-.18c0-.87-.24-1.54-.71-2.02-.47-.48-1.09-.72-1.84-.72s-1.36.24-1.84.72c-.48.48-.71,1.16-.71,2.02v.18c0,.87.24,1.54.71,2.02.48.48,1.09.72,1.84.72Z"/><path class="cls-2" d="M169.83,411.72v-8.81h2.02v1.23h.3c.15-.33.43-.65.84-.95.4-.3,1.02-.45,1.84-.45.68,0,1.28.15,1.8.46.52.31.93.74,1.22,1.28.29.55.44,1.19.44,1.94v5.28h-2.05v-5.12c0-.71-.18-1.25-.53-1.6-.35-.35-.85-.53-1.49-.53-.72,0-1.29.24-1.71.72-.42.48-.62,1.17-.62,2.06v4.46h-2.05Z"/><path class="cls-2" d="M185.35,415.29v-12.38h2.02v1.16h.3c.2-.37.53-.7.97-.98.45-.29,1.08-.43,1.92-.43.71,0,1.38.18,1.99.53.61.35,1.1.86,1.47,1.54.37.68.55,1.49.55,2.44v.29c0,.95-.18,1.77-.55,2.44-.37.68-.86,1.19-1.46,1.54-.61.35-1.27.53-2,.53-.56,0-1.03-.07-1.4-.2-.37-.13-.68-.3-.91-.52-.23-.21-.41-.43-.54-.64h-.3v4.67h-2.05ZM189.95,410.19c.75,0,1.36-.24,1.85-.72.48-.48.72-1.17.72-2.06v-.18c0-.9-.24-1.59-.73-2.07-.49-.48-1.1-.71-1.84-.71s-1.35.24-1.85.71c-.49.48-.74,1.17-.74,2.07v.18c0,.89.25,1.58.74,2.06.49.48,1.11.72,1.85.72Z"/><path class="cls-2" d="M196.74,411.72v-8.81h2.01v1.02h.3c.13-.37.35-.64.66-.8.31-.17.68-.25,1.11-.25h1.07v1.82h-1.11c-.59,0-1.08.16-1.44.47-.37.32-.55.8-.55,1.45v5.1h-2.05Z"/><path class="cls-2" d="M207.57,411.97c-.88,0-1.67-.18-2.36-.54-.7-.36-1.24-.88-1.64-1.55-.4-.67-.6-1.48-.6-2.42v-.29c0-.94.2-1.75.6-2.43.4-.68.95-1.19,1.64-1.55.7-.36,1.48-.53,2.36-.53s1.66.18,2.35.53c.69.36,1.23.87,1.63,1.55.4.68.6,1.49.6,2.43v.29c0,.94-.2,1.74-.6,2.42-.4.67-.94,1.19-1.63,1.55-.69.36-1.47.54-2.35.54ZM207.57,410.15c.75,0,1.36-.24,1.84-.72.47-.48.71-1.16.71-2.02v-.18c0-.87-.24-1.54-.71-2.02-.48-.48-1.09-.72-1.84-.72s-1.36.24-1.84.72c-.48.48-.71,1.16-.71,2.02v.18c0,.87.24,1.54.71,2.02.48.48,1.09.72,1.84.72Z"/><path class="cls-2" d="M212.67,415.29v-1.77h1.19c.33,0,.5-.18.5-.53v-10.08h2.05v10.49c0,.58-.17,1.04-.51,1.38-.34.34-.79.51-1.37.51h-1.87ZM215.38,401.79c-.37,0-.69-.12-.95-.37-.27-.24-.4-.57-.4-.97s.13-.73.4-.97c.27-.24.59-.37.95-.37.39,0,.72.12.97.37.26.24.38.57.38.97s-.13.73-.38.97c-.26.24-.58.37-.97.37Z"/><path class="cls-2" d="M223.04,411.97c-.88,0-1.66-.19-2.33-.56-.67-.37-1.2-.9-1.57-1.59-.37-.68-.56-1.48-.56-2.4v-.21c0-.93.18-1.73.55-2.41.37-.68.88-1.2,1.55-1.58.67-.37,1.43-.56,2.3-.56s1.6.19,2.25.56c.64.37,1.14.9,1.5,1.58.36.68.54,1.47.54,2.37v.73h-6.62c.02.69.27,1.24.73,1.66.46.42,1.03.62,1.71.62s1.16-.15,1.48-.44c.32-.29.57-.62.73-.99l1.69.87c-.17.32-.41.66-.72,1.03-.31.36-.73.67-1.26.93-.52.26-1.18.38-1.98.38ZM220.67,406.35h4.51c-.05-.58-.27-1.05-.67-1.39-.4-.34-.91-.52-1.54-.52s-1.18.17-1.57.52c-.39.34-.64.81-.73,1.39Z"/><path class="cls-2" d="M233.49,411.97c-.86,0-1.63-.18-2.32-.53-.69-.36-1.23-.87-1.63-1.55-.4-.68-.6-1.49-.6-2.44v-.25c0-.95.2-1.77.6-2.44.4-.68.94-1.19,1.63-1.55.69-.36,1.46-.53,2.32-.53s1.57.15,2.17.45c.6.3,1.08.7,1.45,1.22.37.52.61,1.1.71,1.74l-1.98.41c-.05-.37-.16-.7-.34-1.01-.18-.3-.43-.54-.76-.72-.33-.18-.73-.27-1.2-.27s-.92.1-1.31.31c-.39.21-.69.52-.91.94-.22.42-.33.92-.33,1.5v.18c0,.58.11,1.08.33,1.49.22.41.52.72.91.94.39.21.82.32,1.31.32.72,0,1.28-.19,1.65-.56s.61-.86.7-1.45l1.98.46c-.14.62-.4,1.18-.77,1.69-.37.51-.85.92-1.45,1.22-.6.3-1.32.45-2.17.45Z"/><path class="cls-2" d="M242.93,411.72c-.57,0-1.03-.17-1.36-.51-.34-.34-.51-.8-.51-1.38v-5.22h-2.3v-1.69h2.3v-2.84h2.05v2.84h2.53v1.69h-2.53v4.89c0,.36.17.53.5.53h1.77v1.69h-2.44Z"/><path class="cls-2" d="M251.36,411.97c-1.14,0-2.08-.25-2.82-.75-.74-.5-1.18-1.23-1.34-2.19l1.89-.48c.08.45.23.81.45,1.07.21.26.48.45.79.55.31.11.66.16,1.03.16.56,0,.98-.1,1.26-.3.28-.2.42-.46.42-.77s-.13-.56-.4-.71c-.27-.15-.67-.29-1.22-.39l-.55-.09c-.61-.12-1.16-.28-1.66-.49-.5-.21-.9-.49-1.2-.86-.3-.36-.46-.82-.46-1.38,0-.86.32-1.52.95-1.98s1.47-.7,2.5-.7,1.8.22,2.44.66c.64.44,1.06,1.03,1.25,1.77l-1.89.57c-.09-.5-.3-.85-.62-1.06-.32-.21-.71-.31-1.18-.31s-.84.08-1.1.25c-.26.17-.38.4-.38.71s.13.54.39.7c.26.15.61.27,1.05.34l.55.11c.65.12,1.25.27,1.77.46.53.19.95.46,1.26.82.31.36.46.84.46,1.44,0,.92-.33,1.62-.99,2.11-.66.49-1.55.74-2.67.74Z"/><path class="cls-2" d="M34.56,439.28l3.42-12.48h3.73l3.42,12.48h-2.21l-.75-2.85h-4.65l-.75,2.85h-2.21ZM38.02,434.46h3.66l-1.68-6.33h-.3l-1.68,6.33Z"/><path class="cls-2" d="M50.39,439.53c-.71,0-1.38-.18-2-.53-.62-.35-1.11-.86-1.48-1.54-.37-.68-.55-1.49-.55-2.44v-.29c0-.95.18-1.77.55-2.44.37-.68.86-1.19,1.47-1.54.61-.35,1.28-.53,2.01-.53.55,0,1.01.07,1.39.2.38.13.69.3.92.5.23.2.41.42.54.66h.3v-4.78h2.03v12.48h-2v-1.16h-.3c-.21.36-.54.68-.98.97s-1.08.44-1.91.44ZM51,437.75c.74,0,1.35-.24,1.84-.72.49-.48.73-1.17.73-2.06v-.18c0-.9-.24-1.59-.72-2.07-.48-.48-1.1-.71-1.85-.71s-1.35.24-1.85.71c-.49.48-.74,1.17-.74,2.07v.18c0,.89.25,1.58.74,2.06.49.48,1.11.72,1.85.72Z"/><path class="cls-2" d="M60.91,439.53c-.62,0-1.18-.11-1.68-.33-.5-.22-.9-.54-1.19-.95-.29-.42-.44-.93-.44-1.53s.14-1.09.44-1.5c.29-.4.69-.71,1.2-.92.51-.21,1.09-.31,1.75-.31h2.55v-.53c0-.46-.14-.84-.43-1.13-.29-.29-.73-.44-1.34-.44s-1.04.14-1.35.42c-.3.28-.5.64-.6,1.08l-1.89-.62c.14-.46.37-.89.69-1.27.31-.38.73-.69,1.26-.92.52-.23,1.17-.35,1.93-.35,1.15,0,2.06.29,2.72.86.66.58.99,1.41.99,2.51v3.46c0,.36.17.53.5.53h.75v1.69h-1.45c-.43,0-.78-.11-1.05-.32s-.41-.51-.41-.87v-.04h-.3c-.07.17-.2.37-.37.61-.18.24-.45.44-.81.62-.36.17-.85.26-1.47.26ZM61.25,437.85c.68,0,1.23-.19,1.66-.58.43-.39.64-.91.64-1.56v-.18h-2.42c-.44,0-.8.1-1.07.29-.27.19-.41.47-.41.84s.14.65.43.86c.29.22.68.33,1.18.33Z"/><path class="cls-2" d="M68.47,442.85v-12.38h2.02v1.16h.3c.2-.37.53-.7.97-.98s1.08-.43,1.92-.43c.71,0,1.38.18,1.99.53.61.35,1.1.86,1.47,1.54.37.68.55,1.49.55,2.44v.29c0,.95-.18,1.77-.55,2.44-.37.68-.86,1.19-1.46,1.54-.61.35-1.27.53-2,.53-.56,0-1.03-.07-1.4-.2-.37-.13-.68-.3-.91-.52-.23-.21-.41-.43-.54-.64h-.3v4.67h-2.05ZM73.08,437.75c.75,0,1.36-.24,1.85-.72.48-.48.72-1.17.72-2.06v-.18c0-.9-.24-1.59-.73-2.07-.49-.48-1.1-.71-1.84-.71s-1.35.24-1.85.71c-.49.48-.74,1.17-.74,2.07v.18c0,.89.25,1.58.74,2.06.49.48,1.11.72,1.85.72Z"/><path class="cls-2" d="M82.92,439.28c-.57,0-1.03-.17-1.36-.51-.34-.34-.51-.8-.51-1.38v-5.22h-2.3v-1.69h2.3v-2.84h2.05v2.84h2.53v1.69h-2.53v4.89c0,.36.17.53.5.53h1.76v1.69h-2.44Z"/><path class="cls-2" d="M90.43,439.53c-.62,0-1.18-.11-1.68-.33-.5-.22-.89-.54-1.19-.95-.29-.42-.44-.93-.44-1.53s.15-1.09.44-1.5c.29-.4.69-.71,1.2-.92.51-.21,1.09-.31,1.75-.31h2.55v-.53c0-.46-.14-.84-.43-1.13-.29-.29-.73-.44-1.34-.44s-1.04.14-1.35.42c-.3.28-.5.64-.6,1.08l-1.89-.62c.14-.46.37-.89.69-1.27.31-.38.73-.69,1.26-.92.52-.23,1.16-.35,1.93-.35,1.15,0,2.06.29,2.72.86.66.58.99,1.41.99,2.51v3.46c0,.36.17.53.5.53h.75v1.69h-1.44c-.43,0-.78-.11-1.05-.32s-.41-.51-.41-.87v-.04h-.3c-.07.17-.2.37-.37.61-.18.24-.45.44-.81.62s-.85.26-1.47.26ZM90.77,437.85c.68,0,1.23-.19,1.66-.58.43-.39.64-.91.64-1.56v-.18h-2.42c-.44,0-.8.1-1.07.29-.27.19-.41.47-.41.84s.14.65.43.86c.29.22.68.33,1.18.33Z"/><path class="cls-2" d="M100.72,439.28c-.57,0-1.03-.17-1.36-.51-.34-.34-.51-.8-.51-1.38v-5.22h-2.3v-1.69h2.3v-2.84h2.05v2.84h2.53v1.69h-2.53v4.89c0,.36.17.53.5.53h1.76v1.69h-2.44Z"/><path class="cls-2" d="M106.53,429.35c-.37,0-.69-.12-.96-.37-.27-.24-.4-.57-.4-.97s.13-.73.4-.97c.27-.24.59-.37.96-.37.39,0,.71.12.97.37.26.24.38.57.38.97s-.13.73-.38.97c-.26.24-.58.37-.97.37ZM105.51,439.28v-8.81h2.05v8.81h-2.05Z"/><path class="cls-2" d="M114.34,439.53c-.88,0-1.67-.18-2.36-.54-.7-.36-1.24-.88-1.64-1.55-.4-.67-.6-1.48-.6-2.42v-.29c0-.94.2-1.75.6-2.43.4-.68.95-1.19,1.64-1.55.7-.36,1.48-.53,2.36-.53s1.66.18,2.35.53c.69.36,1.23.87,1.63,1.55.4.68.6,1.49.6,2.43v.29c0,.94-.2,1.74-.6,2.42-.4.67-.94,1.19-1.63,1.55-.69.36-1.47.54-2.35.54ZM114.34,437.71c.75,0,1.36-.24,1.84-.72.47-.48.71-1.16.71-2.02v-.18c0-.87-.24-1.54-.71-2.02-.48-.48-1.09-.72-1.84-.72s-1.36.24-1.84.72c-.48.48-.71,1.16-.71,2.02v.18c0,.87.24,1.54.71,2.02.48.48,1.09.72,1.84.72Z"/><path class="cls-2" d="M121.1,439.28v-8.81h2.01v1.23h.3c.15-.33.43-.65.84-.95.4-.3,1.02-.45,1.84-.45.68,0,1.28.15,1.8.46.52.31.93.74,1.22,1.28.29.55.44,1.19.44,1.94v5.28h-2.05v-5.12c0-.71-.18-1.25-.53-1.6-.35-.35-.85-.53-1.49-.53-.73,0-1.3.24-1.71.72-.42.48-.62,1.17-.62,2.06v4.46h-2.05Z"/><path class="cls-2" d="M135.7,439.53c-1.14,0-2.08-.25-2.82-.75-.74-.5-1.18-1.23-1.34-2.19l1.89-.48c.08.45.23.81.45,1.07.21.26.48.45.79.55.32.11.66.16,1.03.16.56,0,.98-.1,1.26-.3.28-.2.42-.46.42-.77s-.13-.56-.4-.71c-.27-.15-.67-.29-1.22-.39l-.55-.09c-.61-.12-1.16-.28-1.66-.49-.5-.21-.9-.49-1.2-.86-.3-.36-.45-.82-.45-1.38,0-.86.32-1.52.95-1.98.64-.46,1.47-.7,2.51-.7s1.8.22,2.44.66c.64.44,1.06,1.03,1.25,1.77l-1.89.57c-.1-.5-.3-.85-.62-1.06-.32-.21-.71-.31-1.18-.31s-.84.08-1.1.25c-.26.17-.38.4-.38.71s.13.54.39.7c.26.15.61.27,1.05.34l.55.11c.65.12,1.25.27,1.77.46.53.19.95.46,1.26.82.31.36.46.84.46,1.44,0,.92-.33,1.62-.99,2.11-.66.49-1.55.74-2.67.74Z"/><path class="cls-2" d="M149.33,439.28c-.57,0-1.03-.17-1.37-.51-.34-.34-.51-.8-.51-1.38v-5.22h-2.3v-1.69h2.3v-2.84h2.05v2.84h2.53v1.69h-2.53v4.89c0,.36.17.53.5.53h1.76v1.69h-2.44Z"/><path class="cls-2" d="M157.97,439.53c-.88,0-1.67-.18-2.36-.54-.7-.36-1.24-.88-1.64-1.55-.4-.67-.6-1.48-.6-2.42v-.29c0-.94.2-1.75.6-2.43.4-.68.95-1.19,1.64-1.55.7-.36,1.48-.53,2.36-.53s1.66.18,2.35.53c.69.36,1.23.87,1.63,1.55.4.68.6,1.49.6,2.43v.29c0,.94-.2,1.74-.6,2.42-.4.67-.94,1.19-1.63,1.55-.69.36-1.47.54-2.35.54ZM157.97,437.71c.75,0,1.36-.24,1.84-.72.48-.48.71-1.16.71-2.02v-.18c0-.87-.24-1.54-.71-2.02-.48-.48-1.09-.72-1.84-.72s-1.36.24-1.84.72c-.47.48-.71,1.16-.71,2.02v.18c0,.87.24,1.54.71,2.02.48.48,1.09.72,1.84.72Z"/><path class="cls-2" d="M169.28,439.28v-8.81h2.02v.98h.3c.15-.3.41-.56.78-.79s.85-.35,1.45-.35c.64,0,1.16.13,1.55.39.39.26.69.59.89,1h.29c.2-.4.49-.74.87-1,.38-.26.92-.39,1.62-.39.55,0,1.04.12,1.49.36.45.24.8.59,1.07,1.05s.4,1.04.4,1.73v5.83h-2.05v-5.69c0-.51-.14-.9-.41-1.17s-.65-.4-1.14-.4c-.54,0-.96.18-1.28.53-.32.35-.47.85-.47,1.51v5.22h-2.03v-5.69c0-.51-.14-.9-.41-1.17s-.65-.4-1.14-.4c-.55,0-.98.18-1.29.53-.31.35-.46.85-.46,1.51v5.22h-2.05Z"/><path class="cls-2" d="M187.25,439.53c-.62,0-1.18-.11-1.68-.33-.5-.22-.89-.54-1.19-.95-.29-.42-.44-.93-.44-1.53s.15-1.09.44-1.5c.29-.4.69-.71,1.2-.92.51-.21,1.09-.31,1.75-.31h2.55v-.53c0-.46-.14-.84-.43-1.13-.29-.29-.73-.44-1.34-.44s-1.04.14-1.35.42c-.3.28-.5.64-.6,1.08l-1.89-.62c.14-.46.37-.89.69-1.27.31-.38.73-.69,1.26-.92.52-.23,1.16-.35,1.93-.35,1.15,0,2.06.29,2.72.86.66.58.99,1.41.99,2.51v3.46c0,.36.17.53.5.53h.75v1.69h-1.44c-.43,0-.78-.11-1.05-.32s-.41-.51-.41-.87v-.04h-.3c-.07.17-.2.37-.37.61-.18.24-.45.44-.81.62s-.85.26-1.47.26ZM187.59,437.85c.68,0,1.23-.19,1.66-.58.43-.39.64-.91.64-1.56v-.18h-2.42c-.44,0-.8.1-1.07.29-.27.19-.41.47-.41.84s.14.65.43.86c.29.22.68.33,1.18.33Z"/><path class="cls-2" d="M195.83,429.35c-.37,0-.69-.12-.95-.37-.27-.24-.4-.57-.4-.97s.13-.73.4-.97c.27-.24.58-.37.95-.37.39,0,.72.12.97.37.25.24.38.57.38.97s-.13.73-.38.97c-.26.24-.58.37-.97.37ZM194.82,439.28v-8.81h2.05v8.81h-2.05Z"/><path class="cls-2" d="M199.47,439.28v-8.81h2.02v1.23h.3c.15-.33.43-.65.84-.95.4-.3,1.02-.45,1.84-.45.68,0,1.28.15,1.8.46.52.31.93.74,1.22,1.28.29.55.44,1.19.44,1.94v5.28h-2.05v-5.12c0-.71-.18-1.25-.53-1.6-.35-.35-.85-.53-1.49-.53-.72,0-1.29.24-1.71.72-.42.48-.62,1.17-.62,2.06v4.46h-2.05Z"/><path class="cls-2" d="M214.98,442.85v-12.38h2.02v1.16h.3c.2-.37.53-.7.97-.98.45-.29,1.08-.43,1.92-.43.71,0,1.38.18,1.99.53.61.35,1.1.86,1.47,1.54.37.68.55,1.49.55,2.44v.29c0,.95-.18,1.77-.55,2.44-.37.68-.86,1.19-1.46,1.54-.61.35-1.27.53-2,.53-.56,0-1.03-.07-1.4-.2-.37-.13-.68-.3-.91-.52-.23-.21-.41-.43-.54-.64h-.3v4.67h-2.05ZM219.58,437.75c.75,0,1.36-.24,1.85-.72.48-.48.72-1.17.72-2.06v-.18c0-.9-.24-1.59-.73-2.07-.49-.48-1.1-.71-1.84-.71s-1.35.24-1.85.71c-.49.48-.74,1.17-.74,2.07v.18c0,.89.25,1.58.74,2.06.49.48,1.11.72,1.85.72Z"/><path class="cls-2" d="M226.38,439.28v-8.81h2.01v1.02h.3c.13-.37.35-.64.66-.8.31-.17.68-.25,1.11-.25h1.07v1.82h-1.11c-.59,0-1.08.16-1.44.47-.37.32-.55.8-.55,1.45v5.1h-2.05Z"/><path class="cls-2" d="M237.2,439.53c-.88,0-1.67-.18-2.36-.54-.7-.36-1.24-.88-1.64-1.55-.4-.67-.6-1.48-.6-2.42v-.29c0-.94.2-1.75.6-2.43.4-.68.95-1.19,1.64-1.55.7-.36,1.48-.53,2.36-.53s1.66.18,2.35.53c.69.36,1.23.87,1.63,1.55.4.68.6,1.49.6,2.43v.29c0,.94-.2,1.74-.6,2.42-.4.67-.94,1.19-1.63,1.55-.69.36-1.47.54-2.35.54ZM237.2,437.71c.75,0,1.36-.24,1.84-.72.47-.48.71-1.16.71-2.02v-.18c0-.87-.24-1.54-.71-2.02-.48-.48-1.09-.72-1.84-.72s-1.36.24-1.84.72c-.48.48-.71,1.16-.71,2.02v.18c0,.87.24,1.54.71,2.02.48.48,1.09.72,1.84.72Z"/><path class="cls-2" d="M242.3,442.85v-1.77h1.19c.33,0,.5-.18.5-.53v-10.08h2.05v10.49c0,.58-.17,1.04-.51,1.38-.34.34-.79.51-1.37.51h-1.87ZM245.01,429.35c-.37,0-.69-.12-.95-.37-.27-.24-.4-.57-.4-.97s.13-.73.4-.97c.27-.24.59-.37.95-.37.39,0,.72.12.97.37.26.24.38.57.38.97s-.13.73-.38.97c-.26.24-.58.37-.97.37Z"/><path class="cls-2" d="M252.68,439.53c-.88,0-1.66-.19-2.33-.56-.67-.37-1.2-.9-1.57-1.59-.37-.68-.56-1.48-.56-2.4v-.21c0-.93.18-1.73.55-2.41.37-.68.88-1.2,1.55-1.58.67-.37,1.43-.56,2.3-.56s1.6.19,2.25.56c.64.37,1.14.9,1.5,1.58.36.68.54,1.47.54,2.37v.73h-6.62c.02.69.27,1.24.73,1.66.46.42,1.03.62,1.71.62s1.16-.15,1.48-.44c.32-.29.57-.62.73-.99l1.69.87c-.17.32-.41.66-.72,1.03-.31.36-.73.67-1.26.93-.52.26-1.18.38-1.98.38ZM250.31,433.91h4.51c-.05-.58-.27-1.05-.67-1.39-.4-.34-.91-.52-1.54-.52s-1.18.17-1.57.52c-.39.34-.64.81-.73,1.39Z"/><path class="cls-2" d="M263.13,439.53c-.86,0-1.63-.18-2.32-.53-.69-.36-1.23-.87-1.63-1.55-.4-.68-.6-1.49-.6-2.44v-.25c0-.95.2-1.77.6-2.44.4-.68.94-1.19,1.63-1.55.69-.36,1.46-.53,2.32-.53s1.57.15,2.17.45c.6.3,1.08.7,1.45,1.22.37.52.61,1.1.71,1.74l-1.98.41c-.05-.37-.16-.7-.34-1.01-.18-.3-.43-.54-.76-.72-.33-.18-.73-.27-1.2-.27s-.92.1-1.31.31c-.39.21-.69.52-.91.94-.22.42-.33.92-.33,1.5v.18c0,.58.11,1.08.33,1.49.22.41.52.72.91.94.39.21.82.32,1.31.32.72,0,1.28-.19,1.65-.56s.61-.86.7-1.45l1.98.46c-.14.62-.4,1.18-.77,1.69-.37.51-.85.92-1.45,1.22-.6.3-1.32.45-2.17.45Z"/><path class="cls-2" d="M272.56,439.28c-.57,0-1.03-.17-1.36-.51-.34-.34-.51-.8-.51-1.38v-5.22h-2.3v-1.69h2.3v-2.84h2.05v2.84h2.53v1.69h-2.53v4.89c0,.36.17.53.5.53h1.77v1.69h-2.44Z"/><path class="cls-2" d="M281,439.53c-1.14,0-2.08-.25-2.82-.75-.74-.5-1.18-1.23-1.34-2.19l1.89-.48c.08.45.23.81.45,1.07.21.26.48.45.79.55.32.11.66.16,1.03.16.56,0,.98-.1,1.26-.3.28-.2.42-.46.42-.77s-.13-.56-.4-.71c-.27-.15-.67-.29-1.22-.39l-.55-.09c-.61-.12-1.16-.28-1.66-.49-.5-.21-.9-.49-1.2-.86-.3-.36-.45-.82-.45-1.38,0-.86.32-1.52.95-1.98.64-.46,1.47-.7,2.51-.7s1.8.22,2.44.66c.64.44,1.06,1.03,1.25,1.77l-1.89.57c-.1-.5-.3-.85-.62-1.06-.32-.21-.71-.31-1.18-.31s-.84.08-1.1.25c-.26.17-.38.4-.38.71s.13.54.39.7c.26.15.61.27,1.05.34l.55.11c.65.12,1.24.27,1.77.46.53.19.95.46,1.26.82.31.36.46.84.46,1.44,0,.92-.33,1.62-.99,2.11s-1.55.74-2.67.74Z"/><path class="cls-2" d="M40.17,467.09c-1,0-1.86-.18-2.58-.54-.72-.36-1.27-.89-1.66-1.58-.39-.69-.58-1.51-.58-2.46v-8.15h2.14v8.2c0,.83.23,1.47.7,1.93.46.45,1.12.68,1.98.68s1.53-.23,1.99-.68c.46-.45.69-1.09.69-1.93v-8.2h2.14v8.15c0,.95-.19,1.77-.57,2.46-.38.69-.93,1.22-1.66,1.58-.73.36-1.59.54-2.59.54Z"/><path class="cls-2" d="M47.4,466.84v-12.48h2.16v12.48h-2.16Z"/><path class="cls-2" d="M50.57,470.4l5.24-16.05h2.03l-5.24,16.05h-2.03Z"/><path class="cls-2" d="M63.61,467.09c-1,0-1.86-.18-2.58-.54-.72-.36-1.27-.89-1.66-1.58-.39-.69-.58-1.51-.58-2.46v-8.15h2.14v8.2c0,.83.23,1.47.7,1.93.46.45,1.12.68,1.98.68s1.53-.23,1.99-.68c.46-.45.69-1.09.69-1.93v-8.2h2.14v8.15c0,.95-.19,1.77-.57,2.46-.38.69-.93,1.22-1.66,1.58-.72.36-1.59.54-2.59.54Z"/><path class="cls-2" d="M70.03,466.84l3.76-6.29-3.71-6.19h2.44l2.66,4.67h.3l2.64-4.67h2.46l-3.71,6.19,3.75,6.29h-2.44l-2.69-4.78h-.3l-2.69,4.78h-2.46Z"/><path class="cls-2" d="M80.83,470.4l5.24-16.05h2.03l-5.24,16.05h-2.03Z"/><path class="cls-2" d="M91.67,467.09c-.62,0-1.18-.11-1.68-.33-.5-.22-.89-.54-1.19-.95-.29-.42-.44-.93-.44-1.53s.15-1.09.44-1.5c.29-.4.69-.71,1.2-.92.51-.21,1.09-.31,1.75-.31h2.55v-.53c0-.46-.14-.84-.43-1.13-.29-.29-.73-.44-1.34-.44s-1.04.14-1.35.42c-.3.28-.5.64-.6,1.08l-1.89-.62c.14-.46.37-.89.69-1.27.31-.38.73-.69,1.26-.92.52-.23,1.16-.35,1.93-.35,1.15,0,2.06.29,2.72.86.66.58.99,1.41.99,2.51v3.46c0,.36.17.53.5.53h.75v1.69h-1.44c-.43,0-.78-.11-1.05-.32s-.41-.51-.41-.87v-.04h-.3c-.07.17-.2.37-.37.61-.18.24-.45.44-.81.62s-.85.26-1.47.26ZM92.01,465.41c.68,0,1.23-.19,1.66-.58.43-.39.64-.91.64-1.56v-.18h-2.42c-.44,0-.8.1-1.07.29-.27.19-.41.47-.41.84s.14.65.43.86c.29.22.68.33,1.18.33Z"/><path class="cls-2" d="M99.23,470.4v-12.38h2.02v1.16h.3c.2-.37.53-.7.97-.98.45-.29,1.08-.43,1.92-.43.71,0,1.38.18,1.99.53.61.35,1.1.86,1.47,1.54.37.68.55,1.49.55,2.44v.29c0,.95-.18,1.77-.55,2.44-.37.68-.86,1.19-1.46,1.54-.61.35-1.27.53-2,.53-.56,0-1.03-.07-1.4-.2-.37-.13-.68-.3-.91-.52-.23-.21-.41-.43-.54-.64h-.3v4.67h-2.05ZM103.84,465.3c.75,0,1.36-.24,1.85-.72.48-.48.72-1.17.72-2.06v-.18c0-.9-.24-1.59-.73-2.07-.49-.48-1.1-.71-1.84-.71s-1.35.24-1.85.71c-.49.48-.74,1.17-.74,2.07v.18c0,.89.25,1.58.74,2.06.49.48,1.11.72,1.85.72Z"/><path class="cls-2" d="M110.63,470.4v-12.38h2.02v1.16h.3c.2-.37.53-.7.97-.98.45-.29,1.08-.43,1.92-.43.71,0,1.38.18,1.99.53.61.35,1.1.86,1.47,1.54.37.68.55,1.49.55,2.44v.29c0,.95-.18,1.77-.55,2.44-.37.68-.86,1.19-1.46,1.54-.61.35-1.27.53-2,.53-.56,0-1.03-.07-1.4-.2-.37-.13-.68-.3-.91-.52-.23-.21-.41-.43-.54-.64h-.3v4.67h-2.05ZM115.23,465.3c.75,0,1.36-.24,1.85-.72.48-.48.72-1.17.72-2.06v-.18c0-.9-.24-1.59-.73-2.07-.49-.48-1.1-.71-1.84-.71s-1.35.24-1.85.71c-.49.48-.74,1.17-.74,2.07v.18c0,.89.25,1.58.74,2.06.49.48,1.11.72,1.85.72Z"/><path class="cls-2" d="M130.17,467.09c-.71,0-1.38-.18-2-.53-.62-.35-1.11-.86-1.48-1.54-.37-.68-.55-1.49-.55-2.44v-.29c0-.95.18-1.77.55-2.44.37-.68.86-1.19,1.47-1.54.61-.35,1.28-.53,2.01-.53.55,0,1.01.07,1.39.2.38.13.69.3.92.5.23.2.41.42.54.66h.3v-4.78h2.03v12.48h-2v-1.16h-.3c-.21.36-.54.68-.98.97-.44.29-1.08.44-1.91.44ZM130.78,465.3c.74,0,1.35-.24,1.84-.72.49-.48.73-1.17.73-2.06v-.18c0-.9-.24-1.59-.72-2.07-.48-.48-1.1-.71-1.85-.71s-1.35.24-1.85.71c-.49.48-.74,1.17-.74,2.07v.18c0,.89.25,1.58.74,2.06.49.48,1.11.72,1.85.72Z"/><path class="cls-2" d="M142,467.09c-.88,0-1.66-.19-2.33-.56-.67-.37-1.2-.9-1.57-1.59-.37-.68-.56-1.48-.56-2.4v-.21c0-.93.18-1.73.55-2.41.37-.68.88-1.2,1.55-1.58.67-.37,1.43-.56,2.3-.56s1.6.19,2.25.56c.64.37,1.14.9,1.5,1.58.36.68.54,1.47.54,2.37v.73h-6.62c.02.69.27,1.24.73,1.66.46.42,1.03.62,1.71.62s1.16-.15,1.48-.44c.32-.29.57-.62.73-.99l1.69.87c-.17.32-.41.66-.72,1.03-.31.36-.73.67-1.26.93-.52.26-1.18.38-1.98.38ZM139.62,461.47h4.51c-.05-.58-.27-1.05-.67-1.39-.4-.34-.91-.52-1.54-.52s-1.18.17-1.57.52c-.39.34-.64.81-.73,1.39Z"/><path class="cls-2" d="M151.96,467.09c-1.14,0-2.08-.25-2.82-.75-.74-.5-1.18-1.23-1.34-2.19l1.89-.48c.08.45.23.81.45,1.07.21.26.48.45.79.55.31.11.66.16,1.03.16.56,0,.98-.1,1.26-.3.28-.2.42-.46.42-.77s-.13-.56-.4-.71c-.27-.15-.67-.29-1.22-.39l-.55-.09c-.61-.12-1.16-.28-1.66-.49-.5-.21-.9-.49-1.2-.86-.3-.36-.46-.82-.46-1.38,0-.86.32-1.52.95-1.98s1.47-.7,2.5-.7,1.8.22,2.44.66c.64.44,1.06,1.03,1.25,1.77l-1.89.57c-.09-.5-.3-.85-.62-1.06-.32-.21-.71-.31-1.18-.31s-.84.08-1.1.25c-.26.17-.38.4-.38.71s.13.54.39.7c.26.15.61.27,1.05.34l.55.11c.65.12,1.25.27,1.77.46.53.19.95.46,1.26.82.31.36.46.84.46,1.44,0,.92-.33,1.62-.99,2.11-.66.49-1.55.74-2.67.74Z"/><path class="cls-2" d="M158.71,456.91c-.37,0-.69-.12-.95-.37-.27-.24-.4-.57-.4-.97s.13-.73.4-.97c.27-.24.58-.37.95-.37.39,0,.72.12.97.37.25.24.38.57.38.97s-.13.73-.38.97c-.26.24-.58.37-.97.37ZM157.69,466.84v-8.81h2.05v8.81h-2.05Z"/><path class="cls-2" d="M161.91,462.47v-.27c0-.93.18-1.72.55-2.38.37-.66.86-1.16,1.48-1.52.62-.35,1.29-.53,2.03-.53.83,0,1.46.15,1.9.45.43.3.75.62.96.96h.3v-1.16h2v10.49c0,.58-.17,1.04-.5,1.38-.33.34-.79.51-1.36.51h-5.92v-1.78h5.22c.34,0,.52-.18.52-.53v-2.55h-.3c-.13.2-.31.41-.54.62-.23.21-.52.38-.89.53-.37.14-.83.21-1.39.21-.74,0-1.42-.18-2.03-.53-.62-.35-1.11-.86-1.48-1.52-.37-.66-.55-1.45-.55-2.38ZM166.55,465.09c.74,0,1.35-.23,1.84-.7.49-.47.73-1.13.73-1.97v-.18c0-.86-.24-1.52-.72-1.98-.48-.46-1.1-.7-1.85-.7s-1.35.23-1.85.7c-.49.46-.74,1.12-.74,1.98v.18c0,.84.25,1.5.74,1.97.49.47,1.11.7,1.85.7Z"/><path class="cls-2" d="M173.74,466.84v-8.81h2.01v1.23h.3c.15-.33.43-.65.84-.95.4-.3,1.02-.45,1.84-.45.68,0,1.28.15,1.8.46.52.31.93.74,1.22,1.28.29.55.44,1.19.44,1.94v5.28h-2.05v-5.12c0-.71-.18-1.25-.53-1.6-.35-.35-.85-.53-1.49-.53-.73,0-1.3.24-1.71.72-.42.48-.62,1.17-.62,2.06v4.46h-2.05Z"/><path class="cls-2" d="M188.34,467.09c-1.14,0-2.08-.25-2.82-.75-.74-.5-1.18-1.23-1.34-2.19l1.89-.48c.08.45.23.81.45,1.07.21.26.48.45.79.55.31.11.66.16,1.03.16.56,0,.98-.1,1.26-.3.28-.2.42-.46.42-.77s-.13-.56-.4-.71c-.27-.15-.68-.29-1.22-.39l-.55-.09c-.61-.12-1.16-.28-1.66-.49-.5-.21-.9-.49-1.2-.86-.3-.36-.46-.82-.46-1.38,0-.86.32-1.52.96-1.98.63-.46,1.47-.7,2.5-.7s1.8.22,2.44.66c.64.44,1.06,1.03,1.25,1.77l-1.89.57c-.09-.5-.3-.85-.62-1.06-.32-.21-.71-.31-1.18-.31s-.84.08-1.1.25c-.26.17-.38.4-.38.71s.13.54.39.7c.26.15.61.27,1.05.34l.55.11c.65.12,1.25.27,1.78.46.53.19.95.46,1.26.82.31.36.46.84.46,1.44,0,.92-.33,1.62-.99,2.11s-1.55.74-2.67.74Z"/><path class="cls-7" d="M19.15,377.26l-7.02,7.02c-.52.52-1.36.52-1.88,0l-3.63-3.63c-.52-.52-.52-1.36,0-1.88.52-.52,1.36-.52,1.88,0l2.68,2.68,6.08-6.08c.52-.52,1.36-.52,1.88,0,.52.52.52,1.36,0,1.88Z"/><path class="cls-5" d="M19.15,404.45l-7.02,7.02c-.52.52-1.36.52-1.88,0l-3.63-3.63c-.52-.52-.52-1.36,0-1.88.52-.52,1.36-.52,1.88,0l2.68,2.68,6.08-6.08c.52-.52,1.36-.52,1.88,0,.52.52.52,1.36,0,1.88Z"/><path class="cls-1" d="M19.15,431.65l-7.02,7.02c-.52.52-1.36.52-1.88,0l-3.63-3.63c-.52-.52-.52-1.36,0-1.88.52-.52,1.36-.52,1.88,0l2.68,2.68,6.08-6.08c.52-.52,1.36-.52,1.88,0,.52.52.52,1.36,0,1.88Z"/><path class="cls-4" d="M19.15,458.85l-7.02,7.02c-.52.52-1.36.52-1.88,0l-3.63-3.63c-.52-.52-.52-1.36,0-1.88.52-.52,1.36-.52,1.88,0l2.68,2.68,6.08-6.08c.52-.52,1.36-.52,1.88,0,.52.52.52,1.36,0,1.88Z"/><circle class="cls-8" cx="9.31" cy="5.2" r="5.2"/><circle class="cls-8" cx="32.95" cy="5.2" r="5.2"/><circle class="cls-8" cx="56.59" cy="5.2" r="5.2"/></g></svg>