<?xml version="1.0" encoding="UTF-8"?><svg id="Layer_2" xmlns="http://www.w3.org/2000/svg" width="478.47" height="605.01" xmlns:xlink="http://www.w3.org/1999/xlink" viewBox="0 0 478.47 605.01"><defs><style>.cls-1{fill:#9da5de;}.cls-2{fill:url(#New_Gradient_Swatch_copy_5-3);}.cls-3{fill:#5a5f80;}.cls-4{fill:url(#New_Gradient_Swatch_copy_5-4);}.cls-5{fill:url(#New_Gradient_Swatch_copy_5);}.cls-6{fill:#848aba;}.cls-7{fill:#e14ba5;}.cls-8{fill:url(#New_Gradient_Swatch_copy_5-2);}</style><linearGradient id="New_Gradient_Swatch_copy_5" x1="6.36" y1="367.32" x2="19.68" y2="367.32" gradientUnits="userSpaceOnUse"><stop offset="0" stop-color="#f676fc"/><stop offset=".63" stop-color="#c052fd"/><stop offset="1" stop-color="#a03cfe"/></linearGradient><linearGradient id="New_Gradient_Swatch_copy_5-2" y1="394.88" y2="394.88" xlink:href="#New_Gradient_Swatch_copy_5"/><linearGradient id="New_Gradient_Swatch_copy_5-3" y1="422.43" y2="422.43" xlink:href="#New_Gradient_Swatch_copy_5"/><linearGradient id="New_Gradient_Swatch_copy_5-4" y1="449.99" y2="449.99" xlink:href="#New_Gradient_Swatch_copy_5"/></defs><g id="COVER"><path class="cls-6" d="M46.89,82.67c-5.83-6.39-11.22-13.1-15.98-20.31l-13.6,10.34v9.97H4.76v-42.44h12.54v19.81l25.58-19.81h17.17l-19.81,15.04c6.58,9.53,14.23,18.93,22.31,27.39h-15.67Z"/><path class="cls-6" d="M75.47,68.32c.88,4.95,4.7,7.02,12.35,7.02,5.7,0,9.59-1.5,11.53-3.76l11.28,3.01c-2.82,5.95-10.28,8.84-22.75,8.84-15.92,0-24.45-4.39-24.45-17.86s8.52-17.86,24.45-17.86c19.12,0,24.07,5.45,24.07,18.93v1.69h-36.48ZM99.85,61.49c-1-4.14-5.08-5.7-12.04-5.7s-10.97,1.57-12.04,5.7h24.07Z"/><path class="cls-6" d="M112.96,48.45h13.6l9.53,22.06,9.59-22.06h12.47l-16.11,33.97c-3.07,6.52-7.33,10.41-16.3,10.41-7.4,0-10.84-2.19-12.35-3.7l4.7-7.02c1.57,1.13,3.7,2.01,6.46,2.01,2.44,0,4.95-.88,6.08-2.63l-17.68-33.03Z"/><path class="cls-6" d="M23.63,140.49L.75,98.06h14.6l16.05,32.41,15.73-32.41h13.92l-22.31,42.44h-15.11Z"/><path class="cls-6" d="M67.26,102.63v-7.08h12.47v7.08h-12.47ZM67.26,140.49v-34.22h12.47v34.22h-12.47Z"/><path class="cls-6" d="M124.36,117.55c-.75-2.51-5.27-4.14-11.91-4.14-7.15,0-11.78,1-11.78,3.07,0,2.63,4.07,2.63,8.02,2.63,2.7,0,5.64-.06,7.9-.06,12.66,0,18.55,2.44,18.55,10.15s-6.27,12.6-23.82,12.6c-12.91,0-20.69-3.51-23.63-9.65l11.41-2.7c1.25,1.94,4.26,4.07,13.16,4.07,7.58,0,10.72-.94,10.72-3.26s-3.45-2.63-7.77-2.63c-2.26,0-4.83.06-7.52.06-8.71,0-19.18-1.82-19.18-10.84,0-6.96,6.46-11.35,23.88-11.35,14.35,0,20.62,3.45,22.75,8.71l-10.78,3.32Z"/><path class="cls-6" d="M174.82,106.27h12.66v20.87c0,13.04-8.34,14.29-25.26,14.29-14.23,0-20.43-2.19-20.43-14.23v-20.94h12.66v20.75c0,4.2,2.01,5.39,9.65,5.39s10.72-1.19,10.72-5.33v-20.81Z"/><path class="cls-6" d="M247.16,139.62c-1.57,1.25-4.2,1.63-6.27,1.63-4.58,0-6.77-1.38-7.9-3.45-3.32,1.88-9.9,3.45-20.25,3.45-11.78,0-18.43-4.14-18.43-12.04,0-9.28,11.53-10.78,21.56-10.78,7.27,0,12.1.75,15.04,1.76-.5-3.64-1.88-6.02-13.67-6.02-7.15,0-12.29,1.19-15.92,3.32l-6.27-6.21c4.58-3.57,11.91-5.77,23.26-5.77,12.41,0,17.93,2.19,20.62,5.33,1.82,2.13,3.07,4.64,3.57,8.65.75,6.33.25,9.47.69,11.03.38,1.19.88,1.88,1.88,1.88.5,0,1.32,0,2.07-.38v7.58ZM231.55,127.14c-2.44-.69-9.59-1.63-15.11-1.63-8.59,0-9.59,1.44-9.59,3.76s1,3.82,9.59,3.82c5.52,0,12.66-.94,15.29-1.76l-.19-4.2Z"/><path class="cls-6" d="M253.49,140.49v-44.94h12.6v44.94h-12.6Z"/><path class="cls-6" d="M310.34,117.55c-.75-2.51-5.27-4.14-11.91-4.14-7.15,0-11.78,1-11.78,3.07,0,2.63,4.07,2.63,8.02,2.63,2.7,0,5.64-.06,7.9-.06,12.66,0,18.55,2.44,18.55,10.15s-6.27,12.6-23.82,12.6c-12.91,0-20.69-3.51-23.63-9.65l11.41-2.7c1.25,1.94,4.26,4.07,13.16,4.07,7.58,0,10.72-.94,10.72-3.26s-3.45-2.63-7.77-2.63c-2.26,0-4.83.06-7.52.06-8.71,0-19.18-1.82-19.18-10.84,0-6.96,6.46-11.35,23.88-11.35,14.35,0,20.62,3.45,22.75,8.71l-10.78,3.32Z"/><path class="cls-3" d="M5.05,207.99v-16.1h10.26v2.51h-7.48v4.23h6.83v2.51h-6.83v4.35h7.59v2.51H5.05Z"/><path class="cls-3" d="M16.94,207.99l4.23-5.73-4.16-5.64h3.08l2.78,3.93h.39l2.78-3.93h3.06l-4.16,5.64,4.23,5.73h-3.1l-2.81-4h-.39l-2.81,4h-3.13Z"/><path class="cls-3" d="M31.55,212.59v-15.96h2.6v1.5h.39c.26-.48.68-.9,1.25-1.27.58-.37,1.4-.55,2.47-.55.92,0,1.77.23,2.56.68.79.45,1.42,1.12,1.9,1.99.48.87.71,1.92.71,3.15v.37c0,1.23-.24,2.28-.71,3.15-.48.87-1.1,1.54-1.89,1.99-.78.45-1.64.68-2.58.68-.72,0-1.32-.08-1.81-.25-.48-.17-.87-.39-1.17-.67s-.53-.55-.7-.83h-.39v6.03h-2.65ZM37.48,206.01c.97,0,1.76-.31,2.38-.93.62-.62.93-1.51.93-2.66v-.23c0-1.17-.31-2.05-.94-2.67-.63-.61-1.42-.92-2.37-.92s-1.74.31-2.38.92c-.64.61-.95,1.5-.95,2.67v.23c0,1.15.32,2.04.95,2.66.64.62,1.43.93,2.38.93Z"/><path class="cls-3" d="M46.24,207.99v-16.1h2.65v16.1h-2.65Z"/><path class="cls-3" d="M57.63,208.31c-1.13,0-2.15-.23-3.05-.7s-1.6-1.13-2.12-2c-.51-.87-.77-1.91-.77-3.12v-.37c0-1.21.26-2.25.77-3.13.51-.87,1.22-1.54,2.12-2s1.91-.69,3.05-.69,2.15.23,3.04.69c.89.46,1.59,1.13,2.1,2,.51.87.77,1.92.77,3.13v.37c0,1.21-.26,2.25-.77,3.12-.51.87-1.22,1.53-2.1,2-.89.47-1.9.7-3.04.7ZM57.63,205.97c.97,0,1.76-.31,2.37-.93.61-.62.92-1.49.92-2.61v-.23c0-1.12-.31-1.99-.92-2.61-.61-.62-1.4-.93-2.37-.93s-1.76.31-2.37.93-.92,1.49-.92,2.61v.23c0,1.12.31,1.99.92,2.61.61.62,1.4.93,2.37.93Z"/><path class="cls-3" d="M66.34,207.99v-11.36h2.6v1.31h.39c.17-.48.45-.82.85-1.04.4-.21.87-.32,1.43-.32h1.38v2.35h-1.43c-.77,0-1.39.2-1.86.61-.48.41-.71,1.03-.71,1.87v6.58h-2.65Z"/><path class="cls-3" d="M80.12,208.31c-1.13,0-2.14-.24-3-.72-.87-.48-1.54-1.17-2.02-2.05-.48-.88-.72-1.91-.72-3.09v-.28c0-1.2.24-2.23.71-3.1.48-.87,1.14-1.55,2-2.04s1.85-.72,2.97-.72,2.07.24,2.9.72,1.47,1.16,1.93,2.04c.46.87.69,1.89.69,3.06v.94h-8.53c.03.89.35,1.6.94,2.14.6.54,1.33.8,2.21.8s1.5-.19,1.91-.56c.41-.38.73-.8.94-1.28l2.19,1.13c-.21.41-.53.85-.93,1.32-.41.47-.95.87-1.62,1.2-.68.33-1.53.49-2.55.49ZM77.06,201.07h5.82c-.06-.75-.35-1.35-.86-1.79-.51-.44-1.18-.67-1.99-.67s-1.52.22-2.02.67c-.51.44-.82,1.04-.94,1.79Z"/><path class="cls-3" d="M98.8,208.31c-.92,0-1.78-.23-2.58-.68-.8-.45-1.43-1.12-1.91-1.99-.48-.87-.71-1.92-.71-3.15v-.37c0-1.23.24-2.28.71-3.15s1.11-1.54,1.9-1.99c.79-.45,1.65-.68,2.59-.68.71,0,1.3.08,1.79.25.49.17.89.38,1.18.64.3.26.53.54.7.85h.39v-6.16h2.62v16.1h-2.58v-1.49h-.39c-.28.46-.7.88-1.26,1.25-.57.38-1.39.56-2.46.56ZM99.58,206.01c.95,0,1.74-.31,2.37-.93.63-.62.94-1.51.94-2.66v-.23c0-1.17-.31-2.05-.93-2.67-.62-.61-1.41-.92-2.38-.92s-1.74.31-2.38.92c-.64.61-.95,1.5-.95,2.67v.23c0,1.15.32,2.04.95,2.66.64.62,1.43.93,2.38.93Z"/><path class="cls-3" d="M110.11,212.59v-2.3h6.28c.43,0,.64-.23.64-.69v-3.17h-.39c-.12.28-.32.55-.6.82-.28.27-.64.49-1.1.67-.46.18-1.04.26-1.75.26-.87,0-1.65-.2-2.32-.59-.67-.39-1.2-.94-1.56-1.66-.37-.71-.55-1.54-.55-2.5v-6.81h2.62v6.6c0,.92.23,1.6.68,2.05.45.44,1.09.67,1.92.67.94,0,1.67-.31,2.22-.92.54-.61.82-1.49.82-2.65v-5.75h2.62v13.52c0,.75-.21,1.35-.64,1.78s-1.01.66-1.75.66h-7.13Z"/><path class="cls-3" d="M122.99,207.99v-11.36h2.6v1.59h.39c.2-.43.56-.84,1.08-1.22.52-.38,1.31-.57,2.37-.57.87,0,1.65.2,2.32.6.67.4,1.2.95,1.58,1.66.38.71.56,1.54.56,2.51v6.81h-2.65v-6.6c0-.92-.23-1.61-.68-2.06-.45-.45-1.09-.68-1.92-.68-.94,0-1.67.31-2.21.93s-.8,1.51-.8,2.66v5.75h-2.65Z"/><path class="cls-3" d="M140.66,208.31c-.8,0-1.52-.14-2.16-.43s-1.15-.69-1.53-1.23c-.38-.54-.56-1.2-.56-1.98s.19-1.41.56-1.93c.38-.52.89-.92,1.55-1.18.66-.27,1.41-.4,2.25-.4h3.29v-.69c0-.6-.18-1.08-.55-1.46-.37-.38-.94-.56-1.72-.56s-1.35.18-1.74.54c-.39.36-.65.82-.77,1.39l-2.44-.8c.18-.6.48-1.14.89-1.63.41-.49.95-.89,1.62-1.18.67-.3,1.5-.45,2.48-.45,1.49,0,2.66.37,3.51,1.12.85.74,1.28,1.82,1.28,3.23v4.46c0,.46.21.69.64.69h.97v2.19h-1.86c-.55,0-1-.14-1.36-.41-.35-.28-.53-.65-.53-1.13v-.05h-.39c-.09.21-.25.48-.48.78-.23.31-.58.57-1.05.79-.47.22-1.1.33-1.9.33ZM141.09,206.15c.87,0,1.59-.25,2.14-.75.55-.5.83-1.17.83-2.01v-.23h-3.13c-.57,0-1.03.12-1.38.37-.35.25-.53.61-.53,1.08s.18.83.55,1.12c.37.28.87.43,1.52.43Z"/><path class="cls-3" d="M150.41,207.99v-11.36h2.6v1.27h.39c.2-.38.53-.72,1-1.02.47-.3,1.09-.45,1.87-.45.83,0,1.5.17,2,.51.51.34.89.77,1.15,1.29h.37c.26-.52.64-.95,1.13-1.29.49-.34,1.19-.51,2.09-.51.71,0,1.35.15,1.92.46.57.31,1.03.76,1.38,1.36.35.6.52,1.34.52,2.23v7.52h-2.65v-7.34c0-.66-.18-1.16-.53-1.51-.35-.34-.84-.52-1.47-.52-.69,0-1.24.23-1.64.68-.41.45-.61,1.1-.61,1.94v6.74h-2.62v-7.34c0-.66-.18-1.16-.53-1.51s-.84-.52-1.47-.52c-.71,0-1.26.23-1.66.68-.4.45-.6,1.1-.6,1.94v6.74h-2.65Z"/><path class="cls-3" d="M171.38,195.18c-.48,0-.89-.16-1.23-.47-.34-.31-.52-.73-.52-1.25s.17-.94.52-1.25c.35-.31.76-.47,1.23-.47.51,0,.92.16,1.25.47.33.31.49.73.49,1.25s-.16.94-.49,1.25c-.33.31-.75.47-1.25.47ZM170.07,207.99v-11.36h2.65v11.36h-2.65Z"/><path class="cls-3" d="M181.39,208.31c-1.1,0-2.1-.23-2.99-.69-.89-.46-1.59-1.13-2.1-2s-.77-1.92-.77-3.15v-.32c0-1.23.26-2.28.77-3.15.51-.87,1.21-1.54,2.1-2,.89-.46,1.89-.69,2.99-.69s2.02.19,2.79.57c.77.38,1.4.91,1.87,1.58.48.67.78,1.41.92,2.24l-2.55.53c-.06-.48-.21-.91-.44-1.3s-.56-.7-.98-.93c-.42-.23-.94-.34-1.55-.34s-1.19.13-1.69.4c-.5.27-.89.67-1.17,1.21-.28.54-.43,1.18-.43,1.93v.23c0,.75.14,1.39.43,1.92s.67.93,1.17,1.21c.5.28,1.06.41,1.69.41.94,0,1.64-.24,2.13-.72.48-.48.79-1.11.91-1.87l2.55.6c-.18.8-.51,1.53-.99,2.19-.48.66-1.1,1.18-1.87,1.58-.77.39-1.71.59-2.79.59Z"/><path class="cls-3" d="M200.8,208.31c-1.1,0-2.1-.23-2.99-.69-.89-.46-1.59-1.13-2.1-2s-.77-1.92-.77-3.15v-.32c0-1.23.26-2.28.77-3.15.51-.87,1.21-1.54,2.1-2,.89-.46,1.89-.69,2.99-.69s2.02.19,2.79.57c.77.38,1.4.91,1.87,1.58.48.67.78,1.41.92,2.24l-2.55.53c-.06-.48-.21-.91-.44-1.3s-.56-.7-.98-.93c-.42-.23-.94-.34-1.55-.34s-1.19.13-1.69.4c-.5.27-.89.67-1.17,1.21-.28.54-.43,1.18-.43,1.93v.23c0,.75.14,1.39.43,1.92s.67.93,1.17,1.21c.5.28,1.06.41,1.69.41.94,0,1.64-.24,2.13-.72.48-.48.79-1.11.91-1.87l2.55.6c-.18.8-.51,1.53-.99,2.19-.48.66-1.1,1.18-1.87,1.58-.77.39-1.71.59-2.79.59Z"/><path class="cls-3" d="M214.42,208.31c-1.13,0-2.15-.23-3.05-.7s-1.6-1.13-2.12-2c-.51-.87-.77-1.91-.77-3.12v-.37c0-1.21.26-2.25.77-3.13.51-.87,1.22-1.54,2.12-2s1.91-.69,3.05-.69,2.15.23,3.04.69c.89.46,1.59,1.13,2.1,2,.51.87.77,1.92.77,3.13v.37c0,1.21-.26,2.25-.77,3.12-.51.87-1.22,1.53-2.1,2-.89.47-1.9.7-3.04.7ZM214.42,205.97c.97,0,1.76-.31,2.37-.93.61-.62.92-1.49.92-2.61v-.23c0-1.12-.31-1.99-.92-2.61-.61-.62-1.4-.93-2.37-.93s-1.76.31-2.37.93-.92,1.49-.92,2.61v.23c0,1.12.31,1.99.92,2.61.61.62,1.4.93,2.37.93Z"/><path class="cls-3" d="M223.13,207.99v-11.36h2.6v1.59h.39c.2-.43.56-.84,1.08-1.22.52-.38,1.31-.57,2.37-.57.87,0,1.65.2,2.32.6.67.4,1.2.95,1.58,1.66.38.71.56,1.54.56,2.51v6.81h-2.65v-6.6c0-.92-.23-1.61-.68-2.06-.45-.45-1.09-.68-1.92-.68-.94,0-1.67.31-2.21.93s-.8,1.51-.8,2.66v5.75h-2.65Z"/><path class="cls-3" d="M242.59,208.31c-1.1,0-2.1-.23-2.99-.69-.89-.46-1.59-1.13-2.1-2s-.77-1.92-.77-3.15v-.32c0-1.23.26-2.28.77-3.15.51-.87,1.21-1.54,2.1-2,.89-.46,1.89-.69,2.99-.69s2.02.19,2.79.57c.77.38,1.4.91,1.87,1.58.48.67.78,1.41.92,2.24l-2.55.53c-.06-.48-.21-.91-.44-1.3s-.56-.7-.98-.93c-.42-.23-.94-.34-1.55-.34s-1.19.13-1.69.4c-.5.27-.89.67-1.17,1.21-.28.54-.43,1.18-.43,1.93v.23c0,.75.14,1.39.43,1.92s.67.93,1.17,1.21c.5.28,1.06.41,1.69.41.94,0,1.64-.24,2.13-.72.48-.48.79-1.11.91-1.87l2.55.6c-.18.8-.51,1.53-.99,2.19-.48.66-1.1,1.18-1.87,1.58-.77.39-1.71.59-2.79.59Z"/><path class="cls-3" d="M256.02,208.31c-1.13,0-2.14-.24-3-.72-.87-.48-1.54-1.17-2.02-2.05-.48-.88-.72-1.91-.72-3.09v-.28c0-1.2.24-2.23.71-3.1.48-.87,1.14-1.55,2-2.04s1.85-.72,2.97-.72,2.07.24,2.9.72,1.47,1.16,1.93,2.04c.46.87.69,1.89.69,3.06v.94h-8.53c.03.89.35,1.6.94,2.14.6.54,1.33.8,2.21.8s1.5-.19,1.91-.56c.41-.38.73-.8.94-1.28l2.19,1.13c-.21.41-.53.85-.93,1.32-.41.47-.95.87-1.62,1.2-.68.33-1.53.49-2.55.49ZM252.96,201.07h5.82c-.06-.75-.35-1.35-.86-1.79-.51-.44-1.18-.67-1.99-.67s-1.52.22-2.02.67c-.51.44-.82,1.04-.94,1.79Z"/><path class="cls-3" d="M264.19,212.59v-15.96h2.6v1.5h.39c.26-.48.68-.9,1.25-1.27.58-.37,1.4-.55,2.47-.55.92,0,1.77.23,2.56.68.79.45,1.42,1.12,1.9,1.99.48.87.71,1.92.71,3.15v.37c0,1.23-.24,2.28-.71,3.15-.48.87-1.1,1.54-1.89,1.99-.78.45-1.64.68-2.58.68-.72,0-1.32-.08-1.81-.25-.48-.17-.87-.39-1.17-.67s-.53-.55-.7-.83h-.39v6.03h-2.65ZM270.12,206.01c.97,0,1.76-.31,2.38-.93.62-.62.93-1.51.93-2.66v-.23c0-1.17-.31-2.05-.94-2.67-.63-.61-1.42-.92-2.37-.92s-1.74.31-2.38.92c-.64.61-.95,1.5-.95,2.67v.23c0,1.15.32,2.04.95,2.66.64.62,1.43.93,2.38.93Z"/><path class="cls-3" d="M282.82,207.99c-.74,0-1.32-.22-1.76-.66s-.66-1.03-.66-1.78v-6.74h-2.97v-2.19h2.97v-3.66h2.65v3.66h3.27v2.19h-3.27v6.3c0,.46.21.69.64.69h2.28v2.19h-3.15Z"/><path class="cls-3" d="M293.7,208.31c-1.47,0-2.68-.32-3.63-.97-.95-.64-1.53-1.59-1.72-2.83l2.44-.62c.11.58.3,1.04.57,1.38.28.34.62.57,1.02.71.41.14.85.21,1.32.21.72,0,1.26-.13,1.62-.39.36-.26.54-.59.54-.99s-.17-.72-.52-.92c-.35-.2-.87-.37-1.58-.51l-.71-.11c-.78-.15-1.5-.36-2.14-.63-.64-.27-1.16-.64-1.55-1.1-.39-.47-.59-1.06-.59-1.78,0-1.1.41-1.95,1.23-2.55.82-.6,1.9-.9,3.23-.9s2.32.28,3.15.85c.83.57,1.36,1.33,1.61,2.28l-2.44.74c-.12-.64-.39-1.1-.8-1.37-.41-.27-.92-.4-1.52-.4s-1.08.11-1.41.32c-.33.21-.49.52-.49.92s.17.7.51.9c.34.2.79.34,1.36.44l.71.14c.84.15,1.61.35,2.29.6.68.25,1.22.6,1.62,1.06.4.46.6,1.08.6,1.86,0,1.18-.43,2.09-1.28,2.73-.85.64-2,.95-3.44.95Z"/><path class="cls-3" d="M310.46,208.31c-.8,0-1.52-.14-2.16-.43s-1.15-.69-1.53-1.23c-.38-.54-.56-1.2-.56-1.98s.19-1.41.56-1.93c.38-.52.89-.92,1.55-1.18.66-.27,1.41-.4,2.25-.4h3.29v-.69c0-.6-.18-1.08-.55-1.46-.37-.38-.94-.56-1.72-.56s-1.35.18-1.74.54c-.39.36-.65.82-.77,1.39l-2.44-.8c.18-.6.48-1.14.89-1.63.41-.49.95-.89,1.62-1.18.67-.3,1.5-.45,2.48-.45,1.49,0,2.66.37,3.51,1.12.85.74,1.28,1.82,1.28,3.23v4.46c0,.46.21.69.64.69h.97v2.19h-1.86c-.55,0-1-.14-1.36-.41-.35-.28-.53-.65-.53-1.13v-.05h-.39c-.09.21-.25.48-.48.78-.23.31-.58.57-1.05.79-.47.22-1.1.33-1.9.33ZM310.9,206.15c.87,0,1.59-.25,2.14-.75.55-.5.83-1.17.83-2.01v-.23h-3.13c-.57,0-1.03.12-1.38.37-.35.25-.53.61-.53,1.08s.18.83.55,1.12c.37.28.87.43,1.52.43Z"/><path class="cls-3" d="M320.21,207.99v-11.36h2.6v1.59h.39c.2-.43.56-.84,1.08-1.22.52-.38,1.31-.57,2.37-.57.87,0,1.65.2,2.32.6.67.4,1.2.95,1.58,1.66.38.71.56,1.54.56,2.51v6.81h-2.65v-6.6c0-.92-.23-1.61-.68-2.06-.45-.45-1.09-.68-1.92-.68-.94,0-1.67.31-2.21.93s-.8,1.51-.8,2.66v5.75h-2.65Z"/><path class="cls-3" d="M339.01,208.31c-.92,0-1.78-.23-2.58-.68-.8-.45-1.43-1.12-1.91-1.99-.48-.87-.71-1.92-.71-3.15v-.37c0-1.23.24-2.28.71-3.15s1.11-1.54,1.9-1.99c.79-.45,1.65-.68,2.59-.68.71,0,1.3.08,1.79.25.49.17.89.38,1.18.64.3.26.53.54.7.85h.39v-6.16h2.62v16.1h-2.58v-1.49h-.39c-.28.46-.7.88-1.26,1.25-.57.38-1.39.56-2.46.56ZM339.79,206.01c.95,0,1.74-.31,2.37-.93.63-.62.94-1.51.94-2.66v-.23c0-1.17-.31-2.05-.93-2.67-.62-.61-1.41-.92-2.38-.92s-1.74.31-2.38.92c-.64.61-.95,1.5-.95,2.67v.23c0,1.15.32,2.04.95,2.66.64.62,1.43.93,2.38.93Z"/><path class="cls-3" d="M359.61,208.31c-1.47,0-2.68-.32-3.63-.97-.95-.64-1.53-1.59-1.72-2.83l2.44-.62c.11.58.3,1.04.57,1.38.28.34.62.57,1.02.71.41.14.85.21,1.32.21.72,0,1.26-.13,1.62-.39.36-.26.54-.59.54-.99s-.17-.72-.52-.92c-.35-.2-.87-.37-1.58-.51l-.71-.11c-.78-.15-1.5-.36-2.14-.63-.64-.27-1.16-.64-1.55-1.1-.39-.47-.59-1.06-.59-1.78,0-1.1.41-1.95,1.23-2.55.82-.6,1.9-.9,3.23-.9s2.32.28,3.15.85c.83.57,1.36,1.33,1.61,2.28l-2.44.74c-.12-.64-.39-1.1-.8-1.37-.41-.27-.92-.4-1.52-.4s-1.08.11-1.41.32c-.33.21-.49.52-.49.92s.17.7.51.9c.34.2.79.34,1.36.44l.71.14c.84.15,1.61.35,2.29.6.68.25,1.22.6,1.62,1.06.4.46.6,1.08.6,1.86,0,1.18-.43,2.09-1.28,2.73-.85.64-2,.95-3.44.95Z"/><path class="cls-3" d="M371.09,207.99c-.74,0-1.32-.22-1.76-.66s-.66-1.03-.66-1.78v-6.74h-2.97v-2.19h2.97v-3.66h2.65v3.66h3.27v2.19h-3.27v6.3c0,.46.21.69.64.69h2.28v2.19h-3.15Z"/><path class="cls-3" d="M377.28,207.99v-11.36h2.6v1.31h.39c.17-.48.45-.82.85-1.04.4-.21.87-.32,1.43-.32h1.38v2.35h-1.43c-.77,0-1.39.2-1.86.61-.48.41-.71,1.03-.71,1.87v6.58h-2.65Z"/><path class="cls-3" d="M387.58,195.18c-.48,0-.89-.16-1.23-.47-.34-.31-.52-.73-.52-1.25s.17-.94.52-1.25c.35-.31.76-.47,1.23-.47.51,0,.92.16,1.25.47.33.31.49.73.49,1.25s-.16.94-.49,1.25c-.33.31-.75.47-1.25.47ZM386.27,207.99v-11.36h2.65v11.36h-2.65Z"/><path class="cls-3" d="M392.27,207.99v-16.1h2.65v9.04h.39l4.09-4.3h3.47l-5.5,5.5,5.68,5.86h-3.43l-4.32-4.62h-.39v4.62h-2.65Z"/><path class="cls-3" d="M406.42,195.18c-.48,0-.89-.16-1.23-.47-.34-.31-.52-.73-.52-1.25s.17-.94.52-1.25c.35-.31.76-.47,1.23-.47.51,0,.92.16,1.25.47.33.31.49.73.49,1.25s-.16.94-.49,1.25c-.33.31-.75.47-1.25.47ZM405.11,207.99v-11.36h2.65v11.36h-2.65Z"/><path class="cls-3" d="M411.11,207.99v-11.36h2.6v1.59h.39c.2-.43.56-.84,1.08-1.22.52-.38,1.31-.57,2.37-.57.87,0,1.65.2,2.32.6.67.4,1.2.95,1.58,1.66.38.71.56,1.54.56,2.51v6.81h-2.65v-6.6c0-.92-.23-1.61-.68-2.06-.45-.45-1.09-.68-1.92-.68-.94,0-1.67.31-2.21.93s-.8,1.51-.8,2.66v5.75h-2.65Z"/><path class="cls-3" d="M424.7,202.35v-.34c0-1.2.24-2.22.71-3.07.48-.85,1.11-1.5,1.91-1.95.8-.45,1.67-.68,2.62-.68,1.07,0,1.89.19,2.45.57.56.38.97.8,1.23,1.24h.39v-1.5h2.58v13.52c0,.75-.21,1.35-.64,1.78-.43.44-1.01.66-1.75.66h-7.64v-2.3h6.74c.44,0,.67-.23.67-.69v-3.29h-.39c-.17.26-.4.53-.69.79-.29.27-.67.49-1.15.68-.48.18-1.07.28-1.79.28-.95,0-1.83-.23-2.62-.68-.8-.45-1.43-1.1-1.91-1.95-.48-.85-.71-1.87-.71-3.07ZM430.68,205.74c.95,0,1.74-.3,2.37-.91.63-.61.94-1.45.94-2.54v-.23c0-1.1-.31-1.96-.93-2.55-.62-.6-1.41-.9-2.38-.9s-1.74.3-2.38.9c-.64.6-.95,1.45-.95,2.55v.23c0,1.09.32,1.94.95,2.54.64.61,1.43.91,2.38.91Z"/><path class="cls-3" d="M5.14,240.99v-16.1h2.65v9.04h.39l4.09-4.3h3.47l-5.5,5.5,5.68,5.86h-3.43l-4.32-4.62h-.39v4.62h-2.65Z"/><path class="cls-3" d="M22.51,241.31c-1.13,0-2.14-.24-3-.72-.87-.48-1.54-1.17-2.02-2.05-.48-.88-.72-1.91-.72-3.09v-.28c0-1.2.24-2.23.71-3.1.48-.87,1.14-1.55,2-2.04s1.85-.72,2.97-.72,2.07.24,2.9.72,1.47,1.16,1.93,2.04c.46.87.69,1.89.69,3.06v.94h-8.53c.03.89.35,1.6.94,2.14.6.54,1.33.8,2.21.8s1.5-.19,1.91-.56c.41-.38.73-.8.94-1.28l2.19,1.13c-.21.41-.53.85-.93,1.32-.41.47-.95.87-1.62,1.2-.68.33-1.53.49-2.55.49ZM19.45,234.07h5.82c-.06-.75-.35-1.35-.86-1.79-.51-.44-1.18-.67-1.99-.67s-1.52.22-2.02.67c-.51.44-.82,1.04-.94,1.79Z"/><path class="cls-3" d="M31.94,245.59v-2.3h6.28c.43,0,.64-.23.64-.69v-3.17h-.39c-.12.28-.32.55-.6.82-.28.27-.64.49-1.1.67-.46.18-1.04.26-1.75.26-.87,0-1.65-.2-2.32-.59-.67-.39-1.2-.94-1.56-1.66-.37-.71-.55-1.54-.55-2.5v-6.81h2.62v6.6c0,.92.23,1.6.68,2.05.45.44,1.09.67,1.92.67.94,0,1.67-.31,2.22-.92.54-.61.82-1.49.82-2.65v-5.75h2.62v13.52c0,.75-.21,1.35-.64,1.78s-1.01.66-1.75.66h-7.13Z"/><path class="cls-3" d="M53.19,240.99l-3.73-11.36h2.81l2.81,9.43h.39l2.83-9.43h2.81l-3.73,11.36h-4.19Z"/><path class="cls-3" d="M64.55,228.18c-.48,0-.89-.16-1.23-.47-.34-.31-.52-.73-.52-1.25s.17-.94.52-1.25c.35-.31.76-.47,1.23-.47.51,0,.92.16,1.25.47.33.31.49.73.49,1.25s-.16.94-.49,1.25c-.33.31-.75.47-1.25.47ZM63.24,240.99v-11.36h2.65v11.36h-2.65Z"/><path class="cls-3" d="M73.93,241.31c-1.47,0-2.68-.32-3.63-.97-.95-.64-1.53-1.59-1.72-2.83l2.44-.62c.11.58.3,1.04.57,1.38.28.34.62.57,1.02.71.41.14.85.21,1.32.21.72,0,1.26-.13,1.62-.39.36-.26.54-.59.54-.99s-.17-.72-.52-.92c-.35-.2-.87-.37-1.58-.51l-.71-.11c-.78-.15-1.5-.36-2.14-.63-.64-.27-1.16-.64-1.55-1.1-.39-.47-.59-1.06-.59-1.78,0-1.1.41-1.95,1.23-2.55.82-.6,1.9-.9,3.23-.9s2.32.28,3.15.85c.83.57,1.36,1.33,1.61,2.28l-2.44.74c-.12-.64-.39-1.1-.8-1.37-.41-.27-.92-.4-1.52-.4s-1.08.11-1.41.32c-.33.21-.49.52-.49.92s.17.7.51.9c.34.2.79.34,1.36.44l.71.14c.84.15,1.61.35,2.29.6.68.25,1.22.6,1.62,1.06.4.46.6,1.08.6,1.86,0,1.18-.43,2.09-1.28,2.73-.85.64-2,.95-3.44.95Z"/><path class="cls-3" d="M85.66,241.17c-.87,0-1.65-.2-2.32-.59-.67-.39-1.2-.94-1.56-1.66-.37-.71-.55-1.54-.55-2.5v-6.81h2.62v6.6c0,.92.23,1.6.68,2.05.45.44,1.09.67,1.92.67.94,0,1.67-.31,2.22-.92.54-.61.82-1.49.82-2.65v-5.75h2.62v11.36h-2.58v-1.59h-.39c-.2.41-.56.81-1.09,1.2-.53.38-1.32.57-2.38.57Z"/><path class="cls-3" d="M98.98,241.31c-.8,0-1.52-.14-2.16-.43s-1.15-.69-1.53-1.23c-.38-.54-.56-1.2-.56-1.98s.19-1.41.56-1.93c.38-.52.89-.92,1.55-1.18.66-.27,1.41-.4,2.25-.4h3.29v-.69c0-.6-.18-1.08-.55-1.46-.37-.38-.94-.56-1.72-.56s-1.35.18-1.74.54c-.39.36-.65.82-.77,1.39l-2.44-.8c.18-.6.48-1.14.89-1.63.41-.49.95-.89,1.62-1.18.67-.3,1.5-.45,2.48-.45,1.49,0,2.66.37,3.51,1.12.85.74,1.28,1.82,1.28,3.23v4.46c0,.46.21.69.64.69h.97v2.19h-1.86c-.55,0-1-.14-1.36-.41-.35-.28-.53-.65-.53-1.13v-.05h-.39c-.09.21-.25.48-.48.78-.23.31-.58.57-1.05.79-.47.22-1.1.33-1.9.33ZM99.42,239.15c.87,0,1.59-.25,2.14-.75.55-.5.83-1.17.83-2.01v-.23h-3.13c-.57,0-1.03.12-1.38.37-.35.25-.53.61-.53,1.08s.18.83.55,1.12c.37.28.87.43,1.52.43Z"/><path class="cls-3" d="M108.73,240.99v-16.1h2.65v16.1h-2.65Z"/><path class="cls-3" d="M119.43,241.31c-1.47,0-2.68-.32-3.63-.97-.95-.64-1.53-1.59-1.72-2.83l2.44-.62c.11.58.3,1.04.57,1.38.28.34.62.57,1.02.71.41.14.85.21,1.32.21.72,0,1.26-.13,1.62-.39.36-.26.54-.59.54-.99s-.17-.72-.52-.92c-.35-.2-.87-.37-1.58-.51l-.71-.11c-.78-.15-1.5-.36-2.14-.63-.64-.27-1.16-.64-1.55-1.1-.39-.47-.59-1.06-.59-1.78,0-1.1.41-1.95,1.23-2.55.82-.6,1.9-.9,3.23-.9s2.32.28,3.15.85c.83.57,1.36,1.33,1.61,2.28l-2.44.74c-.12-.64-.39-1.1-.8-1.37-.41-.27-.92-.4-1.52-.4s-1.08.11-1.41.32c-.33.21-.49.52-.49.92s.17.7.51.9c.34.2.79.34,1.36.44l.71.14c.84.15,1.61.35,2.29.6.68.25,1.22.6,1.62,1.06.4.46.6,1.08.6,1.86,0,1.18-.43,2.09-1.28,2.73-.85.64-2,.95-3.44.95Z"/><path class="cls-3" d="M137,240.99c-.74,0-1.32-.22-1.76-.66s-.66-1.03-.66-1.78v-6.74h-2.97v-2.19h2.97v-3.66h2.65v3.66h3.27v2.19h-3.27v6.3c0,.46.21.69.64.69h2.28v2.19h-3.15Z"/><path class="cls-3" d="M143.19,240.99v-16.1h2.65v6.23h.39c.12-.26.32-.52.6-.78.28-.26.64-.48,1.09-.64.45-.17,1.02-.25,1.71-.25.87,0,1.65.2,2.32.59s1.2.94,1.58,1.64c.38.71.56,1.54.56,2.51v6.81h-2.65v-6.6c0-.92-.23-1.61-.68-2.06-.45-.45-1.09-.68-1.92-.68-.94,0-1.67.31-2.21.93s-.8,1.51-.8,2.66v5.75h-2.65Z"/><path class="cls-3" d="M160.85,241.31c-.8,0-1.52-.14-2.16-.43s-1.15-.69-1.53-1.23c-.38-.54-.56-1.2-.56-1.98s.19-1.41.56-1.93c.38-.52.89-.92,1.55-1.18.66-.27,1.41-.4,2.25-.4h3.29v-.69c0-.6-.18-1.08-.55-1.46-.37-.38-.94-.56-1.72-.56s-1.35.18-1.74.54c-.39.36-.65.82-.77,1.39l-2.44-.8c.18-.6.48-1.14.89-1.63.41-.49.95-.89,1.62-1.18.67-.3,1.5-.45,2.48-.45,1.49,0,2.66.37,3.51,1.12.85.74,1.28,1.82,1.28,3.23v4.46c0,.46.21.69.64.69h.97v2.19h-1.86c-.55,0-1-.14-1.36-.41-.35-.28-.53-.65-.53-1.13v-.05h-.39c-.09.21-.25.48-.48.78-.23.31-.58.57-1.05.79-.47.22-1.1.33-1.9.33ZM161.29,239.15c.87,0,1.59-.25,2.14-.75.55-.5.83-1.17.83-2.01v-.23h-3.13c-.57,0-1.03.12-1.38.37-.35.25-.53.61-.53,1.08s.18.83.55,1.12c.37.28.87.43,1.52.43Z"/><path class="cls-3" d="M174.12,240.99c-.74,0-1.32-.22-1.76-.66s-.66-1.03-.66-1.78v-6.74h-2.97v-2.19h2.97v-3.66h2.65v3.66h3.27v2.19h-3.27v6.3c0,.46.21.69.64.69h2.28v2.19h-3.15Z"/><path class="cls-3" d="M186.17,245.59v-15.96h2.6v1.5h.39c.26-.48.68-.9,1.25-1.27.58-.37,1.4-.55,2.47-.55.92,0,1.77.23,2.56.68.79.45,1.42,1.12,1.9,1.99.48.87.71,1.92.71,3.15v.37c0,1.23-.24,2.28-.71,3.15-.48.87-1.1,1.54-1.89,1.99-.78.45-1.64.68-2.58.68-.72,0-1.32-.08-1.81-.25-.48-.17-.87-.39-1.17-.67s-.53-.55-.7-.83h-.39v6.03h-2.65ZM192.11,239.01c.97,0,1.76-.31,2.38-.93.62-.62.93-1.51.93-2.66v-.23c0-1.17-.31-2.05-.94-2.67-.63-.61-1.42-.92-2.37-.92s-1.74.31-2.38.92c-.64.61-.95,1.5-.95,2.67v.23c0,1.15.32,2.04.95,2.66.64.62,1.43.93,2.38.93Z"/><path class="cls-3" d="M205.22,241.17c-.87,0-1.65-.2-2.32-.59-.67-.39-1.2-.94-1.56-1.66-.37-.71-.55-1.54-.55-2.5v-6.81h2.62v6.6c0,.92.23,1.6.68,2.05.45.44,1.09.67,1.92.67.94,0,1.67-.31,2.22-.92.54-.61.82-1.49.82-2.65v-5.75h2.62v11.36h-2.58v-1.59h-.39c-.2.41-.56.81-1.09,1.2-.53.38-1.32.57-2.38.57Z"/><path class="cls-3" d="M219.71,241.31c-1.47,0-2.68-.32-3.63-.97-.95-.64-1.53-1.59-1.72-2.83l2.44-.62c.11.58.3,1.04.57,1.38.28.34.62.57,1.02.71.41.14.85.21,1.32.21.72,0,1.26-.13,1.62-.39.36-.26.54-.59.54-.99s-.17-.72-.52-.92c-.35-.2-.87-.37-1.58-.51l-.71-.11c-.78-.15-1.5-.36-2.14-.63-.64-.27-1.16-.64-1.55-1.1-.39-.47-.59-1.06-.59-1.78,0-1.1.41-1.95,1.23-2.55.82-.6,1.9-.9,3.23-.9s2.32.28,3.15.85c.83.57,1.36,1.33,1.61,2.28l-2.44.74c-.12-.64-.39-1.1-.8-1.37-.41-.27-.92-.4-1.52-.4s-1.08.11-1.41.32c-.33.21-.49.52-.49.92s.17.7.51.9c.34.2.79.34,1.36.44l.71.14c.84.15,1.61.35,2.29.6.68.25,1.22.6,1.62,1.06.4.46.6,1.08.6,1.86,0,1.18-.43,2.09-1.28,2.73-.85.64-2,.95-3.44.95Z"/><path class="cls-3" d="M227.09,240.99v-16.1h2.65v6.23h.39c.12-.26.32-.52.6-.78.28-.26.64-.48,1.09-.64.45-.17,1.02-.25,1.71-.25.87,0,1.65.2,2.32.59s1.2.94,1.58,1.64c.38.71.56,1.54.56,2.51v6.81h-2.65v-6.6c0-.92-.23-1.61-.68-2.06-.45-.45-1.09-.68-1.92-.68-.94,0-1.67.31-2.21.93s-.8,1.51-.8,2.66v5.75h-2.65Z"/><path class="cls-3" d="M252.41,241.31c-1.1,0-2.1-.23-2.99-.69-.89-.46-1.59-1.13-2.1-2s-.77-1.92-.77-3.15v-.32c0-1.23.26-2.28.77-3.15.51-.87,1.21-1.54,2.1-2,.89-.46,1.89-.69,2.99-.69s2.02.19,2.79.57c.77.38,1.4.91,1.87,1.58.48.67.78,1.41.92,2.24l-2.55.53c-.06-.48-.21-.91-.44-1.3s-.56-.7-.98-.93c-.42-.23-.94-.34-1.55-.34s-1.19.13-1.69.4c-.5.27-.89.67-1.17,1.21-.28.54-.43,1.18-.43,1.93v.23c0,.75.14,1.39.43,1.92s.67.93,1.17,1.21c.5.28,1.06.41,1.69.41.94,0,1.64-.24,2.13-.72.48-.48.79-1.11.91-1.87l2.55.6c-.18.8-.51,1.53-.99,2.19-.48.66-1.1,1.18-1.87,1.58-.77.39-1.71.59-2.79.59Z"/><path class="cls-3" d="M260.65,240.99v-11.36h2.6v1.31h.39c.17-.48.45-.82.85-1.04.4-.21.87-.32,1.43-.32h1.38v2.35h-1.43c-.77,0-1.39.2-1.86.61-.48.41-.71,1.03-.71,1.87v6.58h-2.65Z"/><path class="cls-3" d="M274.42,241.31c-1.13,0-2.14-.24-3-.72-.87-.48-1.54-1.17-2.02-2.05-.48-.88-.72-1.91-.72-3.09v-.28c0-1.2.24-2.23.71-3.1.48-.87,1.14-1.55,2-2.04s1.85-.72,2.97-.72,2.07.24,2.9.72,1.47,1.16,1.93,2.04c.46.87.69,1.89.69,3.06v.94h-8.53c.03.89.35,1.6.94,2.14.6.54,1.33.8,2.21.8s1.5-.19,1.91-.56c.41-.38.73-.8.94-1.28l2.19,1.13c-.21.41-.53.85-.93,1.32-.41.47-.95.87-1.62,1.2-.68.33-1.53.49-2.55.49ZM271.36,234.07h5.82c-.06-.75-.35-1.35-.86-1.79-.51-.44-1.18-.67-1.99-.67s-1.52.22-2.02.67c-.51.44-.82,1.04-.94,1.79Z"/><path class="cls-3" d="M286.11,241.31c-.8,0-1.52-.14-2.16-.43s-1.15-.69-1.53-1.23c-.38-.54-.56-1.2-.56-1.98s.19-1.41.56-1.93c.38-.52.89-.92,1.55-1.18.66-.27,1.41-.4,2.25-.4h3.29v-.69c0-.6-.18-1.08-.55-1.46-.37-.38-.94-.56-1.72-.56s-1.35.18-1.74.54c-.39.36-.65.82-.77,1.39l-2.44-.8c.18-.6.48-1.14.89-1.63.41-.49.95-.89,1.62-1.18.67-.3,1.5-.45,2.48-.45,1.49,0,2.66.37,3.51,1.12.85.74,1.28,1.82,1.28,3.23v4.46c0,.46.21.69.64.69h.97v2.19h-1.86c-.55,0-1-.14-1.36-.41-.35-.28-.53-.65-.53-1.13v-.05h-.39c-.09.21-.25.48-.48.78-.23.31-.58.57-1.05.79-.47.22-1.1.33-1.9.33ZM286.54,239.15c.87,0,1.59-.25,2.14-.75.55-.5.83-1.17.83-2.01v-.23h-3.13c-.57,0-1.03.12-1.38.37-.35.25-.53.61-.53,1.08s.18.83.55,1.12c.37.28.87.43,1.52.43Z"/><path class="cls-3" d="M299.38,240.99c-.74,0-1.32-.22-1.76-.66s-.66-1.03-.66-1.78v-6.74h-2.97v-2.19h2.97v-3.66h2.65v3.66h3.27v2.19h-3.27v6.3c0,.46.21.69.64.69h2.28v2.19h-3.15Z"/><path class="cls-3" d="M306.88,228.18c-.48,0-.89-.16-1.23-.47-.34-.31-.52-.73-.52-1.25s.17-.94.52-1.25c.35-.31.76-.47,1.23-.47.51,0,.92.16,1.25.47.33.31.49.73.49,1.25s-.16.94-.49,1.25c-.33.31-.75.47-1.25.47ZM305.56,240.99v-11.36h2.65v11.36h-2.65Z"/><path class="cls-3" d="M314.07,240.99l-3.73-11.36h2.81l2.81,9.43h.39l2.83-9.43h2.81l-3.73,11.36h-4.19Z"/><path class="cls-3" d="M328.95,241.31c-1.13,0-2.14-.24-3-.72-.87-.48-1.54-1.17-2.02-2.05-.48-.88-.72-1.91-.72-3.09v-.28c0-1.2.24-2.23.71-3.1.48-.87,1.14-1.55,2-2.04s1.85-.72,2.97-.72,2.07.24,2.9.72,1.47,1.16,1.93,2.04c.46.87.69,1.89.69,3.06v.94h-8.53c.03.89.35,1.6.94,2.14.6.54,1.33.8,2.21.8s1.5-.19,1.91-.56c.41-.38.73-.8.94-1.28l2.19,1.13c-.21.41-.53.85-.93,1.32-.41.47-.95.87-1.62,1.2-.68.33-1.53.49-2.55.49ZM325.9,234.07h5.82c-.06-.75-.35-1.35-.86-1.79-.51-.44-1.18-.67-1.99-.67s-1.52.22-2.02.67c-.51.44-.82,1.04-.94,1.79Z"/><path class="cls-3" d="M349.7,241.31c-1.07,0-1.9-.19-2.47-.56-.57-.38-.99-.79-1.25-1.25h-.39v1.49h-2.6v-16.1h2.65v6.16h.39c.17-.31.4-.59.7-.85.3-.26.69-.48,1.17-.64.48-.17,1.08-.25,1.81-.25.94,0,1.79.23,2.58.68.78.45,1.41,1.12,1.89,1.99.48.87.71,1.92.71,3.15v.37c0,1.23-.24,2.28-.71,3.15-.48.87-1.11,1.54-1.9,1.99-.79.45-1.64.68-2.56.68ZM348.92,239.01c.95,0,1.74-.31,2.37-.93.63-.62.94-1.51.94-2.66v-.23c0-1.17-.31-2.05-.93-2.67-.62-.61-1.41-.92-2.38-.92s-1.74.31-2.38.92c-.64.61-.95,1.5-.95,2.67v.23c0,1.15.32,2.04.95,2.66.64.62,1.43.93,2.38.93Z"/><path class="cls-3" d="M363.06,241.31c-1.13,0-2.15-.23-3.05-.7s-1.6-1.13-2.12-2c-.51-.87-.77-1.91-.77-3.12v-.37c0-1.21.26-2.25.77-3.13.51-.87,1.22-1.54,2.12-2s1.91-.69,3.05-.69,2.15.23,3.04.69c.89.46,1.59,1.13,2.1,2,.51.87.77,1.92.77,3.13v.37c0,1.21-.26,2.25-.77,3.12-.51.87-1.22,1.53-2.1,2-.89.47-1.9.7-3.04.7ZM363.06,238.97c.97,0,1.76-.31,2.37-.93.61-.62.92-1.49.92-2.61v-.23c0-1.12-.31-1.99-.92-2.61-.61-.62-1.4-.93-2.37-.93s-1.76.31-2.37.93-.92,1.49-.92,2.61v.23c0,1.12.31,1.99.92,2.61.61.62,1.4.93,2.37.93Z"/><path class="cls-3" d="M376.13,241.17c-.87,0-1.65-.2-2.32-.59-.67-.39-1.2-.94-1.56-1.66-.37-.71-.55-1.54-.55-2.5v-6.81h2.62v6.6c0,.92.23,1.6.68,2.05.45.44,1.09.67,1.92.67.94,0,1.67-.31,2.22-.92.54-.61.82-1.49.82-2.65v-5.75h2.62v11.36h-2.58v-1.59h-.39c-.2.41-.56.81-1.09,1.2-.53.38-1.32.57-2.38.57Z"/><path class="cls-3" d="M385.92,240.99v-11.36h2.6v1.59h.39c.2-.43.56-.84,1.08-1.22.52-.38,1.31-.57,2.37-.57.87,0,1.65.2,2.32.6.67.4,1.2.95,1.58,1.66.38.71.56,1.54.56,2.51v6.81h-2.65v-6.6c0-.92-.23-1.61-.68-2.06-.45-.45-1.09-.68-1.92-.68-.94,0-1.67.31-2.21.93s-.8,1.51-.8,2.66v5.75h-2.65Z"/><path class="cls-3" d="M404.72,241.31c-.92,0-1.78-.23-2.58-.68-.8-.45-1.43-1.12-1.91-1.99-.48-.87-.71-1.92-.71-3.15v-.37c0-1.23.24-2.28.71-3.15s1.11-1.54,1.9-1.99c.79-.45,1.65-.68,2.59-.68.71,0,1.3.08,1.79.25.49.17.89.38,1.18.64.3.26.53.54.7.85h.39v-6.16h2.62v16.1h-2.58v-1.49h-.39c-.28.46-.7.88-1.26,1.25-.57.38-1.39.56-2.46.56ZM405.5,239.01c.95,0,1.74-.31,2.37-.93.63-.62.94-1.51.94-2.66v-.23c0-1.17-.31-2.05-.93-2.67-.62-.61-1.41-.92-2.38-.92s-1.74.31-2.38.92c-.64.61-.95,1.5-.95,2.67v.23c0,1.15.32,2.04.95,2.66.64.62,1.43.93,2.38.93Z"/><path class="cls-3" d="M418.29,241.31c-.8,0-1.52-.14-2.16-.43s-1.15-.69-1.53-1.23c-.38-.54-.56-1.2-.56-1.98s.19-1.41.56-1.93c.38-.52.89-.92,1.55-1.18.66-.27,1.41-.4,2.25-.4h3.29v-.69c0-.6-.18-1.08-.55-1.46-.37-.38-.94-.56-1.72-.56s-1.35.18-1.74.54c-.39.36-.65.82-.77,1.39l-2.44-.8c.18-.6.48-1.14.89-1.63.41-.49.95-.89,1.62-1.18.67-.3,1.5-.45,2.48-.45,1.49,0,2.66.37,3.51,1.12.85.74,1.28,1.82,1.28,3.23v4.46c0,.46.21.69.64.69h.97v2.19h-1.86c-.55,0-1-.14-1.36-.41-.35-.28-.53-.65-.53-1.13v-.05h-.39c-.09.21-.25.48-.48.78-.23.31-.58.57-1.05.79-.47.22-1.1.33-1.9.33ZM418.72,239.15c.87,0,1.59-.25,2.14-.75.55-.5.83-1.17.83-2.01v-.23h-3.13c-.57,0-1.03.12-1.38.37-.35.25-.53.61-.53,1.08s.18.83.55,1.12c.37.28.87.43,1.52.43Z"/><path class="cls-3" d="M428.04,240.99v-11.36h2.6v1.31h.39c.17-.48.45-.82.85-1.04.4-.21.87-.32,1.43-.32h1.38v2.35h-1.43c-.77,0-1.39.2-1.86.61-.48.41-.71,1.03-.71,1.87v6.58h-2.65Z"/><path class="cls-3" d="M438.34,228.18c-.48,0-.89-.16-1.23-.47-.34-.31-.52-.73-.52-1.25s.17-.94.52-1.25c.35-.31.76-.47,1.23-.47.51,0,.92.16,1.25.47.33.31.49.73.49,1.25s-.16.94-.49,1.25c-.33.31-.75.47-1.25.47ZM437.03,240.99v-11.36h2.65v11.36h-2.65Z"/><path class="cls-3" d="M448.23,241.31c-1.13,0-2.14-.24-3-.72-.87-.48-1.54-1.17-2.02-2.05-.48-.88-.72-1.91-.72-3.09v-.28c0-1.2.24-2.23.71-3.1.48-.87,1.14-1.55,2-2.04s1.85-.72,2.97-.72,2.07.24,2.9.72,1.47,1.16,1.93,2.04c.46.87.69,1.89.69,3.06v.94h-8.53c.03.89.35,1.6.94,2.14.6.54,1.33.8,2.21.8s1.5-.19,1.91-.56c.41-.38.73-.8.94-1.28l2.19,1.13c-.21.41-.53.85-.93,1.32-.41.47-.95.87-1.62,1.2-.68.33-1.53.49-2.55.49ZM445.17,234.07h5.82c-.06-.75-.35-1.35-.86-1.79-.51-.44-1.18-.67-1.99-.67s-1.52.22-2.02.67c-.51.44-.82,1.04-.94,1.79Z"/><path class="cls-3" d="M461.09,241.31c-1.47,0-2.68-.32-3.63-.97-.95-.64-1.53-1.59-1.72-2.83l2.44-.62c.11.58.3,1.04.57,1.38.28.34.62.57,1.02.71.41.14.85.21,1.32.21.72,0,1.26-.13,1.62-.39.36-.26.54-.59.54-.99s-.17-.72-.52-.92c-.35-.2-.87-.37-1.58-.51l-.71-.11c-.78-.15-1.5-.36-2.14-.63-.64-.27-1.16-.64-1.55-1.1-.39-.47-.59-1.06-.59-1.78,0-1.1.41-1.95,1.23-2.55.82-.6,1.9-.9,3.23-.9s2.32.28,3.15.85c.83.57,1.36,1.33,1.61,2.28l-2.44.74c-.12-.64-.39-1.1-.8-1.37-.41-.27-.92-.4-1.52-.4s-1.08.11-1.41.32c-.33.21-.49.52-.49.92s.17.7.51.9c.34.2.79.34,1.36.44l.71.14c.84.15,1.61.35,2.29.6.68.25,1.22.6,1.62,1.06.4.46.6,1.08.6,1.86,0,1.18-.43,2.09-1.28,2.73-.85.64-2,.95-3.44.95Z"/><path class="cls-3" d="M468.58,244.26v-1.47h.85c.66,0,.99-.33.99-.99v-.74h-.37c-.57,0-1.04-.17-1.43-.52s-.57-.79-.57-1.32c0-.57.19-1.03.57-1.39.38-.36.86-.54,1.43-.54s1.06.18,1.43.55c.37.37.55.85.55,1.45v2.53c0,1.63-.81,2.44-2.42,2.44h-1.04Z"/><path class="cls-3" d="M9.83,274.31c-1.47,0-2.68-.32-3.63-.97-.95-.64-1.53-1.59-1.72-2.83l2.44-.62c.11.58.3,1.04.57,1.38.28.34.62.57,1.02.71.41.14.85.21,1.32.21.72,0,1.26-.13,1.62-.39.36-.26.54-.59.54-.99s-.17-.72-.52-.92c-.35-.2-.87-.37-1.58-.51l-.71-.11c-.78-.15-1.5-.36-2.14-.63-.64-.27-1.16-.64-1.55-1.1-.39-.47-.59-1.06-.59-1.78,0-1.1.41-1.95,1.23-2.55.82-.6,1.9-.9,3.23-.9s2.32.28,3.15.85c.83.57,1.36,1.33,1.61,2.28l-2.44.74c-.12-.64-.39-1.1-.8-1.37-.41-.27-.92-.4-1.52-.4s-1.08.11-1.41.32c-.33.21-.49.52-.49.92s.17.7.51.9c.34.2.79.34,1.36.44l.71.14c.84.15,1.61.35,2.29.6.68.25,1.22.6,1.62,1.06.4.46.6,1.08.6,1.86,0,1.18-.43,2.09-1.28,2.73-.85.64-2,.95-3.44.95Z"/><path class="cls-3" d="M17.22,273.99v-16.1h2.65v6.23h.39c.12-.26.32-.52.6-.78.28-.26.64-.48,1.09-.64.45-.17,1.02-.25,1.71-.25.87,0,1.65.2,2.32.59s1.2.94,1.58,1.64c.38.71.56,1.54.56,2.51v6.81h-2.65v-6.6c0-.92-.23-1.61-.68-2.06-.45-.45-1.09-.68-1.92-.68-.94,0-1.67.31-2.21.93s-.8,1.51-.8,2.66v5.75h-2.65Z"/><path class="cls-3" d="M36.74,274.31c-1.13,0-2.15-.23-3.05-.7s-1.6-1.13-2.12-2c-.51-.87-.77-1.91-.77-3.12v-.37c0-1.21.26-2.25.77-3.13.51-.87,1.22-1.54,2.12-2s1.91-.69,3.05-.69,2.15.23,3.04.69c.89.46,1.59,1.13,2.1,2,.51.87.77,1.92.77,3.13v.37c0,1.21-.26,2.25-.77,3.12-.51.87-1.22,1.53-2.1,2-.89.47-1.9.7-3.04.7ZM36.74,271.97c.97,0,1.76-.31,2.37-.93.61-.62.92-1.49.92-2.61v-.23c0-1.12-.31-1.99-.92-2.61-.61-.62-1.4-.93-2.37-.93s-1.76.31-2.37.93-.92,1.49-.92,2.61v.23c0,1.12.31,1.99.92,2.61.61.62,1.4.93,2.37.93Z"/><path class="cls-3" d="M46.45,273.99l-1.77-11.36h2.62l1.22,9.59h.39l1.72-9.59h4.23l1.72,9.59h.39l1.22-9.59h2.62l-1.77,11.36h-4.39l-1.7-9.59h-.39l-1.73,9.59h-4.39Z"/><path class="cls-3" d="M68.71,274.31c-1.1,0-2.1-.23-2.99-.69-.89-.46-1.59-1.13-2.1-2s-.77-1.92-.77-3.15v-.32c0-1.23.26-2.28.77-3.15.51-.87,1.21-1.54,2.1-2,.89-.46,1.89-.69,2.99-.69s2.02.19,2.79.57c.77.38,1.4.91,1.87,1.58.48.67.78,1.41.92,2.24l-2.55.53c-.06-.48-.21-.91-.44-1.3s-.56-.7-.98-.93c-.42-.23-.94-.34-1.55-.34s-1.19.13-1.69.4c-.5.27-.89.67-1.17,1.21-.28.54-.43,1.18-.43,1.93v.23c0,.75.14,1.39.43,1.92s.67.93,1.17,1.21c.5.28,1.06.41,1.69.41.94,0,1.64-.24,2.13-.72.48-.48.79-1.11.91-1.87l2.55.6c-.18.8-.51,1.53-.99,2.19-.48.66-1.1,1.18-1.87,1.58-.77.39-1.71.59-2.79.59Z"/><path class="cls-3" d="M80.47,274.31c-.8,0-1.52-.14-2.16-.43s-1.15-.69-1.53-1.23c-.38-.54-.56-1.2-.56-1.98s.19-1.41.56-1.93c.38-.52.89-.92,1.55-1.18.66-.27,1.41-.4,2.25-.4h3.29v-.69c0-.6-.18-1.08-.55-1.46-.37-.38-.94-.56-1.72-.56s-1.35.18-1.74.54c-.39.36-.65.82-.77,1.39l-2.44-.8c.18-.6.48-1.14.89-1.63.41-.49.95-.89,1.62-1.18.67-.3,1.5-.45,2.48-.45,1.49,0,2.66.37,3.51,1.12.85.74,1.28,1.82,1.28,3.23v4.46c0,.46.21.69.64.69h.97v2.19h-1.86c-.55,0-1-.14-1.36-.41-.35-.28-.53-.65-.53-1.13v-.05h-.39c-.09.21-.25.48-.48.78-.23.31-.58.57-1.05.79-.47.22-1.1.33-1.9.33ZM80.9,272.15c.87,0,1.59-.25,2.14-.75.55-.5.83-1.17.83-2.01v-.23h-3.13c-.57,0-1.03.12-1.38.37-.35.25-.53.61-.53,1.08s.18.83.55,1.12c.37.28.87.43,1.52.43Z"/><path class="cls-3" d="M94.82,274.31c-1.47,0-2.68-.32-3.63-.97-.95-.64-1.53-1.59-1.72-2.83l2.44-.62c.11.58.3,1.04.57,1.38.28.34.62.57,1.02.71.41.14.85.21,1.32.21.72,0,1.26-.13,1.62-.39.36-.26.54-.59.54-.99s-.17-.72-.52-.92c-.35-.2-.87-.37-1.58-.51l-.71-.11c-.78-.15-1.5-.36-2.14-.63-.64-.27-1.16-.64-1.55-1.1-.39-.47-.59-1.06-.59-1.78,0-1.1.41-1.95,1.23-2.55.82-.6,1.9-.9,3.23-.9s2.32.28,3.15.85c.83.57,1.36,1.33,1.61,2.28l-2.44.74c-.12-.64-.39-1.1-.8-1.37-.41-.27-.92-.4-1.52-.4s-1.08.11-1.41.32c-.33.21-.49.52-.49.92s.17.7.51.9c.34.2.79.34,1.36.44l.71.14c.84.15,1.61.35,2.29.6.68.25,1.22.6,1.62,1.06.4.46.6,1.08.6,1.86,0,1.18-.43,2.09-1.28,2.73-.85.64-2,.95-3.44.95Z"/><path class="cls-3" d="M103.51,261.18c-.48,0-.89-.16-1.23-.47-.34-.31-.52-.73-.52-1.25s.17-.94.52-1.25c.35-.31.76-.47,1.23-.47.51,0,.92.16,1.25.47.33.31.49.73.49,1.25s-.16.94-.49,1.25c-.33.31-.75.47-1.25.47ZM102.2,273.99v-11.36h2.65v11.36h-2.65Z"/><path class="cls-3" d="M108.2,273.99v-11.36h2.6v1.59h.39c.2-.43.56-.84,1.08-1.22.52-.38,1.31-.57,2.37-.57.87,0,1.65.2,2.32.6.67.4,1.2.95,1.58,1.66.38.71.56,1.54.56,2.51v6.81h-2.65v-6.6c0-.92-.23-1.61-.68-2.06-.45-.45-1.09-.68-1.92-.68-.94,0-1.67.31-2.21.93s-.8,1.51-.8,2.66v5.75h-2.65Z"/><path class="cls-3" d="M121.8,268.35v-.34c0-1.2.24-2.22.71-3.07.48-.85,1.11-1.5,1.91-1.95.8-.45,1.67-.68,2.62-.68,1.07,0,1.89.19,2.45.57.56.38.97.8,1.23,1.24h.39v-1.5h2.58v13.52c0,.75-.21,1.35-.64,1.78-.43.44-1.01.66-1.75.66h-7.64v-2.3h6.74c.44,0,.67-.23.67-.69v-3.29h-.39c-.17.26-.4.53-.69.79-.29.27-.67.49-1.15.68-.48.18-1.07.28-1.79.28-.95,0-1.83-.23-2.62-.68-.8-.45-1.43-1.1-1.91-1.95-.48-.85-.71-1.87-.71-3.07ZM127.78,271.74c.95,0,1.74-.3,2.37-.91.63-.61.94-1.45.94-2.54v-.23c0-1.1-.31-1.96-.93-2.55-.62-.6-1.41-.9-2.38-.9s-1.74.3-2.38.9c-.64.6-.95,1.45-.95,2.55v.23c0,1.09.32,1.94.95,2.54.64.61,1.43.91,2.38.91Z"/><path class="cls-3" d="M142.91,273.99v-11.36h2.6v1.27h.39c.2-.38.53-.72,1-1.02.47-.3,1.09-.45,1.87-.45.83,0,1.5.17,2,.51.51.34.89.77,1.15,1.29h.37c.26-.52.64-.95,1.13-1.29.49-.34,1.19-.51,2.09-.51.71,0,1.35.15,1.92.46.57.31,1.03.76,1.38,1.36.35.6.52,1.34.52,2.23v7.52h-2.65v-7.34c0-.66-.18-1.16-.53-1.51-.35-.34-.84-.52-1.47-.52-.69,0-1.24.23-1.64.68-.41.45-.61,1.1-.61,1.94v6.74h-2.62v-7.34c0-.66-.18-1.16-.53-1.51s-.84-.52-1.47-.52c-.71,0-1.26.23-1.66.68-.4.45-.6,1.1-.6,1.94v6.74h-2.65Z"/><path class="cls-3" d="M163.66,278.59v-2.3h6.28c.43,0,.64-.23.64-.69v-3.17h-.39c-.12.28-.32.55-.6.82-.28.27-.64.49-1.1.67-.46.18-1.04.26-1.75.26-.87,0-1.65-.2-2.32-.59-.67-.39-1.2-.94-1.56-1.66-.37-.71-.55-1.54-.55-2.5v-6.81h2.62v6.6c0,.92.23,1.6.68,2.05.45.44,1.09.67,1.92.67.94,0,1.67-.31,2.22-.92.54-.61.82-1.49.82-2.65v-5.75h2.62v13.52c0,.75-.21,1.35-.64,1.78s-1.01.66-1.75.66h-7.13Z"/><path class="cls-3" d="M185.92,274.31c-.8,0-1.52-.14-2.16-.43s-1.15-.69-1.53-1.23c-.38-.54-.56-1.2-.56-1.98s.19-1.41.56-1.93c.38-.52.89-.92,1.55-1.18.66-.27,1.41-.4,2.25-.4h3.29v-.69c0-.6-.18-1.08-.55-1.46-.37-.38-.94-.56-1.72-.56s-1.35.18-1.74.54c-.39.36-.65.82-.77,1.39l-2.44-.8c.18-.6.48-1.14.89-1.63.41-.49.95-.89,1.62-1.18.67-.3,1.5-.45,2.48-.45,1.49,0,2.66.37,3.51,1.12.85.74,1.28,1.82,1.28,3.23v4.46c0,.46.21.69.64.69h.97v2.19h-1.86c-.55,0-1-.14-1.36-.41-.35-.28-.53-.65-.53-1.13v-.05h-.39c-.09.21-.25.48-.48.78-.23.31-.58.57-1.05.79-.47.22-1.1.33-1.9.33ZM186.36,272.15c.87,0,1.59-.25,2.14-.75.55-.5.83-1.17.83-2.01v-.23h-3.13c-.57,0-1.03.12-1.38.37-.35.25-.53.61-.53,1.08s.18.83.55,1.12c.37.28.87.43,1.52.43Z"/><path class="cls-3" d="M202.39,274.31c-1.07,0-1.9-.19-2.47-.56-.57-.38-.99-.79-1.25-1.25h-.39v1.49h-2.6v-16.1h2.65v6.16h.39c.17-.31.4-.59.7-.85.3-.26.69-.48,1.17-.64.48-.17,1.08-.25,1.81-.25.94,0,1.79.23,2.58.68.78.45,1.41,1.12,1.89,1.99.48.87.71,1.92.71,3.15v.37c0,1.23-.24,2.28-.71,3.15-.48.87-1.11,1.54-1.9,1.99-.79.45-1.64.68-2.56.68ZM201.61,272.01c.95,0,1.74-.31,2.37-.93.63-.62.94-1.51.94-2.66v-.23c0-1.17-.31-2.05-.93-2.67-.62-.61-1.41-.92-2.38-.92s-1.74.31-2.38.92c-.64.61-.95,1.5-.95,2.67v.23c0,1.15.32,2.04.95,2.66.64.62,1.43.93,2.38.93Z"/><path class="cls-3" d="M211.68,261.18c-.48,0-.89-.16-1.23-.47-.34-.31-.52-.73-.52-1.25s.17-.94.52-1.25c.35-.31.76-.47,1.23-.47.51,0,.92.16,1.25.47.33.31.49.73.49,1.25s-.16.94-.49,1.25c-.33.31-.75.47-1.25.47ZM210.37,273.99v-11.36h2.65v11.36h-2.65Z"/><path class="cls-3" d="M216.37,273.99v-16.1h2.65v16.1h-2.65Z"/><path class="cls-3" d="M223.69,261.18c-.48,0-.89-.16-1.23-.47-.34-.31-.52-.73-.52-1.25s.17-.94.52-1.25c.35-.31.76-.47,1.23-.47.51,0,.92.16,1.25.47.33.31.49.73.49,1.25s-.16.94-.49,1.25c-.33.31-.75.47-1.25.47ZM222.37,273.99v-11.36h2.65v11.36h-2.65Z"/><path class="cls-3" d="M232.7,273.99c-.74,0-1.32-.22-1.76-.66s-.66-1.03-.66-1.78v-6.74h-2.97v-2.19h2.97v-3.66h2.65v3.66h3.27v2.19h-3.27v6.3c0,.46.21.69.64.69h2.28v2.19h-3.15Z"/><path class="cls-3" d="M240.15,278.59v-2.3h6.28c.43,0,.64-.23.64-.69v-3.17h-.39c-.12.28-.32.55-.6.82-.28.27-.64.49-1.1.67-.46.18-1.04.26-1.75.26-.87,0-1.65-.2-2.32-.59-.67-.39-1.2-.94-1.56-1.66-.37-.71-.55-1.54-.55-2.5v-6.81h2.62v6.6c0,.92.23,1.6.68,2.05.45.44,1.09.67,1.92.67.94,0,1.67-.31,2.22-.92.54-.61.82-1.49.82-2.65v-5.75h2.62v13.52c0,.75-.21,1.35-.64,1.78s-1.01.66-1.75.66h-7.13Z"/><path class="cls-3" d="M263.22,273.99c-.74,0-1.32-.22-1.76-.66s-.66-1.03-.66-1.78v-6.74h-2.97v-2.19h2.97v-3.66h2.65v3.66h3.27v2.19h-3.27v6.3c0,.46.21.69.64.69h2.28v2.19h-3.15Z"/><path class="cls-3" d="M274.38,274.31c-1.13,0-2.15-.23-3.05-.7s-1.6-1.13-2.12-2c-.51-.87-.77-1.91-.77-3.12v-.37c0-1.21.26-2.25.77-3.13.51-.87,1.22-1.54,2.12-2s1.91-.69,3.05-.69,2.15.23,3.04.69c.89.46,1.59,1.13,2.1,2,.51.87.77,1.92.77,3.13v.37c0,1.21-.26,2.25-.77,3.12-.51.87-1.22,1.53-2.1,2-.89.47-1.9.7-3.04.7ZM274.38,271.97c.97,0,1.76-.31,2.37-.93.61-.62.92-1.49.92-2.61v-.23c0-1.12-.31-1.99-.92-2.61-.61-.62-1.4-.93-2.37-.93s-1.76.31-2.37.93-.92,1.49-.92,2.61v.23c0,1.12.31,1.99.92,2.61.61.62,1.4.93,2.37.93Z"/><path class="cls-3" d="M293.28,273.99c-.74,0-1.32-.22-1.76-.66s-.66-1.03-.66-1.78v-6.74h-2.97v-2.19h2.97v-3.66h2.65v3.66h3.27v2.19h-3.27v6.3c0,.46.21.69.64.69h2.28v2.19h-3.15Z"/><path class="cls-3" d="M299.47,273.99v-11.36h2.6v1.31h.39c.17-.48.45-.82.85-1.04.4-.21.87-.32,1.43-.32h1.38v2.35h-1.43c-.77,0-1.39.2-1.86.61-.48.41-.71,1.03-.71,1.87v6.58h-2.65Z"/><path class="cls-3" d="M311.68,274.31c-.8,0-1.52-.14-2.16-.43s-1.15-.69-1.53-1.23c-.38-.54-.56-1.2-.56-1.98s.19-1.41.56-1.93c.38-.52.89-.92,1.55-1.18.66-.27,1.41-.4,2.25-.4h3.29v-.69c0-.6-.18-1.08-.55-1.46-.37-.38-.94-.56-1.72-.56s-1.35.18-1.74.54c-.39.36-.65.82-.77,1.39l-2.44-.8c.18-.6.48-1.14.89-1.63.41-.49.95-.89,1.62-1.18.67-.3,1.5-.45,2.48-.45,1.49,0,2.66.37,3.51,1.12.85.74,1.28,1.82,1.28,3.23v4.46c0,.46.21.69.64.69h.97v2.19h-1.86c-.55,0-1-.14-1.36-.41-.35-.28-.53-.65-.53-1.13v-.05h-.39c-.09.21-.25.48-.48.78-.23.31-.58.57-1.05.79-.47.22-1.1.33-1.9.33ZM312.12,272.15c.87,0,1.59-.25,2.14-.75.55-.5.83-1.17.83-2.01v-.23h-3.13c-.57,0-1.03.12-1.38.37-.35.25-.53.61-.53,1.08s.18.83.55,1.12c.37.28.87.43,1.52.43Z"/><path class="cls-3" d="M321.43,273.99v-11.36h2.6v1.59h.39c.2-.43.56-.84,1.08-1.22.52-.38,1.31-.57,2.37-.57.87,0,1.65.2,2.32.6.67.4,1.2.95,1.58,1.66.38.71.56,1.54.56,2.51v6.81h-2.65v-6.6c0-.92-.23-1.61-.68-2.06-.45-.45-1.09-.68-1.92-.68-.94,0-1.67.31-2.21.93s-.8,1.51-.8,2.66v5.75h-2.65Z"/><path class="cls-3" d="M340.27,274.31c-1.47,0-2.68-.32-3.63-.97-.95-.64-1.53-1.59-1.72-2.83l2.44-.62c.11.58.3,1.04.57,1.38.28.34.62.57,1.02.71.41.14.85.21,1.32.21.72,0,1.26-.13,1.62-.39.36-.26.54-.59.54-.99s-.17-.72-.52-.92c-.35-.2-.87-.37-1.58-.51l-.71-.11c-.78-.15-1.5-.36-2.14-.63-.64-.27-1.16-.64-1.55-1.1-.39-.47-.59-1.06-.59-1.78,0-1.1.41-1.95,1.23-2.55.82-.6,1.9-.9,3.23-.9s2.32.28,3.15.85c.83.57,1.36,1.33,1.61,2.28l-2.44.74c-.12-.64-.39-1.1-.8-1.37-.41-.27-.92-.4-1.52-.4s-1.08.11-1.41.32c-.33.21-.49.52-.49.92s.17.7.51.9c.34.2.79.34,1.36.44l.71.14c.84.15,1.61.35,2.29.6.68.25,1.22.6,1.62,1.06.4.46.6,1.08.6,1.86,0,1.18-.43,2.09-1.28,2.73-.85.64-2,.95-3.44.95Z"/><path class="cls-3" d="M349.4,273.99v-9.18h-3.04v-2.19h3.04v-2.3c0-.75.22-1.35.66-1.78s1.02-.66,1.74-.66h2.94v2.18h-2.07c-.43,0-.64.23-.64.69v1.86h3.13v2.19h-3.13v9.18h-2.62Z"/><path class="cls-3" d="M362.44,274.31c-1.13,0-2.15-.23-3.05-.7s-1.6-1.13-2.12-2c-.51-.87-.77-1.91-.77-3.12v-.37c0-1.21.26-2.25.77-3.13.51-.87,1.22-1.54,2.12-2s1.91-.69,3.05-.69,2.15.23,3.04.69c.89.46,1.59,1.13,2.1,2,.51.87.77,1.92.77,3.13v.37c0,1.21-.26,2.25-.77,3.12-.51.87-1.22,1.53-2.1,2-.89.47-1.9.7-3.04.7ZM362.44,271.97c.97,0,1.76-.31,2.37-.93.61-.62.92-1.49.92-2.61v-.23c0-1.12-.31-1.99-.92-2.61-.61-.62-1.4-.93-2.37-.93s-1.76.31-2.37.93-.92,1.49-.92,2.61v.23c0,1.12.31,1.99.92,2.61.61.62,1.4.93,2.37.93Z"/><path class="cls-3" d="M371.16,273.99v-11.36h2.6v1.31h.39c.17-.48.45-.82.85-1.04.4-.21.87-.32,1.43-.32h1.38v2.35h-1.43c-.77,0-1.39.2-1.86.61-.48.41-.71,1.03-.71,1.87v6.58h-2.65Z"/><path class="cls-3" d="M380.15,273.99v-11.36h2.6v1.27h.39c.2-.38.53-.72,1-1.02.47-.3,1.09-.45,1.87-.45.83,0,1.5.17,2,.51.51.34.89.77,1.15,1.29h.37c.26-.52.64-.95,1.13-1.29.49-.34,1.19-.51,2.09-.51.71,0,1.35.15,1.92.46.57.31,1.03.76,1.38,1.36.35.6.52,1.34.52,2.23v7.52h-2.65v-7.34c0-.66-.18-1.16-.53-1.51-.35-.34-.84-.52-1.47-.52-.69,0-1.24.23-1.64.68-.41.45-.61,1.1-.61,1.94v6.74h-2.62v-7.34c0-.66-.18-1.16-.53-1.51s-.84-.52-1.47-.52c-.71,0-1.26.23-1.66.68-.4.45-.6,1.1-.6,1.94v6.74h-2.65Z"/><path class="cls-3" d="M406.99,261.18c-.48,0-.89-.16-1.23-.47-.34-.31-.52-.73-.52-1.25s.17-.94.52-1.25c.35-.31.76-.47,1.23-.47.51,0,.92.16,1.25.47.33.31.49.73.49,1.25s-.16.94-.49,1.25c-.33.31-.75.47-1.25.47ZM405.68,273.99v-11.36h2.65v11.36h-2.65Z"/><path class="cls-3" d="M416.33,274.31c-.92,0-1.78-.23-2.58-.68-.8-.45-1.43-1.12-1.91-1.99-.48-.87-.71-1.92-.71-3.15v-.37c0-1.23.24-2.28.71-3.15s1.11-1.54,1.9-1.99c.79-.45,1.65-.68,2.59-.68.71,0,1.3.08,1.79.25.49.17.89.38,1.18.64.3.26.53.54.7.85h.39v-6.16h2.62v16.1h-2.58v-1.49h-.39c-.28.46-.7.88-1.26,1.25-.57.38-1.39.56-2.46.56ZM417.11,272.01c.95,0,1.74-.31,2.37-.93.63-.62.94-1.51.94-2.66v-.23c0-1.17-.31-2.05-.93-2.67-.62-.61-1.41-.92-2.38-.92s-1.74.31-2.38.92c-.64.61-.95,1.5-.95,2.67v.23c0,1.15.32,2.04.95,2.66.64.62,1.43.93,2.38.93Z"/><path class="cls-3" d="M431.58,274.31c-1.13,0-2.14-.24-3-.72-.87-.48-1.54-1.17-2.02-2.05-.48-.88-.72-1.91-.72-3.09v-.28c0-1.2.24-2.23.71-3.1.48-.87,1.14-1.55,2-2.04s1.85-.72,2.97-.72,2.07.24,2.9.72,1.47,1.16,1.93,2.04c.46.87.69,1.89.69,3.06v.94h-8.53c.03.89.35,1.6.94,2.14.6.54,1.33.8,2.21.8s1.5-.19,1.91-.56c.41-.38.73-.8.94-1.28l2.19,1.13c-.21.41-.53.85-.93,1.32-.41.47-.95.87-1.62,1.2-.68.33-1.53.49-2.55.49ZM428.52,267.07h5.82c-.06-.75-.35-1.35-.86-1.79-.51-.44-1.18-.67-1.99-.67s-1.52.22-2.02.67c-.51.44-.82,1.04-.94,1.79Z"/><path class="cls-3" d="M443.26,274.31c-.8,0-1.52-.14-2.16-.43s-1.15-.69-1.53-1.23c-.38-.54-.56-1.2-.56-1.98s.19-1.41.56-1.93c.38-.52.89-.92,1.55-1.18.66-.27,1.41-.4,2.25-.4h3.29v-.69c0-.6-.18-1.08-.55-1.46-.37-.38-.94-.56-1.72-.56s-1.35.18-1.74.54c-.39.36-.65.82-.77,1.39l-2.44-.8c.18-.6.48-1.14.89-1.63.41-.49.95-.89,1.62-1.18.67-.3,1.5-.45,2.48-.45,1.49,0,2.66.37,3.51,1.12.85.74,1.28,1.82,1.28,3.23v4.46c0,.46.21.69.64.69h.97v2.19h-1.86c-.55,0-1-.14-1.36-.41-.35-.28-.53-.65-.53-1.13v-.05h-.39c-.09.21-.25.48-.48.78-.23.31-.58.57-1.05.79-.47.22-1.1.33-1.9.33ZM443.7,272.15c.87,0,1.59-.25,2.14-.75.55-.5.83-1.17.83-2.01v-.23h-3.13c-.57,0-1.03.12-1.38.37-.35.25-.53.61-.53,1.08s.18.83.55,1.12c.37.28.87.43,1.52.43Z"/><path class="cls-3" d="M457.61,274.31c-1.47,0-2.68-.32-3.63-.97-.95-.64-1.53-1.59-1.72-2.83l2.44-.62c.11.58.3,1.04.57,1.38.28.34.62.57,1.02.71.41.14.85.21,1.32.21.72,0,1.26-.13,1.62-.39.36-.26.54-.59.54-.99s-.17-.72-.52-.92c-.35-.2-.87-.37-1.58-.51l-.71-.11c-.78-.15-1.5-.36-2.14-.63-.64-.27-1.16-.64-1.55-1.1-.39-.47-.59-1.06-.59-1.78,0-1.1.41-1.95,1.23-2.55.82-.6,1.9-.9,3.23-.9s2.32.28,3.15.85c.83.57,1.36,1.33,1.61,2.28l-2.44.74c-.12-.64-.39-1.1-.8-1.37-.41-.27-.92-.4-1.52-.4s-1.08.11-1.41.32c-.33.21-.49.52-.49.92s.17.7.51.9c.34.2.79.34,1.36.44l.71.14c.84.15,1.61.35,2.29.6.68.25,1.22.6,1.62,1.06.4.46.6,1.08.6,1.86,0,1.18-.43,2.09-1.28,2.73-.85.64-2,.95-3.44.95Z"/><path class="cls-3" d="M6.45,294.18c-.48,0-.89-.16-1.23-.47-.34-.31-.52-.73-.52-1.25s.17-.94.52-1.25c.35-.31.76-.47,1.23-.47.51,0,.92.16,1.25.47.33.31.49.73.49,1.25s-.16.94-.49,1.25c-.33.31-.75.47-1.25.47ZM5.14,306.99v-11.36h2.65v11.36h-2.65Z"/><path class="cls-3" d="M11.15,306.99v-11.36h2.6v1.59h.39c.2-.43.56-.84,1.08-1.22.52-.38,1.31-.57,2.37-.57.87,0,1.65.2,2.32.6.67.4,1.2.95,1.58,1.66.38.71.56,1.54.56,2.51v6.81h-2.65v-6.6c0-.92-.23-1.61-.68-2.06-.45-.45-1.09-.68-1.92-.68-.94,0-1.67.31-2.21.93s-.8,1.51-.8,2.66v5.75h-2.65Z"/><path class="cls-3" d="M29.29,306.99c-.74,0-1.32-.22-1.76-.66s-.66-1.03-.66-1.78v-6.74h-2.97v-2.19h2.97v-3.66h2.65v3.66h3.27v2.19h-3.27v6.3c0,.46.21.69.64.69h2.28v2.19h-3.15Z"/><path class="cls-3" d="M40.45,307.31c-1.13,0-2.15-.23-3.05-.7s-1.6-1.13-2.12-2c-.51-.87-.77-1.91-.77-3.12v-.37c0-1.21.26-2.25.77-3.13.51-.87,1.22-1.54,2.12-2s1.91-.69,3.05-.69,2.15.23,3.04.69c.89.46,1.59,1.13,2.1,2,.51.87.77,1.92.77,3.13v.37c0,1.21-.26,2.25-.77,3.12-.51.87-1.22,1.53-2.1,2-.89.47-1.9.7-3.04.7ZM40.45,304.97c.97,0,1.76-.31,2.37-.93.61-.62.92-1.49.92-2.61v-.23c0-1.12-.31-1.99-.92-2.61-.61-.62-1.4-.93-2.37-.93s-1.76.31-2.37.93-.92,1.49-.92,2.61v.23c0,1.12.31,1.99.92,2.61.61.62,1.4.93,2.37.93Z"/><path class="cls-3" d="M60.34,307.31c-1.1,0-2.1-.23-2.99-.69-.89-.46-1.59-1.13-2.1-2s-.77-1.92-.77-3.15v-.32c0-1.23.26-2.28.77-3.15.51-.87,1.21-1.54,2.1-2,.89-.46,1.89-.69,2.99-.69s2.02.19,2.79.57c.77.38,1.4.91,1.87,1.58.48.67.78,1.41.92,2.24l-2.55.53c-.06-.48-.21-.91-.44-1.3s-.56-.7-.98-.93c-.42-.23-.94-.34-1.55-.34s-1.19.13-1.69.4c-.5.27-.89.67-1.17,1.21-.28.54-.43,1.18-.43,1.93v.23c0,.75.14,1.39.43,1.92s.67.93,1.17,1.21c.5.28,1.06.41,1.69.41.94,0,1.64-.24,2.13-.72.48-.48.79-1.11.91-1.87l2.55.6c-.18.8-.51,1.53-.99,2.19-.48.66-1.1,1.18-1.87,1.58-.77.39-1.71.59-2.79.59Z"/><path class="cls-3" d="M73.96,307.31c-1.13,0-2.15-.23-3.05-.7s-1.6-1.13-2.12-2c-.51-.87-.77-1.91-.77-3.12v-.37c0-1.21.26-2.25.77-3.13.51-.87,1.22-1.54,2.12-2s1.91-.69,3.05-.69,2.15.23,3.04.69c.89.46,1.59,1.13,2.1,2,.51.87.77,1.92.77,3.13v.37c0,1.21-.26,2.25-.77,3.12-.51.87-1.22,1.53-2.1,2-.89.47-1.9.7-3.04.7ZM73.96,304.97c.97,0,1.76-.31,2.37-.93.61-.62.92-1.49.92-2.61v-.23c0-1.12-.31-1.99-.92-2.61-.61-.62-1.4-.93-2.37-.93s-1.76.31-2.37.93-.92,1.49-.92,2.61v.23c0,1.12.31,1.99.92,2.61.61.62,1.4.93,2.37.93Z"/><path class="cls-3" d="M82.67,306.99v-11.36h2.6v1.27h.39c.2-.38.53-.72,1-1.02.47-.3,1.09-.45,1.87-.45.83,0,1.5.17,2,.51.51.34.89.77,1.15,1.29h.37c.26-.52.64-.95,1.13-1.29.49-.34,1.19-.51,2.09-.51.71,0,1.35.15,1.92.46.57.31,1.03.76,1.38,1.36.35.6.52,1.34.52,2.23v7.52h-2.65v-7.34c0-.66-.18-1.16-.53-1.51-.35-.34-.84-.52-1.47-.52-.69,0-1.24.23-1.64.68-.41.45-.61,1.1-.61,1.94v6.74h-2.62v-7.34c0-.66-.18-1.16-.53-1.51s-.84-.52-1.47-.52c-.71,0-1.26.23-1.66.68-.4.45-.6,1.1-.6,1.94v6.74h-2.65Z"/><path class="cls-3" d="M102.34,311.59v-15.96h2.6v1.5h.39c.26-.48.68-.9,1.25-1.27.58-.37,1.4-.55,2.47-.55.92,0,1.77.23,2.56.68.79.45,1.42,1.12,1.9,1.99.48.87.71,1.92.71,3.15v.37c0,1.23-.24,2.28-.71,3.15-.48.87-1.1,1.54-1.89,1.99-.78.45-1.64.68-2.58.68-.72,0-1.32-.08-1.81-.25-.48-.17-.87-.39-1.17-.67s-.53-.55-.7-.83h-.39v6.03h-2.65ZM108.27,305.01c.97,0,1.76-.31,2.38-.93.62-.62.93-1.51.93-2.66v-.23c0-1.17-.31-2.05-.94-2.67-.63-.61-1.42-.92-2.37-.92s-1.74.31-2.38.92c-.64.61-.95,1.5-.95,2.67v.23c0,1.15.32,2.04.95,2.66.64.62,1.43.93,2.38.93Z"/><path class="cls-3" d="M122.23,307.31c-1.13,0-2.14-.24-3-.72-.87-.48-1.54-1.17-2.02-2.05-.48-.88-.72-1.91-.72-3.09v-.28c0-1.2.24-2.23.71-3.1.48-.87,1.14-1.55,2-2.04s1.85-.72,2.97-.72,2.07.24,2.9.72,1.47,1.16,1.93,2.04c.46.87.69,1.89.69,3.06v.94h-8.53c.03.89.35,1.6.94,2.14.6.54,1.33.8,2.21.8s1.5-.19,1.91-.56c.41-.38.73-.8.94-1.28l2.19,1.13c-.21.41-.53.85-.93,1.32-.41.47-.95.87-1.62,1.2-.68.33-1.53.49-2.55.49ZM119.17,300.07h5.82c-.06-.75-.35-1.35-.86-1.79-.51-.44-1.18-.67-1.99-.67s-1.52.22-2.02.67c-.51.44-.82,1.04-.94,1.79Z"/><path class="cls-3" d="M130.4,306.99v-16.1h2.65v16.1h-2.65Z"/><path class="cls-3" d="M136.4,306.99v-16.1h2.65v16.1h-2.65Z"/><path class="cls-3" d="M143.72,294.18c-.48,0-.89-.16-1.23-.47-.34-.31-.52-.73-.52-1.25s.17-.94.52-1.25c.35-.31.76-.47,1.23-.47.51,0,.92.16,1.25.47.33.31.49.73.49,1.25s-.16.94-.49,1.25c-.33.31-.75.47-1.25.47ZM142.4,306.99v-11.36h2.65v11.36h-2.65Z"/><path class="cls-3" d="M148.41,306.99v-11.36h2.6v1.59h.39c.2-.43.56-.84,1.08-1.22.52-.38,1.31-.57,2.37-.57.87,0,1.65.2,2.32.6.67.4,1.2.95,1.58,1.66.38.71.56,1.54.56,2.51v6.81h-2.65v-6.6c0-.92-.23-1.61-.68-2.06-.45-.45-1.09-.68-1.92-.68-.94,0-1.67.31-2.21.93s-.8,1.51-.8,2.66v5.75h-2.65Z"/><path class="cls-3" d="M162,301.35v-.34c0-1.2.24-2.22.71-3.07.48-.85,1.11-1.5,1.91-1.95.8-.45,1.67-.68,2.62-.68,1.07,0,1.89.19,2.45.57.56.38.97.8,1.23,1.24h.39v-1.5h2.58v13.52c0,.75-.21,1.35-.64,1.78-.43.44-1.01.66-1.75.66h-7.64v-2.3h6.74c.44,0,.67-.23.67-.69v-3.29h-.39c-.17.26-.4.53-.69.79-.29.27-.67.49-1.15.68-.48.18-1.07.28-1.79.28-.95,0-1.83-.23-2.62-.68-.8-.45-1.43-1.1-1.91-1.95-.48-.85-.71-1.87-.71-3.07ZM167.98,304.74c.95,0,1.74-.3,2.37-.91.63-.61.94-1.45.94-2.54v-.23c0-1.1-.31-1.96-.93-2.55-.62-.6-1.41-.9-2.38-.9s-1.74.3-2.38.9c-.64.6-.95,1.45-.95,2.55v.23c0,1.09.32,1.94.95,2.54.64.61,1.43.91,2.38.91Z"/><path class="cls-3" d="M185.62,306.99l-3.73-11.36h2.81l2.81,9.43h.39l2.83-9.43h2.81l-3.73,11.36h-4.19Z"/><path class="cls-3" d="M196.98,294.18c-.48,0-.89-.16-1.23-.47-.34-.31-.52-.73-.52-1.25s.17-.94.52-1.25c.35-.31.76-.47,1.23-.47.51,0,.92.16,1.25.47.33.31.49.73.49,1.25s-.16.94-.49,1.25c-.33.31-.75.47-1.25.47ZM195.67,306.99v-11.36h2.65v11.36h-2.65Z"/><path class="cls-3" d="M206.37,307.31c-1.47,0-2.68-.32-3.63-.97-.95-.64-1.53-1.59-1.72-2.83l2.44-.62c.11.58.3,1.04.57,1.38.28.34.62.57,1.02.71.41.14.85.21,1.32.21.72,0,1.26-.13,1.62-.39.36-.26.54-.59.54-.99s-.17-.72-.52-.92c-.35-.2-.87-.37-1.58-.51l-.71-.11c-.78-.15-1.5-.36-2.14-.63-.64-.27-1.16-.64-1.55-1.1-.39-.47-.59-1.06-.59-1.78,0-1.1.41-1.95,1.23-2.55.82-.6,1.9-.9,3.23-.9s2.32.28,3.15.85c.83.57,1.36,1.33,1.61,2.28l-2.44.74c-.12-.64-.39-1.1-.8-1.37-.41-.27-.92-.4-1.52-.4s-1.08.11-1.41.32c-.33.21-.49.52-.49.92s.17.7.51.9c.34.2.79.34,1.36.44l.71.14c.84.15,1.61.35,2.29.6.68.25,1.22.6,1.62,1.06.4.46.6,1.08.6,1.86,0,1.18-.43,2.09-1.28,2.73-.85.64-2,.95-3.44.95Z"/><path class="cls-3" d="M218.09,307.17c-.87,0-1.65-.2-2.32-.59-.67-.39-1.2-.94-1.56-1.66-.37-.71-.55-1.54-.55-2.5v-6.81h2.62v6.6c0,.92.23,1.6.68,2.05.45.44,1.09.67,1.92.67.94,0,1.67-.31,2.22-.92.54-.61.82-1.49.82-2.65v-5.75h2.62v11.36h-2.58v-1.59h-.39c-.2.41-.56.81-1.09,1.2-.53.38-1.32.57-2.38.57Z"/><path class="cls-3" d="M231.41,307.31c-.8,0-1.52-.14-2.16-.43s-1.15-.69-1.53-1.23c-.38-.54-.56-1.2-.56-1.98s.19-1.41.56-1.93c.38-.52.89-.92,1.55-1.18.66-.27,1.41-.4,2.25-.4h3.29v-.69c0-.6-.18-1.08-.55-1.46-.37-.38-.94-.56-1.72-.56s-1.35.18-1.74.54c-.39.36-.65.82-.77,1.39l-2.44-.8c.18-.6.48-1.14.89-1.63.41-.49.95-.89,1.62-1.18.67-.3,1.5-.45,2.48-.45,1.49,0,2.66.37,3.51,1.12.85.74,1.28,1.82,1.28,3.23v4.46c0,.46.21.69.64.69h.97v2.19h-1.86c-.55,0-1-.14-1.36-.41-.35-.28-.53-.65-.53-1.13v-.05h-.39c-.09.21-.25.48-.48.78-.23.31-.58.57-1.05.79-.47.22-1.1.33-1.9.33ZM231.85,305.15c.87,0,1.59-.25,2.14-.75.55-.5.83-1.17.83-2.01v-.23h-3.13c-.57,0-1.03.12-1.38.37-.35.25-.53.61-.53,1.08s.18.83.55,1.12c.37.28.87.43,1.52.43Z"/><path class="cls-3" d="M241.16,306.99v-16.1h2.65v16.1h-2.65Z"/><path class="cls-3" d="M253.03,306.99v-11.36h2.6v1.59h.39c.2-.43.56-.84,1.08-1.22.52-.38,1.31-.57,2.37-.57.87,0,1.65.2,2.32.6.67.4,1.2.95,1.58,1.66.38.71.56,1.54.56,2.51v6.81h-2.65v-6.6c0-.92-.23-1.61-.68-2.06-.45-.45-1.09-.68-1.92-.68-.94,0-1.67.31-2.21.93s-.8,1.51-.8,2.66v5.75h-2.65Z"/><path class="cls-3" d="M270.7,307.31c-.8,0-1.52-.14-2.16-.43s-1.15-.69-1.53-1.23c-.38-.54-.56-1.2-.56-1.98s.19-1.41.56-1.93c.38-.52.89-.92,1.55-1.18.66-.27,1.41-.4,2.25-.4h3.29v-.69c0-.6-.18-1.08-.55-1.46-.37-.38-.94-.56-1.72-.56s-1.35.18-1.74.54c-.39.36-.65.82-.77,1.39l-2.44-.8c.18-.6.48-1.14.89-1.63.41-.49.95-.89,1.62-1.18.67-.3,1.5-.45,2.48-.45,1.49,0,2.66.37,3.51,1.12.85.74,1.28,1.82,1.28,3.23v4.46c0,.46.21.69.64.69h.97v2.19h-1.86c-.55,0-1-.14-1.36-.41-.35-.28-.53-.65-.53-1.13v-.05h-.39c-.09.21-.25.48-.48.78-.23.31-.58.57-1.05.79-.47.22-1.1.33-1.9.33ZM271.13,305.15c.87,0,1.59-.25,2.14-.75.55-.5.83-1.17.83-2.01v-.23h-3.13c-.57,0-1.03.12-1.38.37-.35.25-.53.61-.53,1.08s.18.83.55,1.12c.37.28.87.43,1.52.43Z"/><path class="cls-3" d="M280.45,306.99v-11.36h2.6v1.31h.39c.17-.48.45-.82.85-1.04.4-.21.87-.32,1.43-.32h1.38v2.35h-1.43c-.77,0-1.39.2-1.86.61-.48.41-.71,1.03-.71,1.87v6.58h-2.65Z"/><path class="cls-3" d="M289.44,306.99v-11.36h2.6v1.31h.39c.17-.48.45-.82.85-1.04.4-.21.87-.32,1.43-.32h1.38v2.35h-1.43c-.77,0-1.39.2-1.86.61-.48.41-.71,1.03-.71,1.87v6.58h-2.65Z"/><path class="cls-3" d="M301.65,307.31c-.8,0-1.52-.14-2.16-.43s-1.15-.69-1.53-1.23c-.38-.54-.56-1.2-.56-1.98s.19-1.41.56-1.93c.38-.52.89-.92,1.55-1.18.66-.27,1.41-.4,2.25-.4h3.29v-.69c0-.6-.18-1.08-.55-1.46-.37-.38-.94-.56-1.72-.56s-1.35.18-1.74.54c-.39.36-.65.82-.77,1.39l-2.44-.8c.18-.6.48-1.14.89-1.63.41-.49.95-.89,1.62-1.18.67-.3,1.5-.45,2.48-.45,1.49,0,2.66.37,3.51,1.12.85.74,1.28,1.82,1.28,3.23v4.46c0,.46.21.69.64.69h.97v2.19h-1.86c-.55,0-1-.14-1.36-.41-.35-.28-.53-.65-.53-1.13v-.05h-.39c-.09.21-.25.48-.48.78-.23.31-.58.57-1.05.79-.47.22-1.1.33-1.9.33ZM302.09,305.15c.87,0,1.59-.25,2.14-.75.55-.5.83-1.17.83-2.01v-.23h-3.13c-.57,0-1.03.12-1.38.37-.35.25-.53.61-.53,1.08s.18.83.55,1.12c.37.28.87.43,1.52.43Z"/><path class="cls-3" d="M314.92,306.99c-.74,0-1.32-.22-1.76-.66s-.66-1.03-.66-1.78v-6.74h-2.97v-2.19h2.97v-3.66h2.65v3.66h3.27v2.19h-3.27v6.3c0,.46.21.69.64.69h2.28v2.19h-3.15Z"/><path class="cls-3" d="M322.42,294.18c-.48,0-.89-.16-1.23-.47-.34-.31-.52-.73-.52-1.25s.17-.94.52-1.25c.35-.31.76-.47,1.23-.47.51,0,.92.16,1.25.47.33.31.49.73.49,1.25s-.16.94-.49,1.25c-.33.31-.75.47-1.25.47ZM321.11,306.99v-11.36h2.65v11.36h-2.65Z"/><path class="cls-3" d="M329.62,306.99l-3.73-11.36h2.81l2.81,9.43h.39l2.83-9.43h2.81l-3.73,11.36h-4.19Z"/><path class="cls-3" d="M344.5,307.31c-1.13,0-2.14-.24-3-.72-.87-.48-1.54-1.17-2.02-2.05-.48-.88-.72-1.91-.72-3.09v-.28c0-1.2.24-2.23.71-3.1.48-.87,1.14-1.55,2-2.04s1.85-.72,2.97-.72,2.07.24,2.9.72,1.47,1.16,1.93,2.04c.46.87.69,1.89.69,3.06v.94h-8.53c.03.89.35,1.6.94,2.14.6.54,1.33.8,2.21.8s1.5-.19,1.91-.56c.41-.38.73-.8.94-1.28l2.19,1.13c-.21.41-.53.85-.93,1.32-.41.47-.95.87-1.62,1.2-.68.33-1.53.49-2.55.49ZM341.44,300.07h5.82c-.06-.75-.35-1.35-.86-1.79-.51-.44-1.18-.67-1.99-.67s-1.52.22-2.02.67c-.51.44-.82,1.04-.94,1.79Z"/><path class="cls-3" d="M357.36,307.31c-1.47,0-2.68-.32-3.63-.97-.95-.64-1.53-1.59-1.72-2.83l2.44-.62c.11.58.3,1.04.57,1.38.28.34.62.57,1.02.71.41.14.85.21,1.32.21.72,0,1.26-.13,1.62-.39.36-.26.54-.59.54-.99s-.17-.72-.52-.92c-.35-.2-.87-.37-1.58-.51l-.71-.11c-.78-.15-1.5-.36-2.14-.63-.64-.27-1.16-.64-1.55-1.1-.39-.47-.59-1.06-.59-1.78,0-1.1.41-1.95,1.23-2.55.82-.6,1.9-.9,3.23-.9s2.32.28,3.15.85c.83.57,1.36,1.33,1.61,2.28l-2.44.74c-.12-.64-.39-1.1-.8-1.37-.41-.27-.92-.4-1.52-.4s-1.08.11-1.41.32c-.33.21-.49.52-.49.92s.17.7.51.9c.34.2.79.34,1.36.44l.71.14c.84.15,1.61.35,2.29.6.68.25,1.22.6,1.62,1.06.4.46.6,1.08.6,1.86,0,1.18-.43,2.09-1.28,2.73-.85.64-2,.95-3.44.95Z"/><path class="cls-1" d="M35.43,372.16v-12.48h2.16v12.48h-2.16Z"/><path class="cls-1" d="M43.72,372.41c-.71,0-1.38-.18-2-.53-.62-.35-1.11-.86-1.48-1.54-.37-.68-.55-1.49-.55-2.44v-.29c0-.95.18-1.77.55-2.44.37-.68.86-1.19,1.47-1.54.61-.35,1.28-.53,2.01-.53.55,0,1.01.07,1.39.2.38.13.69.3.92.5.23.2.41.42.54.66h.3v-4.78h2.03v12.48h-2v-1.16h-.3c-.21.36-.54.68-.98.97-.44.29-1.08.44-1.91.44ZM44.33,370.63c.74,0,1.35-.24,1.84-.72.49-.48.73-1.17.73-2.06v-.18c0-.9-.24-1.59-.72-2.07-.48-.48-1.1-.71-1.85-.71s-1.35.24-1.85.71c-.49.48-.74,1.17-.74,2.07v.18c0,.89.25,1.58.74,2.06.49.48,1.11.72,1.85.72Z"/><path class="cls-1" d="M55.55,372.41c-.88,0-1.66-.19-2.33-.56-.67-.37-1.19-.9-1.57-1.59-.37-.68-.56-1.48-.56-2.4v-.21c0-.93.18-1.73.55-2.41.37-.68.89-1.2,1.55-1.58.67-.37,1.43-.56,2.3-.56s1.6.19,2.25.56c.64.37,1.14.9,1.5,1.58.36.68.54,1.47.54,2.37v.73h-6.62c.02.69.27,1.24.73,1.66.46.42,1.03.62,1.71.62s1.16-.15,1.48-.44c.32-.29.56-.62.73-.99l1.69.87c-.17.32-.41.66-.72,1.03-.31.36-.73.67-1.26.93-.52.26-1.18.38-1.98.38ZM53.17,366.79h4.51c-.05-.58-.27-1.05-.67-1.39-.4-.34-.91-.52-1.54-.52s-1.18.17-1.57.52c-.39.34-.64.81-.73,1.39Z"/><path class="cls-1" d="M64.61,372.41c-.62,0-1.18-.11-1.68-.33-.5-.22-.9-.54-1.19-.95-.29-.42-.44-.93-.44-1.53s.15-1.09.44-1.5c.29-.4.69-.71,1.2-.92.51-.21,1.09-.31,1.75-.31h2.55v-.53c0-.46-.14-.84-.43-1.13-.29-.29-.73-.44-1.34-.44s-1.04.14-1.35.42c-.3.28-.5.64-.6,1.08l-1.89-.62c.14-.46.37-.89.69-1.27.31-.38.73-.69,1.26-.92.52-.23,1.17-.35,1.93-.35,1.15,0,2.06.29,2.72.86.66.58.99,1.41.99,2.51v3.46c0,.36.17.53.5.53h.75v1.69h-1.44c-.43,0-.78-.11-1.05-.32s-.41-.51-.41-.87v-.04h-.3c-.07.17-.2.37-.37.61-.18.24-.45.44-.81.62-.36.17-.85.26-1.47.26ZM64.94,370.73c.68,0,1.23-.19,1.66-.58.43-.39.64-.91.64-1.56v-.18h-2.43c-.44,0-.8.1-1.07.29-.27.19-.41.47-.41.84s.14.65.43.86c.29.22.68.33,1.18.33Z"/><path class="cls-1" d="M75.73,372.41c-1.14,0-2.08-.25-2.82-.75-.74-.5-1.18-1.23-1.34-2.19l1.89-.48c.08.45.23.81.45,1.07.21.26.48.45.79.55.31.11.66.16,1.03.16.56,0,.98-.1,1.26-.3.28-.2.42-.46.42-.77s-.13-.56-.4-.71c-.27-.15-.67-.29-1.22-.39l-.55-.09c-.61-.12-1.16-.28-1.66-.49-.5-.21-.9-.49-1.2-.86-.3-.36-.45-.82-.45-1.38,0-.86.32-1.52.95-1.98.64-.46,1.47-.7,2.51-.7s1.8.22,2.44.66c.64.44,1.06,1.03,1.25,1.77l-1.89.57c-.1-.5-.3-.85-.62-1.06-.32-.21-.71-.31-1.18-.31s-.84.08-1.1.25c-.26.17-.38.4-.38.71s.13.54.39.7c.26.15.61.27,1.05.34l.55.11c.65.12,1.25.27,1.77.46.53.19.95.46,1.26.82.31.36.46.84.46,1.44,0,.92-.33,1.62-.99,2.11s-1.55.74-2.67.74Z"/><path class="cls-1" d="M88.73,372.41c-.62,0-1.18-.11-1.68-.33-.5-.22-.9-.54-1.19-.95-.29-.42-.44-.93-.44-1.53s.15-1.09.44-1.5c.29-.4.69-.71,1.2-.92.51-.21,1.09-.31,1.75-.31h2.55v-.53c0-.46-.14-.84-.43-1.13-.29-.29-.73-.44-1.34-.44s-1.04.14-1.35.42c-.3.28-.5.64-.6,1.08l-1.89-.62c.14-.46.37-.89.69-1.27.31-.38.73-.69,1.26-.92.52-.23,1.17-.35,1.93-.35,1.15,0,2.06.29,2.72.86.66.58.99,1.41.99,2.51v3.46c0,.36.17.53.5.53h.75v1.69h-1.44c-.43,0-.78-.11-1.05-.32s-.41-.51-.41-.87v-.04h-.3c-.07.17-.2.37-.37.61-.18.24-.45.44-.81.62-.36.17-.85.26-1.47.26ZM89.07,370.73c.68,0,1.23-.19,1.66-.58.43-.39.64-.91.64-1.56v-.18h-2.43c-.44,0-.8.1-1.07.29-.27.19-.41.47-.41.84s.14.65.43.86c.29.22.68.33,1.18.33Z"/><path class="cls-1" d="M96.29,372.16v-8.81h2.02v1.23h.3c.15-.33.43-.65.84-.95.4-.3,1.02-.45,1.84-.45.68,0,1.28.15,1.8.46.52.31.93.74,1.22,1.28.29.55.44,1.19.44,1.94v5.28h-2.05v-5.12c0-.71-.18-1.25-.53-1.6-.35-.35-.85-.53-1.49-.53-.73,0-1.3.24-1.71.72-.42.48-.62,1.17-.62,2.06v4.46h-2.05Z"/><path class="cls-1" d="M110.86,372.41c-.71,0-1.38-.18-2-.53-.62-.35-1.11-.86-1.48-1.54-.37-.68-.55-1.49-.55-2.44v-.29c0-.95.18-1.77.55-2.44.37-.68.86-1.19,1.47-1.54.61-.35,1.28-.53,2.01-.53.55,0,1.01.07,1.39.2.38.13.69.3.92.5.23.2.41.42.54.66h.3v-4.78h2.03v12.48h-2v-1.16h-.3c-.21.36-.54.68-.98.97-.44.29-1.08.44-1.91.44ZM111.47,370.63c.74,0,1.35-.24,1.84-.72.49-.48.73-1.17.73-2.06v-.18c0-.9-.24-1.59-.72-2.07-.48-.48-1.1-.71-1.85-.71s-1.35.24-1.85.71c-.49.48-.74,1.17-.74,2.07v.18c0,.89.25,1.58.74,2.06.49.48,1.11.72,1.85.72Z"/><path class="cls-1" d="M128.41,372.41c-.83,0-1.47-.15-1.92-.44s-.77-.62-.97-.97h-.3v1.16h-2.02v-12.48h2.05v4.78h.3c.13-.24.31-.46.54-.66.23-.2.53-.37.91-.5.37-.13.84-.2,1.4-.2.73,0,1.39.18,2,.53.61.35,1.09.86,1.46,1.54.37.68.55,1.49.55,2.44v.29c0,.95-.18,1.77-.55,2.44-.37.68-.86,1.19-1.47,1.54-.61.35-1.27.53-1.99.53ZM127.8,370.63c.74,0,1.35-.24,1.84-.72.49-.48.73-1.17.73-2.06v-.18c0-.9-.24-1.59-.72-2.07-.48-.48-1.1-.71-1.85-.71s-1.35.24-1.85.71c-.49.48-.74,1.17-.74,2.07v.18c0,.89.25,1.58.74,2.06.49.48,1.11.72,1.85.72Z"/><path class="cls-1" d="M134.6,372.16v-8.81h2.02v1.02h.3c.13-.37.35-.64.66-.8.31-.17.68-.25,1.11-.25h1.07v1.82h-1.11c-.59,0-1.08.16-1.44.47-.37.32-.55.8-.55,1.45v5.1h-2.05Z"/><path class="cls-1" d="M144.07,372.41c-.62,0-1.18-.11-1.68-.33-.5-.22-.9-.54-1.19-.95-.29-.42-.44-.93-.44-1.53s.15-1.09.44-1.5c.29-.4.69-.71,1.2-.92.51-.21,1.09-.31,1.75-.31h2.55v-.53c0-.46-.14-.84-.43-1.13-.29-.29-.73-.44-1.34-.44s-1.04.14-1.35.42c-.3.28-.5.64-.6,1.08l-1.89-.62c.14-.46.37-.89.69-1.27.31-.38.73-.69,1.26-.92.52-.23,1.17-.35,1.93-.35,1.15,0,2.06.29,2.72.86.66.58.99,1.41.99,2.51v3.46c0,.36.17.53.5.53h.75v1.69h-1.44c-.43,0-.78-.11-1.05-.32s-.41-.51-.41-.87v-.04h-.3c-.07.17-.2.37-.37.61-.18.24-.45.44-.81.62-.36.17-.85.26-1.47.26ZM144.4,370.73c.68,0,1.23-.19,1.66-.58.43-.39.64-.91.64-1.56v-.18h-2.43c-.44,0-.8.1-1.07.29-.27.19-.41.47-.41.84s.14.65.43.86c.29.22.68.33,1.18.33Z"/><path class="cls-1" d="M152.64,362.23c-.37,0-.69-.12-.95-.37-.27-.24-.4-.57-.4-.97s.13-.73.4-.97c.27-.24.59-.37.95-.37.39,0,.72.12.97.37.26.24.38.57.38.97s-.13.73-.38.97c-.26.24-.58.37-.97.37ZM151.63,372.16v-8.81h2.05v8.81h-2.05Z"/><path class="cls-1" d="M156.28,372.16v-8.81h2.02v1.23h.3c.15-.33.43-.65.84-.95.4-.3,1.02-.45,1.84-.45.68,0,1.28.15,1.8.46.52.31.93.74,1.22,1.28.29.55.44,1.19.44,1.94v5.28h-2.05v-5.12c0-.71-.18-1.25-.53-1.6-.35-.35-.85-.53-1.49-.53-.73,0-1.3.24-1.71.72-.42.48-.62,1.17-.62,2.06v4.46h-2.05Z"/><path class="cls-1" d="M170.88,372.41c-1.14,0-2.08-.25-2.82-.75-.74-.5-1.18-1.23-1.34-2.19l1.89-.48c.08.45.23.81.45,1.07.21.26.48.45.79.55.31.11.66.16,1.03.16.56,0,.98-.1,1.26-.3.28-.2.42-.46.42-.77s-.13-.56-.4-.71c-.27-.15-.67-.29-1.22-.39l-.55-.09c-.61-.12-1.16-.28-1.66-.49-.5-.21-.9-.49-1.2-.86-.3-.36-.45-.82-.45-1.38,0-.86.32-1.52.95-1.98.64-.46,1.47-.7,2.51-.7s1.8.22,2.44.66c.64.44,1.06,1.03,1.25,1.77l-1.89.57c-.1-.5-.3-.85-.62-1.06-.32-.21-.71-.31-1.18-.31s-.84.08-1.1.25c-.26.17-.38.4-.38.71s.13.54.39.7c.26.15.61.27,1.05.34l.55.11c.65.12,1.25.27,1.77.46.53.19.95.46,1.26.82.31.36.46.84.46,1.44,0,.92-.33,1.62-.99,2.11s-1.55.74-2.67.74Z"/><path class="cls-1" d="M179.78,372.16c-.57,0-1.03-.17-1.36-.51-.34-.34-.51-.8-.51-1.38v-5.22h-2.3v-1.69h2.3v-2.84h2.05v2.84h2.53v1.69h-2.53v4.89c0,.36.17.53.5.53h1.77v1.69h-2.44Z"/><path class="cls-1" d="M188.43,372.41c-.88,0-1.67-.18-2.36-.54-.7-.36-1.24-.88-1.64-1.55-.4-.67-.6-1.48-.6-2.42v-.29c0-.94.2-1.75.6-2.43.4-.68.95-1.19,1.64-1.55.7-.36,1.48-.53,2.36-.53s1.66.18,2.35.53c.69.36,1.23.87,1.63,1.55.4.68.6,1.49.6,2.43v.29c0,.94-.2,1.74-.6,2.42-.4.67-.94,1.19-1.63,1.55-.69.36-1.47.54-2.35.54ZM188.43,370.59c.75,0,1.36-.24,1.84-.72.48-.48.71-1.16.71-2.02v-.18c0-.87-.24-1.54-.71-2.02-.48-.48-1.09-.72-1.84-.72s-1.36.24-1.84.72c-.48.48-.71,1.16-.71,2.02v.18c0,.87.24,1.54.71,2.02.48.48,1.09.72,1.84.72Z"/><path class="cls-1" d="M195.19,372.16v-8.81h2.02v1.02h.3c.13-.37.35-.64.66-.8.31-.17.68-.25,1.11-.25h1.07v1.82h-1.11c-.59,0-1.08.16-1.44.47-.37.32-.55.8-.55,1.45v5.1h-2.05Z"/><path class="cls-1" d="M202.16,372.16v-8.81h2.02v.98h.3c.15-.3.41-.56.78-.79s.85-.35,1.45-.35c.64,0,1.16.13,1.55.39.39.26.69.59.89,1h.29c.2-.4.49-.74.87-1,.38-.26.92-.39,1.62-.39.55,0,1.04.12,1.49.36.45.24.8.59,1.07,1.05s.4,1.04.4,1.73v5.83h-2.05v-5.69c0-.51-.14-.9-.41-1.17s-.65-.4-1.14-.4c-.54,0-.96.18-1.28.53-.31.35-.47.85-.47,1.51v5.22h-2.03v-5.69c0-.51-.14-.9-.41-1.17s-.65-.4-1.14-.4c-.55,0-.98.18-1.28.53-.31.35-.46.85-.46,1.51v5.22h-2.05Z"/><path class="cls-1" d="M218.43,362.23c-.37,0-.69-.12-.95-.37-.27-.24-.4-.57-.4-.97s.13-.73.4-.97c.27-.24.59-.37.95-.37.39,0,.72.12.97.37.26.24.38.57.38.97s-.13.73-.38.97c-.26.24-.58.37-.97.37ZM217.41,372.16v-8.81h2.05v8.81h-2.05Z"/><path class="cls-1" d="M222.06,372.16v-8.81h2.02v1.23h.3c.15-.33.43-.65.84-.95.4-.3,1.02-.45,1.84-.45.68,0,1.28.15,1.8.46.52.31.93.74,1.22,1.28.29.55.44,1.19.44,1.94v5.28h-2.05v-5.12c0-.71-.18-1.25-.53-1.6-.35-.35-.85-.53-1.49-.53-.73,0-1.3.24-1.71.72-.42.48-.62,1.17-.62,2.06v4.46h-2.05Z"/><path class="cls-1" d="M232.6,367.79v-.27c0-.93.18-1.72.55-2.38.37-.66.86-1.16,1.48-1.52.62-.35,1.3-.53,2.03-.53.83,0,1.47.15,1.9.45.43.3.75.62.95.96h.3v-1.16h2v10.49c0,.58-.17,1.04-.5,1.38-.33.34-.78.51-1.35.51h-5.92v-1.78h5.22c.34,0,.52-.18.52-.53v-2.55h-.3c-.13.2-.31.41-.54.62-.23.21-.52.38-.89.53-.37.14-.83.21-1.39.21-.74,0-1.41-.18-2.03-.53-.62-.35-1.11-.86-1.48-1.52-.37-.66-.55-1.45-.55-2.38ZM237.24,370.41c.74,0,1.35-.23,1.84-.7.49-.47.73-1.13.73-1.97v-.18c0-.86-.24-1.52-.72-1.98-.48-.46-1.1-.7-1.85-.7s-1.35.23-1.85.7c-.49.46-.74,1.12-.74,1.98v.18c0,.84.25,1.5.74,1.97.49.47,1.11.7,1.85.7Z"/><path class="cls-1" d="M39.73,399.97c-.95,0-1.79-.17-2.52-.51-.73-.34-1.31-.83-1.72-1.47s-.62-1.43-.62-2.35v-.46h2.12v.46c0,.82.25,1.43.75,1.84.5.4,1.17.61,2,.61s1.48-.17,1.91-.52c.43-.34.64-.79.64-1.34,0-.37-.1-.67-.3-.9s-.5-.42-.88-.56-.85-.28-1.4-.41l-.53-.11c-.82-.19-1.53-.43-2.13-.72-.6-.29-1.06-.67-1.38-1.13-.32-.46-.48-1.07-.48-1.82s.18-1.39.54-1.93c.36-.54.86-.95,1.52-1.23s1.42-.43,2.3-.43,1.66.15,2.35.45c.69.3,1.23.74,1.63,1.34.4.59.6,1.34.6,2.23v.59h-2.12v-.59c0-.51-.1-.92-.3-1.23-.2-.31-.49-.54-.86-.68-.37-.14-.8-.21-1.3-.21-.74,0-1.3.14-1.68.43-.38.29-.57.69-.57,1.21,0,.33.09.62.26.85s.43.42.77.57c.34.15.76.28,1.27.38l.53.12c.86.19,1.6.43,2.25.72.64.29,1.14.67,1.51,1.15.36.48.54,1.09.54,1.85s-.19,1.41-.58,1.98c-.39.57-.93,1.02-1.62,1.34-.7.32-1.52.48-2.47.48Z"/><path class="cls-1" d="M46.35,399.72v-12.48h2.05v7.01h.3l3.17-3.33h2.69l-4.26,4.26,4.4,4.55h-2.66l-3.35-3.58h-.3v3.58h-2.05Z"/><path class="cls-1" d="M59.81,399.97c-.88,0-1.66-.19-2.33-.56-.67-.37-1.19-.9-1.57-1.59-.37-.68-.56-1.48-.56-2.4v-.21c0-.93.18-1.73.55-2.41.37-.68.89-1.2,1.55-1.58.67-.37,1.43-.56,2.3-.56s1.6.19,2.25.56c.64.37,1.14.9,1.5,1.58.36.68.54,1.47.54,2.37v.73h-6.62c.02.69.27,1.24.73,1.66.46.42,1.03.62,1.71.62s1.16-.15,1.48-.44c.32-.29.56-.62.73-.99l1.69.87c-.17.32-.41.66-.72,1.03-.31.36-.73.67-1.26.93-.52.26-1.18.38-1.98.38ZM57.44,394.35h4.51c-.05-.58-.27-1.05-.67-1.39-.4-.34-.91-.52-1.54-.52s-1.18.17-1.57.52c-.39.34-.64.81-.73,1.39Z"/><path class="cls-1" d="M69.19,399.72c-.57,0-1.03-.17-1.36-.51-.34-.34-.51-.8-.51-1.38v-5.22h-2.3v-1.69h2.3v-2.84h2.05v2.84h2.53v1.69h-2.53v4.89c0,.36.17.53.5.53h1.77v1.69h-2.44Z"/><path class="cls-1" d="M77.78,399.97c-.86,0-1.63-.18-2.32-.53-.69-.36-1.23-.87-1.63-1.55-.4-.68-.6-1.49-.6-2.44v-.25c0-.95.2-1.77.6-2.44.4-.68.94-1.19,1.63-1.55.69-.36,1.46-.53,2.32-.53s1.57.15,2.17.45c.6.3,1.08.7,1.45,1.22.37.52.61,1.1.71,1.74l-1.98.41c-.05-.37-.16-.7-.34-1.01s-.43-.54-.76-.72c-.33-.18-.73-.27-1.2-.27s-.92.1-1.31.31c-.39.21-.69.52-.91.94-.22.42-.33.92-.33,1.5v.18c0,.58.11,1.08.33,1.49.22.41.52.72.91.94.39.21.82.32,1.31.32.73,0,1.27-.19,1.65-.56s.61-.86.7-1.45l1.98.46c-.14.62-.4,1.18-.77,1.69-.37.51-.85.92-1.45,1.22-.6.3-1.32.45-2.17.45Z"/><path class="cls-1" d="M84.17,399.72v-12.48h2.05v4.83h.3c.09-.2.25-.4.46-.61.21-.2.5-.37.85-.5.35-.13.79-.2,1.33-.2.68,0,1.28.15,1.8.45.52.3.93.73,1.22,1.27.29.55.44,1.19.44,1.94v5.28h-2.05v-5.12c0-.71-.18-1.25-.53-1.6-.35-.35-.85-.53-1.49-.53-.73,0-1.3.24-1.71.72-.42.48-.62,1.17-.62,2.06v4.46h-2.05Z"/><path class="cls-1" d="M99.16,399.97c-.88,0-1.66-.19-2.33-.56-.67-.37-1.19-.9-1.57-1.59-.37-.68-.56-1.48-.56-2.4v-.21c0-.93.18-1.73.55-2.41.37-.68.89-1.2,1.55-1.58.67-.37,1.43-.56,2.3-.56s1.6.19,2.25.56c.64.37,1.14.9,1.5,1.58.36.68.54,1.47.54,2.37v.73h-6.62c.02.69.27,1.24.73,1.66.46.42,1.03.62,1.71.62s1.16-.15,1.48-.44c.32-.29.56-.62.73-.99l1.69.87c-.17.32-.41.66-.72,1.03-.31.36-.73.67-1.26.93-.52.26-1.18.38-1.98.38ZM96.79,394.35h4.51c-.05-.58-.27-1.05-.67-1.39-.4-.34-.91-.52-1.54-.52s-1.18.17-1.57.52c-.39.34-.64.81-.73,1.39Z"/><path class="cls-1" d="M109.13,399.97c-1.14,0-2.08-.25-2.82-.75-.74-.5-1.18-1.23-1.34-2.19l1.89-.48c.08.45.23.81.45,1.07.21.26.48.45.79.55.31.11.66.16,1.03.16.56,0,.98-.1,1.26-.3.28-.2.42-.46.42-.77s-.13-.56-.4-.71c-.27-.15-.67-.29-1.22-.39l-.55-.09c-.61-.12-1.16-.28-1.66-.49-.5-.21-.9-.49-1.2-.86-.3-.36-.45-.82-.45-1.38,0-.86.32-1.52.95-1.98.64-.46,1.47-.7,2.51-.7s1.8.22,2.44.66c.64.44,1.06,1.03,1.25,1.77l-1.89.57c-.1-.5-.3-.85-.62-1.06-.32-.21-.71-.31-1.18-.31s-.84.08-1.1.25c-.26.17-.38.4-.38.71s.13.54.39.7c.26.15.61.27,1.05.34l.55.11c.65.12,1.25.27,1.77.46.53.19.95.46,1.26.82.31.36.46.84.46,1.44,0,.92-.33,1.62-.99,2.11s-1.55.74-2.67.74Z"/><path class="cls-1" d="M122.13,399.97c-.62,0-1.18-.11-1.68-.33-.5-.22-.9-.54-1.19-.95-.29-.42-.44-.93-.44-1.53s.15-1.09.44-1.5c.29-.4.69-.71,1.2-.92.51-.21,1.09-.31,1.75-.31h2.55v-.53c0-.46-.14-.84-.43-1.13-.29-.29-.73-.44-1.34-.44s-1.04.14-1.35.42c-.3.28-.5.64-.6,1.08l-1.89-.62c.14-.46.37-.89.69-1.27.31-.38.73-.69,1.26-.92.52-.23,1.17-.35,1.93-.35,1.15,0,2.06.29,2.72.86.66.58.99,1.41.99,2.51v3.46c0,.36.17.53.5.53h.75v1.69h-1.44c-.43,0-.78-.11-1.05-.32s-.41-.51-.41-.87v-.04h-.3c-.07.17-.2.37-.37.61-.18.24-.45.44-.81.62-.36.17-.85.26-1.47.26ZM122.47,398.29c.68,0,1.23-.19,1.66-.58.43-.39.64-.91.64-1.56v-.18h-2.43c-.44,0-.8.1-1.07.29-.27.19-.41.47-.41.84s.14.65.43.86c.29.22.68.33,1.18.33Z"/><path class="cls-1" d="M129.69,399.72v-8.81h2.02v1.23h.3c.15-.33.43-.65.84-.95.4-.3,1.02-.45,1.84-.45.68,0,1.28.15,1.8.46.52.31.93.74,1.22,1.28.29.55.44,1.19.44,1.94v5.28h-2.05v-5.12c0-.71-.18-1.25-.53-1.6-.35-.35-.85-.53-1.49-.53-.73,0-1.3.24-1.71.72-.42.48-.62,1.17-.62,2.06v4.46h-2.05Z"/><path class="cls-1" d="M144.26,399.97c-.71,0-1.38-.18-2-.53-.62-.35-1.11-.86-1.48-1.54-.37-.68-.55-1.49-.55-2.44v-.29c0-.95.18-1.77.55-2.44.37-.68.86-1.19,1.47-1.54.61-.35,1.28-.53,2.01-.53.55,0,1.01.07,1.39.2.38.13.69.3.92.5.23.2.41.42.54.66h.3v-4.78h2.03v12.48h-2v-1.16h-.3c-.21.36-.54.68-.98.97-.44.29-1.08.44-1.91.44ZM144.87,398.19c.74,0,1.35-.24,1.84-.72.49-.48.73-1.17.73-2.06v-.18c0-.9-.24-1.59-.72-2.07-.48-.48-1.1-.71-1.85-.71s-1.35.24-1.85.71c-.49.48-.74,1.17-.74,2.07v.18c0,.89.25,1.58.74,2.06.49.48,1.11.72,1.85.72Z"/><path class="cls-1" d="M156.6,403.29v-12.38h2.02v1.16h.3c.2-.37.53-.7.97-.98s1.08-.43,1.92-.43c.71,0,1.38.18,1.99.53.61.35,1.1.86,1.47,1.54.37.68.55,1.49.55,2.44v.29c0,.95-.18,1.77-.55,2.44-.37.68-.86,1.19-1.46,1.54-.61.35-1.27.53-2,.53-.56,0-1.03-.07-1.4-.2-.37-.13-.68-.3-.91-.52-.23-.21-.41-.43-.54-.64h-.3v4.67h-2.05ZM161.2,398.19c.75,0,1.36-.24,1.85-.72.48-.48.72-1.17.72-2.06v-.18c0-.9-.24-1.59-.73-2.07-.49-.48-1.1-.71-1.84-.71s-1.35.24-1.85.71c-.49.48-.74,1.17-.74,2.07v.18c0,.89.25,1.58.74,2.06.49.48,1.11.72,1.85.72Z"/><path class="cls-1" d="M168,399.72v-8.81h2.02v1.02h.3c.13-.37.35-.64.66-.8.31-.17.68-.25,1.11-.25h1.07v1.82h-1.11c-.59,0-1.08.16-1.44.47-.37.32-.55.8-.55,1.45v5.1h-2.05Z"/><path class="cls-1" d="M178.68,399.97c-.88,0-1.66-.19-2.33-.56-.67-.37-1.19-.9-1.57-1.59-.37-.68-.56-1.48-.56-2.4v-.21c0-.93.18-1.73.55-2.41.37-.68.89-1.2,1.55-1.58.67-.37,1.43-.56,2.3-.56s1.6.19,2.25.56c.64.37,1.14.9,1.5,1.58.36.68.54,1.47.54,2.37v.73h-6.62c.02.69.27,1.24.73,1.66.46.42,1.03.62,1.71.62s1.16-.15,1.48-.44c.32-.29.56-.62.73-.99l1.69.87c-.17.32-.41.66-.72,1.03-.31.36-.73.67-1.26.93-.52.26-1.18.38-1.98.38ZM176.31,394.35h4.51c-.05-.58-.27-1.05-.67-1.39-.4-.34-.91-.52-1.54-.52s-1.18.17-1.57.52c-.39.34-.64.81-.73,1.39Z"/><path class="cls-1" d="M185.01,399.72v-12.48h2.05v12.48h-2.05Z"/><path class="cls-1" d="M190.68,389.79c-.37,0-.69-.12-.95-.37-.27-.24-.4-.57-.4-.97s.13-.73.4-.97c.27-.24.59-.37.95-.37.39,0,.72.12.97.37.26.24.38.57.38.97s-.13.73-.38.97c-.26.24-.58.37-.97.37ZM189.66,399.72v-8.81h2.05v8.81h-2.05Z"/><path class="cls-1" d="M194.32,399.72v-8.81h2.02v.98h.3c.15-.3.41-.56.78-.79s.85-.35,1.45-.35c.64,0,1.16.13,1.55.39.39.26.69.59.89,1h.29c.2-.4.49-.74.87-1,.38-.26.92-.39,1.62-.39.55,0,1.04.12,1.49.36.45.24.8.59,1.07,1.05s.4,1.04.4,1.73v5.83h-2.05v-5.69c0-.51-.14-.9-.41-1.17s-.65-.4-1.14-.4c-.54,0-.96.18-1.28.53-.31.35-.47.85-.47,1.51v5.22h-2.03v-5.69c0-.51-.14-.9-.41-1.17s-.65-.4-1.14-.4c-.55,0-.98.18-1.28.53-.31.35-.46.85-.46,1.51v5.22h-2.05Z"/><path class="cls-1" d="M210.58,389.79c-.37,0-.69-.12-.95-.37-.27-.24-.4-.57-.4-.97s.13-.73.4-.97c.27-.24.59-.37.95-.37.39,0,.72.12.97.37.26.24.38.57.38.97s-.13.73-.38.97c-.26.24-.58.37-.97.37ZM209.56,399.72v-8.81h2.05v8.81h-2.05Z"/><path class="cls-1" d="M214.22,399.72v-8.81h2.02v1.23h.3c.15-.33.43-.65.84-.95.4-.3,1.02-.45,1.84-.45.68,0,1.28.15,1.8.46.52.31.93.74,1.22,1.28.29.55.44,1.19.44,1.94v5.28h-2.05v-5.12c0-.71-.18-1.25-.53-1.6-.35-.35-.85-.53-1.49-.53-.73,0-1.3.24-1.71.72-.42.48-.62,1.17-.62,2.06v4.46h-2.05Z"/><path class="cls-1" d="M227.91,399.97c-.62,0-1.18-.11-1.68-.33-.5-.22-.9-.54-1.19-.95-.29-.42-.44-.93-.44-1.53s.15-1.09.44-1.5c.29-.4.69-.71,1.2-.92.51-.21,1.09-.31,1.75-.31h2.55v-.53c0-.46-.14-.84-.43-1.13-.29-.29-.73-.44-1.34-.44s-1.04.14-1.35.42c-.3.28-.5.64-.6,1.08l-1.89-.62c.14-.46.37-.89.69-1.27.31-.38.73-.69,1.26-.92.52-.23,1.17-.35,1.93-.35,1.15,0,2.06.29,2.72.86.66.58.99,1.41.99,2.51v3.46c0,.36.17.53.5.53h.75v1.69h-1.44c-.43,0-.78-.11-1.05-.32s-.41-.51-.41-.87v-.04h-.3c-.07.17-.2.37-.37.61-.18.24-.45.44-.81.62-.36.17-.85.26-1.47.26ZM228.25,398.29c.68,0,1.23-.19,1.66-.58.43-.39.64-.91.64-1.56v-.18h-2.43c-.44,0-.8.1-1.07.29-.27.19-.41.47-.41.84s.14.65.43.86c.29.22.68.33,1.18.33Z"/><path class="cls-1" d="M235.47,399.72v-8.81h2.02v1.02h.3c.13-.37.35-.64.66-.8.31-.17.68-.25,1.11-.25h1.07v1.82h-1.11c-.59,0-1.08.16-1.44.47-.37.32-.55.8-.55,1.45v5.1h-2.05Z"/><path class="cls-1" d="M243.43,403.29v-1.78h4.87c.33,0,.5-.18.5-.53v-2.46h-.3c-.1.21-.25.43-.46.63-.21.21-.5.38-.86.52-.36.14-.81.21-1.36.21-.68,0-1.28-.15-1.8-.45-.52-.3-.93-.73-1.21-1.28-.29-.55-.43-1.2-.43-1.93v-5.28h2.03v5.12c0,.71.18,1.24.53,1.59.35.34.85.52,1.49.52.73,0,1.3-.24,1.72-.71.42-.48.63-1.16.63-2.05v-4.46h2.03v10.49c0,.58-.17,1.04-.5,1.38-.33.34-.78.51-1.36.51h-5.53Z"/><path class="cls-1" d="M261.56,399.97c-.71,0-1.38-.18-2-.53-.62-.35-1.11-.86-1.48-1.54-.37-.68-.55-1.49-.55-2.44v-.29c0-.95.18-1.77.55-2.44.37-.68.86-1.19,1.47-1.54.61-.35,1.28-.53,2.01-.53.55,0,1.01.07,1.39.2.38.13.69.3.92.5.23.2.41.42.54.66h.3v-4.78h2.03v12.48h-2v-1.16h-.3c-.21.36-.54.68-.98.97-.44.29-1.08.44-1.91.44ZM262.17,398.19c.74,0,1.35-.24,1.84-.72.49-.48.73-1.17.73-2.06v-.18c0-.9-.24-1.59-.72-2.07-.48-.48-1.1-.71-1.85-.71s-1.35.24-1.85.71c-.49.48-.74,1.17-.74,2.07v.18c0,.89.25,1.58.74,2.06.49.48,1.11.72,1.85.72Z"/><path class="cls-1" d="M273.38,399.97c-.88,0-1.66-.19-2.33-.56-.67-.37-1.19-.9-1.57-1.59-.37-.68-.56-1.48-.56-2.4v-.21c0-.93.18-1.73.55-2.41.37-.68.89-1.2,1.55-1.58.67-.37,1.43-.56,2.3-.56s1.6.19,2.25.56c.64.37,1.14.9,1.5,1.58.36.68.54,1.47.54,2.37v.73h-6.62c.02.69.27,1.24.73,1.66.46.42,1.03.62,1.71.62s1.16-.15,1.48-.44c.32-.29.56-.62.73-.99l1.69.87c-.17.32-.41.66-.72,1.03-.31.36-.73.67-1.26.93-.52.26-1.18.38-1.98.38ZM271.01,394.35h4.51c-.05-.58-.27-1.05-.67-1.39-.4-.34-.91-.52-1.54-.52s-1.18.17-1.57.52c-.39.34-.64.81-.73,1.39Z"/><path class="cls-1" d="M283.35,399.97c-1.14,0-2.08-.25-2.82-.75-.74-.5-1.18-1.23-1.34-2.19l1.89-.48c.08.45.23.81.45,1.07.21.26.48.45.79.55.31.11.66.16,1.03.16.56,0,.98-.1,1.26-.3.28-.2.42-.46.42-.77s-.13-.56-.4-.71c-.27-.15-.67-.29-1.22-.39l-.55-.09c-.61-.12-1.16-.28-1.66-.49-.5-.21-.9-.49-1.2-.86-.3-.36-.45-.82-.45-1.38,0-.86.32-1.52.95-1.98.64-.46,1.47-.7,2.51-.7s1.8.22,2.44.66c.64.44,1.06,1.03,1.25,1.77l-1.89.57c-.1-.5-.3-.85-.62-1.06-.32-.21-.71-.31-1.18-.31s-.84.08-1.1.25c-.26.17-.38.4-.38.71s.13.54.39.7c.26.15.61.27,1.05.34l.55.11c.65.12,1.25.27,1.77.46.53.19.95.46,1.26.82.31.36.46.84.46,1.44,0,.92-.33,1.62-.99,2.11s-1.55.74-2.67.74Z"/><path class="cls-1" d="M290.09,389.79c-.37,0-.69-.12-.95-.37-.27-.24-.4-.57-.4-.97s.13-.73.4-.97c.27-.24.59-.37.95-.37.39,0,.72.12.97.37.26.24.38.57.38.97s-.13.73-.38.97c-.26.24-.58.37-.97.37ZM289.08,399.72v-8.81h2.05v8.81h-2.05Z"/><path class="cls-1" d="M293.3,395.35v-.27c0-.93.18-1.72.55-2.38.37-.66.86-1.16,1.48-1.52.62-.35,1.3-.53,2.03-.53.83,0,1.47.15,1.9.45.43.3.75.62.95.96h.3v-1.16h2v10.49c0,.58-.17,1.04-.5,1.38-.33.34-.78.51-1.35.51h-5.92v-1.78h5.22c.34,0,.52-.18.52-.53v-2.55h-.3c-.13.2-.31.41-.54.62-.23.21-.52.38-.89.53-.37.14-.83.21-1.39.21-.74,0-1.41-.18-2.03-.53-.62-.35-1.11-.86-1.48-1.52-.37-.66-.55-1.45-.55-2.38ZM297.94,397.97c.74,0,1.35-.23,1.84-.7.49-.47.73-1.13.73-1.97v-.18c0-.86-.24-1.52-.72-1.98-.48-.46-1.1-.7-1.85-.7s-1.35.23-1.85.7c-.49.46-.74,1.12-.74,1.98v.18c0,.84.25,1.5.74,1.97.49.47,1.11.7,1.85.7Z"/><path class="cls-1" d="M305.12,399.72v-8.81h2.02v1.23h.3c.15-.33.43-.65.84-.95.4-.3,1.02-.45,1.84-.45.68,0,1.28.15,1.8.46.52.31.93.74,1.22,1.28.29.55.44,1.19.44,1.94v5.28h-2.05v-5.12c0-.71-.18-1.25-.53-1.6-.35-.35-.85-.53-1.49-.53-.73,0-1.3.24-1.71.72-.42.48-.62,1.17-.62,2.06v4.46h-2.05Z"/><path class="cls-1" d="M319.73,399.97c-1.14,0-2.08-.25-2.82-.75-.74-.5-1.18-1.23-1.34-2.19l1.89-.48c.08.45.23.81.45,1.07.21.26.48.45.79.55.31.11.66.16,1.03.16.56,0,.98-.1,1.26-.3.28-.2.42-.46.42-.77s-.13-.56-.4-.71c-.27-.15-.67-.29-1.22-.39l-.55-.09c-.61-.12-1.16-.28-1.66-.49-.5-.21-.9-.49-1.2-.86-.3-.36-.45-.82-.45-1.38,0-.86.32-1.52.95-1.98.64-.46,1.47-.7,2.51-.7s1.8.22,2.44.66c.64.44,1.06,1.03,1.25,1.77l-1.89.57c-.1-.5-.3-.85-.62-1.06-.32-.21-.71-.31-1.18-.31s-.84.08-1.1.25c-.26.17-.38.4-.38.71s.13.54.39.7c.26.15.61.27,1.05.34l.55.11c.65.12,1.25.27,1.77.46.53.19.95.46,1.26.82.31.36.46.84.46,1.44,0,.92-.33,1.62-.99,2.11s-1.55.74-2.67.74Z"/><path class="cls-1" d="M35.43,427.28v-12.48h7.77v1.94h-5.62v3.3h5.17v1.96h-5.17v5.28h-2.16Z"/><path class="cls-1" d="M46.06,417.35c-.37,0-.69-.12-.95-.37-.27-.24-.4-.57-.4-.97s.13-.73.4-.97c.27-.24.59-.37.95-.37.39,0,.72.12.97.37.26.24.38.57.38.97s-.13.73-.38.97c-.26.24-.58.37-.97.37ZM45.04,427.28v-8.81h2.05v8.81h-2.05Z"/><path class="cls-1" d="M49.7,427.28v-8.81h2.02v1.23h.3c.15-.33.43-.65.84-.95.4-.3,1.02-.45,1.84-.45.68,0,1.28.15,1.8.46.52.31.93.74,1.22,1.28.29.55.44,1.19.44,1.94v5.28h-2.05v-5.12c0-.71-.18-1.25-.53-1.6-.35-.35-.85-.53-1.49-.53-.73,0-1.3.24-1.71.72-.42.48-.62,1.17-.62,2.06v4.46h-2.05Z"/><path class="cls-1" d="M63.39,427.53c-.62,0-1.18-.11-1.68-.33-.5-.22-.9-.54-1.19-.95-.29-.42-.44-.93-.44-1.53s.15-1.09.44-1.5c.29-.4.69-.71,1.2-.92.51-.21,1.09-.31,1.75-.31h2.55v-.53c0-.46-.14-.84-.43-1.13-.29-.29-.73-.44-1.34-.44s-1.04.14-1.35.42c-.3.28-.5.64-.6,1.08l-1.89-.62c.14-.46.37-.89.69-1.27.31-.38.73-.69,1.26-.92.52-.23,1.17-.35,1.93-.35,1.15,0,2.06.29,2.72.86.66.58.99,1.41.99,2.51v3.46c0,.36.17.53.5.53h.75v1.69h-1.44c-.43,0-.78-.11-1.05-.32s-.41-.51-.41-.87v-.04h-.3c-.07.17-.2.37-.37.61-.18.24-.45.44-.81.62-.36.17-.85.26-1.47.26ZM63.73,425.85c.68,0,1.23-.19,1.66-.58.43-.39.64-.91.64-1.56v-.18h-2.43c-.44,0-.8.1-1.07.29-.27.19-.41.47-.41.84s.14.65.43.86c.29.22.68.33,1.18.33Z"/><path class="cls-1" d="M70.95,427.28v-12.48h2.05v12.48h-2.05Z"/><path class="cls-1" d="M82.88,427.53c-.62,0-1.18-.11-1.68-.33-.5-.22-.9-.54-1.19-.95-.29-.42-.44-.93-.44-1.53s.15-1.09.44-1.5c.29-.4.69-.71,1.2-.92.51-.21,1.09-.31,1.75-.31h2.55v-.53c0-.46-.14-.84-.43-1.13-.29-.29-.73-.44-1.34-.44s-1.04.14-1.35.42c-.3.28-.5.64-.6,1.08l-1.89-.62c.14-.46.37-.89.69-1.27.31-.38.73-.69,1.26-.92.52-.23,1.17-.35,1.93-.35,1.15,0,2.06.29,2.72.86.66.58.99,1.41.99,2.51v3.46c0,.36.17.53.5.53h.75v1.69h-1.44c-.43,0-.78-.11-1.05-.32s-.41-.51-.41-.87v-.04h-.3c-.07.17-.2.37-.37.61-.18.24-.45.44-.81.62-.36.17-.85.26-1.47.26ZM83.22,425.85c.68,0,1.23-.19,1.66-.58.43-.39.64-.91.64-1.56v-.18h-2.43c-.44,0-.8.1-1.07.29-.27.19-.41.47-.41.84s.14.65.43.86c.29.22.68.33,1.18.33Z"/><path class="cls-1" d="M94.01,427.53c-1.14,0-2.08-.25-2.82-.75-.74-.5-1.18-1.23-1.34-2.19l1.89-.48c.08.45.23.81.45,1.07.21.26.48.45.79.55.31.11.66.16,1.03.16.56,0,.98-.1,1.26-.3.28-.2.42-.46.42-.77s-.13-.56-.4-.71c-.27-.15-.67-.29-1.22-.39l-.55-.09c-.61-.12-1.16-.28-1.66-.49-.5-.21-.9-.49-1.2-.86-.3-.36-.45-.82-.45-1.38,0-.86.32-1.52.95-1.98.64-.46,1.47-.7,2.51-.7s1.8.22,2.44.66c.64.44,1.06,1.03,1.25,1.77l-1.89.57c-.1-.5-.3-.85-.62-1.06-.32-.21-.71-.31-1.18-.31s-.84.08-1.1.25c-.26.17-.38.4-.38.71s.13.54.39.7c.26.15.61.27,1.05.34l.55.11c.65.12,1.25.27,1.77.46.53.19.95.46,1.26.82.31.36.46.84.46,1.44,0,.92-.33,1.62-.99,2.11s-1.55.74-2.67.74Z"/><path class="cls-1" d="M103.37,427.53c-1.14,0-2.08-.25-2.82-.75-.74-.5-1.18-1.23-1.34-2.19l1.89-.48c.08.45.23.81.45,1.07.21.26.48.45.79.55.31.11.66.16,1.03.16.56,0,.98-.1,1.26-.3.28-.2.42-.46.42-.77s-.13-.56-.4-.71c-.27-.15-.67-.29-1.22-.39l-.55-.09c-.61-.12-1.16-.28-1.66-.49-.5-.21-.9-.49-1.2-.86-.3-.36-.45-.82-.45-1.38,0-.86.32-1.52.95-1.98.64-.46,1.47-.7,2.51-.7s1.8.22,2.44.66c.64.44,1.06,1.03,1.25,1.77l-1.89.57c-.1-.5-.3-.85-.62-1.06-.32-.21-.71-.31-1.18-.31s-.84.08-1.1.25c-.26.17-.38.4-.38.71s.13.54.39.7c.26.15.61.27,1.05.34l.55.11c.65.12,1.25.27,1.77.46.53.19.95.46,1.26.82.31.36.46.84.46,1.44,0,.92-.33,1.62-.99,2.11s-1.55.74-2.67.74Z"/><path class="cls-1" d="M113.13,427.53c-.88,0-1.66-.19-2.33-.56-.67-.37-1.19-.9-1.57-1.59-.37-.68-.56-1.48-.56-2.4v-.21c0-.93.18-1.73.55-2.41.37-.68.89-1.2,1.55-1.58.67-.37,1.43-.56,2.3-.56s1.6.19,2.25.56c.64.37,1.14.9,1.5,1.58.36.68.54,1.47.54,2.37v.73h-6.62c.02.69.27,1.24.73,1.66.46.42,1.03.62,1.71.62s1.16-.15,1.48-.44c.32-.29.56-.62.73-.99l1.69.87c-.17.32-.41.66-.72,1.03-.31.36-.73.67-1.26.93-.52.26-1.18.38-1.98.38ZM110.75,421.91h4.51c-.05-.58-.27-1.05-.67-1.39-.4-.34-.91-.52-1.54-.52s-1.18.17-1.57.52c-.39.34-.64.81-.73,1.39Z"/><path class="cls-1" d="M122.51,427.28c-.57,0-1.03-.17-1.36-.51-.34-.34-.51-.8-.51-1.38v-5.22h-2.3v-1.69h2.3v-2.84h2.05v2.84h2.53v1.69h-2.53v4.89c0,.36.17.53.5.53h1.77v1.69h-2.44Z"/><path class="cls-1" d="M130.94,427.53c-1.14,0-2.08-.25-2.82-.75-.74-.5-1.18-1.23-1.34-2.19l1.89-.48c.08.45.23.81.45,1.07.21.26.48.45.79.55.31.11.66.16,1.03.16.56,0,.98-.1,1.26-.3.28-.2.42-.46.42-.77s-.13-.56-.4-.71c-.27-.15-.67-.29-1.22-.39l-.55-.09c-.61-.12-1.16-.28-1.66-.49-.5-.21-.9-.49-1.2-.86-.3-.36-.45-.82-.45-1.38,0-.86.32-1.52.95-1.98.64-.46,1.47-.7,2.51-.7s1.8.22,2.44.66c.64.44,1.06,1.03,1.25,1.77l-1.89.57c-.1-.5-.3-.85-.62-1.06-.32-.21-.71-.31-1.18-.31s-.84.08-1.1.25c-.26.17-.38.4-.38.71s.13.54.39.7c.26.15.61.27,1.05.34l.55.11c.65.12,1.25.27,1.77.46.53.19.95.46,1.26.82.31.36.46.84.46,1.44,0,.92-.33,1.62-.99,2.11s-1.55.74-2.67.74Z"/><path class="cls-1" d="M141.21,430.85v-12.38h2.02v1.16h.3c.2-.37.53-.7.97-.98s1.08-.43,1.92-.43c.71,0,1.38.18,1.99.53.61.35,1.1.86,1.47,1.54.37.68.55,1.49.55,2.44v.29c0,.95-.18,1.77-.55,2.44-.37.68-.86,1.19-1.46,1.54-.61.35-1.27.53-2,.53-.56,0-1.03-.07-1.4-.2-.37-.13-.68-.3-.91-.52-.23-.21-.41-.43-.54-.64h-.3v4.67h-2.05ZM145.81,425.75c.75,0,1.36-.24,1.85-.72.48-.48.72-1.17.72-2.06v-.18c0-.9-.24-1.59-.73-2.07-.49-.48-1.1-.71-1.84-.71s-1.35.24-1.85.71c-.49.48-.74,1.17-.74,2.07v.18c0,.89.25,1.58.74,2.06.49.48,1.11.72,1.85.72Z"/><path class="cls-1" d="M152.61,427.28v-8.81h2.02v1.02h.3c.13-.37.35-.64.66-.8.31-.17.68-.25,1.11-.25h1.07v1.82h-1.11c-.59,0-1.08.16-1.44.47-.37.32-.55.8-.55,1.45v5.1h-2.05Z"/><path class="cls-1" d="M163.29,427.53c-.88,0-1.66-.19-2.33-.56-.67-.37-1.19-.9-1.57-1.59-.37-.68-.56-1.48-.56-2.4v-.21c0-.93.18-1.73.55-2.41.37-.68.89-1.2,1.55-1.58.67-.37,1.43-.56,2.3-.56s1.6.19,2.25.56c.64.37,1.14.9,1.5,1.58.36.68.54,1.47.54,2.37v.73h-6.62c.02.69.27,1.24.73,1.66.46.42,1.03.62,1.71.62s1.16-.15,1.48-.44c.32-.29.56-.62.73-.99l1.69.87c-.17.32-.41.66-.72,1.03-.31.36-.73.67-1.26.93-.52.26-1.18.38-1.98.38ZM160.92,421.91h4.51c-.05-.58-.27-1.05-.67-1.39-.4-.34-.91-.52-1.54-.52s-1.18.17-1.57.52c-.39.34-.64.81-.73,1.39Z"/><path class="cls-1" d="M173.26,427.53c-1.14,0-2.08-.25-2.82-.75-.74-.5-1.18-1.23-1.34-2.19l1.89-.48c.08.45.23.81.45,1.07.21.26.48.45.79.55.31.11.66.16,1.03.16.56,0,.98-.1,1.26-.3.28-.2.42-.46.42-.77s-.13-.56-.4-.71c-.27-.15-.67-.29-1.22-.39l-.55-.09c-.61-.12-1.16-.28-1.66-.49-.5-.21-.9-.49-1.2-.86-.3-.36-.45-.82-.45-1.38,0-.86.32-1.52.95-1.98.64-.46,1.47-.7,2.51-.7s1.8.22,2.44.66c.64.44,1.06,1.03,1.25,1.77l-1.89.57c-.1-.5-.3-.85-.62-1.06-.32-.21-.71-.31-1.18-.31s-.84.08-1.1.25c-.26.17-.38.4-.38.71s.13.54.39.7c.26.15.61.27,1.05.34l.55.11c.65.12,1.25.27,1.77.46.53.19.95.46,1.26.82.31.36.46.84.46,1.44,0,.92-.33,1.62-.99,2.11s-1.55.74-2.67.74Z"/><path class="cls-1" d="M183.01,427.53c-.88,0-1.66-.19-2.33-.56-.67-.37-1.19-.9-1.57-1.59-.37-.68-.56-1.48-.56-2.4v-.21c0-.93.18-1.73.55-2.41.37-.68.89-1.2,1.55-1.58.67-.37,1.43-.56,2.3-.56s1.6.19,2.25.56c.64.37,1.14.9,1.5,1.58.36.68.54,1.47.54,2.37v.73h-6.62c.02.69.27,1.24.73,1.66.46.42,1.03.62,1.71.62s1.16-.15,1.48-.44c.32-.29.56-.62.73-.99l1.69.87c-.17.32-.41.66-.72,1.03-.31.36-.73.67-1.26.93-.52.26-1.18.38-1.98.38ZM180.64,421.91h4.51c-.05-.58-.27-1.05-.67-1.39-.4-.34-.91-.52-1.54-.52s-1.18.17-1.57.52c-.39.34-.64.81-.73,1.39Z"/><path class="cls-1" d="M189.34,427.28v-8.81h2.02v1.23h.3c.15-.33.43-.65.84-.95.4-.3,1.02-.45,1.84-.45.68,0,1.28.15,1.8.46.52.31.93.74,1.22,1.28.29.55.44,1.19.44,1.94v5.28h-2.05v-5.12c0-.71-.18-1.25-.53-1.6-.35-.35-.85-.53-1.49-.53-.73,0-1.3.24-1.71.72-.42.48-.62,1.17-.62,2.06v4.46h-2.05Z"/><path class="cls-1" d="M203.41,427.28c-.57,0-1.03-.17-1.36-.51-.34-.34-.51-.8-.51-1.38v-5.22h-2.3v-1.69h2.3v-2.84h2.05v2.84h2.53v1.69h-2.53v4.89c0,.36.17.53.5.53h1.77v1.69h-2.44Z"/><path class="cls-1" d="M210.92,427.53c-.62,0-1.18-.11-1.68-.33-.5-.22-.9-.54-1.19-.95-.29-.42-.44-.93-.44-1.53s.15-1.09.44-1.5c.29-.4.69-.71,1.2-.92.51-.21,1.09-.31,1.75-.31h2.55v-.53c0-.46-.14-.84-.43-1.13-.29-.29-.73-.44-1.34-.44s-1.04.14-1.35.42c-.3.28-.5.64-.6,1.08l-1.89-.62c.14-.46.37-.89.69-1.27.31-.38.73-.69,1.26-.92.52-.23,1.17-.35,1.93-.35,1.15,0,2.06.29,2.72.86.66.58.99,1.41.99,2.51v3.46c0,.36.17.53.5.53h.75v1.69h-1.44c-.43,0-.78-.11-1.05-.32s-.41-.51-.41-.87v-.04h-.3c-.07.17-.2.37-.37.61-.18.24-.45.44-.81.62-.36.17-.85.26-1.47.26ZM211.26,425.85c.68,0,1.23-.19,1.66-.58.43-.39.64-.91.64-1.56v-.18h-2.43c-.44,0-.8.1-1.07.29-.27.19-.41.47-.41.84s.14.65.43.86c.29.22.68.33,1.18.33Z"/><path class="cls-1" d="M221.21,427.28c-.57,0-1.03-.17-1.36-.51-.34-.34-.51-.8-.51-1.38v-5.22h-2.3v-1.69h2.3v-2.84h2.05v2.84h2.53v1.69h-2.53v4.89c0,.36.17.53.5.53h1.77v1.69h-2.44Z"/><path class="cls-1" d="M227.02,417.35c-.37,0-.69-.12-.95-.37-.27-.24-.4-.57-.4-.97s.13-.73.4-.97c.27-.24.59-.37.95-.37.39,0,.72.12.97.37.26.24.38.57.38.97s-.13.73-.38.97c-.26.24-.58.37-.97.37ZM226,427.28v-8.81h2.05v8.81h-2.05Z"/><path class="cls-1" d="M234.83,427.53c-.88,0-1.67-.18-2.36-.54-.7-.36-1.24-.88-1.64-1.55-.4-.67-.6-1.48-.6-2.42v-.29c0-.94.2-1.75.6-2.43.4-.68.95-1.19,1.64-1.55.7-.36,1.48-.53,2.36-.53s1.66.18,2.35.53c.69.36,1.23.87,1.63,1.55.4.68.6,1.49.6,2.43v.29c0,.94-.2,1.74-.6,2.42-.4.67-.94,1.19-1.63,1.55-.69.36-1.47.54-2.35.54ZM234.83,425.71c.75,0,1.36-.24,1.84-.72.48-.48.71-1.16.71-2.02v-.18c0-.87-.24-1.54-.71-2.02-.48-.48-1.09-.72-1.84-.72s-1.36.24-1.84.72c-.48.48-.71,1.16-.71,2.02v.18c0,.87.24,1.54.71,2.02.48.48,1.09.72,1.84.72Z"/><path class="cls-1" d="M241.59,427.28v-8.81h2.02v1.23h.3c.15-.33.43-.65.84-.95.4-.3,1.02-.45,1.84-.45.68,0,1.28.15,1.8.46.52.31.93.74,1.22,1.28.29.55.44,1.19.44,1.94v5.28h-2.05v-5.12c0-.71-.18-1.25-.53-1.6-.35-.35-.85-.53-1.49-.53-.73,0-1.3.24-1.71.72-.42.48-.62,1.17-.62,2.06v4.46h-2.05Z"/><path class="cls-1" d="M34.56,454.84l3.42-12.48h3.73l3.42,12.48h-2.21l-.75-2.85h-4.65l-.75,2.85h-2.21ZM38.02,450.02h3.66l-1.68-6.33h-.3l-1.68,6.33Z"/><path class="cls-1" d="M50.43,455.09c-1.14,0-2.08-.25-2.82-.75-.74-.5-1.18-1.23-1.34-2.19l1.89-.48c.08.45.23.81.45,1.07.21.26.48.45.79.55.31.11.66.16,1.03.16.56,0,.98-.1,1.26-.3.28-.2.42-.46.42-.77s-.13-.56-.4-.71c-.27-.15-.67-.29-1.22-.39l-.55-.09c-.61-.12-1.16-.28-1.66-.49-.5-.21-.9-.49-1.2-.86-.3-.36-.45-.82-.45-1.38,0-.86.32-1.52.95-1.98.64-.46,1.47-.7,2.51-.7s1.8.22,2.44.66c.64.44,1.06,1.03,1.25,1.77l-1.89.57c-.1-.5-.3-.85-.62-1.06-.32-.21-.71-.31-1.18-.31s-.84.08-1.1.25c-.26.17-.38.4-.38.71s.13.54.39.7c.26.15.61.27,1.05.34l.55.11c.65.12,1.25.27,1.77.46.53.19.95.46,1.26.82.31.36.46.84.46,1.44,0,.92-.33,1.62-.99,2.11s-1.55.74-2.67.74Z"/><path class="cls-1" d="M59.79,455.09c-1.14,0-2.08-.25-2.82-.75-.74-.5-1.18-1.23-1.34-2.19l1.89-.48c.08.45.23.81.45,1.07.21.26.48.45.79.55.31.11.66.16,1.03.16.56,0,.98-.1,1.26-.3.28-.2.42-.46.42-.77s-.13-.56-.4-.71c-.27-.15-.67-.29-1.22-.39l-.55-.09c-.61-.12-1.16-.28-1.66-.49-.5-.21-.9-.49-1.2-.86-.3-.36-.45-.82-.45-1.38,0-.86.32-1.52.95-1.98.64-.46,1.47-.7,2.51-.7s1.8.22,2.44.66c.64.44,1.06,1.03,1.25,1.77l-1.89.57c-.1-.5-.3-.85-.62-1.06-.32-.21-.71-.31-1.18-.31s-.84.08-1.1.25c-.26.17-.38.4-.38.71s.13.54.39.7c.26.15.61.27,1.05.34l.55.11c.65.12,1.25.27,1.77.46.53.19.95.46,1.26.82.31.36.46.84.46,1.44,0,.92-.33,1.62-.99,2.11s-1.55.74-2.67.74Z"/><path class="cls-1" d="M69.55,455.09c-.88,0-1.66-.19-2.33-.56-.67-.37-1.19-.9-1.57-1.59-.37-.68-.56-1.48-.56-2.4v-.21c0-.93.18-1.73.55-2.41.37-.68.89-1.2,1.55-1.58.67-.37,1.43-.56,2.3-.56s1.6.19,2.25.56c.64.37,1.14.9,1.5,1.58.36.68.54,1.47.54,2.37v.73h-6.62c.02.69.27,1.24.73,1.66.46.42,1.03.62,1.71.62s1.16-.15,1.48-.44c.32-.29.56-.62.73-.99l1.69.87c-.17.32-.41.66-.72,1.03-.31.36-.73.67-1.26.93-.52.26-1.18.38-1.98.38ZM67.17,449.47h4.51c-.05-.58-.27-1.05-.67-1.39-.4-.34-.91-.52-1.54-.52s-1.18.17-1.57.52c-.39.34-.64.81-.73,1.39Z"/><path class="cls-1" d="M78.92,454.84c-.57,0-1.03-.17-1.36-.51-.34-.34-.51-.8-.51-1.38v-5.22h-2.3v-1.69h2.3v-2.84h2.05v2.84h2.53v1.69h-2.53v4.89c0,.36.17.53.5.53h1.77v1.69h-2.44Z"/><path class="cls-1" d="M91,455.09c-.62,0-1.18-.11-1.68-.33-.5-.22-.9-.54-1.19-.95-.29-.42-.44-.93-.44-1.53s.15-1.09.44-1.5c.29-.4.69-.71,1.2-.92.51-.21,1.09-.31,1.75-.31h2.55v-.53c0-.46-.14-.84-.43-1.13-.29-.29-.73-.44-1.34-.44s-1.04.14-1.35.42c-.3.28-.5.64-.6,1.08l-1.89-.62c.14-.46.37-.89.69-1.27.31-.38.73-.69,1.26-.92.52-.23,1.17-.35,1.93-.35,1.15,0,2.06.29,2.72.86.66.58.99,1.41.99,2.51v3.46c0,.36.17.53.5.53h.75v1.69h-1.44c-.43,0-.78-.11-1.05-.32s-.41-.51-.41-.87v-.04h-.3c-.07.17-.2.37-.37.61-.18.24-.45.44-.81.62-.36.17-.85.26-1.47.26ZM91.34,453.41c.68,0,1.23-.19,1.66-.58.43-.39.64-.91.64-1.56v-.18h-2.43c-.44,0-.8.1-1.07.29-.27.19-.41.47-.41.84s.14.65.43.86c.29.22.68.33,1.18.33Z"/><path class="cls-1" d="M101.96,455.09c-.71,0-1.38-.18-2-.53-.62-.35-1.11-.86-1.48-1.54-.37-.68-.55-1.49-.55-2.44v-.29c0-.95.18-1.77.55-2.44.37-.68.86-1.19,1.47-1.54.61-.35,1.28-.53,2.01-.53.55,0,1.01.07,1.39.2.38.13.69.3.92.5.23.2.41.42.54.66h.3v-4.78h2.03v12.48h-2v-1.16h-.3c-.21.36-.54.68-.98.97-.44.29-1.08.44-1.91.44ZM102.57,453.3c.74,0,1.35-.24,1.84-.72.49-.48.73-1.17.73-2.06v-.18c0-.9-.24-1.59-.72-2.07-.48-.48-1.1-.71-1.85-.71s-1.35.24-1.85.71c-.49.48-.74,1.17-.74,2.07v.18c0,.89.25,1.58.74,2.06.49.48,1.11.72,1.85.72Z"/><path class="cls-1" d="M112.48,455.09c-.62,0-1.18-.11-1.68-.33-.5-.22-.9-.54-1.19-.95-.29-.42-.44-.93-.44-1.53s.15-1.09.44-1.5c.29-.4.69-.71,1.2-.92.51-.21,1.09-.31,1.75-.31h2.55v-.53c0-.46-.14-.84-.43-1.13-.29-.29-.73-.44-1.34-.44s-1.04.14-1.35.42c-.3.28-.5.64-.6,1.08l-1.89-.62c.14-.46.37-.89.69-1.27.31-.38.73-.69,1.26-.92.52-.23,1.17-.35,1.93-.35,1.15,0,2.06.29,2.72.86.66.58.99,1.41.99,2.51v3.46c0,.36.17.53.5.53h.75v1.69h-1.44c-.43,0-.78-.11-1.05-.32s-.41-.51-.41-.87v-.04h-.3c-.07.17-.2.37-.37.61-.18.24-.45.44-.81.62-.36.17-.85.26-1.47.26ZM112.82,453.41c.68,0,1.23-.19,1.66-.58.43-.39.64-.91.64-1.56v-.18h-2.43c-.44,0-.8.1-1.07.29-.27.19-.41.47-.41.84s.14.65.43.86c.29.22.68.33,1.18.33Z"/><path class="cls-1" d="M120.05,458.4v-12.38h2.02v1.16h.3c.2-.37.53-.7.97-.98s1.08-.43,1.92-.43c.71,0,1.38.18,1.99.53.61.35,1.1.86,1.47,1.54.37.68.55,1.49.55,2.44v.29c0,.95-.18,1.77-.55,2.44-.37.68-.86,1.19-1.46,1.54-.61.35-1.27.53-2,.53-.56,0-1.03-.07-1.4-.2-.37-.13-.68-.3-.91-.52-.23-.21-.41-.43-.54-.64h-.3v4.67h-2.05ZM124.65,453.3c.75,0,1.36-.24,1.85-.72.48-.48.72-1.17.72-2.06v-.18c0-.9-.24-1.59-.73-2.07-.49-.48-1.1-.71-1.84-.71s-1.35.24-1.85.71c-.49.48-.74,1.17-.74,2.07v.18c0,.89.25,1.58.74,2.06.49.48,1.11.72,1.85.72Z"/><path class="cls-1" d="M134.49,454.84c-.57,0-1.03-.17-1.36-.51-.34-.34-.51-.8-.51-1.38v-5.22h-2.3v-1.69h2.3v-2.84h2.05v2.84h2.53v1.69h-2.53v4.89c0,.36.17.53.5.53h1.77v1.69h-2.44Z"/><path class="cls-1" d="M142,455.09c-.62,0-1.18-.11-1.68-.33-.5-.22-.9-.54-1.19-.95-.29-.42-.44-.93-.44-1.53s.15-1.09.44-1.5c.29-.4.69-.71,1.2-.92.51-.21,1.09-.31,1.75-.31h2.55v-.53c0-.46-.14-.84-.43-1.13-.29-.29-.73-.44-1.34-.44s-1.04.14-1.35.42c-.3.28-.5.64-.6,1.08l-1.89-.62c.14-.46.37-.89.69-1.27.31-.38.73-.69,1.26-.92.52-.23,1.17-.35,1.93-.35,1.15,0,2.06.29,2.72.86.66.58.99,1.41.99,2.51v3.46c0,.36.17.53.5.53h.75v1.69h-1.44c-.43,0-.78-.11-1.05-.32s-.41-.51-.41-.87v-.04h-.3c-.07.17-.2.37-.37.61-.18.24-.45.44-.81.62-.36.17-.85.26-1.47.26ZM142.34,453.41c.68,0,1.23-.19,1.66-.58.43-.39.64-.91.64-1.56v-.18h-2.43c-.44,0-.8.1-1.07.29-.27.19-.41.47-.41.84s.14.65.43.86c.29.22.68.33,1.18.33Z"/><path class="cls-1" d="M152.29,454.84c-.57,0-1.03-.17-1.36-.51-.34-.34-.51-.8-.51-1.38v-5.22h-2.3v-1.69h2.3v-2.84h2.05v2.84h2.53v1.69h-2.53v4.89c0,.36.17.53.5.53h1.77v1.69h-2.44Z"/><path class="cls-1" d="M158.1,444.91c-.37,0-.69-.12-.95-.37-.27-.24-.4-.57-.4-.97s.13-.73.4-.97c.27-.24.59-.37.95-.37.39,0,.72.12.97.37.26.24.38.57.38.97s-.13.73-.38.97c-.26.24-.58.37-.97.37ZM157.08,454.84v-8.81h2.05v8.81h-2.05Z"/><path class="cls-1" d="M165.91,455.09c-.88,0-1.67-.18-2.36-.54-.7-.36-1.24-.88-1.64-1.55-.4-.67-.6-1.48-.6-2.42v-.29c0-.94.2-1.75.6-2.43.4-.68.95-1.19,1.64-1.55.7-.36,1.48-.53,2.36-.53s1.66.18,2.35.53c.69.36,1.23.87,1.63,1.55.4.68.6,1.49.6,2.43v.29c0,.94-.2,1.74-.6,2.42-.4.67-.94,1.19-1.63,1.55-.69.36-1.47.54-2.35.54ZM165.91,453.27c.75,0,1.36-.24,1.84-.72.48-.48.71-1.16.71-2.02v-.18c0-.87-.24-1.54-.71-2.02-.48-.48-1.09-.72-1.84-.72s-1.36.24-1.84.72c-.48.48-.71,1.16-.71,2.02v.18c0,.87.24,1.54.71,2.02.48.48,1.09.72,1.84.72Z"/><path class="cls-1" d="M172.67,454.84v-8.81h2.02v1.23h.3c.15-.33.43-.65.84-.95.4-.3,1.02-.45,1.84-.45.68,0,1.28.15,1.8.46.52.31.93.74,1.22,1.28.29.55.44,1.19.44,1.94v5.28h-2.05v-5.12c0-.71-.18-1.25-.53-1.6-.35-.35-.85-.53-1.49-.53-.73,0-1.3.24-1.71.72-.42.48-.62,1.17-.62,2.06v4.46h-2.05Z"/><path class="cls-1" d="M187.27,455.09c-1.14,0-2.08-.25-2.82-.75-.74-.5-1.18-1.23-1.34-2.19l1.89-.48c.08.45.23.81.45,1.07.21.26.48.45.79.55.31.11.66.16,1.03.16.56,0,.98-.1,1.26-.3.28-.2.42-.46.42-.77s-.13-.56-.4-.71c-.27-.15-.67-.29-1.22-.39l-.55-.09c-.61-.12-1.16-.28-1.66-.49-.5-.21-.9-.49-1.2-.86-.3-.36-.45-.82-.45-1.38,0-.86.32-1.52.95-1.98.64-.46,1.47-.7,2.51-.7s1.8.22,2.44.66c.64.44,1.06,1.03,1.25,1.77l-1.89.57c-.1-.5-.3-.85-.62-1.06-.32-.21-.71-.31-1.18-.31s-.84.08-1.1.25c-.26.17-.38.4-.38.71s.13.54.39.7c.26.15.61.27,1.05.34l.55.11c.65.12,1.25.27,1.77.46.53.19.95.46,1.26.82.31.36.46.84.46,1.44,0,.92-.33,1.62-.99,2.11s-1.55.74-2.67.74Z"/><path class="cls-5" d="M19.28,364.75l-7.02,7.02c-.52.52-1.36.52-1.88,0l-3.63-3.63c-.52-.52-.52-1.36,0-1.88.52-.52,1.36-.52,1.88,0l2.68,2.68,6.08-6.08c.52-.52,1.36-.52,1.88,0,.52.52.52,1.36,0,1.88Z"/><path class="cls-8" d="M19.28,392.31l-7.02,7.02c-.52.52-1.36.52-1.88,0l-3.63-3.63c-.52-.52-.52-1.36,0-1.88.52-.52,1.36-.52,1.88,0l2.68,2.68,6.08-6.08c.52-.52,1.36-.52,1.88,0,.52.52.52,1.36,0,1.88Z"/><path class="cls-2" d="M19.28,419.86l-7.02,7.02c-.52.52-1.36.52-1.88,0l-3.63-3.63c-.52-.52-.52-1.36,0-1.88.52-.52,1.36-.52,1.88,0l2.68,2.68,6.08-6.08c.52-.52,1.36-.52,1.88,0,.52.52.52,1.36,0,1.88Z"/><path class="cls-4" d="M19.28,447.42l-7.02,7.02c-.52.52-1.36.52-1.88,0l-3.63-3.63c-.52-.52-.52-1.36,0-1.88.52-.52,1.36-.52,1.88,0l2.68,2.68,6.08-6.08c.52-.52,1.36-.52,1.88,0,.52.52.52,1.36,0,1.88Z"/><circle class="cls-7" cx="9.31" cy="5.2" r="5.2"/><circle class="cls-7" cx="32.95" cy="5.2" r="5.2"/><circle class="cls-7" cx="56.59" cy="5.2" r="5.2"/></g></svg>